<svg xmlns="http://www.w3.org/2000/svg" width="1800" height="2500" viewBox="0 0 1800 2500">
  <defs>
    <linearGradient id="bg" x1="0" y1="0" x2="0" y2="1"><stop offset="0%" stop-color="#d9e8f2"/><stop offset="58%" stop-color="#eef6fa"/><stop offset="100%" stop-color="#d7dde2"/></linearGradient>
    <filter id="softShadow" x="-10%" y="-10%" width="120%" height="120%"><feDropShadow dx="0" dy="8" stdDeviation="10" flood-color="#6d7f8a" flood-opacity="0.16"/></filter>
  </defs>
  <rect width="100%" height="100%" fill="url(#bg)"/>
  <circle cx="1450" cy="310" r="500" fill="#ffffff" opacity="0.18"/>
  <circle cx="260" cy="2140" r="620" fill="#ffffff" opacity="0.20"/>
  <text x="900" y="70" text-anchor="middle" font-family="Arial, sans-serif" font-size="48" font-weight="800" fill="#202124">Ibbenbüren — Gesamtstadt</text>
  <text x="900" y="112" text-anchor="middle" font-family="Arial, sans-serif" font-size="22" fill="#4b5055">Alle erfassten PLZ — gelöschte Rezensionen wegen „Diffamierung“</text>
  <text x="900" y="160" text-anchor="middle" font-family="Arial, sans-serif" font-size="18" fill="#6f7377">11.115 Orte erfasst · 586 mit sichtbarem Banner (5,3%) · 7 in der „Über“-Stufe</text><g><text x="80" y="230" font-family="Arial, sans-serif" font-size="27" font-weight="800" fill="#202124">1. Höchste Lösch-Quote</text><text x="80" y="260" font-family="Arial, sans-serif" font-size="16" fill="#6f7377">Anteil gelöschter Rezensionen</text><rect x="80" y="322" width="470" height="1104" fill="#ffffff" opacity="0.96" filter="url(#softShadow)"/><line x1="114.0" y1="322" x2="114.0" y2="1406.0" stroke="#dde3e8" stroke-width="1"/><line x1="214.5" y1="322" x2="214.5" y2="1406.0" stroke="#dde3e8" stroke-width="1"/><line x1="315.0" y1="322" x2="315.0" y2="1406.0" stroke="#dde3e8" stroke-width="1"/><line x1="415.5" y1="322" x2="415.5" y2="1406.0" stroke="#dde3e8" stroke-width="1"/><line x1="516.0" y1="322" x2="516.0" y2="1406.0" stroke="#dde3e8" stroke-width="1"/><text x="72" y="361.0" text-anchor="end" font-family="Arial, sans-serif" font-size="13" fill="#83888d">1.</text><text x="114" y="342.0" font-family="Arial, sans-serif" font-size="14" fill="#202124">MOTOG GmbH</text><rect x="114" y="346.0" width="402.0" height="18" fill="#c9332c"/><text x="524.0" y="361.0" font-family="Arial, sans-serif" font-size="13" fill="#202124">50,0%  (6–10 von 8)</text><text x="72" y="397.0" text-anchor="end" font-family="Arial, sans-serif" font-size="13" fill="#83888d">2.</text><text x="114" y="378.0" font-family="Arial, sans-serif" font-size="14" fill="#202124">Bel Air</text><rect x="114" y="382.0" width="379.7" height="18" fill="#c9332c"/><text x="501.7" y="397.0" font-family="Arial, sans-serif" font-size="13" fill="#202124">47,2%  (201–250 von 252)</text><text x="72" y="433.0" text-anchor="end" font-family="Arial, sans-serif" font-size="13" fill="#83888d">3.</text><text x="114" y="414.0" font-family="Arial, sans-serif" font-size="14" fill="#202124">Studio Royal Osnabrück</text><rect x="114" y="418.0" width="375.2" height="18" fill="#c9332c"/><text x="497.2" y="433.0" font-family="Arial, sans-serif" font-size="13" fill="#202124">46,7%  (2–5 von 4)</text><text x="72" y="469.0" text-anchor="end" font-family="Arial, sans-serif" font-size="13" fill="#83888d">4.</text><text x="114" y="450.0" font-family="Arial, sans-serif" font-size="14" fill="#202124">Pizzakurier</text><rect x="114" y="454.0" width="346.0" height="18" fill="#c9332c"/><text x="468.0" y="469.0" font-family="Arial, sans-serif" font-size="13" fill="#202124">43,0%  (21–50 von 47)</text><text x="72" y="505.0" text-anchor="end" font-family="Arial, sans-serif" font-size="13" fill="#83888d">5.</text><text x="114" y="486.0" font-family="Arial, sans-serif" font-size="14" fill="#202124">Appart Hotel</text><rect x="114" y="490.0" width="323.7" height="18" fill="#c9332c"/><text x="445.7" y="505.0" font-family="Arial, sans-serif" font-size="13" fill="#202124">40,3%  (11–20 von 23)</text><text x="72" y="541.0" text-anchor="end" font-family="Arial, sans-serif" font-size="13" fill="#83888d">6.</text><text x="114" y="522.0" font-family="Arial, sans-serif" font-size="14" fill="#202124">Markt Grill</text><rect x="114" y="526.0" width="321.6" height="18" fill="#c9332c"/><text x="443.6" y="541.0" font-family="Arial, sans-serif" font-size="13" fill="#202124">40,0%  (6–10 von 12)</text><text x="72" y="577.0" text-anchor="end" font-family="Arial, sans-serif" font-size="13" fill="#83888d">7.</text><text x="114" y="558.0" font-family="Arial, sans-serif" font-size="14" fill="#202124">AutoCenter Haster Mühle</text><rect x="114" y="562.0" width="312.0" height="18" fill="#c9332c"/><text x="434.0" y="577.0" font-family="Arial, sans-serif" font-size="13" fill="#202124">38,8%  (21–50 von 56)</text><text x="72" y="613.0" text-anchor="end" font-family="Arial, sans-serif" font-size="13" fill="#83888d">8.</text><text x="114" y="594.0" font-family="Arial, sans-serif" font-size="14" fill="#202124">Fachärzte Urologie Rheine</text><rect x="114" y="598.0" width="307.7" height="18" fill="#c9332c"/><text x="429.7" y="613.0" font-family="Arial, sans-serif" font-size="13" fill="#202124">38,3%  (11–20 von 25)</text><text x="72" y="649.0" text-anchor="end" font-family="Arial, sans-serif" font-size="13" fill="#83888d">9.</text><text x="114" y="630.0" font-family="Arial, sans-serif" font-size="14" fill="#202124">Der Holländer</text><rect x="114" y="634.0" width="300.3" height="18" fill="#c9332c"/><text x="422.3" y="649.0" font-family="Arial, sans-serif" font-size="13" fill="#202124">37,4%  (11–20 von 26)</text><text x="72" y="685.0" text-anchor="end" font-family="Arial, sans-serif" font-size="13" fill="#83888d">10.</text><text x="114" y="666.0" font-family="Arial, sans-serif" font-size="14" fill="#202124">Sultis Kebab im Marktkauf</text><rect x="114" y="670.0" width="279.6" height="18" fill="#c9332c"/><text x="401.6" y="685.0" font-family="Arial, sans-serif" font-size="13" fill="#202124">34,8%  (6–10 von 15)</text><text x="72" y="721.0" text-anchor="end" font-family="Arial, sans-serif" font-size="13" fill="#83888d">11.</text><text x="114" y="702.0" font-family="Arial, sans-serif" font-size="14" fill="#202124">Pavillon Grillmaster</text><rect x="114" y="706.0" width="260.4" height="18" fill="#c9332c"/><text x="382.4" y="721.0" font-family="Arial, sans-serif" font-size="13" fill="#202124">32,4%  (101–150 von 262)</text><text x="72" y="757.0" text-anchor="end" font-family="Arial, sans-serif" font-size="13" fill="#83888d">12.</text><text x="114" y="738.0" font-family="Arial, sans-serif" font-size="14" fill="#202124">PHYSIO+ Hiltrup</text><rect x="114" y="742.0" width="257.3" height="18" fill="#c9332c"/><text x="379.3" y="757.0" font-family="Arial, sans-serif" font-size="13" fill="#202124">32,0%  (6–10 von 17)</text><text x="72" y="793.0" text-anchor="end" font-family="Arial, sans-serif" font-size="13" fill="#83888d">13.</text><text x="114" y="774.0" font-family="Arial, sans-serif" font-size="14" fill="#202124">Hotel Villa Luise</text><rect x="114" y="778.0" width="251.7" height="18" fill="#c9332c"/><text x="373.7" y="793.0" font-family="Arial, sans-serif" font-size="13" fill="#202124">31,3%  (11–20 von 34)</text><text x="72" y="829.0" text-anchor="end" font-family="Arial, sans-serif" font-size="13" fill="#83888d">14.</text><text x="114" y="810.0" font-family="Arial, sans-serif" font-size="14" fill="#202124">simpleXfuture GmbH</text><rect x="114" y="814.0" width="247.4" height="18" fill="#c9332c"/><text x="369.4" y="829.0" font-family="Arial, sans-serif" font-size="13" fill="#202124">30,8%  (6–10 von 18)</text><text x="72" y="865.0" text-anchor="end" font-family="Arial, sans-serif" font-size="13" fill="#83888d">15.</text><text x="114" y="846.0" font-family="Arial, sans-serif" font-size="14" fill="#202124">Xsports Fitness Georgsmarienhütte</text><rect x="114" y="850.0" width="247.1" height="18" fill="#c9332c"/><text x="369.1" y="865.0" font-family="Arial, sans-serif" font-size="13" fill="#202124">30,7%  (21–50 von 80)</text><text x="72" y="901.0" text-anchor="end" font-family="Arial, sans-serif" font-size="13" fill="#83888d">16.</text><text x="114" y="882.0" font-family="Arial, sans-serif" font-size="14" fill="#202124">Lorenz &amp; Schlotmann KIDS Club</text><rect x="114" y="886.0" width="244.7" height="18" fill="#c9332c"/><text x="366.7" y="901.0" font-family="Arial, sans-serif" font-size="13" fill="#202124">30,4%  (2–5 von 8)</text><text x="72" y="937.0" text-anchor="end" font-family="Arial, sans-serif" font-size="13" fill="#83888d">17.</text><text x="114" y="918.0" font-family="Arial, sans-serif" font-size="14" fill="#202124">Brücks</text><rect x="114" y="922.0" width="244.5" height="18" fill="#c9332c"/><text x="366.5" y="937.0" font-family="Arial, sans-serif" font-size="13" fill="#202124">30,4%  (201–250 von 516)</text><text x="72" y="973.0" text-anchor="end" font-family="Arial, sans-serif" font-size="13" fill="#83888d">18.</text><text x="114" y="954.0" font-family="Arial, sans-serif" font-size="14" fill="#202124">Hotel Horstmann</text><rect x="114" y="958.0" width="242.9" height="18" fill="#c9332c"/><text x="364.9" y="973.0" font-family="Arial, sans-serif" font-size="13" fill="#202124">30,2%  (21–50 von 82)</text><text x="72" y="1009.0" text-anchor="end" font-family="Arial, sans-serif" font-size="13" fill="#83888d">19.</text><text x="114" y="990.0" font-family="Arial, sans-serif" font-size="14" fill="#202124">Kochlöffel</text><rect x="114" y="994.0" width="240.6" height="18" fill="#c9332c"/><text x="362.6" y="1009.0" font-family="Arial, sans-serif" font-size="13" fill="#202124">29,9%  (151–200 von 411)</text><text x="72" y="1045.0" text-anchor="end" font-family="Arial, sans-serif" font-size="13" fill="#83888d">20.</text><text x="114" y="1026.0" font-family="Arial, sans-serif" font-size="14" fill="#202124">Dila KEBAPHAUS</text><rect x="114" y="1030.0" width="231.2" height="18" fill="#c9332c"/><text x="353.2" y="1045.0" font-family="Arial, sans-serif" font-size="13" fill="#202124">28,8%  (51–100 von 187)</text><text x="72" y="1081.0" text-anchor="end" font-family="Arial, sans-serif" font-size="13" fill="#83888d">21.</text><text x="114" y="1062.0" font-family="Arial, sans-serif" font-size="14" fill="#202124">Kochlöffel</text><rect x="114" y="1066.0" width="228.7" height="18" fill="#c9332c"/><text x="350.7" y="1081.0" font-family="Arial, sans-serif" font-size="13" fill="#202124">28,4%  (51–100 von 190)</text><text x="72" y="1117.0" text-anchor="end" font-family="Arial, sans-serif" font-size="13" fill="#83888d">22.</text><text x="114" y="1098.0" font-family="Arial, sans-serif" font-size="14" fill="#202124">Vela Pilates - Reformer Studio Münster Stadt</text><rect x="114" y="1102.0" width="225.1" height="18" fill="#c9332c"/><text x="347.1" y="1117.0" font-family="Arial, sans-serif" font-size="13" fill="#202124">28,0%  (2–5 von 9)</text><text x="72" y="1153.0" text-anchor="end" font-family="Arial, sans-serif" font-size="13" fill="#83888d">23.</text><text x="114" y="1134.0" font-family="Arial, sans-serif" font-size="14" fill="#202124">La Viola</text><rect x="114" y="1138.0" width="214.9" height="18" fill="#c9332c"/><text x="336.9" y="1153.0" font-family="Arial, sans-serif" font-size="13" fill="#202124">26,7%  (51–100 von 207)</text><text x="72" y="1189.0" text-anchor="end" font-family="Arial, sans-serif" font-size="13" fill="#83888d">24.</text><text x="114" y="1170.0" font-family="Arial, sans-serif" font-size="14" fill="#202124">L99 Restaurant &amp; Weinbar</text><rect x="114" y="1174.0" width="214.4" height="18" fill="#c9332c"/><text x="336.4" y="1189.0" font-family="Arial, sans-serif" font-size="13" fill="#202124">26,7%  (6–10 von 22)</text><text x="72" y="1225.0" text-anchor="end" font-family="Arial, sans-serif" font-size="13" fill="#83888d">25.</text><text x="114" y="1206.0" font-family="Arial, sans-serif" font-size="14" fill="#202124">Aroma Restaurant Ocakbasi Holzkohlegrill Osn…</text><rect x="114" y="1210.0" width="209.5" height="18" fill="#c9332c"/><text x="331.5" y="1225.0" font-family="Arial, sans-serif" font-size="13" fill="#202124">26,1%  (über 250 von 851)</text><text x="72" y="1261.0" text-anchor="end" font-family="Arial, sans-serif" font-size="13" fill="#83888d">26.</text><text x="114" y="1242.0" font-family="Arial, sans-serif" font-size="14" fill="#202124">NG Medien</text><rect x="114" y="1246.0" width="208.5" height="18" fill="#c9332c"/><text x="330.5" y="1261.0" font-family="Arial, sans-serif" font-size="13" fill="#202124">25,9%  (2–5 von 10)</text><text x="72" y="1297.0" text-anchor="end" font-family="Arial, sans-serif" font-size="13" fill="#83888d">27.</text><text x="114" y="1278.0" font-family="Arial, sans-serif" font-size="14" fill="#202124">Pension JuRa Gronau - Monteurzimmer / Unterk…</text><rect x="114" y="1282.0" width="207.5" height="18" fill="#c9332c"/><text x="329.5" y="1297.0" font-family="Arial, sans-serif" font-size="13" fill="#202124">25,8%  (6–10 von 23)</text><text x="72" y="1333.0" text-anchor="end" font-family="Arial, sans-serif" font-size="13" fill="#83888d">28.</text><text x="114" y="1314.0" font-family="Arial, sans-serif" font-size="14" fill="#202124">Eiscafé Toscani</text><rect x="114" y="1318.0" width="206.5" height="18" fill="#c9332c"/><text x="328.5" y="1333.0" font-family="Arial, sans-serif" font-size="13" fill="#202124">25,7%  (über 250 von 868)</text><text x="72" y="1369.0" text-anchor="end" font-family="Arial, sans-serif" font-size="13" fill="#83888d">29.</text><text x="114" y="1350.0" font-family="Arial, sans-serif" font-size="14" fill="#202124">Munchiiiz (Imbiss Freibad Stapelskotten)</text><rect x="114" y="1354.0" width="201.0" height="18" fill="#c9332c"/><text x="323.0" y="1369.0" font-family="Arial, sans-serif" font-size="13" fill="#202124">25,0%  (1 von 3)</text><text x="72" y="1405.0" text-anchor="end" font-family="Arial, sans-serif" font-size="13" fill="#83888d">30.</text><text x="114" y="1386.0" font-family="Arial, sans-serif" font-size="14" fill="#202124">Club Konzepte</text><rect x="114" y="1390.0" width="201.0" height="18" fill="#c9332c"/><text x="323.0" y="1405.0" font-family="Arial, sans-serif" font-size="13" fill="#202124">25,0%  (1 von 3)</text><text x="315" y="1444.0" text-anchor="middle" font-family="Arial, sans-serif" font-size="13" fill="#6f7377">Lösch-Quote (%) · Top 30</text></g><g><text x="665" y="230" font-family="Arial, sans-serif" font-size="27" font-weight="800" fill="#202124">2. Schlechtestes „echtes“ Rating</text><text x="665" y="260" font-family="Arial, sans-serif" font-size="16" fill="#6f7377">Modell: gelöschte Rezensionen waren 1★</text><rect x="665" y="322" width="470" height="1104" fill="#ffffff" opacity="0.96" filter="url(#softShadow)"/><line x1="699.0" y1="322" x2="699.0" y2="1406.0" stroke="#dde3e8" stroke-width="1"/><line x1="799.5" y1="322" x2="799.5" y2="1406.0" stroke="#dde3e8" stroke-width="1"/><line x1="900.0" y1="322" x2="900.0" y2="1406.0" stroke="#dde3e8" stroke-width="1"/><line x1="1000.5" y1="322" x2="1000.5" y2="1406.0" stroke="#dde3e8" stroke-width="1"/><line x1="1101.0" y1="322" x2="1101.0" y2="1406.0" stroke="#dde3e8" stroke-width="1"/><text x="657" y="361.0" text-anchor="end" font-family="Arial, sans-serif" font-size="13" fill="#83888d">1.</text><text x="699" y="342.0" font-family="Arial, sans-serif" font-size="14" fill="#202124">Der Holländer</text><rect x="699" y="346.0" width="402.0" height="18" fill="#ef7d16"/><text x="1109.0" y="361.0" font-family="Arial, sans-serif" font-size="13" fill="#202124">2,19★  (vorher 2,9★)</text><text x="657" y="397.0" text-anchor="end" font-family="Arial, sans-serif" font-size="13" fill="#83888d">2.</text><text x="699" y="378.0" font-family="Arial, sans-serif" font-size="14" fill="#202124">Markt Grill</text><rect x="699" y="382.0" width="331.9" height="18" fill="#ef7d16"/><text x="1038.9" y="397.0" font-family="Arial, sans-serif" font-size="13" fill="#202124">2,68★  (vorher 3,8★)</text><text x="657" y="433.0" text-anchor="end" font-family="Arial, sans-serif" font-size="13" fill="#83888d">3.</text><text x="699" y="414.0" font-family="Arial, sans-serif" font-size="14" fill="#202124">AMEOS Klinikum Osnabrück</text><rect x="699" y="418.0" width="306.9" height="18" fill="#ef7d16"/><text x="1013.9" y="433.0" font-family="Arial, sans-serif" font-size="13" fill="#202124">2,85★  (vorher 3,0★)</text><text x="657" y="469.0" text-anchor="end" font-family="Arial, sans-serif" font-size="13" fill="#83888d">4.</text><text x="699" y="450.0" font-family="Arial, sans-serif" font-size="14" fill="#202124">Pizza Prego</text><rect x="699" y="454.0" width="301.6" height="18" fill="#ef7d16"/><text x="1008.6" y="469.0" font-family="Arial, sans-serif" font-size="13" fill="#202124">2,89★  (vorher 3,0★)</text><text x="657" y="505.0" text-anchor="end" font-family="Arial, sans-serif" font-size="13" fill="#83888d">5.</text><text x="699" y="486.0" font-family="Arial, sans-serif" font-size="14" fill="#202124">Bel Air</text><rect x="699" y="490.0" width="292.8" height="18" fill="#ef7d16"/><text x="999.8" y="505.0" font-family="Arial, sans-serif" font-size="13" fill="#202124">2,95★  (vorher 4,7★)</text><text x="657" y="541.0" text-anchor="end" font-family="Arial, sans-serif" font-size="13" fill="#83888d">6.</text><text x="699" y="522.0" font-family="Arial, sans-serif" font-size="14" fill="#202124">Fachärzte Urologie Rheine</text><rect x="699" y="526.0" width="289.7" height="18" fill="#ef7d16"/><text x="996.7" y="541.0" font-family="Arial, sans-serif" font-size="13" fill="#202124">2,98★  (vorher 4,2★)</text><text x="657" y="577.0" text-anchor="end" font-family="Arial, sans-serif" font-size="13" fill="#83888d">7.</text><text x="699" y="558.0" font-family="Arial, sans-serif" font-size="14" fill="#202124">MOTOG GmbH</text><rect x="699" y="562.0" width="286.1" height="18" fill="#ef7d16"/><text x="993.1" y="577.0" font-family="Arial, sans-serif" font-size="13" fill="#202124">3,00★  (vorher 5,0★)</text><text x="657" y="613.0" text-anchor="end" font-family="Arial, sans-serif" font-size="13" fill="#83888d">8.</text><text x="699" y="594.0" font-family="Arial, sans-serif" font-size="14" fill="#202124">Brunnen-Apotheke</text><rect x="699" y="598.0" width="286.1" height="18" fill="#ef7d16"/><text x="993.1" y="613.0" font-family="Arial, sans-serif" font-size="13" fill="#202124">3,00★  (vorher 3,5★)</text><text x="657" y="649.0" text-anchor="end" font-family="Arial, sans-serif" font-size="13" fill="#83888d">9.</text><text x="699" y="630.0" font-family="Arial, sans-serif" font-size="14" fill="#202124">Sultis Kebab im Marktkauf</text><rect x="699" y="634.0" width="283.0" height="18" fill="#ef7d16"/><text x="990.0" y="649.0" font-family="Arial, sans-serif" font-size="13" fill="#202124">3,02★  (vorher 4,1★)</text><text x="657" y="685.0" text-anchor="end" font-family="Arial, sans-serif" font-size="13" fill="#83888d">10.</text><text x="699" y="666.0" font-family="Arial, sans-serif" font-size="14" fill="#202124">Kochlöffel</text><rect x="699" y="670.0" width="275.4" height="18" fill="#ef7d16"/><text x="982.4" y="685.0" font-family="Arial, sans-serif" font-size="13" fill="#202124">3,08★  (vorher 3,9★)</text><text x="657" y="721.0" text-anchor="end" font-family="Arial, sans-serif" font-size="13" fill="#83888d">11.</text><text x="699" y="702.0" font-family="Arial, sans-serif" font-size="14" fill="#202124">AutoCenter Haster Mühle</text><rect x="699" y="706.0" width="274.5" height="18" fill="#ef7d16"/><text x="981.5" y="721.0" font-family="Arial, sans-serif" font-size="13" fill="#202124">3,08★  (vorher 4,4★)</text><text x="657" y="757.0" text-anchor="end" font-family="Arial, sans-serif" font-size="13" fill="#83888d">12.</text><text x="699" y="738.0" font-family="Arial, sans-serif" font-size="14" fill="#202124">Prime - Dance &amp; Nightlife</text><rect x="699" y="742.0" width="271.8" height="18" fill="#ef7d16"/><text x="978.8" y="757.0" font-family="Arial, sans-serif" font-size="13" fill="#202124">3,10★  (vorher 3,4★)</text><text x="657" y="793.0" text-anchor="end" font-family="Arial, sans-serif" font-size="13" fill="#83888d">13.</text><text x="699" y="774.0" font-family="Arial, sans-serif" font-size="14" fill="#202124">Kochlöffel</text><rect x="699" y="778.0" width="271.5" height="18" fill="#ef7d16"/><text x="978.5" y="793.0" font-family="Arial, sans-serif" font-size="13" fill="#202124">3,10★  (vorher 4,0★)</text><text x="657" y="829.0" text-anchor="end" font-family="Arial, sans-serif" font-size="13" fill="#83888d">14.</text><text x="699" y="810.0" font-family="Arial, sans-serif" font-size="14" fill="#202124">Pizzakurier</text><rect x="699" y="814.0" width="270.7" height="18" fill="#ef7d16"/><text x="977.7" y="829.0" font-family="Arial, sans-serif" font-size="13" fill="#202124">3,11★  (vorher 4,7★)</text><text x="657" y="865.0" text-anchor="end" font-family="Arial, sans-serif" font-size="13" fill="#83888d">15.</text><text x="699" y="846.0" font-family="Arial, sans-serif" font-size="14" fill="#202124">Studio Royal Osnabrück</text><rect x="699" y="850.0" width="267.1" height="18" fill="#ef7d16"/><text x="974.1" y="865.0" font-family="Arial, sans-serif" font-size="13" fill="#202124">3,13★  (vorher 5,0★)</text><text x="657" y="901.0" text-anchor="end" font-family="Arial, sans-serif" font-size="13" fill="#83888d">16.</text><text x="699" y="882.0" font-family="Arial, sans-serif" font-size="14" fill="#202124">Campingplatz Bullerby</text><rect x="699" y="886.0" width="263.2" height="18" fill="#ef7d16"/><text x="970.2" y="901.0" font-family="Arial, sans-serif" font-size="13" fill="#202124">3,16★  (vorher 3,4★)</text><text x="657" y="937.0" text-anchor="end" font-family="Arial, sans-serif" font-size="13" fill="#83888d">17.</text><text x="699" y="918.0" font-family="Arial, sans-serif" font-size="14" fill="#202124">Hotel Horstmann</text><rect x="699" y="922.0" width="262.8" height="18" fill="#ef7d16"/><text x="969.8" y="937.0" font-family="Arial, sans-serif" font-size="13" fill="#202124">3,16★  (vorher 4,1★)</text><text x="657" y="973.0" text-anchor="end" font-family="Arial, sans-serif" font-size="13" fill="#83888d">18.</text><text x="699" y="954.0" font-family="Arial, sans-serif" font-size="14" fill="#202124">expert-medizinbedarf.de GmbH</text><rect x="699" y="958.0" width="262.8" height="18" fill="#ef7d16"/><text x="969.8" y="973.0" font-family="Arial, sans-serif" font-size="13" fill="#202124">3,16★  (vorher 3,2★)</text><text x="657" y="1009.0" text-anchor="end" font-family="Arial, sans-serif" font-size="13" fill="#83888d">19.</text><text x="699" y="990.0" font-family="Arial, sans-serif" font-size="14" fill="#202124">Appart Hotel</text><rect x="699" y="994.0" width="256.1" height="18" fill="#ef7d16"/><text x="963.1" y="1009.0" font-family="Arial, sans-serif" font-size="13" fill="#202124">3,21★  (vorher 4,7★)</text><text x="657" y="1045.0" text-anchor="end" font-family="Arial, sans-serif" font-size="13" fill="#83888d">20.</text><text x="699" y="1026.0" font-family="Arial, sans-serif" font-size="14" fill="#202124">Hotel Villa Luise</text><rect x="699" y="1030.0" width="247.9" height="18" fill="#ef7d16"/><text x="954.9" y="1045.0" font-family="Arial, sans-serif" font-size="13" fill="#202124">3,27★  (vorher 4,3★)</text><text x="657" y="1081.0" text-anchor="end" font-family="Arial, sans-serif" font-size="13" fill="#83888d">21.</text><text x="699" y="1062.0" font-family="Arial, sans-serif" font-size="14" fill="#202124">Eulenspiegel Wohn- u. Werkhaus für Kinder u.…</text><rect x="699" y="1066.0" width="246.8" height="18" fill="#ef7d16"/><text x="953.8" y="1081.0" font-family="Arial, sans-serif" font-size="13" fill="#202124">3,27★  (vorher 3,6★)</text><text x="657" y="1117.0" text-anchor="end" font-family="Arial, sans-serif" font-size="13" fill="#83888d">22.</text><text x="699" y="1098.0" font-family="Arial, sans-serif" font-size="14" fill="#202124">Der Holländer - Osnabrück</text><rect x="699" y="1102.0" width="234.5" height="18" fill="#ef7d16"/><text x="941.5" y="1117.0" font-family="Arial, sans-serif" font-size="13" fill="#202124">3,36★  (vorher 3,8★)</text><text x="657" y="1153.0" text-anchor="end" font-family="Arial, sans-serif" font-size="13" fill="#83888d">23.</text><text x="699" y="1134.0" font-family="Arial, sans-serif" font-size="14" fill="#202124">VLH | Jörg Eustergerling - Vereinigte Lohnst…</text><rect x="699" y="1138.0" width="228.9" height="18" fill="#ef7d16"/><text x="935.9" y="1153.0" font-family="Arial, sans-serif" font-size="13" fill="#202124">3,40★  (vorher 4,0★)</text><text x="657" y="1189.0" text-anchor="end" font-family="Arial, sans-serif" font-size="13" fill="#83888d">24.</text><text x="699" y="1170.0" font-family="Arial, sans-serif" font-size="14" fill="#202124">Brücks</text><rect x="699" y="1174.0" width="223.7" height="18" fill="#ef7d16"/><text x="930.7" y="1189.0" font-family="Arial, sans-serif" font-size="13" fill="#202124">3,44★  (vorher 4,5★)</text><text x="657" y="1225.0" text-anchor="end" font-family="Arial, sans-serif" font-size="13" fill="#83888d">25.</text><text x="699" y="1206.0" font-family="Arial, sans-serif" font-size="14" fill="#202124">SANITEC Sanitärtechnik GmbH</text><rect x="699" y="1210.0" width="222.6" height="18" fill="#ef7d16"/><text x="929.6" y="1225.0" font-family="Arial, sans-serif" font-size="13" fill="#202124">3,44★  (vorher 3,8★)</text><text x="657" y="1261.0" text-anchor="end" font-family="Arial, sans-serif" font-size="13" fill="#83888d">26.</text><text x="699" y="1242.0" font-family="Arial, sans-serif" font-size="14" fill="#202124">simpleXfuture GmbH</text><rect x="699" y="1246.0" width="215.7" height="18" fill="#ef7d16"/><text x="922.7" y="1261.0" font-family="Arial, sans-serif" font-size="13" fill="#202124">3,49★  (vorher 4,6★)</text><text x="657" y="1297.0" text-anchor="end" font-family="Arial, sans-serif" font-size="13" fill="#83888d">27.</text><text x="699" y="1278.0" font-family="Arial, sans-serif" font-size="14" fill="#202124">Pavillon Grillmaster</text><rect x="699" y="1282.0" width="214.3" height="18" fill="#ef7d16"/><text x="921.3" y="1297.0" font-family="Arial, sans-serif" font-size="13" fill="#202124">3,50★  (vorher 4,7★)</text><text x="657" y="1333.0" text-anchor="end" font-family="Arial, sans-serif" font-size="13" fill="#83888d">28.</text><text x="699" y="1314.0" font-family="Arial, sans-serif" font-size="14" fill="#202124">Eiscafé Toscani</text><rect x="699" y="1318.0" width="210.7" height="18" fill="#ef7d16"/><text x="917.7" y="1333.0" font-family="Arial, sans-serif" font-size="13" fill="#202124">3,53★  (vorher 4,4★)</text><text x="657" y="1369.0" text-anchor="end" font-family="Arial, sans-serif" font-size="13" fill="#83888d">29.</text><text x="699" y="1350.0" font-family="Arial, sans-serif" font-size="14" fill="#202124">Parkhotel Gätje</text><rect x="699" y="1354.0" width="206.0" height="18" fill="#ef7d16"/><text x="913.0" y="1369.0" font-family="Arial, sans-serif" font-size="13" fill="#202124">3,56★  (vorher 4,2★)</text><text x="657" y="1405.0" text-anchor="end" font-family="Arial, sans-serif" font-size="13" fill="#83888d">30.</text><text x="699" y="1386.0" font-family="Arial, sans-serif" font-size="14" fill="#202124">Dila KEBAPHAUS</text><rect x="699" y="1390.0" width="205.3" height="18" fill="#ef7d16"/><text x="912.3" y="1405.0" font-family="Arial, sans-serif" font-size="13" fill="#202124">3,56★  (vorher 4,6★)</text><text x="900" y="1444.0" text-anchor="middle" font-family="Arial, sans-serif" font-size="13" fill="#6f7377">Punkte unter 5★</text></g><g><text x="1250" y="230" font-family="Arial, sans-serif" font-size="27" font-weight="800" fill="#202124">3. Beste Orte ohne Löschbanner</text><text x="1250" y="260" font-family="Arial, sans-serif" font-size="16" fill="#6f7377">kein sichtbarer Diffamierungs-Löschbanner — ab 100 Rezensionen</text><rect x="1250" y="322" width="470" height="1104" fill="#ffffff" opacity="0.96" filter="url(#softShadow)"/><line x1="1284.0" y1="322" x2="1284.0" y2="1406.0" stroke="#dde3e8" stroke-width="1"/><line x1="1384.5" y1="322" x2="1384.5" y2="1406.0" stroke="#dde3e8" stroke-width="1"/><line x1="1485.0" y1="322" x2="1485.0" y2="1406.0" stroke="#dde3e8" stroke-width="1"/><line x1="1585.5" y1="322" x2="1585.5" y2="1406.0" stroke="#dde3e8" stroke-width="1"/><line x1="1686.0" y1="322" x2="1686.0" y2="1406.0" stroke="#dde3e8" stroke-width="1"/><text x="1242" y="361.0" text-anchor="end" font-family="Arial, sans-serif" font-size="13" fill="#83888d">1.</text><text x="1284" y="342.0" font-family="Arial, sans-serif" font-size="14" fill="#202124">Schießanlage Winkeler - Hans-Günter Winkeler</text><rect x="1284" y="346.0" width="402.0" height="18" fill="#2e7d32"/><text x="1694.0" y="361.0" font-family="Arial, sans-serif" font-size="13" fill="#202124">5,0★  (679 Rezensionen)</text><text x="1242" y="397.0" text-anchor="end" font-family="Arial, sans-serif" font-size="13" fill="#83888d">2.</text><text x="1284" y="378.0" font-family="Arial, sans-serif" font-size="14" fill="#202124">Ingenieurbüro DIBRON</text><rect x="1284" y="382.0" width="402.0" height="18" fill="#2e7d32"/><text x="1694.0" y="397.0" font-family="Arial, sans-serif" font-size="13" fill="#202124">5,0★  (354 Rezensionen)</text><text x="1242" y="433.0" text-anchor="end" font-family="Arial, sans-serif" font-size="13" fill="#83888d">3.</text><text x="1284" y="414.0" font-family="Arial, sans-serif" font-size="14" fill="#202124">Dr. HairStudio</text><rect x="1284" y="418.0" width="402.0" height="18" fill="#2e7d32"/><text x="1694.0" y="433.0" font-family="Arial, sans-serif" font-size="13" fill="#202124">5,0★  (306 Rezensionen)</text><text x="1242" y="469.0" text-anchor="end" font-family="Arial, sans-serif" font-size="13" fill="#83888d">4.</text><text x="1284" y="450.0" font-family="Arial, sans-serif" font-size="14" fill="#202124">Kian&#39;s Grill</text><rect x="1284" y="454.0" width="402.0" height="18" fill="#2e7d32"/><text x="1694.0" y="469.0" font-family="Arial, sans-serif" font-size="13" fill="#202124">5,0★  (293 Rezensionen)</text><text x="1242" y="505.0" text-anchor="end" font-family="Arial, sans-serif" font-size="13" fill="#83888d">5.</text><text x="1284" y="486.0" font-family="Arial, sans-serif" font-size="14" fill="#202124">Kompetenz Sieben GmbH - Training-Beratung-Co…</text><rect x="1284" y="490.0" width="402.0" height="18" fill="#2e7d32"/><text x="1694.0" y="505.0" font-family="Arial, sans-serif" font-size="13" fill="#202124">5,0★  (244 Rezensionen)</text><text x="1242" y="541.0" text-anchor="end" font-family="Arial, sans-serif" font-size="13" fill="#83888d">6.</text><text x="1284" y="522.0" font-family="Arial, sans-serif" font-size="14" fill="#202124">Frank Green - Münster / CBD &amp; Hanfprodukte</text><rect x="1284" y="526.0" width="402.0" height="18" fill="#2e7d32"/><text x="1694.0" y="541.0" font-family="Arial, sans-serif" font-size="13" fill="#202124">5,0★  (240 Rezensionen)</text><text x="1242" y="577.0" text-anchor="end" font-family="Arial, sans-serif" font-size="13" fill="#83888d">7.</text><text x="1284" y="558.0" font-family="Arial, sans-serif" font-size="14" fill="#202124">Friseur Beleza - Schönheit pur</text><rect x="1284" y="562.0" width="402.0" height="18" fill="#2e7d32"/><text x="1694.0" y="577.0" font-family="Arial, sans-serif" font-size="13" fill="#202124">5,0★  (237 Rezensionen)</text><text x="1242" y="613.0" text-anchor="end" font-family="Arial, sans-serif" font-size="13" fill="#83888d">8.</text><text x="1284" y="594.0" font-family="Arial, sans-serif" font-size="14" fill="#202124">Leibundseele - Pasta, Pizza, Pane</text><rect x="1284" y="598.0" width="402.0" height="18" fill="#2e7d32"/><text x="1694.0" y="613.0" font-family="Arial, sans-serif" font-size="13" fill="#202124">5,0★  (230 Rezensionen)</text><text x="1242" y="649.0" text-anchor="end" font-family="Arial, sans-serif" font-size="13" fill="#83888d">9.</text><text x="1284" y="630.0" font-family="Arial, sans-serif" font-size="14" fill="#202124">Driehof LandGut &amp; Residenz</text><rect x="1284" y="634.0" width="402.0" height="18" fill="#2e7d32"/><text x="1694.0" y="649.0" font-family="Arial, sans-serif" font-size="13" fill="#202124">5,0★  (221 Rezensionen)</text><text x="1242" y="685.0" text-anchor="end" font-family="Arial, sans-serif" font-size="13" fill="#83888d">10.</text><text x="1284" y="666.0" font-family="Arial, sans-serif" font-size="14" fill="#202124">Maitri Yoga Studio</text><rect x="1284" y="670.0" width="402.0" height="18" fill="#2e7d32"/><text x="1694.0" y="685.0" font-family="Arial, sans-serif" font-size="13" fill="#202124">5,0★  (205 Rezensionen)</text><text x="1242" y="721.0" text-anchor="end" font-family="Arial, sans-serif" font-size="13" fill="#83888d">11.</text><text x="1284" y="702.0" font-family="Arial, sans-serif" font-size="14" fill="#202124">KKH Servicestelle Bielefeld</text><rect x="1284" y="706.0" width="402.0" height="18" fill="#2e7d32"/><text x="1694.0" y="721.0" font-family="Arial, sans-serif" font-size="13" fill="#202124">5,0★  (191 Rezensionen)</text><text x="1242" y="757.0" text-anchor="end" font-family="Arial, sans-serif" font-size="13" fill="#83888d">12.</text><text x="1284" y="738.0" font-family="Arial, sans-serif" font-size="14" fill="#202124">simplyhairless by PurePulse Fachzentrum Müns…</text><rect x="1284" y="742.0" width="402.0" height="18" fill="#2e7d32"/><text x="1694.0" y="757.0" font-family="Arial, sans-serif" font-size="13" fill="#202124">5,0★  (187 Rezensionen)</text><text x="1242" y="793.0" text-anchor="end" font-family="Arial, sans-serif" font-size="13" fill="#83888d">13.</text><text x="1284" y="774.0" font-family="Arial, sans-serif" font-size="14" fill="#202124">Föhnen &amp; mehr Friseur Thuine</text><rect x="1284" y="778.0" width="402.0" height="18" fill="#2e7d32"/><text x="1694.0" y="793.0" font-family="Arial, sans-serif" font-size="13" fill="#202124">5,0★  (182 Rezensionen)</text><text x="1242" y="829.0" text-anchor="end" font-family="Arial, sans-serif" font-size="13" fill="#83888d">14.</text><text x="1284" y="810.0" font-family="Arial, sans-serif" font-size="14" fill="#202124">KKH Servicestelle Münster</text><rect x="1284" y="814.0" width="402.0" height="18" fill="#2e7d32"/><text x="1694.0" y="829.0" font-family="Arial, sans-serif" font-size="13" fill="#202124">5,0★  (179 Rezensionen)</text><text x="1242" y="865.0" text-anchor="end" font-family="Arial, sans-serif" font-size="13" fill="#83888d">15.</text><text x="1284" y="846.0" font-family="Arial, sans-serif" font-size="14" fill="#202124">Evercastle Nutrition</text><rect x="1284" y="850.0" width="402.0" height="18" fill="#2e7d32"/><text x="1694.0" y="865.0" font-family="Arial, sans-serif" font-size="13" fill="#202124">5,0★  (178 Rezensionen)</text><text x="1242" y="901.0" text-anchor="end" font-family="Arial, sans-serif" font-size="13" fill="#83888d">16.</text><text x="1284" y="882.0" font-family="Arial, sans-serif" font-size="14" fill="#202124">Grilln Chill</text><rect x="1284" y="886.0" width="402.0" height="18" fill="#2e7d32"/><text x="1694.0" y="901.0" font-family="Arial, sans-serif" font-size="13" fill="#202124">5,0★  (174 Rezensionen)</text><text x="1242" y="937.0" text-anchor="end" font-family="Arial, sans-serif" font-size="13" fill="#83888d">17.</text><text x="1284" y="918.0" font-family="Arial, sans-serif" font-size="14" fill="#202124">Kaffeewerkstatt-Rheine</text><rect x="1284" y="922.0" width="402.0" height="18" fill="#2e7d32"/><text x="1694.0" y="937.0" font-family="Arial, sans-serif" font-size="13" fill="#202124">5,0★  (172 Rezensionen)</text><text x="1242" y="973.0" text-anchor="end" font-family="Arial, sans-serif" font-size="13" fill="#83888d">18.</text><text x="1284" y="954.0" font-family="Arial, sans-serif" font-size="14" fill="#202124">Shisha &amp; Vape Shop Lengerich Vape Automaten</text><rect x="1284" y="958.0" width="402.0" height="18" fill="#2e7d32"/><text x="1694.0" y="973.0" font-family="Arial, sans-serif" font-size="13" fill="#202124">5,0★  (172 Rezensionen)</text><text x="1242" y="1009.0" text-anchor="end" font-family="Arial, sans-serif" font-size="13" fill="#83888d">19.</text><text x="1284" y="990.0" font-family="Arial, sans-serif" font-size="14" fill="#202124">Autoservice Geertzen + Wagner GmbH - Osnabrü…</text><rect x="1284" y="994.0" width="402.0" height="18" fill="#2e7d32"/><text x="1694.0" y="1009.0" font-family="Arial, sans-serif" font-size="13" fill="#202124">5,0★  (170 Rezensionen)</text><text x="1242" y="1045.0" text-anchor="end" font-family="Arial, sans-serif" font-size="13" fill="#83888d">20.</text><text x="1284" y="1026.0" font-family="Arial, sans-serif" font-size="14" fill="#202124">GoFit 24h Fitness&amp;Wellness</text><rect x="1284" y="1030.0" width="402.0" height="18" fill="#2e7d32"/><text x="1694.0" y="1045.0" font-family="Arial, sans-serif" font-size="13" fill="#202124">5,0★  (169 Rezensionen)</text><text x="1242" y="1081.0" text-anchor="end" font-family="Arial, sans-serif" font-size="13" fill="#83888d">21.</text><text x="1284" y="1062.0" font-family="Arial, sans-serif" font-size="14" fill="#202124">Wert(h)volle Umzüge - Ricardo Werth</text><rect x="1284" y="1066.0" width="402.0" height="18" fill="#2e7d32"/><text x="1694.0" y="1081.0" font-family="Arial, sans-serif" font-size="13" fill="#202124">5,0★  (157 Rezensionen)</text><text x="1242" y="1117.0" text-anchor="end" font-family="Arial, sans-serif" font-size="13" fill="#83888d">22.</text><text x="1284" y="1098.0" font-family="Arial, sans-serif" font-size="14" fill="#202124">Jagdschule Fuchsbau Rheine</text><rect x="1284" y="1102.0" width="402.0" height="18" fill="#2e7d32"/><text x="1694.0" y="1117.0" font-family="Arial, sans-serif" font-size="13" fill="#202124">5,0★  (150 Rezensionen)</text><text x="1242" y="1153.0" text-anchor="end" font-family="Arial, sans-serif" font-size="13" fill="#83888d">23.</text><text x="1284" y="1134.0" font-family="Arial, sans-serif" font-size="14" fill="#202124">möllers.reisebüro</text><rect x="1284" y="1138.0" width="402.0" height="18" fill="#2e7d32"/><text x="1694.0" y="1153.0" font-family="Arial, sans-serif" font-size="13" fill="#202124">5,0★  (147 Rezensionen)</text><text x="1242" y="1189.0" text-anchor="end" font-family="Arial, sans-serif" font-size="13" fill="#83888d">24.</text><text x="1284" y="1170.0" font-family="Arial, sans-serif" font-size="14" fill="#202124">Budosportcenter Münster</text><rect x="1284" y="1174.0" width="402.0" height="18" fill="#2e7d32"/><text x="1694.0" y="1189.0" font-family="Arial, sans-serif" font-size="13" fill="#202124">5,0★  (145 Rezensionen)</text><text x="1242" y="1225.0" text-anchor="end" font-family="Arial, sans-serif" font-size="13" fill="#83888d">25.</text><text x="1284" y="1206.0" font-family="Arial, sans-serif" font-size="14" fill="#202124">Larisa - die etwas andere Tanzschule</text><rect x="1284" y="1210.0" width="402.0" height="18" fill="#2e7d32"/><text x="1694.0" y="1225.0" font-family="Arial, sans-serif" font-size="13" fill="#202124">5,0★  (142 Rezensionen)</text><text x="1242" y="1261.0" text-anchor="end" font-family="Arial, sans-serif" font-size="13" fill="#83888d">26.</text><text x="1284" y="1242.0" font-family="Arial, sans-serif" font-size="14" fill="#202124">CONCEPTGYM - Fitnessstudio Rheine</text><rect x="1284" y="1246.0" width="402.0" height="18" fill="#2e7d32"/><text x="1694.0" y="1261.0" font-family="Arial, sans-serif" font-size="13" fill="#202124">5,0★  (138 Rezensionen)</text><text x="1242" y="1297.0" text-anchor="end" font-family="Arial, sans-serif" font-size="13" fill="#83888d">27.</text><text x="1284" y="1278.0" font-family="Arial, sans-serif" font-size="14" fill="#202124">Ali&#39;s Cut &amp; Style</text><rect x="1284" y="1282.0" width="402.0" height="18" fill="#2e7d32"/><text x="1694.0" y="1297.0" font-family="Arial, sans-serif" font-size="13" fill="#202124">5,0★  (136 Rezensionen)</text><text x="1242" y="1333.0" text-anchor="end" font-family="Arial, sans-serif" font-size="13" fill="#83888d">28.</text><text x="1284" y="1314.0" font-family="Arial, sans-serif" font-size="14" fill="#202124">Zaunteam Osnabrücker Land</text><rect x="1284" y="1318.0" width="402.0" height="18" fill="#2e7d32"/><text x="1694.0" y="1333.0" font-family="Arial, sans-serif" font-size="13" fill="#202124">5,0★  (136 Rezensionen)</text><text x="1242" y="1369.0" text-anchor="end" font-family="Arial, sans-serif" font-size="13" fill="#83888d">29.</text><text x="1284" y="1350.0" font-family="Arial, sans-serif" font-size="14" fill="#202124">CORE Fighting System</text><rect x="1284" y="1354.0" width="402.0" height="18" fill="#2e7d32"/><text x="1694.0" y="1369.0" font-family="Arial, sans-serif" font-size="13" fill="#202124">5,0★  (132 Rezensionen)</text><text x="1242" y="1405.0" text-anchor="end" font-family="Arial, sans-serif" font-size="13" fill="#83888d">30.</text><text x="1284" y="1386.0" font-family="Arial, sans-serif" font-size="14" fill="#202124">Martin&#39;s Das Feine Geniessen</text><rect x="1284" y="1390.0" width="402.0" height="18" fill="#2e7d32"/><text x="1694.0" y="1405.0" font-family="Arial, sans-serif" font-size="13" fill="#202124">5,0★  (130 Rezensionen)</text><text x="1485" y="1444.0" text-anchor="middle" font-family="Arial, sans-serif" font-size="13" fill="#6f7377">Rating (★)</text></g><g><text x="120" y="1660" font-family="Arial, sans-serif" font-size="28" font-weight="800" fill="#202124">Verteilung der Lösch-Stufen über alle 11.115 Orte</text><rect x="120" y="1715" width="1540" height="560" fill="#ffffff" opacity="0.96" filter="url(#softShadow)"/><text x="150" y="1781" font-family="Arial, sans-serif" font-size="18" fill="#202124">Keine Löschung</text><rect x="450" y="1765" width="900" height="24" fill="#edf2f5"/><rect x="450" y="1765" width="900.0" height="24" fill="#2e7d32"/><text x="1380" y="1783" font-family="Arial, sans-serif" font-size="18" fill="#202124">10.529 (94,7%)</text><text x="150" y="1826" font-family="Arial, sans-serif" font-size="18" fill="#202124">Eine gelöscht</text><rect x="450" y="1810" width="900" height="24" fill="#edf2f5"/><rect x="450" y="1810" width="9.7" height="24" fill="#8bc34a"/><text x="1380" y="1828" font-family="Arial, sans-serif" font-size="18" fill="#202124">113 (1,0%)</text><text x="150" y="1871" font-family="Arial, sans-serif" font-size="18" fill="#202124">2–5 gelöscht</text><rect x="450" y="1855" width="900" height="24" fill="#edf2f5"/><rect x="450" y="1855" width="13.8" height="24" fill="#cddc39"/><text x="1380" y="1873" font-family="Arial, sans-serif" font-size="18" fill="#202124">162 (1,5%)</text><text x="150" y="1916" font-family="Arial, sans-serif" font-size="18" fill="#202124">6–10 gelöscht</text><rect x="450" y="1900" width="900" height="24" fill="#edf2f5"/><rect x="450" y="1900" width="7.7" height="24" fill="#ffca28"/><text x="1380" y="1918" font-family="Arial, sans-serif" font-size="18" fill="#202124">90 (0,8%)</text><text x="150" y="1961" font-family="Arial, sans-serif" font-size="18" fill="#202124">11–20 gelöscht</text><rect x="450" y="1945" width="900" height="24" fill="#edf2f5"/><rect x="450" y="1945" width="7.3" height="24" fill="#ff9f1c"/><text x="1380" y="1963" font-family="Arial, sans-serif" font-size="18" fill="#202124">85 (0,8%)</text><text x="150" y="2006" font-family="Arial, sans-serif" font-size="18" fill="#202124">21–50 gelöscht</text><rect x="450" y="1990" width="900" height="24" fill="#edf2f5"/><rect x="450" y="1990" width="6.8" height="24" fill="#ff6d00"/><text x="1380" y="2008" font-family="Arial, sans-serif" font-size="18" fill="#202124">80 (0,7%)</text><text x="150" y="2051" font-family="Arial, sans-serif" font-size="18" fill="#202124">51–100 gelöscht</text><rect x="450" y="2035" width="900" height="24" fill="#edf2f5"/><rect x="450" y="2035" width="2.7" height="24" fill="#e5391b"/><text x="1380" y="2053" font-family="Arial, sans-serif" font-size="18" fill="#202124">32 (0,3%)</text><text x="150" y="2096" font-family="Arial, sans-serif" font-size="18" fill="#202124">101–200 gelöscht</text><rect x="450" y="2080" width="900" height="24" fill="#edf2f5"/><rect x="450" y="2080" width="0.9" height="24" fill="#c62828"/><text x="1380" y="2098" font-family="Arial, sans-serif" font-size="18" fill="#202124">10 (0,1%)</text><text x="150" y="2141" font-family="Arial, sans-serif" font-size="18" fill="#202124">201–250 gelöscht</text><rect x="450" y="2125" width="900" height="24" fill="#edf2f5"/><rect x="450" y="2125" width="0.6" height="24" fill="#8e1919"/><text x="1380" y="2143" font-family="Arial, sans-serif" font-size="18" fill="#202124">7 (0,1%)</text><text x="150" y="2186" font-family="Arial, sans-serif" font-size="18" fill="#202124">Über 250 gelöscht</text><rect x="450" y="2170" width="900" height="24" fill="#edf2f5"/><rect x="450" y="2170" width="0.6" height="24" fill="#5b0f0f"/><text x="1380" y="2188" font-family="Arial, sans-serif" font-size="18" fill="#202124">7 (0,1%)</text></g><text x="40" y="2460" font-family="Arial, sans-serif" font-size="13" fill="#8a8f94">Quelle: Google Maps, öffentlich sichtbare Banner; Analyse-Snapshot 08.05.2026</text><text x="1760" y="2460" text-anchor="end" font-family="Arial, sans-serif" font-size="13" fill="#8a8f94">© <a href="https://patwoz.dev" target="_blank" style="fill:#8a8f94;text-decoration:none">Patrick Wozniak</a></text><text x="1760" y="2480" text-anchor="end" font-family="Arial, sans-serif" font-size="11" fill="#aab0b5">patwoz.dev</text></svg>
