<svg xmlns="http://www.w3.org/2000/svg" width="1800" height="2500" viewBox="0 0 1800 2500">
  <defs>
    <linearGradient id="bg" x1="0" y1="0" x2="0" y2="1"><stop offset="0%" stop-color="#d9e8f2"/><stop offset="58%" stop-color="#eef6fa"/><stop offset="100%" stop-color="#d7dde2"/></linearGradient>
    <filter id="softShadow" x="-10%" y="-10%" width="120%" height="120%"><feDropShadow dx="0" dy="8" stdDeviation="10" flood-color="#6d7f8a" flood-opacity="0.16"/></filter>
  </defs>
  <rect width="100%" height="100%" fill="url(#bg)"/>
  <circle cx="1450" cy="310" r="500" fill="#ffffff" opacity="0.18"/>
  <circle cx="260" cy="2140" r="620" fill="#ffffff" opacity="0.20"/>
  <text x="900" y="70" text-anchor="middle" font-family="Arial, sans-serif" font-size="48" font-weight="800" fill="#202124">Postleitzahl 49074 — Ibbenbüren</text>
  <text x="900" y="112" text-anchor="middle" font-family="Arial, sans-serif" font-size="22" fill="#4b5055">Google-Maps-Orte: gelöschte Rezensionen wegen „Diffamierung“</text>
  <text x="900" y="160" text-anchor="middle" font-family="Arial, sans-serif" font-size="18" fill="#6f7377">766 Orte erfasst · 61 mit sichtbarem Banner (8,0%) · 4 in der „Über“-Stufe</text><g><text x="80" y="230" font-family="Arial, sans-serif" font-size="27" font-weight="800" fill="#202124">1. Höchste Lösch-Quote</text><text x="80" y="260" font-family="Arial, sans-serif" font-size="16" fill="#6f7377">Anteil gelöschter Rezensionen</text><rect x="80" y="322" width="470" height="1104" fill="#ffffff" opacity="0.96" filter="url(#softShadow)"/><line x1="114.0" y1="322" x2="114.0" y2="1406.0" stroke="#dde3e8" stroke-width="1"/><line x1="214.5" y1="322" x2="214.5" y2="1406.0" stroke="#dde3e8" stroke-width="1"/><line x1="315.0" y1="322" x2="315.0" y2="1406.0" stroke="#dde3e8" stroke-width="1"/><line x1="415.5" y1="322" x2="415.5" y2="1406.0" stroke="#dde3e8" stroke-width="1"/><line x1="516.0" y1="322" x2="516.0" y2="1406.0" stroke="#dde3e8" stroke-width="1"/><text x="72" y="361.0" text-anchor="end" font-family="Arial, sans-serif" font-size="13" fill="#83888d">1.</text><text x="114" y="342.0" font-family="Arial, sans-serif" font-size="14" fill="#202124">Appart Hotel</text><rect x="114" y="346.0" width="402.0" height="18" fill="#c9332c"/><text x="524.0" y="361.0" font-family="Arial, sans-serif" font-size="13" fill="#202124">40,3%  (11–20 von 23)</text><text x="72" y="397.0" text-anchor="end" font-family="Arial, sans-serif" font-size="13" fill="#83888d">2.</text><text x="114" y="378.0" font-family="Arial, sans-serif" font-size="14" fill="#202124">Pavillon Grillmaster</text><rect x="114" y="382.0" width="323.4" height="18" fill="#c9332c"/><text x="445.4" y="397.0" font-family="Arial, sans-serif" font-size="13" fill="#202124">32,4%  (101–150 von 262)</text><text x="72" y="433.0" text-anchor="end" font-family="Arial, sans-serif" font-size="13" fill="#83888d">3.</text><text x="114" y="414.0" font-family="Arial, sans-serif" font-size="14" fill="#202124">Kochlöffel</text><rect x="114" y="418.0" width="298.8" height="18" fill="#c9332c"/><text x="420.8" y="433.0" font-family="Arial, sans-serif" font-size="13" fill="#202124">29,9%  (151–200 von 411)</text><text x="72" y="469.0" text-anchor="end" font-family="Arial, sans-serif" font-size="13" fill="#83888d">4.</text><text x="114" y="450.0" font-family="Arial, sans-serif" font-size="14" fill="#202124">Aroma Restaurant Ocakbasi Holzkohlegrill Osn…</text><rect x="114" y="454.0" width="260.2" height="18" fill="#c9332c"/><text x="382.2" y="469.0" font-family="Arial, sans-serif" font-size="13" fill="#202124">26,1%  (über 250 von 851)</text><text x="72" y="505.0" text-anchor="end" font-family="Arial, sans-serif" font-size="13" fill="#83888d">5.</text><text x="114" y="486.0" font-family="Arial, sans-serif" font-size="14" fill="#202124">Eiscafé Toscani</text><rect x="114" y="490.0" width="256.4" height="18" fill="#c9332c"/><text x="378.4" y="505.0" font-family="Arial, sans-serif" font-size="13" fill="#202124">25,7%  (über 250 von 868)</text><text x="72" y="541.0" text-anchor="end" font-family="Arial, sans-serif" font-size="13" fill="#83888d">6.</text><text x="114" y="522.0" font-family="Arial, sans-serif" font-size="14" fill="#202124">Hotel Neustadt</text><rect x="114" y="526.0" width="242.8" height="18" fill="#c9332c"/><text x="364.8" y="541.0" font-family="Arial, sans-serif" font-size="13" fill="#202124">24,3%  (51–100 von 235)</text><text x="72" y="577.0" text-anchor="end" font-family="Arial, sans-serif" font-size="13" fill="#83888d">7.</text><text x="114" y="558.0" font-family="Arial, sans-serif" font-size="14" fill="#202124">Pizzeria Napoli Osnabrück</text><rect x="114" y="562.0" width="238.7" height="18" fill="#c9332c"/><text x="360.7" y="577.0" font-family="Arial, sans-serif" font-size="13" fill="#202124">23,9%  (21–50 von 113)</text><text x="72" y="613.0" text-anchor="end" font-family="Arial, sans-serif" font-size="13" fill="#83888d">8.</text><text x="114" y="594.0" font-family="Arial, sans-serif" font-size="14" fill="#202124">Aiconi | Eventlocation</text><rect x="114" y="598.0" width="222.7" height="18" fill="#c9332c"/><text x="344.7" y="613.0" font-family="Arial, sans-serif" font-size="13" fill="#202124">22,3%  (11–20 von 54)</text><text x="72" y="649.0" text-anchor="end" font-family="Arial, sans-serif" font-size="13" fill="#83888d">9.</text><text x="114" y="630.0" font-family="Arial, sans-serif" font-size="14" fill="#202124">NEBO - Restaurant. Club. Bar.</text><rect x="114" y="634.0" width="204.3" height="18" fill="#c9332c"/><text x="326.3" y="649.0" font-family="Arial, sans-serif" font-size="13" fill="#202124">20,5%  (21–50 von 138)</text><text x="72" y="685.0" text-anchor="end" font-family="Arial, sans-serif" font-size="13" fill="#83888d">10.</text><text x="114" y="666.0" font-family="Arial, sans-serif" font-size="14" fill="#202124">MediPark Apotheke OHG</text><rect x="114" y="670.0" width="185.3" height="18" fill="#c9332c"/><text x="307.3" y="685.0" font-family="Arial, sans-serif" font-size="13" fill="#202124">18,6%  (11–20 von 68)</text><text x="72" y="721.0" text-anchor="end" font-family="Arial, sans-serif" font-size="13" fill="#83888d">11.</text><text x="114" y="702.0" font-family="Arial, sans-serif" font-size="14" fill="#202124">M&amp;C Döner Osnabrück</text><rect x="114" y="706.0" width="181.2" height="18" fill="#c9332c"/><text x="303.2" y="721.0" font-family="Arial, sans-serif" font-size="13" fill="#202124">18,1%  (über 250 von 1.353)</text><text x="72" y="757.0" text-anchor="end" font-family="Arial, sans-serif" font-size="13" fill="#83888d">12.</text><text x="114" y="738.0" font-family="Arial, sans-serif" font-size="14" fill="#202124">MONCHERI café bar lounge</text><rect x="114" y="742.0" width="165.9" height="18" fill="#c9332c"/><text x="287.9" y="757.0" font-family="Arial, sans-serif" font-size="13" fill="#202124">16,6%  (51–100 von 379)</text><text x="72" y="793.0" text-anchor="end" font-family="Arial, sans-serif" font-size="13" fill="#83888d">13.</text><text x="114" y="774.0" font-family="Arial, sans-serif" font-size="14" fill="#202124">Der Holländer - Osnabrück</text><rect x="114" y="778.0" width="156.7" height="18" fill="#c9332c"/><text x="278.7" y="793.0" font-family="Arial, sans-serif" font-size="13" fill="#202124">15,7%  (6–10 von 43)</text><text x="72" y="829.0" text-anchor="end" font-family="Arial, sans-serif" font-size="13" fill="#83888d">14.</text><text x="114" y="810.0" font-family="Arial, sans-serif" font-size="14" fill="#202124">Sushi Palace Osnabrück</text><rect x="114" y="814.0" width="152.5" height="18" fill="#c9332c"/><text x="274.5" y="829.0" font-family="Arial, sans-serif" font-size="13" fill="#202124">15,3%  (11–20 von 86)</text><text x="72" y="865.0" text-anchor="end" font-family="Arial, sans-serif" font-size="13" fill="#83888d">15.</text><text x="114" y="846.0" font-family="Arial, sans-serif" font-size="14" fill="#202124">Kakkoii Sushi Grill &amp; Bar</text><rect x="114" y="850.0" width="145.5" height="18" fill="#c9332c"/><text x="267.5" y="865.0" font-family="Arial, sans-serif" font-size="13" fill="#202124">14,6%  (201–250 von 1.322)</text><text x="72" y="901.0" text-anchor="end" font-family="Arial, sans-serif" font-size="13" fill="#83888d">16.</text><text x="114" y="882.0" font-family="Arial, sans-serif" font-size="14" fill="#202124">Haus des Döners Osnabrück</text><rect x="114" y="886.0" width="142.7" height="18" fill="#c9332c"/><text x="264.7" y="901.0" font-family="Arial, sans-serif" font-size="13" fill="#202124">14,3%  (11–20 von 93)</text><text x="72" y="937.0" text-anchor="end" font-family="Arial, sans-serif" font-size="13" fill="#83888d">17.</text><text x="114" y="918.0" font-family="Arial, sans-serif" font-size="14" fill="#202124">Café-Restaurant am Rubbenbruchsee</text><rect x="114" y="922.0" width="126.5" height="18" fill="#c9332c"/><text x="248.5" y="937.0" font-family="Arial, sans-serif" font-size="13" fill="#202124">12,7%  (über 250 von 2.068)</text><text x="72" y="973.0" text-anchor="end" font-family="Arial, sans-serif" font-size="13" fill="#83888d">18.</text><text x="114" y="954.0" font-family="Arial, sans-serif" font-size="14" fill="#202124">Der Holländer - Osnabrück Schinkel</text><rect x="114" y="958.0" width="124.8" height="18" fill="#c9332c"/><text x="246.8" y="973.0" font-family="Arial, sans-serif" font-size="13" fill="#202124">12,5%  (6–10 von 56)</text><text x="72" y="1009.0" text-anchor="end" font-family="Arial, sans-serif" font-size="13" fill="#83888d">19.</text><text x="114" y="990.0" font-family="Arial, sans-serif" font-size="14" fill="#202124">Magic‘s Pizza</text><rect x="114" y="994.0" width="118.4" height="18" fill="#c9332c"/><text x="240.4" y="1009.0" font-family="Arial, sans-serif" font-size="13" fill="#202124">11,9%  (2–5 von 26)</text><text x="72" y="1045.0" text-anchor="end" font-family="Arial, sans-serif" font-size="13" fill="#83888d">20.</text><text x="114" y="1026.0" font-family="Arial, sans-serif" font-size="14" fill="#202124">SAMET OCAKBAŞI HOLZGRİLL</text><rect x="114" y="1030.0" width="116.8" height="18" fill="#c9332c"/><text x="238.8" y="1045.0" font-family="Arial, sans-serif" font-size="13" fill="#202124">11,7%  (11–20 von 117)</text><text x="72" y="1081.0" text-anchor="end" font-family="Arial, sans-serif" font-size="13" fill="#83888d">21.</text><text x="114" y="1062.0" font-family="Arial, sans-serif" font-size="14" fill="#202124">Imza ocakbaşı restaurant</text><rect x="114" y="1066.0" width="113.0" height="18" fill="#c9332c"/><text x="235.0" y="1081.0" font-family="Arial, sans-serif" font-size="13" fill="#202124">11,3%  (21–50 von 278)</text><text x="72" y="1117.0" text-anchor="end" font-family="Arial, sans-serif" font-size="13" fill="#83888d">22.</text><text x="114" y="1098.0" font-family="Arial, sans-serif" font-size="14" fill="#202124">X-Force Sports Club Nettebad</text><rect x="114" y="1102.0" width="104.4" height="18" fill="#c9332c"/><text x="226.4" y="1117.0" font-family="Arial, sans-serif" font-size="13" fill="#202124">10,5%  (21–50 von 304)</text><text x="72" y="1153.0" text-anchor="end" font-family="Arial, sans-serif" font-size="13" fill="#83888d">23.</text><text x="114" y="1134.0" font-family="Arial, sans-serif" font-size="14" fill="#202124">Pizzeria Da Stefano Osnabrück</text><rect x="114" y="1138.0" width="104.2" height="18" fill="#c9332c"/><text x="226.2" y="1153.0" font-family="Arial, sans-serif" font-size="13" fill="#202124">10,4%  (11–20 von 133)</text><text x="72" y="1189.0" text-anchor="end" font-family="Arial, sans-serif" font-size="13" fill="#83888d">24.</text><text x="114" y="1170.0" font-family="Arial, sans-serif" font-size="14" fill="#202124">Edeka Schröder</text><rect x="114" y="1174.0" width="94.2" height="18" fill="#c9332c"/><text x="216.2" y="1189.0" font-family="Arial, sans-serif" font-size="13" fill="#202124">9,4%  (51–100 von 725)</text><text x="72" y="1225.0" text-anchor="end" font-family="Arial, sans-serif" font-size="13" fill="#83888d">25.</text><text x="114" y="1206.0" font-family="Arial, sans-serif" font-size="14" fill="#202124">Weinkrüger</text><rect x="114" y="1210.0" width="91.7" height="18" fill="#c9332c"/><text x="213.7" y="1225.0" font-family="Arial, sans-serif" font-size="13" fill="#202124">9,2%  (51–100 von 747)</text><text x="72" y="1261.0" text-anchor="end" font-family="Arial, sans-serif" font-size="13" fill="#83888d">26.</text><text x="114" y="1242.0" font-family="Arial, sans-serif" font-size="14" fill="#202124">Pizzeria Bella Vista Osnabrück</text><rect x="114" y="1246.0" width="80.9" height="18" fill="#c9332c"/><text x="202.9" y="1261.0" font-family="Arial, sans-serif" font-size="13" fill="#202124">8,1%  (21–50 von 403)</text><text x="72" y="1297.0" text-anchor="end" font-family="Arial, sans-serif" font-size="13" fill="#83888d">27.</text><text x="114" y="1278.0" font-family="Arial, sans-serif" font-size="14" fill="#202124">Hotel-Restaurant Busch Atter</text><rect x="114" y="1282.0" width="75.1" height="18" fill="#c9332c"/><text x="197.1" y="1297.0" font-family="Arial, sans-serif" font-size="13" fill="#202124">7,5%  (51–100 von 929)</text><text x="72" y="1333.0" text-anchor="end" font-family="Arial, sans-serif" font-size="13" fill="#83888d">28.</text><text x="114" y="1314.0" font-family="Arial, sans-serif" font-size="14" fill="#202124">Salon Louksa</text><rect x="114" y="1318.0" width="69.5" height="18" fill="#c9332c"/><text x="191.5" y="1333.0" font-family="Arial, sans-serif" font-size="13" fill="#202124">7,0%  (6–10 von 107)</text><text x="72" y="1369.0" text-anchor="end" font-family="Arial, sans-serif" font-size="13" fill="#83888d">29.</text><text x="114" y="1350.0" font-family="Arial, sans-serif" font-size="14" fill="#202124">Made in Berlin Döner Osnabrück</text><rect x="114" y="1354.0" width="61.2" height="18" fill="#c9332c"/><text x="183.2" y="1369.0" font-family="Arial, sans-serif" font-size="13" fill="#202124">6,1%  (51–100 von 1.156)</text><text x="72" y="1405.0" text-anchor="end" font-family="Arial, sans-serif" font-size="13" fill="#83888d">30.</text><text x="114" y="1386.0" font-family="Arial, sans-serif" font-size="14" fill="#202124">Campingplatz Niedersachsenhof</text><rect x="114" y="1390.0" width="61.0" height="18" fill="#c9332c"/><text x="183.0" y="1405.0" font-family="Arial, sans-serif" font-size="13" fill="#202124">6,1%  (6–10 von 123)</text><text x="315" y="1444.0" text-anchor="middle" font-family="Arial, sans-serif" font-size="13" fill="#6f7377">Lösch-Quote (%) · Top 30</text></g><g><text x="665" y="230" font-family="Arial, sans-serif" font-size="27" font-weight="800" fill="#202124">2. Schlechtestes „echtes“ Rating</text><text x="665" y="260" font-family="Arial, sans-serif" font-size="16" fill="#6f7377">Modell: gelöschte Rezensionen waren 1★</text><rect x="665" y="322" width="470" height="1104" fill="#ffffff" opacity="0.96" filter="url(#softShadow)"/><line x1="699.0" y1="322" x2="699.0" y2="1406.0" stroke="#dde3e8" stroke-width="1"/><line x1="799.5" y1="322" x2="799.5" y2="1406.0" stroke="#dde3e8" stroke-width="1"/><line x1="900.0" y1="322" x2="900.0" y2="1406.0" stroke="#dde3e8" stroke-width="1"/><line x1="1000.5" y1="322" x2="1000.5" y2="1406.0" stroke="#dde3e8" stroke-width="1"/><line x1="1101.0" y1="322" x2="1101.0" y2="1406.0" stroke="#dde3e8" stroke-width="1"/><text x="657" y="361.0" text-anchor="end" font-family="Arial, sans-serif" font-size="13" fill="#83888d">1.</text><text x="699" y="342.0" font-family="Arial, sans-serif" font-size="14" fill="#202124">Kochlöffel</text><rect x="699" y="346.0" width="402.0" height="18" fill="#ef7d16"/><text x="1109.0" y="361.0" font-family="Arial, sans-serif" font-size="13" fill="#202124">3,10★  (vorher 4,0★)</text><text x="657" y="397.0" text-anchor="end" font-family="Arial, sans-serif" font-size="13" fill="#83888d">2.</text><text x="699" y="378.0" font-family="Arial, sans-serif" font-size="14" fill="#202124">Appart Hotel</text><rect x="699" y="382.0" width="379.1" height="18" fill="#ef7d16"/><text x="1086.1" y="397.0" font-family="Arial, sans-serif" font-size="13" fill="#202124">3,21★  (vorher 4,7★)</text><text x="657" y="433.0" text-anchor="end" font-family="Arial, sans-serif" font-size="13" fill="#83888d">3.</text><text x="699" y="414.0" font-family="Arial, sans-serif" font-size="14" fill="#202124">Der Holländer - Osnabrück</text><rect x="699" y="418.0" width="347.1" height="18" fill="#ef7d16"/><text x="1054.1" y="433.0" font-family="Arial, sans-serif" font-size="13" fill="#202124">3,36★  (vorher 3,8★)</text><text x="657" y="469.0" text-anchor="end" font-family="Arial, sans-serif" font-size="13" fill="#83888d">4.</text><text x="699" y="450.0" font-family="Arial, sans-serif" font-size="14" fill="#202124">Pavillon Grillmaster</text><rect x="699" y="454.0" width="317.3" height="18" fill="#ef7d16"/><text x="1024.3" y="469.0" font-family="Arial, sans-serif" font-size="13" fill="#202124">3,50★  (vorher 4,7★)</text><text x="657" y="505.0" text-anchor="end" font-family="Arial, sans-serif" font-size="13" fill="#83888d">5.</text><text x="699" y="486.0" font-family="Arial, sans-serif" font-size="14" fill="#202124">Eiscafé Toscani</text><rect x="699" y="490.0" width="312.0" height="18" fill="#ef7d16"/><text x="1019.0" y="505.0" font-family="Arial, sans-serif" font-size="13" fill="#202124">3,53★  (vorher 4,4★)</text><text x="657" y="541.0" text-anchor="end" font-family="Arial, sans-serif" font-size="13" fill="#83888d">6.</text><text x="699" y="522.0" font-family="Arial, sans-serif" font-size="14" fill="#202124">Hotel ibis budget Osnabrück City</text><rect x="699" y="526.0" width="296.9" height="18" fill="#ef7d16"/><text x="1003.9" y="541.0" font-family="Arial, sans-serif" font-size="13" fill="#202124">3,60★  (vorher 3,6★)</text><text x="657" y="577.0" text-anchor="end" font-family="Arial, sans-serif" font-size="13" fill="#83888d">7.</text><text x="699" y="558.0" font-family="Arial, sans-serif" font-size="14" fill="#202124">Hotel Neustadt</text><rect x="699" y="562.0" width="286.1" height="18" fill="#ef7d16"/><text x="993.1" y="577.0" font-family="Arial, sans-serif" font-size="13" fill="#202124">3,65★  (vorher 4,5★)</text><text x="657" y="613.0" text-anchor="end" font-family="Arial, sans-serif" font-size="13" fill="#83888d">8.</text><text x="699" y="594.0" font-family="Arial, sans-serif" font-size="14" fill="#202124">Aroma Restaurant Ocakbasi Holzkohlegrill Osn…</text><rect x="699" y="598.0" width="283.4" height="18" fill="#ef7d16"/><text x="990.4" y="613.0" font-family="Arial, sans-serif" font-size="13" fill="#202124">3,66★  (vorher 4,6★)</text><text x="657" y="649.0" text-anchor="end" font-family="Arial, sans-serif" font-size="13" fill="#83888d">9.</text><text x="699" y="630.0" font-family="Arial, sans-serif" font-size="14" fill="#202124">Pizzeria Napoli Osnabrück</text><rect x="699" y="634.0" width="267.1" height="18" fill="#ef7d16"/><text x="974.1" y="649.0" font-family="Arial, sans-serif" font-size="13" fill="#202124">3,74★  (vorher 4,6★)</text><text x="657" y="685.0" text-anchor="end" font-family="Arial, sans-serif" font-size="13" fill="#83888d">10.</text><text x="699" y="666.0" font-family="Arial, sans-serif" font-size="14" fill="#202124">Imza ocakbaşı restaurant</text><rect x="699" y="670.0" width="265.0" height="18" fill="#ef7d16"/><text x="972.0" y="685.0" font-family="Arial, sans-serif" font-size="13" fill="#202124">3,75★  (vorher 4,1★)</text><text x="657" y="721.0" text-anchor="end" font-family="Arial, sans-serif" font-size="13" fill="#83888d">11.</text><text x="699" y="702.0" font-family="Arial, sans-serif" font-size="14" fill="#202124">Campingplatz Niedersachsenhof</text><rect x="699" y="706.0" width="250.6" height="18" fill="#ef7d16"/><text x="957.6" y="721.0" font-family="Arial, sans-serif" font-size="13" fill="#202124">3,82★  (vorher 4,0★)</text><text x="657" y="757.0" text-anchor="end" font-family="Arial, sans-serif" font-size="13" fill="#83888d">12.</text><text x="699" y="738.0" font-family="Arial, sans-serif" font-size="14" fill="#202124">M&amp;C Döner Osnabrück</text><rect x="699" y="742.0" width="223.0" height="18" fill="#ef7d16"/><text x="930.0" y="757.0" font-family="Arial, sans-serif" font-size="13" fill="#202124">3,95★  (vorher 4,6★)</text><text x="657" y="793.0" text-anchor="end" font-family="Arial, sans-serif" font-size="13" fill="#83888d">13.</text><text x="699" y="774.0" font-family="Arial, sans-serif" font-size="14" fill="#202124">Kakkoii Sushi Grill &amp; Bar</text><rect x="699" y="778.0" width="213.9" height="18" fill="#ef7d16"/><text x="920.9" y="793.0" font-family="Arial, sans-serif" font-size="13" fill="#202124">3,99★  (vorher 4,5★)</text><text x="657" y="829.0" text-anchor="end" font-family="Arial, sans-serif" font-size="13" fill="#83888d">14.</text><text x="699" y="810.0" font-family="Arial, sans-serif" font-size="14" fill="#202124">Haus des Döners Osnabrück</text><rect x="699" y="814.0" width="211.8" height="18" fill="#ef7d16"/><text x="918.8" y="829.0" font-family="Arial, sans-serif" font-size="13" fill="#202124">4,00★  (vorher 4,5★)</text><text x="657" y="865.0" text-anchor="end" font-family="Arial, sans-serif" font-size="13" fill="#83888d">15.</text><text x="699" y="846.0" font-family="Arial, sans-serif" font-size="14" fill="#202124">MONCHERI café bar lounge</text><rect x="699" y="850.0" width="211.4" height="18" fill="#ef7d16"/><text x="918.4" y="865.0" font-family="Arial, sans-serif" font-size="13" fill="#202124">4,00★  (vorher 4,6★)</text><text x="657" y="901.0" text-anchor="end" font-family="Arial, sans-serif" font-size="13" fill="#83888d">16.</text><text x="699" y="882.0" font-family="Arial, sans-serif" font-size="14" fill="#202124">MediPark Apotheke OHG</text><rect x="699" y="886.0" width="209.0" height="18" fill="#ef7d16"/><text x="916.0" y="901.0" font-family="Arial, sans-serif" font-size="13" fill="#202124">4,01★  (vorher 4,7★)</text><text x="657" y="937.0" text-anchor="end" font-family="Arial, sans-serif" font-size="13" fill="#83888d">17.</text><text x="699" y="918.0" font-family="Arial, sans-serif" font-size="14" fill="#202124">NEBO - Restaurant. Club. Bar.</text><rect x="699" y="922.0" width="207.1" height="18" fill="#ef7d16"/><text x="914.1" y="937.0" font-family="Arial, sans-serif" font-size="13" fill="#202124">4,02★  (vorher 4,8★)</text><text x="657" y="973.0" text-anchor="end" font-family="Arial, sans-serif" font-size="13" fill="#83888d">18.</text><text x="699" y="954.0" font-family="Arial, sans-serif" font-size="14" fill="#202124">Aiconi | Eventlocation</text><rect x="699" y="958.0" width="205.4" height="18" fill="#ef7d16"/><text x="912.4" y="973.0" font-family="Arial, sans-serif" font-size="13" fill="#202124">4,03★  (vorher 4,9★)</text><text x="657" y="1009.0" text-anchor="end" font-family="Arial, sans-serif" font-size="13" fill="#83888d">19.</text><text x="699" y="990.0" font-family="Arial, sans-serif" font-size="14" fill="#202124">Hotel Sieme</text><rect x="699" y="994.0" width="199.7" height="18" fill="#ef7d16"/><text x="906.7" y="1009.0" font-family="Arial, sans-serif" font-size="13" fill="#202124">4,06★  (vorher 4,2★)</text><text x="657" y="1045.0" text-anchor="end" font-family="Arial, sans-serif" font-size="13" fill="#83888d">20.</text><text x="699" y="1026.0" font-family="Arial, sans-serif" font-size="14" fill="#202124">Trattoria Am Rathaus - Osnabrück</text><rect x="699" y="1030.0" width="195.1" height="18" fill="#ef7d16"/><text x="902.1" y="1045.0" font-family="Arial, sans-serif" font-size="13" fill="#202124">4,08★  (vorher 4,1★)</text><text x="657" y="1081.0" text-anchor="end" font-family="Arial, sans-serif" font-size="13" fill="#83888d">21.</text><text x="699" y="1062.0" font-family="Arial, sans-serif" font-size="14" fill="#202124">Pizzeria Bella Vista Osnabrück</text><rect x="699" y="1066.0" width="185.3" height="18" fill="#ef7d16"/><text x="892.3" y="1081.0" font-family="Arial, sans-serif" font-size="13" fill="#202124">4,12★  (vorher 4,4★)</text><text x="657" y="1117.0" text-anchor="end" font-family="Arial, sans-serif" font-size="13" fill="#83888d">22.</text><text x="699" y="1098.0" font-family="Arial, sans-serif" font-size="14" fill="#202124">ICHIBAN Sushi</text><rect x="699" y="1102.0" width="181.5" height="18" fill="#ef7d16"/><text x="888.5" y="1117.0" font-family="Arial, sans-serif" font-size="13" fill="#202124">4,14★  (vorher 4,2★)</text><text x="657" y="1153.0" text-anchor="end" font-family="Arial, sans-serif" font-size="13" fill="#83888d">23.</text><text x="699" y="1134.0" font-family="Arial, sans-serif" font-size="14" fill="#202124">Café-Restaurant am Rubbenbruchsee</text><rect x="699" y="1138.0" width="181.3" height="18" fill="#ef7d16"/><text x="888.3" y="1153.0" font-family="Arial, sans-serif" font-size="13" fill="#202124">4,14★  (vorher 4,6★)</text><text x="657" y="1189.0" text-anchor="end" font-family="Arial, sans-serif" font-size="13" fill="#83888d">24.</text><text x="699" y="1170.0" font-family="Arial, sans-serif" font-size="14" fill="#202124">Weinkrüger</text><rect x="699" y="1174.0" width="173.9" height="18" fill="#ef7d16"/><text x="880.9" y="1189.0" font-family="Arial, sans-serif" font-size="13" fill="#202124">4,18★  (vorher 4,5★)</text><text x="657" y="1225.0" text-anchor="end" font-family="Arial, sans-serif" font-size="13" fill="#83888d">25.</text><text x="699" y="1206.0" font-family="Arial, sans-serif" font-size="14" fill="#202124">Sushi Palace Osnabrück</text><rect x="699" y="1210.0" width="165.2" height="18" fill="#ef7d16"/><text x="872.2" y="1225.0" font-family="Arial, sans-serif" font-size="13" fill="#202124">4,22★  (vorher 4,8★)</text><text x="657" y="1261.0" text-anchor="end" font-family="Arial, sans-serif" font-size="13" fill="#83888d">26.</text><text x="699" y="1242.0" font-family="Arial, sans-serif" font-size="14" fill="#202124">Hotel-Restaurant Busch Atter</text><rect x="699" y="1246.0" width="161.6" height="18" fill="#ef7d16"/><text x="868.6" y="1261.0" font-family="Arial, sans-serif" font-size="13" fill="#202124">4,24★  (vorher 4,5★)</text><text x="657" y="1297.0" text-anchor="end" font-family="Arial, sans-serif" font-size="13" fill="#83888d">27.</text><text x="699" y="1278.0" font-family="Arial, sans-serif" font-size="14" fill="#202124">Edeka Schröder</text><rect x="699" y="1282.0" width="156.7" height="18" fill="#ef7d16"/><text x="863.7" y="1297.0" font-family="Arial, sans-serif" font-size="13" fill="#202124">4,26★  (vorher 4,6★)</text><text x="657" y="1333.0" text-anchor="end" font-family="Arial, sans-serif" font-size="13" fill="#83888d">28.</text><text x="699" y="1314.0" font-family="Arial, sans-serif" font-size="14" fill="#202124">Magic‘s Pizza</text><rect x="699" y="1318.0" width="156.5" height="18" fill="#ef7d16"/><text x="863.5" y="1333.0" font-family="Arial, sans-serif" font-size="13" fill="#202124">4,26★  (vorher 4,7★)</text><text x="657" y="1369.0" text-anchor="end" font-family="Arial, sans-serif" font-size="13" fill="#83888d">29.</text><text x="699" y="1350.0" font-family="Arial, sans-serif" font-size="14" fill="#202124">Made in Berlin Döner Osnabrück</text><rect x="699" y="1354.0" width="151.4" height="18" fill="#ef7d16"/><text x="858.4" y="1369.0" font-family="Arial, sans-serif" font-size="13" fill="#202124">4,29★  (vorher 4,5★)</text><text x="657" y="1405.0" text-anchor="end" font-family="Arial, sans-serif" font-size="13" fill="#83888d">30.</text><text x="699" y="1386.0" font-family="Arial, sans-serif" font-size="14" fill="#202124">CUP&amp;CINO Bistro-Cafe</text><rect x="699" y="1390.0" width="146.4" height="18" fill="#ef7d16"/><text x="853.4" y="1405.0" font-family="Arial, sans-serif" font-size="13" fill="#202124">4,31★  (vorher 4,4★)</text><text x="900" y="1444.0" text-anchor="middle" font-family="Arial, sans-serif" font-size="13" fill="#6f7377">Punkte unter 5★</text></g><g><text x="1250" y="230" font-family="Arial, sans-serif" font-size="27" font-weight="800" fill="#202124">3. Beste Orte ohne Löschbanner</text><text x="1250" y="260" font-family="Arial, sans-serif" font-size="16" fill="#6f7377">kein sichtbarer Diffamierungs-Löschbanner — ab 100 Rezensionen</text><rect x="1250" y="322" width="470" height="1104" fill="#ffffff" opacity="0.96" filter="url(#softShadow)"/><line x1="1284.0" y1="322" x2="1284.0" y2="1406.0" stroke="#dde3e8" stroke-width="1"/><line x1="1384.5" y1="322" x2="1384.5" y2="1406.0" stroke="#dde3e8" stroke-width="1"/><line x1="1485.0" y1="322" x2="1485.0" y2="1406.0" stroke="#dde3e8" stroke-width="1"/><line x1="1585.5" y1="322" x2="1585.5" y2="1406.0" stroke="#dde3e8" stroke-width="1"/><line x1="1686.0" y1="322" x2="1686.0" y2="1406.0" stroke="#dde3e8" stroke-width="1"/><text x="1242" y="361.0" text-anchor="end" font-family="Arial, sans-serif" font-size="13" fill="#83888d">1.</text><text x="1284" y="342.0" font-family="Arial, sans-serif" font-size="14" fill="#202124">Mr. Brothers Cut</text><rect x="1284" y="346.0" width="402.0" height="18" fill="#2e7d32"/><text x="1694.0" y="361.0" font-family="Arial, sans-serif" font-size="13" fill="#202124">5,0★  (124 Rezensionen)</text><text x="1242" y="397.0" text-anchor="end" font-family="Arial, sans-serif" font-size="13" fill="#83888d">2.</text><text x="1284" y="378.0" font-family="Arial, sans-serif" font-size="14" fill="#202124">Fleischerei Schürkamp - Ihre Fleischerei sei…</text><rect x="1284" y="382.0" width="402.0" height="18" fill="#2e7d32"/><text x="1694.0" y="397.0" font-family="Arial, sans-serif" font-size="13" fill="#202124">5,0★  (121 Rezensionen)</text><text x="1242" y="433.0" text-anchor="end" font-family="Arial, sans-serif" font-size="13" fill="#83888d">3.</text><text x="1284" y="414.0" font-family="Arial, sans-serif" font-size="14" fill="#202124">SALON -Hamid- FRISEUR ORIENTAL</text><rect x="1284" y="418.0" width="402.0" height="18" fill="#2e7d32"/><text x="1694.0" y="433.0" font-family="Arial, sans-serif" font-size="13" fill="#202124">5,0★  (100 Rezensionen)</text><text x="1242" y="469.0" text-anchor="end" font-family="Arial, sans-serif" font-size="13" fill="#83888d">4.</text><text x="1284" y="450.0" font-family="Arial, sans-serif" font-size="14" fill="#202124">clever fit Osnabrück</text><rect x="1284" y="454.0" width="394.0" height="18" fill="#2e7d32"/><text x="1686.0" y="469.0" font-family="Arial, sans-serif" font-size="13" fill="#202124">4,9★  (794 Rezensionen)</text><text x="1242" y="505.0" text-anchor="end" font-family="Arial, sans-serif" font-size="13" fill="#83888d">5.</text><text x="1284" y="486.0" font-family="Arial, sans-serif" font-size="14" fill="#202124">S&#39;j Ramen</text><rect x="1284" y="490.0" width="394.0" height="18" fill="#2e7d32"/><text x="1686.0" y="505.0" font-family="Arial, sans-serif" font-size="13" fill="#202124">4,9★  (714 Rezensionen)</text><text x="1242" y="541.0" text-anchor="end" font-family="Arial, sans-serif" font-size="13" fill="#83888d">6.</text><text x="1284" y="522.0" font-family="Arial, sans-serif" font-size="14" fill="#202124">Tasty - Osnabrück</text><rect x="1284" y="526.0" width="394.0" height="18" fill="#2e7d32"/><text x="1686.0" y="541.0" font-family="Arial, sans-serif" font-size="13" fill="#202124">4,9★  (461 Rezensionen)</text><text x="1242" y="577.0" text-anchor="end" font-family="Arial, sans-serif" font-size="13" fill="#83888d">7.</text><text x="1284" y="558.0" font-family="Arial, sans-serif" font-size="14" fill="#202124">bos tanke</text><rect x="1284" y="562.0" width="394.0" height="18" fill="#2e7d32"/><text x="1686.0" y="577.0" font-family="Arial, sans-serif" font-size="13" fill="#202124">4,9★  (226 Rezensionen)</text><text x="1242" y="613.0" text-anchor="end" font-family="Arial, sans-serif" font-size="13" fill="#83888d">8.</text><text x="1284" y="594.0" font-family="Arial, sans-serif" font-size="14" fill="#202124">Abgefahren Magenta Sport Bar - Osnabrück</text><rect x="1284" y="598.0" width="394.0" height="18" fill="#2e7d32"/><text x="1686.0" y="613.0" font-family="Arial, sans-serif" font-size="13" fill="#202124">4,9★  (208 Rezensionen)</text><text x="1242" y="649.0" text-anchor="end" font-family="Arial, sans-serif" font-size="13" fill="#83888d">9.</text><text x="1284" y="630.0" font-family="Arial, sans-serif" font-size="14" fill="#202124">Boni Kaffeerösterei</text><rect x="1284" y="634.0" width="394.0" height="18" fill="#2e7d32"/><text x="1686.0" y="649.0" font-family="Arial, sans-serif" font-size="13" fill="#202124">4,9★  (193 Rezensionen)</text><text x="1242" y="685.0" text-anchor="end" font-family="Arial, sans-serif" font-size="13" fill="#83888d">10.</text><text x="1284" y="666.0" font-family="Arial, sans-serif" font-size="14" fill="#202124">WarehouseGym</text><rect x="1284" y="670.0" width="394.0" height="18" fill="#2e7d32"/><text x="1686.0" y="685.0" font-family="Arial, sans-serif" font-size="13" fill="#202124">4,9★  (128 Rezensionen)</text><text x="1242" y="721.0" text-anchor="end" font-family="Arial, sans-serif" font-size="13" fill="#83888d">11.</text><text x="1284" y="702.0" font-family="Arial, sans-serif" font-size="14" fill="#202124">DOMA Markt und Cafe</text><rect x="1284" y="706.0" width="394.0" height="18" fill="#2e7d32"/><text x="1686.0" y="721.0" font-family="Arial, sans-serif" font-size="13" fill="#202124">4,9★  (125 Rezensionen)</text><text x="1242" y="757.0" text-anchor="end" font-family="Arial, sans-serif" font-size="13" fill="#83888d">12.</text><text x="1284" y="738.0" font-family="Arial, sans-serif" font-size="14" fill="#202124">GOLDEN CUT</text><rect x="1284" y="742.0" width="394.0" height="18" fill="#2e7d32"/><text x="1686.0" y="757.0" font-family="Arial, sans-serif" font-size="13" fill="#202124">4,9★  (121 Rezensionen)</text><text x="1242" y="793.0" text-anchor="end" font-family="Arial, sans-serif" font-size="13" fill="#83888d">13.</text><text x="1284" y="774.0" font-family="Arial, sans-serif" font-size="14" fill="#202124">Art Cake by Aline Reinhardt &amp; Hügelmeyer KG …</text><rect x="1284" y="778.0" width="394.0" height="18" fill="#2e7d32"/><text x="1686.0" y="793.0" font-family="Arial, sans-serif" font-size="13" fill="#202124">4,9★  (119 Rezensionen)</text><text x="1242" y="829.0" text-anchor="end" font-family="Arial, sans-serif" font-size="13" fill="#83888d">14.</text><text x="1284" y="810.0" font-family="Arial, sans-serif" font-size="14" fill="#202124">xxllent cannabusiness</text><rect x="1284" y="814.0" width="394.0" height="18" fill="#2e7d32"/><text x="1686.0" y="829.0" font-family="Arial, sans-serif" font-size="13" fill="#202124">4,9★  (112 Rezensionen)</text><text x="1242" y="865.0" text-anchor="end" font-family="Arial, sans-serif" font-size="13" fill="#83888d">15.</text><text x="1284" y="846.0" font-family="Arial, sans-serif" font-size="14" fill="#202124">Lione Restaurant, مطعم ليوان - Osnabrück</text><rect x="1284" y="850.0" width="385.9" height="18" fill="#2e7d32"/><text x="1677.9" y="865.0" font-family="Arial, sans-serif" font-size="13" fill="#202124">4,8★  (672 Rezensionen)</text><text x="1242" y="901.0" text-anchor="end" font-family="Arial, sans-serif" font-size="13" fill="#83888d">16.</text><text x="1284" y="882.0" font-family="Arial, sans-serif" font-size="14" fill="#202124">Gustav Grün Neuer Graben | Kebab, Schawarma,…</text><rect x="1284" y="886.0" width="385.9" height="18" fill="#2e7d32"/><text x="1677.9" y="901.0" font-family="Arial, sans-serif" font-size="13" fill="#202124">4,8★  (482 Rezensionen)</text><text x="1242" y="937.0" text-anchor="end" font-family="Arial, sans-serif" font-size="13" fill="#83888d">17.</text><text x="1284" y="918.0" font-family="Arial, sans-serif" font-size="14" fill="#202124">Spielcafé Osnabrett</text><rect x="1284" y="922.0" width="385.9" height="18" fill="#2e7d32"/><text x="1677.9" y="937.0" font-family="Arial, sans-serif" font-size="13" fill="#202124">4,8★  (370 Rezensionen)</text><text x="1242" y="973.0" text-anchor="end" font-family="Arial, sans-serif" font-size="13" fill="#83888d">18.</text><text x="1284" y="954.0" font-family="Arial, sans-serif" font-size="14" fill="#202124">Restaurant Wilde Triebe - Osnabrück</text><rect x="1284" y="958.0" width="385.9" height="18" fill="#2e7d32"/><text x="1677.9" y="973.0" font-family="Arial, sans-serif" font-size="13" fill="#202124">4,8★  (351 Rezensionen)</text><text x="1242" y="1009.0" text-anchor="end" font-family="Arial, sans-serif" font-size="13" fill="#83888d">19.</text><text x="1284" y="990.0" font-family="Arial, sans-serif" font-size="14" fill="#202124">Conditorei Bäckerei Coppenrath</text><rect x="1284" y="994.0" width="385.9" height="18" fill="#2e7d32"/><text x="1677.9" y="1009.0" font-family="Arial, sans-serif" font-size="13" fill="#202124">4,8★  (339 Rezensionen)</text><text x="1242" y="1045.0" text-anchor="end" font-family="Arial, sans-serif" font-size="13" fill="#83888d">20.</text><text x="1284" y="1026.0" font-family="Arial, sans-serif" font-size="14" fill="#202124">The GYM</text><rect x="1284" y="1030.0" width="385.9" height="18" fill="#2e7d32"/><text x="1677.9" y="1045.0" font-family="Arial, sans-serif" font-size="13" fill="#202124">4,8★  (330 Rezensionen)</text><text x="1242" y="1081.0" text-anchor="end" font-family="Arial, sans-serif" font-size="13" fill="#83888d">21.</text><text x="1284" y="1062.0" font-family="Arial, sans-serif" font-size="14" fill="#202124">Gin&amp;Juice Cocktailbar Osnabrück</text><rect x="1284" y="1066.0" width="385.9" height="18" fill="#2e7d32"/><text x="1677.9" y="1081.0" font-family="Arial, sans-serif" font-size="13" fill="#202124">4,8★  (300 Rezensionen)</text><text x="1242" y="1117.0" text-anchor="end" font-family="Arial, sans-serif" font-size="13" fill="#83888d">22.</text><text x="1284" y="1098.0" font-family="Arial, sans-serif" font-size="14" fill="#202124">Sensei&#39;s</text><rect x="1284" y="1102.0" width="385.9" height="18" fill="#2e7d32"/><text x="1677.9" y="1117.0" font-family="Arial, sans-serif" font-size="13" fill="#202124">4,8★  (297 Rezensionen)</text><text x="1242" y="1153.0" text-anchor="end" font-family="Arial, sans-serif" font-size="13" fill="#83888d">23.</text><text x="1284" y="1134.0" font-family="Arial, sans-serif" font-size="14" fill="#202124">BARBER-SHOP am WESTERBERG - Osnabrück</text><rect x="1284" y="1138.0" width="385.9" height="18" fill="#2e7d32"/><text x="1677.9" y="1153.0" font-family="Arial, sans-serif" font-size="13" fill="#202124">4,8★  (295 Rezensionen)</text><text x="1242" y="1189.0" text-anchor="end" font-family="Arial, sans-serif" font-size="13" fill="#83888d">24.</text><text x="1284" y="1170.0" font-family="Arial, sans-serif" font-size="14" fill="#202124">La Pizza - Italienisches Eiscafé Sion</text><rect x="1284" y="1174.0" width="385.9" height="18" fill="#2e7d32"/><text x="1677.9" y="1189.0" font-family="Arial, sans-serif" font-size="13" fill="#202124">4,8★  (282 Rezensionen)</text><text x="1242" y="1225.0" text-anchor="end" font-family="Arial, sans-serif" font-size="13" fill="#83888d">25.</text><text x="1284" y="1206.0" font-family="Arial, sans-serif" font-size="14" fill="#202124">Shock Records &amp; Coffee</text><rect x="1284" y="1210.0" width="385.9" height="18" fill="#2e7d32"/><text x="1677.9" y="1225.0" font-family="Arial, sans-serif" font-size="13" fill="#202124">4,8★  (255 Rezensionen)</text><text x="1242" y="1261.0" text-anchor="end" font-family="Arial, sans-serif" font-size="13" fill="#83888d">26.</text><text x="1284" y="1242.0" font-family="Arial, sans-serif" font-size="14" fill="#202124">Pizzeria Calabria</text><rect x="1284" y="1246.0" width="385.9" height="18" fill="#2e7d32"/><text x="1677.9" y="1261.0" font-family="Arial, sans-serif" font-size="13" fill="#202124">4,8★  (174 Rezensionen)</text><text x="1242" y="1297.0" text-anchor="end" font-family="Arial, sans-serif" font-size="13" fill="#83888d">27.</text><text x="1284" y="1278.0" font-family="Arial, sans-serif" font-size="14" fill="#202124">Tölles Küchenwerk</text><rect x="1284" y="1282.0" width="385.9" height="18" fill="#2e7d32"/><text x="1677.9" y="1297.0" font-family="Arial, sans-serif" font-size="13" fill="#202124">4,8★  (168 Rezensionen)</text><text x="1242" y="1333.0" text-anchor="end" font-family="Arial, sans-serif" font-size="13" fill="#83888d">28.</text><text x="1284" y="1314.0" font-family="Arial, sans-serif" font-size="14" fill="#202124">Feminin Aktiv</text><rect x="1284" y="1318.0" width="385.9" height="18" fill="#2e7d32"/><text x="1677.9" y="1333.0" font-family="Arial, sans-serif" font-size="13" fill="#202124">4,8★  (164 Rezensionen)</text><text x="1242" y="1369.0" text-anchor="end" font-family="Arial, sans-serif" font-size="13" fill="#83888d">29.</text><text x="1284" y="1350.0" font-family="Arial, sans-serif" font-size="14" fill="#202124">BAJAC Art of Hair</text><rect x="1284" y="1354.0" width="385.9" height="18" fill="#2e7d32"/><text x="1677.9" y="1369.0" font-family="Arial, sans-serif" font-size="13" fill="#202124">4,8★  (159 Rezensionen)</text><text x="1242" y="1405.0" text-anchor="end" font-family="Arial, sans-serif" font-size="13" fill="#83888d">30.</text><text x="1284" y="1386.0" font-family="Arial, sans-serif" font-size="14" fill="#202124">Tobi der Brotbäcker</text><rect x="1284" y="1390.0" width="385.9" height="18" fill="#2e7d32"/><text x="1677.9" y="1405.0" font-family="Arial, sans-serif" font-size="13" fill="#202124">4,8★  (145 Rezensionen)</text><text x="1485" y="1444.0" text-anchor="middle" font-family="Arial, sans-serif" font-size="13" fill="#6f7377">Rating (★)</text></g><g><text x="120" y="1660" font-family="Arial, sans-serif" font-size="28" font-weight="800" fill="#202124">Verteilung der Lösch-Stufen über alle 766 Orte</text><rect x="120" y="1715" width="1540" height="560" fill="#ffffff" opacity="0.96" filter="url(#softShadow)"/><text x="150" y="1781" font-family="Arial, sans-serif" font-size="18" fill="#202124">Keine Löschung</text><rect x="450" y="1765" width="900" height="24" fill="#edf2f5"/><rect x="450" y="1765" width="900.0" height="24" fill="#2e7d32"/><text x="1380" y="1783" font-family="Arial, sans-serif" font-size="18" fill="#202124">705 (92,0%)</text><text x="150" y="1826" font-family="Arial, sans-serif" font-size="18" fill="#202124">Eine gelöscht</text><rect x="450" y="1810" width="900" height="24" fill="#edf2f5"/><rect x="450" y="1810" width="14.0" height="24" fill="#8bc34a"/><text x="1380" y="1828" font-family="Arial, sans-serif" font-size="18" fill="#202124">11 (1,4%)</text><text x="150" y="1871" font-family="Arial, sans-serif" font-size="18" fill="#202124">2–5 gelöscht</text><rect x="450" y="1855" width="900" height="24" fill="#edf2f5"/><rect x="450" y="1855" width="15.3" height="24" fill="#cddc39"/><text x="1380" y="1873" font-family="Arial, sans-serif" font-size="18" fill="#202124">12 (1,6%)</text><text x="150" y="1916" font-family="Arial, sans-serif" font-size="18" fill="#202124">6–10 gelöscht</text><rect x="450" y="1900" width="900" height="24" fill="#edf2f5"/><rect x="450" y="1900" width="10.2" height="24" fill="#ffca28"/><text x="1380" y="1918" font-family="Arial, sans-serif" font-size="18" fill="#202124">8 (1,0%)</text><text x="150" y="1961" font-family="Arial, sans-serif" font-size="18" fill="#202124">11–20 gelöscht</text><rect x="450" y="1945" width="900" height="24" fill="#edf2f5"/><rect x="450" y="1945" width="12.8" height="24" fill="#ff9f1c"/><text x="1380" y="1963" font-family="Arial, sans-serif" font-size="18" fill="#202124">10 (1,3%)</text><text x="150" y="2006" font-family="Arial, sans-serif" font-size="18" fill="#202124">21–50 gelöscht</text><rect x="450" y="1990" width="900" height="24" fill="#edf2f5"/><rect x="450" y="1990" width="8.9" height="24" fill="#ff6d00"/><text x="1380" y="2008" font-family="Arial, sans-serif" font-size="18" fill="#202124">7 (0,9%)</text><text x="150" y="2051" font-family="Arial, sans-serif" font-size="18" fill="#202124">51–100 gelöscht</text><rect x="450" y="2035" width="900" height="24" fill="#edf2f5"/><rect x="450" y="2035" width="7.7" height="24" fill="#e5391b"/><text x="1380" y="2053" font-family="Arial, sans-serif" font-size="18" fill="#202124">6 (0,8%)</text><text x="150" y="2096" font-family="Arial, sans-serif" font-size="18" fill="#202124">101–200 gelöscht</text><rect x="450" y="2080" width="900" height="24" fill="#edf2f5"/><rect x="450" y="2080" width="1.3" height="24" fill="#c62828"/><text x="1380" y="2098" font-family="Arial, sans-serif" font-size="18" fill="#202124">1 (0,1%)</text><text x="150" y="2141" font-family="Arial, sans-serif" font-size="18" fill="#202124">201–250 gelöscht</text><rect x="450" y="2125" width="900" height="24" fill="#edf2f5"/><rect x="450" y="2125" width="2.6" height="24" fill="#8e1919"/><text x="1380" y="2143" font-family="Arial, sans-serif" font-size="18" fill="#202124">2 (0,3%)</text><text x="150" y="2186" font-family="Arial, sans-serif" font-size="18" fill="#202124">Über 250 gelöscht</text><rect x="450" y="2170" width="900" height="24" fill="#edf2f5"/><rect x="450" y="2170" width="5.1" height="24" fill="#5b0f0f"/><text x="1380" y="2188" font-family="Arial, sans-serif" font-size="18" fill="#202124">4 (0,5%)</text></g><text x="40" y="2460" font-family="Arial, sans-serif" font-size="13" fill="#8a8f94">Quelle: Google Maps, öffentlich sichtbare Banner; Analyse-Snapshot 08.05.2026</text><text x="1760" y="2460" text-anchor="end" font-family="Arial, sans-serif" font-size="13" fill="#8a8f94">© <a href="https://patwoz.dev" target="_blank" style="fill:#8a8f94;text-decoration:none">Patrick Wozniak</a></text><text x="1760" y="2480" text-anchor="end" font-family="Arial, sans-serif" font-size="11" fill="#aab0b5">patwoz.dev</text></svg>
