<svg xmlns="http://www.w3.org/2000/svg" width="1800" height="2500" viewBox="0 0 1800 2500">
  <defs>
    <linearGradient id="bg" x1="0" y1="0" x2="0" y2="1"><stop offset="0%" stop-color="#d9e8f2"/><stop offset="58%" stop-color="#eef6fa"/><stop offset="100%" stop-color="#d7dde2"/></linearGradient>
    <filter id="softShadow" x="-10%" y="-10%" width="120%" height="120%"><feDropShadow dx="0" dy="8" stdDeviation="10" flood-color="#6d7f8a" flood-opacity="0.16"/></filter>
  </defs>
  <rect width="100%" height="100%" fill="url(#bg)"/>
  <circle cx="1450" cy="310" r="500" fill="#ffffff" opacity="0.18"/>
  <circle cx="260" cy="2140" r="620" fill="#ffffff" opacity="0.20"/>
  <text x="900" y="70" text-anchor="middle" font-family="Arial, sans-serif" font-size="48" font-weight="800" fill="#202124">Postleitzahl 48145 — Ibbenbüren</text>
  <text x="900" y="112" text-anchor="middle" font-family="Arial, sans-serif" font-size="22" fill="#4b5055">Google-Maps-Orte: gelöschte Rezensionen wegen „Diffamierung“</text>
  <text x="900" y="160" text-anchor="middle" font-family="Arial, sans-serif" font-size="18" fill="#6f7377">325 Orte erfasst · 22 mit sichtbarem Banner (6,8%) · 1 in der „Über“-Stufe</text><g><text x="80" y="230" font-family="Arial, sans-serif" font-size="27" font-weight="800" fill="#202124">1. Höchste Lösch-Quote</text><text x="80" y="260" font-family="Arial, sans-serif" font-size="16" fill="#6f7377">Anteil gelöschter Rezensionen</text><rect x="80" y="322" width="470" height="816" fill="#ffffff" opacity="0.96" filter="url(#softShadow)"/><line x1="114.0" y1="322" x2="114.0" y2="1118.0" stroke="#dde3e8" stroke-width="1"/><line x1="214.5" y1="322" x2="214.5" y2="1118.0" stroke="#dde3e8" stroke-width="1"/><line x1="315.0" y1="322" x2="315.0" y2="1118.0" stroke="#dde3e8" stroke-width="1"/><line x1="415.5" y1="322" x2="415.5" y2="1118.0" stroke="#dde3e8" stroke-width="1"/><line x1="516.0" y1="322" x2="516.0" y2="1118.0" stroke="#dde3e8" stroke-width="1"/><text x="72" y="361.0" text-anchor="end" font-family="Arial, sans-serif" font-size="13" fill="#83888d">1.</text><text x="114" y="342.0" font-family="Arial, sans-serif" font-size="14" fill="#202124">Markt Grill</text><rect x="114" y="346.0" width="402.0" height="18" fill="#c9332c"/><text x="524.0" y="361.0" font-family="Arial, sans-serif" font-size="13" fill="#202124">40,0%  (6–10 von 12)</text><text x="72" y="397.0" text-anchor="end" font-family="Arial, sans-serif" font-size="13" fill="#83888d">2.</text><text x="114" y="378.0" font-family="Arial, sans-serif" font-size="14" fill="#202124">Vela Pilates - Reformer Studio Münster Stadt</text><rect x="114" y="382.0" width="281.4" height="18" fill="#c9332c"/><text x="403.4" y="397.0" font-family="Arial, sans-serif" font-size="13" fill="#202124">28,0%  (2–5 von 9)</text><text x="72" y="433.0" text-anchor="end" font-family="Arial, sans-serif" font-size="13" fill="#83888d">3.</text><text x="114" y="414.0" font-family="Arial, sans-serif" font-size="14" fill="#202124">Hong Bin II</text><rect x="114" y="418.0" width="216.0" height="18" fill="#c9332c"/><text x="338.0" y="433.0" font-family="Arial, sans-serif" font-size="13" fill="#202124">21,5%  (über 250 von 1.096)</text><text x="72" y="469.0" text-anchor="end" font-family="Arial, sans-serif" font-size="13" fill="#83888d">4.</text><text x="114" y="450.0" font-family="Arial, sans-serif" font-size="14" fill="#202124">Hans&amp;Franz</text><rect x="114" y="454.0" width="199.4" height="18" fill="#c9332c"/><text x="321.4" y="469.0" font-family="Arial, sans-serif" font-size="13" fill="#202124">19,8%  (51–100 von 305)</text><text x="72" y="505.0" text-anchor="end" font-family="Arial, sans-serif" font-size="13" fill="#83888d">5.</text><text x="114" y="486.0" font-family="Arial, sans-serif" font-size="14" fill="#202124">Hautarztpraxis am Hohenzollernring | Univ.-P…</text><rect x="114" y="490.0" width="191.2" height="18" fill="#c9332c"/><text x="313.2" y="505.0" font-family="Arial, sans-serif" font-size="13" fill="#202124">19,0%  (11–20 von 66)</text><text x="72" y="541.0" text-anchor="end" font-family="Arial, sans-serif" font-size="13" fill="#83888d">6.</text><text x="114" y="522.0" font-family="Arial, sans-serif" font-size="14" fill="#202124">7 Paintings - Münster</text><rect x="114" y="526.0" width="154.6" height="18" fill="#c9332c"/><text x="276.6" y="541.0" font-family="Arial, sans-serif" font-size="13" fill="#202124">15,4%  (6–10 von 44)</text><text x="72" y="577.0" text-anchor="end" font-family="Arial, sans-serif" font-size="13" fill="#83888d">7.</text><text x="114" y="558.0" font-family="Arial, sans-serif" font-size="14" fill="#202124">Eiscafé Cortina</text><rect x="114" y="562.0" width="115.7" height="18" fill="#c9332c"/><text x="237.7" y="577.0" font-family="Arial, sans-serif" font-size="13" fill="#202124">11,5%  (21–50 von 273)</text><text x="72" y="613.0" text-anchor="end" font-family="Arial, sans-serif" font-size="13" fill="#83888d">8.</text><text x="114" y="594.0" font-family="Arial, sans-serif" font-size="14" fill="#202124">HNO Zentrum Münsterland</text><rect x="114" y="598.0" width="97.7" height="18" fill="#c9332c"/><text x="219.7" y="613.0" font-family="Arial, sans-serif" font-size="13" fill="#202124">9,7%  (11–20 von 144)</text><text x="72" y="649.0" text-anchor="end" font-family="Arial, sans-serif" font-size="13" fill="#83888d">9.</text><text x="114" y="630.0" font-family="Arial, sans-serif" font-size="14" fill="#202124">Cityhotel Amadeus Münster</text><rect x="114" y="634.0" width="89.9" height="18" fill="#c9332c"/><text x="211.9" y="649.0" font-family="Arial, sans-serif" font-size="13" fill="#202124">8,9%  (21–50 von 361)</text><text x="72" y="685.0" text-anchor="end" font-family="Arial, sans-serif" font-size="13" fill="#83888d">10.</text><text x="114" y="666.0" font-family="Arial, sans-serif" font-size="14" fill="#202124">Pizza Prego</text><rect x="114" y="670.0" width="54.4" height="18" fill="#c9332c"/><text x="176.4" y="685.0" font-family="Arial, sans-serif" font-size="13" fill="#202124">5,4%  (11–20 von 271)</text><text x="72" y="721.0" text-anchor="end" font-family="Arial, sans-serif" font-size="13" fill="#83888d">11.</text><text x="114" y="702.0" font-family="Arial, sans-serif" font-size="14" fill="#202124">Pizza Max Münster Nord</text><rect x="114" y="706.0" width="47.8" height="18" fill="#c9332c"/><text x="169.8" y="721.0" font-family="Arial, sans-serif" font-size="13" fill="#202124">4,8%  (2–5 von 70)</text><text x="72" y="757.0" text-anchor="end" font-family="Arial, sans-serif" font-size="13" fill="#83888d">12.</text><text x="114" y="738.0" font-family="Arial, sans-serif" font-size="14" fill="#202124">Grillakademie Münsterland</text><rect x="114" y="742.0" width="42.1" height="18" fill="#c9332c"/><text x="164.1" y="757.0" font-family="Arial, sans-serif" font-size="13" fill="#202124">4,2%  (2–5 von 80)</text><text x="72" y="793.0" text-anchor="end" font-family="Arial, sans-serif" font-size="13" fill="#83888d">13.</text><text x="114" y="774.0" font-family="Arial, sans-serif" font-size="14" fill="#202124">Hotel Conti am Hauptbahnhof - Münster</text><rect x="114" y="778.0" width="40.1" height="18" fill="#c9332c"/><text x="162.1" y="793.0" font-family="Arial, sans-serif" font-size="13" fill="#202124">4,0%  (21–50 von 855)</text><text x="72" y="829.0" text-anchor="end" font-family="Arial, sans-serif" font-size="13" fill="#83888d">14.</text><text x="114" y="810.0" font-family="Arial, sans-serif" font-size="14" fill="#202124">Fahrschule Fahrfreude Münster GmbH</text><rect x="114" y="814.0" width="39.3" height="18" fill="#c9332c"/><text x="161.3" y="829.0" font-family="Arial, sans-serif" font-size="13" fill="#202124">3,9%  (2–5 von 86)</text><text x="72" y="865.0" text-anchor="end" font-family="Arial, sans-serif" font-size="13" fill="#83888d">15.</text><text x="114" y="846.0" font-family="Arial, sans-serif" font-size="14" fill="#202124">Pizzeria Torino</text><rect x="114" y="850.0" width="32.5" height="18" fill="#c9332c"/><text x="154.5" y="865.0" font-family="Arial, sans-serif" font-size="13" fill="#202124">3,2%  (11–20 von 465)</text><text x="72" y="901.0" text-anchor="end" font-family="Arial, sans-serif" font-size="13" fill="#83888d">16.</text><text x="114" y="882.0" font-family="Arial, sans-serif" font-size="14" fill="#202124">Hautarztpraxis Münster , MVZ, Prof. Dr. med.…</text><rect x="114" y="886.0" width="29.1" height="18" fill="#c9332c"/><text x="151.1" y="901.0" font-family="Arial, sans-serif" font-size="13" fill="#202124">2,9%  (2–5 von 117)</text><text x="72" y="937.0" text-anchor="end" font-family="Arial, sans-serif" font-size="13" fill="#83888d">17.</text><text x="114" y="918.0" font-family="Arial, sans-serif" font-size="14" fill="#202124">Ruscher &amp; Nölke - Rechtsanwälte Notar Steuer…</text><rect x="114" y="922.0" width="28.7" height="18" fill="#c9332c"/><text x="150.7" y="937.0" font-family="Arial, sans-serif" font-size="13" fill="#202124">2,9%  (2–5 von 119)</text><text x="72" y="973.0" text-anchor="end" font-family="Arial, sans-serif" font-size="13" fill="#83888d">18.</text><text x="114" y="954.0" font-family="Arial, sans-serif" font-size="14" fill="#202124">Casa Pazzi</text><rect x="114" y="958.0" width="22.0" height="18" fill="#c9332c"/><text x="144.0" y="973.0" font-family="Arial, sans-serif" font-size="13" fill="#202124">2,2%  (6–10 von 357)</text><text x="72" y="1009.0" text-anchor="end" font-family="Arial, sans-serif" font-size="13" fill="#83888d">19.</text><text x="114" y="990.0" font-family="Arial, sans-serif" font-size="14" fill="#202124">Papa George</text><rect x="114" y="994.0" width="14.7" height="18" fill="#c9332c"/><text x="136.7" y="1009.0" font-family="Arial, sans-serif" font-size="13" fill="#202124">1,5%  (11–20 von 1.044)</text><text x="72" y="1045.0" text-anchor="end" font-family="Arial, sans-serif" font-size="13" fill="#83888d">20.</text><text x="114" y="1026.0" font-family="Arial, sans-serif" font-size="14" fill="#202124">VIVA Fitness Münster</text><rect x="114" y="1030.0" width="12.4" height="18" fill="#c9332c"/><text x="134.4" y="1045.0" font-family="Arial, sans-serif" font-size="13" fill="#202124">1,2%  (6–10 von 641)</text><text x="72" y="1081.0" text-anchor="end" font-family="Arial, sans-serif" font-size="13" fill="#83888d">21.</text><text x="114" y="1062.0" font-family="Arial, sans-serif" font-size="14" fill="#202124">Auszeit Kosmetik</text><rect x="114" y="1066.0" width="7.4" height="18" fill="#c9332c"/><text x="129.4" y="1081.0" font-family="Arial, sans-serif" font-size="13" fill="#202124">0,7%  (1 von 135)</text><text x="72" y="1117.0" text-anchor="end" font-family="Arial, sans-serif" font-size="13" fill="#83888d">22.</text><text x="114" y="1098.0" font-family="Arial, sans-serif" font-size="14" fill="#202124">Les Cèdres</text><rect x="114" y="1102.0" width="3.0" height="18" fill="#c9332c"/><text x="125.0" y="1117.0" font-family="Arial, sans-serif" font-size="13" fill="#202124">0,1%  (1 von 1.482)</text><text x="315" y="1156.0" text-anchor="middle" font-family="Arial, sans-serif" font-size="13" fill="#6f7377">Lösch-Quote (%) · Top 30</text></g><g><text x="665" y="230" font-family="Arial, sans-serif" font-size="27" font-weight="800" fill="#202124">2. Schlechtestes „echtes“ Rating</text><text x="665" y="260" font-family="Arial, sans-serif" font-size="16" fill="#6f7377">Modell: gelöschte Rezensionen waren 1★</text><rect x="665" y="322" width="470" height="816" fill="#ffffff" opacity="0.96" filter="url(#softShadow)"/><line x1="699.0" y1="322" x2="699.0" y2="1118.0" stroke="#dde3e8" stroke-width="1"/><line x1="799.5" y1="322" x2="799.5" y2="1118.0" stroke="#dde3e8" stroke-width="1"/><line x1="900.0" y1="322" x2="900.0" y2="1118.0" stroke="#dde3e8" stroke-width="1"/><line x1="1000.5" y1="322" x2="1000.5" y2="1118.0" stroke="#dde3e8" stroke-width="1"/><line x1="1101.0" y1="322" x2="1101.0" y2="1118.0" stroke="#dde3e8" stroke-width="1"/><text x="657" y="361.0" text-anchor="end" font-family="Arial, sans-serif" font-size="13" fill="#83888d">1.</text><text x="699" y="342.0" font-family="Arial, sans-serif" font-size="14" fill="#202124">Markt Grill</text><rect x="699" y="346.0" width="402.0" height="18" fill="#ef7d16"/><text x="1109.0" y="361.0" font-family="Arial, sans-serif" font-size="13" fill="#202124">2,68★  (vorher 3,8★)</text><text x="657" y="397.0" text-anchor="end" font-family="Arial, sans-serif" font-size="13" fill="#83888d">2.</text><text x="699" y="378.0" font-family="Arial, sans-serif" font-size="14" fill="#202124">Pizza Prego</text><rect x="699" y="382.0" width="365.3" height="18" fill="#ef7d16"/><text x="1072.3" y="397.0" font-family="Arial, sans-serif" font-size="13" fill="#202124">2,89★  (vorher 3,0★)</text><text x="657" y="433.0" text-anchor="end" font-family="Arial, sans-serif" font-size="13" fill="#83888d">3.</text><text x="699" y="414.0" font-family="Arial, sans-serif" font-size="14" fill="#202124">Vela Pilates - Reformer Studio Münster Stadt</text><rect x="699" y="418.0" width="244.0" height="18" fill="#ef7d16"/><text x="951.0" y="433.0" font-family="Arial, sans-serif" font-size="13" fill="#202124">3,59★  (vorher 4,6★)</text><text x="657" y="469.0" text-anchor="end" font-family="Arial, sans-serif" font-size="13" fill="#83888d">4.</text><text x="699" y="450.0" font-family="Arial, sans-serif" font-size="14" fill="#202124">Cityhotel Amadeus Münster</text><rect x="699" y="454.0" width="204.1" height="18" fill="#ef7d16"/><text x="911.1" y="469.0" font-family="Arial, sans-serif" font-size="13" fill="#202124">3,82★  (vorher 4,1★)</text><text x="657" y="505.0" text-anchor="end" font-family="Arial, sans-serif" font-size="13" fill="#83888d">5.</text><text x="699" y="486.0" font-family="Arial, sans-serif" font-size="14" fill="#202124">Hong Bin II</text><rect x="699" y="490.0" width="203.4" height="18" fill="#ef7d16"/><text x="910.4" y="505.0" font-family="Arial, sans-serif" font-size="13" fill="#202124">3,83★  (vorher 4,6★)</text><text x="657" y="541.0" text-anchor="end" font-family="Arial, sans-serif" font-size="13" fill="#83888d">6.</text><text x="699" y="522.0" font-family="Arial, sans-serif" font-size="14" fill="#202124">7 Paintings - Münster</text><rect x="699" y="526.0" width="179.9" height="18" fill="#ef7d16"/><text x="886.9" y="541.0" font-family="Arial, sans-serif" font-size="13" fill="#202124">3,96★  (vorher 4,5★)</text><text x="657" y="577.0" text-anchor="end" font-family="Arial, sans-serif" font-size="13" fill="#83888d">7.</text><text x="699" y="558.0" font-family="Arial, sans-serif" font-size="14" fill="#202124">Hans&amp;Franz</text><rect x="699" y="562.0" width="179.2" height="18" fill="#ef7d16"/><text x="886.2" y="577.0" font-family="Arial, sans-serif" font-size="13" fill="#202124">3,97★  (vorher 4,7★)</text><text x="657" y="613.0" text-anchor="end" font-family="Arial, sans-serif" font-size="13" fill="#83888d">8.</text><text x="699" y="594.0" font-family="Arial, sans-serif" font-size="14" fill="#202124">Hautarztpraxis am Hohenzollernring | Univ.-P…</text><rect x="699" y="598.0" width="174.0" height="18" fill="#ef7d16"/><text x="881.0" y="613.0" font-family="Arial, sans-serif" font-size="13" fill="#202124">4,00★  (vorher 4,7★)</text><text x="657" y="649.0" text-anchor="end" font-family="Arial, sans-serif" font-size="13" fill="#83888d">9.</text><text x="699" y="630.0" font-family="Arial, sans-serif" font-size="14" fill="#202124">Eiscafé Cortina</text><rect x="699" y="634.0" width="156.5" height="18" fill="#ef7d16"/><text x="863.5" y="649.0" font-family="Arial, sans-serif" font-size="13" fill="#202124">4,10★  (vorher 4,5★)</text><text x="657" y="685.0" text-anchor="end" font-family="Arial, sans-serif" font-size="13" fill="#83888d">10.</text><text x="699" y="666.0" font-family="Arial, sans-serif" font-size="14" fill="#202124">Papa George</text><rect x="699" y="670.0" width="129.6" height="18" fill="#ef7d16"/><text x="836.6" y="685.0" font-family="Arial, sans-serif" font-size="13" fill="#202124">4,25★  (vorher 4,3★)</text><text x="657" y="721.0" text-anchor="end" font-family="Arial, sans-serif" font-size="13" fill="#83888d">11.</text><text x="699" y="702.0" font-family="Arial, sans-serif" font-size="14" fill="#202124">Grillakademie Münsterland</text><rect x="699" y="706.0" width="128.7" height="18" fill="#ef7d16"/><text x="835.7" y="721.0" font-family="Arial, sans-serif" font-size="13" fill="#202124">4,26★  (vorher 4,4★)</text><text x="657" y="757.0" text-anchor="end" font-family="Arial, sans-serif" font-size="13" fill="#83888d">12.</text><text x="699" y="738.0" font-family="Arial, sans-serif" font-size="14" fill="#202124">Hotel Conti am Hauptbahnhof - Münster</text><rect x="699" y="742.0" width="127.5" height="18" fill="#ef7d16"/><text x="834.5" y="757.0" font-family="Arial, sans-serif" font-size="13" fill="#202124">4,26★  (vorher 4,4★)</text><text x="657" y="793.0" text-anchor="end" font-family="Arial, sans-serif" font-size="13" fill="#83888d">13.</text><text x="699" y="774.0" font-family="Arial, sans-serif" font-size="14" fill="#202124">Pizza Max Münster Nord</text><rect x="699" y="778.0" width="115.6" height="18" fill="#ef7d16"/><text x="822.6" y="793.0" font-family="Arial, sans-serif" font-size="13" fill="#202124">4,33★  (vorher 4,5★)</text><text x="657" y="829.0" text-anchor="end" font-family="Arial, sans-serif" font-size="13" fill="#83888d">14.</text><text x="699" y="810.0" font-family="Arial, sans-serif" font-size="14" fill="#202124">HNO Zentrum Münsterland</text><rect x="699" y="814.0" width="98.6" height="18" fill="#ef7d16"/><text x="805.6" y="829.0" font-family="Arial, sans-serif" font-size="13" fill="#202124">4,43★  (vorher 4,8★)</text><text x="657" y="865.0" text-anchor="end" font-family="Arial, sans-serif" font-size="13" fill="#83888d">15.</text><text x="699" y="846.0" font-family="Arial, sans-serif" font-size="14" fill="#202124">Pizzeria Torino</text><rect x="699" y="850.0" width="56.0" height="18" fill="#ef7d16"/><text x="763.0" y="865.0" font-family="Arial, sans-serif" font-size="13" fill="#202124">4,68★  (vorher 4,8★)</text><text x="657" y="901.0" text-anchor="end" font-family="Arial, sans-serif" font-size="13" fill="#83888d">16.</text><text x="699" y="882.0" font-family="Arial, sans-serif" font-size="14" fill="#202124">Ruscher &amp; Nölke - Rechtsanwälte Notar Steuer…</text><rect x="699" y="886.0" width="53.5" height="18" fill="#ef7d16"/><text x="760.5" y="901.0" font-family="Arial, sans-serif" font-size="13" fill="#202124">4,69★  (vorher 4,8★)</text><text x="657" y="937.0" text-anchor="end" font-family="Arial, sans-serif" font-size="13" fill="#83888d">17.</text><text x="699" y="918.0" font-family="Arial, sans-serif" font-size="14" fill="#202124">Casa Pazzi</text><rect x="699" y="922.0" width="49.0" height="18" fill="#ef7d16"/><text x="756.0" y="937.0" font-family="Arial, sans-serif" font-size="13" fill="#202124">4,72★  (vorher 4,8★)</text><text x="657" y="973.0" text-anchor="end" font-family="Arial, sans-serif" font-size="13" fill="#83888d">18.</text><text x="699" y="954.0" font-family="Arial, sans-serif" font-size="14" fill="#202124">Hautarztpraxis Münster , MVZ, Prof. Dr. med.…</text><rect x="699" y="958.0" width="36.9" height="18" fill="#ef7d16"/><text x="743.9" y="973.0" font-family="Arial, sans-serif" font-size="13" fill="#202124">4,79★  (vorher 4,9★)</text><text x="657" y="1009.0" text-anchor="end" font-family="Arial, sans-serif" font-size="13" fill="#83888d">19.</text><text x="699" y="990.0" font-family="Arial, sans-serif" font-size="14" fill="#202124">Fahrschule Fahrfreude Münster GmbH</text><rect x="699" y="994.0" width="27.0" height="18" fill="#ef7d16"/><text x="734.0" y="1009.0" font-family="Arial, sans-serif" font-size="13" fill="#202124">4,84★  (vorher 5,0★)</text><text x="657" y="1045.0" text-anchor="end" font-family="Arial, sans-serif" font-size="13" fill="#83888d">20.</text><text x="699" y="1026.0" font-family="Arial, sans-serif" font-size="14" fill="#202124">VIVA Fitness Münster</text><rect x="699" y="1030.0" width="25.6" height="18" fill="#ef7d16"/><text x="732.6" y="1045.0" font-family="Arial, sans-serif" font-size="13" fill="#202124">4,85★  (vorher 4,9★)</text><text x="657" y="1081.0" text-anchor="end" font-family="Arial, sans-serif" font-size="13" fill="#83888d">21.</text><text x="699" y="1062.0" font-family="Arial, sans-serif" font-size="14" fill="#202124">Auszeit Kosmetik</text><rect x="699" y="1066.0" width="22.4" height="18" fill="#ef7d16"/><text x="729.4" y="1081.0" font-family="Arial, sans-serif" font-size="13" fill="#202124">4,87★  (vorher 4,9★)</text><text x="657" y="1117.0" text-anchor="end" font-family="Arial, sans-serif" font-size="13" fill="#83888d">22.</text><text x="699" y="1098.0" font-family="Arial, sans-serif" font-size="14" fill="#202124">Les Cèdres</text><rect x="699" y="1102.0" width="17.8" height="18" fill="#ef7d16"/><text x="724.8" y="1117.0" font-family="Arial, sans-serif" font-size="13" fill="#202124">4,90★  (vorher 4,9★)</text><text x="900" y="1156.0" text-anchor="middle" font-family="Arial, sans-serif" font-size="13" fill="#6f7377">Punkte unter 5★</text></g><g><text x="1250" y="230" font-family="Arial, sans-serif" font-size="27" font-weight="800" fill="#202124">3. Beste Orte ohne Löschbanner</text><text x="1250" y="260" font-family="Arial, sans-serif" font-size="16" fill="#6f7377">kein sichtbarer Diffamierungs-Löschbanner — ab 100 Rezensionen</text><rect x="1250" y="322" width="470" height="1104" fill="#ffffff" opacity="0.96" filter="url(#softShadow)"/><line x1="1284.0" y1="322" x2="1284.0" y2="1406.0" stroke="#dde3e8" stroke-width="1"/><line x1="1384.5" y1="322" x2="1384.5" y2="1406.0" stroke="#dde3e8" stroke-width="1"/><line x1="1485.0" y1="322" x2="1485.0" y2="1406.0" stroke="#dde3e8" stroke-width="1"/><line x1="1585.5" y1="322" x2="1585.5" y2="1406.0" stroke="#dde3e8" stroke-width="1"/><line x1="1686.0" y1="322" x2="1686.0" y2="1406.0" stroke="#dde3e8" stroke-width="1"/><text x="1242" y="361.0" text-anchor="end" font-family="Arial, sans-serif" font-size="13" fill="#83888d">1.</text><text x="1284" y="342.0" font-family="Arial, sans-serif" font-size="14" fill="#202124">Leibundseele - Pasta, Pizza, Pane</text><rect x="1284" y="346.0" width="402.0" height="18" fill="#2e7d32"/><text x="1694.0" y="361.0" font-family="Arial, sans-serif" font-size="13" fill="#202124">5,0★  (230 Rezensionen)</text><text x="1242" y="397.0" text-anchor="end" font-family="Arial, sans-serif" font-size="13" fill="#83888d">2.</text><text x="1284" y="378.0" font-family="Arial, sans-serif" font-size="14" fill="#202124">Maitri Yoga Studio</text><rect x="1284" y="382.0" width="402.0" height="18" fill="#2e7d32"/><text x="1694.0" y="397.0" font-family="Arial, sans-serif" font-size="13" fill="#202124">5,0★  (205 Rezensionen)</text><text x="1242" y="433.0" text-anchor="end" font-family="Arial, sans-serif" font-size="13" fill="#83888d">3.</text><text x="1284" y="414.0" font-family="Arial, sans-serif" font-size="14" fill="#202124">Budosportcenter Münster</text><rect x="1284" y="418.0" width="402.0" height="18" fill="#2e7d32"/><text x="1694.0" y="433.0" font-family="Arial, sans-serif" font-size="13" fill="#202124">5,0★  (145 Rezensionen)</text><text x="1242" y="469.0" text-anchor="end" font-family="Arial, sans-serif" font-size="13" fill="#83888d">4.</text><text x="1284" y="450.0" font-family="Arial, sans-serif" font-size="14" fill="#202124">Strong Partners</text><rect x="1284" y="454.0" width="402.0" height="18" fill="#2e7d32"/><text x="1694.0" y="469.0" font-family="Arial, sans-serif" font-size="13" fill="#202124">5,0★  (128 Rezensionen)</text><text x="1242" y="505.0" text-anchor="end" font-family="Arial, sans-serif" font-size="13" fill="#83888d">5.</text><text x="1284" y="486.0" font-family="Arial, sans-serif" font-size="14" fill="#202124">Fitshop Münster</text><rect x="1284" y="490.0" width="394.0" height="18" fill="#2e7d32"/><text x="1686.0" y="505.0" font-family="Arial, sans-serif" font-size="13" fill="#202124">4,9★  (675 Rezensionen)</text><text x="1242" y="541.0" text-anchor="end" font-family="Arial, sans-serif" font-size="13" fill="#83888d">6.</text><text x="1284" y="522.0" font-family="Arial, sans-serif" font-size="14" fill="#202124">FASTRESULT Münster</text><rect x="1284" y="526.0" width="394.0" height="18" fill="#2e7d32"/><text x="1686.0" y="541.0" font-family="Arial, sans-serif" font-size="13" fill="#202124">4,9★  (141 Rezensionen)</text><text x="1242" y="577.0" text-anchor="end" font-family="Arial, sans-serif" font-size="13" fill="#83888d">7.</text><text x="1284" y="558.0" font-family="Arial, sans-serif" font-size="14" fill="#202124">Sport-Profi</text><rect x="1284" y="562.0" width="394.0" height="18" fill="#2e7d32"/><text x="1686.0" y="577.0" font-family="Arial, sans-serif" font-size="13" fill="#202124">4,9★  (116 Rezensionen)</text><text x="1242" y="613.0" text-anchor="end" font-family="Arial, sans-serif" font-size="13" fill="#83888d">8.</text><text x="1284" y="594.0" font-family="Arial, sans-serif" font-size="14" fill="#202124">Gaststätte Kiepe</text><rect x="1284" y="598.0" width="385.9" height="18" fill="#2e7d32"/><text x="1677.9" y="613.0" font-family="Arial, sans-serif" font-size="13" fill="#202124">4,8★  (800 Rezensionen)</text><text x="1242" y="649.0" text-anchor="end" font-family="Arial, sans-serif" font-size="13" fill="#83888d">9.</text><text x="1284" y="630.0" font-family="Arial, sans-serif" font-size="14" fill="#202124">Roccos Weinlager &amp; Pizzeria</text><rect x="1284" y="634.0" width="385.9" height="18" fill="#2e7d32"/><text x="1677.9" y="649.0" font-family="Arial, sans-serif" font-size="13" fill="#202124">4,8★  (410 Rezensionen)</text><text x="1242" y="685.0" text-anchor="end" font-family="Arial, sans-serif" font-size="13" fill="#83888d">10.</text><text x="1284" y="666.0" font-family="Arial, sans-serif" font-size="14" fill="#202124">Restaurant Pizzeria Bellissima da Francesco …</text><rect x="1284" y="670.0" width="385.9" height="18" fill="#2e7d32"/><text x="1677.9" y="685.0" font-family="Arial, sans-serif" font-size="13" fill="#202124">4,8★  (330 Rezensionen)</text><text x="1242" y="721.0" text-anchor="end" font-family="Arial, sans-serif" font-size="13" fill="#83888d">11.</text><text x="1284" y="702.0" font-family="Arial, sans-serif" font-size="14" fill="#202124">PALUMBO Restaurant</text><rect x="1284" y="706.0" width="385.9" height="18" fill="#2e7d32"/><text x="1677.9" y="721.0" font-family="Arial, sans-serif" font-size="13" fill="#202124">4,8★  (284 Rezensionen)</text><text x="1242" y="757.0" text-anchor="end" font-family="Arial, sans-serif" font-size="13" fill="#83888d">12.</text><text x="1284" y="738.0" font-family="Arial, sans-serif" font-size="14" fill="#202124">GYNMÜNSTER</text><rect x="1284" y="742.0" width="385.9" height="18" fill="#2e7d32"/><text x="1677.9" y="757.0" font-family="Arial, sans-serif" font-size="13" fill="#202124">4,8★  (232 Rezensionen)</text><text x="1242" y="793.0" text-anchor="end" font-family="Arial, sans-serif" font-size="13" fill="#83888d">13.</text><text x="1284" y="774.0" font-family="Arial, sans-serif" font-size="14" fill="#202124">Cafebar Los Amigos</text><rect x="1284" y="778.0" width="385.9" height="18" fill="#2e7d32"/><text x="1677.9" y="793.0" font-family="Arial, sans-serif" font-size="13" fill="#202124">4,8★  (149 Rezensionen)</text><text x="1242" y="829.0" text-anchor="end" font-family="Arial, sans-serif" font-size="13" fill="#83888d">14.</text><text x="1284" y="810.0" font-family="Arial, sans-serif" font-size="14" fill="#202124">Jacques’ Wein-Depot Münster-Mauritz</text><rect x="1284" y="814.0" width="385.9" height="18" fill="#2e7d32"/><text x="1677.9" y="829.0" font-family="Arial, sans-serif" font-size="13" fill="#202124">4,8★  (137 Rezensionen)</text><text x="1242" y="865.0" text-anchor="end" font-family="Arial, sans-serif" font-size="13" fill="#83888d">15.</text><text x="1284" y="846.0" font-family="Arial, sans-serif" font-size="14" fill="#202124">Balkanrestaurant Alter Schützenhof</text><rect x="1284" y="850.0" width="377.9" height="18" fill="#2e7d32"/><text x="1669.9" y="865.0" font-family="Arial, sans-serif" font-size="13" fill="#202124">4,7★  (546 Rezensionen)</text><text x="1242" y="901.0" text-anchor="end" font-family="Arial, sans-serif" font-size="13" fill="#83888d">16.</text><text x="1284" y="882.0" font-family="Arial, sans-serif" font-size="14" fill="#202124">Anadolu</text><rect x="1284" y="886.0" width="377.9" height="18" fill="#2e7d32"/><text x="1669.9" y="901.0" font-family="Arial, sans-serif" font-size="13" fill="#202124">4,7★  (458 Rezensionen)</text><text x="1242" y="937.0" text-anchor="end" font-family="Arial, sans-serif" font-size="13" fill="#83888d">17.</text><text x="1284" y="918.0" font-family="Arial, sans-serif" font-size="14" fill="#202124">Hinkerohe &amp; Groneick GmbH</text><rect x="1284" y="922.0" width="377.9" height="18" fill="#2e7d32"/><text x="1669.9" y="937.0" font-family="Arial, sans-serif" font-size="13" fill="#202124">4,7★  (233 Rezensionen)</text><text x="1242" y="973.0" text-anchor="end" font-family="Arial, sans-serif" font-size="13" fill="#83888d">18.</text><text x="1284" y="954.0" font-family="Arial, sans-serif" font-size="14" fill="#202124">Flotte Bohne</text><rect x="1284" y="958.0" width="377.9" height="18" fill="#2e7d32"/><text x="1669.9" y="973.0" font-family="Arial, sans-serif" font-size="13" fill="#202124">4,7★  (222 Rezensionen)</text><text x="1242" y="1009.0" text-anchor="end" font-family="Arial, sans-serif" font-size="13" fill="#83888d">19.</text><text x="1284" y="990.0" font-family="Arial, sans-serif" font-size="14" fill="#202124">Taco Brothers Münster</text><rect x="1284" y="994.0" width="377.9" height="18" fill="#2e7d32"/><text x="1669.9" y="1009.0" font-family="Arial, sans-serif" font-size="13" fill="#202124">4,7★  (216 Rezensionen)</text><text x="1242" y="1045.0" text-anchor="end" font-family="Arial, sans-serif" font-size="13" fill="#83888d">20.</text><text x="1284" y="1026.0" font-family="Arial, sans-serif" font-size="14" fill="#202124">Restaurant Kleine Welt</text><rect x="1284" y="1030.0" width="377.9" height="18" fill="#2e7d32"/><text x="1669.9" y="1045.0" font-family="Arial, sans-serif" font-size="13" fill="#202124">4,7★  (203 Rezensionen)</text><text x="1242" y="1081.0" text-anchor="end" font-family="Arial, sans-serif" font-size="13" fill="#83888d">21.</text><text x="1284" y="1062.0" font-family="Arial, sans-serif" font-size="14" fill="#202124">Golf House Filiale Münster</text><rect x="1284" y="1066.0" width="377.9" height="18" fill="#2e7d32"/><text x="1669.9" y="1081.0" font-family="Arial, sans-serif" font-size="13" fill="#202124">4,7★  (176 Rezensionen)</text><text x="1242" y="1117.0" text-anchor="end" font-family="Arial, sans-serif" font-size="13" fill="#83888d">22.</text><text x="1284" y="1098.0" font-family="Arial, sans-serif" font-size="14" fill="#202124">Orléans</text><rect x="1284" y="1102.0" width="377.9" height="18" fill="#2e7d32"/><text x="1669.9" y="1117.0" font-family="Arial, sans-serif" font-size="13" fill="#202124">4,7★  (172 Rezensionen)</text><text x="1242" y="1153.0" text-anchor="end" font-family="Arial, sans-serif" font-size="13" fill="#83888d">23.</text><text x="1284" y="1134.0" font-family="Arial, sans-serif" font-size="14" fill="#202124">SPORTBÖRSE, der Ski Shop</text><rect x="1284" y="1138.0" width="377.9" height="18" fill="#2e7d32"/><text x="1669.9" y="1153.0" font-family="Arial, sans-serif" font-size="13" fill="#202124">4,7★  (139 Rezensionen)</text><text x="1242" y="1189.0" text-anchor="end" font-family="Arial, sans-serif" font-size="13" fill="#83888d">24.</text><text x="1284" y="1170.0" font-family="Arial, sans-serif" font-size="14" fill="#202124">Restaurant Olympia</text><rect x="1284" y="1174.0" width="369.8" height="18" fill="#2e7d32"/><text x="1661.8" y="1189.0" font-family="Arial, sans-serif" font-size="13" fill="#202124">4,6★  (880 Rezensionen)</text><text x="1242" y="1225.0" text-anchor="end" font-family="Arial, sans-serif" font-size="13" fill="#83888d">25.</text><text x="1284" y="1206.0" font-family="Arial, sans-serif" font-size="14" fill="#202124">Spooky&#39;s - Münster</text><rect x="1284" y="1210.0" width="369.8" height="18" fill="#2e7d32"/><text x="1661.8" y="1225.0" font-family="Arial, sans-serif" font-size="13" fill="#202124">4,6★  (781 Rezensionen)</text><text x="1242" y="1261.0" text-anchor="end" font-family="Arial, sans-serif" font-size="13" fill="#83888d">26.</text><text x="1284" y="1242.0" font-family="Arial, sans-serif" font-size="14" fill="#202124">Zum zweischneidigen Pferd</text><rect x="1284" y="1246.0" width="369.8" height="18" fill="#2e7d32"/><text x="1661.8" y="1261.0" font-family="Arial, sans-serif" font-size="13" fill="#202124">4,6★  (716 Rezensionen)</text><text x="1242" y="1297.0" text-anchor="end" font-family="Arial, sans-serif" font-size="13" fill="#83888d">27.</text><text x="1284" y="1278.0" font-family="Arial, sans-serif" font-size="14" fill="#202124">Squisito Pizza &amp; Pasta</text><rect x="1284" y="1282.0" width="369.8" height="18" fill="#2e7d32"/><text x="1661.8" y="1297.0" font-family="Arial, sans-serif" font-size="13" fill="#202124">4,6★  (374 Rezensionen)</text><text x="1242" y="1333.0" text-anchor="end" font-family="Arial, sans-serif" font-size="13" fill="#83888d">28.</text><text x="1284" y="1314.0" font-family="Arial, sans-serif" font-size="14" fill="#202124">Deniz Restaurant</text><rect x="1284" y="1318.0" width="369.8" height="18" fill="#2e7d32"/><text x="1661.8" y="1333.0" font-family="Arial, sans-serif" font-size="13" fill="#202124">4,6★  (359 Rezensionen)</text><text x="1242" y="1369.0" text-anchor="end" font-family="Arial, sans-serif" font-size="13" fill="#83888d">29.</text><text x="1284" y="1350.0" font-family="Arial, sans-serif" font-size="14" fill="#202124">Cinema &amp; Kurbelkiste</text><rect x="1284" y="1354.0" width="369.8" height="18" fill="#2e7d32"/><text x="1661.8" y="1369.0" font-family="Arial, sans-serif" font-size="13" fill="#202124">4,6★  (300 Rezensionen)</text><text x="1242" y="1405.0" text-anchor="end" font-family="Arial, sans-serif" font-size="13" fill="#83888d">30.</text><text x="1284" y="1386.0" font-family="Arial, sans-serif" font-size="14" fill="#202124">Café-Bistro 21 Ost</text><rect x="1284" y="1390.0" width="369.8" height="18" fill="#2e7d32"/><text x="1661.8" y="1405.0" font-family="Arial, sans-serif" font-size="13" fill="#202124">4,6★  (222 Rezensionen)</text><text x="1485" y="1444.0" text-anchor="middle" font-family="Arial, sans-serif" font-size="13" fill="#6f7377">Rating (★)</text></g><g><text x="120" y="1660" font-family="Arial, sans-serif" font-size="28" font-weight="800" fill="#202124">Verteilung der Lösch-Stufen über alle 325 Orte</text><rect x="120" y="1715" width="1540" height="560" fill="#ffffff" opacity="0.96" filter="url(#softShadow)"/><text x="150" y="1781" font-family="Arial, sans-serif" font-size="18" fill="#202124">Keine Löschung</text><rect x="450" y="1765" width="900" height="24" fill="#edf2f5"/><rect x="450" y="1765" width="900.0" height="24" fill="#2e7d32"/><text x="1380" y="1783" font-family="Arial, sans-serif" font-size="18" fill="#202124">303 (93,2%)</text><text x="150" y="1826" font-family="Arial, sans-serif" font-size="18" fill="#202124">Eine gelöscht</text><rect x="450" y="1810" width="900" height="24" fill="#edf2f5"/><rect x="450" y="1810" width="5.9" height="24" fill="#8bc34a"/><text x="1380" y="1828" font-family="Arial, sans-serif" font-size="18" fill="#202124">2 (0,6%)</text><text x="150" y="1871" font-family="Arial, sans-serif" font-size="18" fill="#202124">2–5 gelöscht</text><rect x="450" y="1855" width="900" height="24" fill="#edf2f5"/><rect x="450" y="1855" width="17.8" height="24" fill="#cddc39"/><text x="1380" y="1873" font-family="Arial, sans-serif" font-size="18" fill="#202124">6 (1,8%)</text><text x="150" y="1916" font-family="Arial, sans-serif" font-size="18" fill="#202124">6–10 gelöscht</text><rect x="450" y="1900" width="900" height="24" fill="#edf2f5"/><rect x="450" y="1900" width="11.9" height="24" fill="#ffca28"/><text x="1380" y="1918" font-family="Arial, sans-serif" font-size="18" fill="#202124">4 (1,2%)</text><text x="150" y="1961" font-family="Arial, sans-serif" font-size="18" fill="#202124">11–20 gelöscht</text><rect x="450" y="1945" width="900" height="24" fill="#edf2f5"/><rect x="450" y="1945" width="14.9" height="24" fill="#ff9f1c"/><text x="1380" y="1963" font-family="Arial, sans-serif" font-size="18" fill="#202124">5 (1,5%)</text><text x="150" y="2006" font-family="Arial, sans-serif" font-size="18" fill="#202124">21–50 gelöscht</text><rect x="450" y="1990" width="900" height="24" fill="#edf2f5"/><rect x="450" y="1990" width="8.9" height="24" fill="#ff6d00"/><text x="1380" y="2008" font-family="Arial, sans-serif" font-size="18" fill="#202124">3 (0,9%)</text><text x="150" y="2051" font-family="Arial, sans-serif" font-size="18" fill="#202124">51–100 gelöscht</text><rect x="450" y="2035" width="900" height="24" fill="#edf2f5"/><rect x="450" y="2035" width="3.0" height="24" fill="#e5391b"/><text x="1380" y="2053" font-family="Arial, sans-serif" font-size="18" fill="#202124">1 (0,3%)</text><text x="150" y="2096" font-family="Arial, sans-serif" font-size="18" fill="#202124">101–200 gelöscht</text><rect x="450" y="2080" width="900" height="24" fill="#edf2f5"/><rect x="450" y="2080" width="0.0" height="24" fill="#c62828"/><text x="1380" y="2098" font-family="Arial, sans-serif" font-size="18" fill="#202124">0 (0,0%)</text><text x="150" y="2141" font-family="Arial, sans-serif" font-size="18" fill="#202124">201–250 gelöscht</text><rect x="450" y="2125" width="900" height="24" fill="#edf2f5"/><rect x="450" y="2125" width="0.0" height="24" fill="#8e1919"/><text x="1380" y="2143" font-family="Arial, sans-serif" font-size="18" fill="#202124">0 (0,0%)</text><text x="150" y="2186" font-family="Arial, sans-serif" font-size="18" fill="#202124">Über 250 gelöscht</text><rect x="450" y="2170" width="900" height="24" fill="#edf2f5"/><rect x="450" y="2170" width="3.0" height="24" fill="#5b0f0f"/><text x="1380" y="2188" font-family="Arial, sans-serif" font-size="18" fill="#202124">1 (0,3%)</text></g><text x="40" y="2460" font-family="Arial, sans-serif" font-size="13" fill="#8a8f94">Quelle: Google Maps, öffentlich sichtbare Banner; Analyse-Snapshot 08.05.2026</text><text x="1760" y="2460" text-anchor="end" font-family="Arial, sans-serif" font-size="13" fill="#8a8f94">© <a href="https://patwoz.dev" target="_blank" style="fill:#8a8f94;text-decoration:none">Patrick Wozniak</a></text><text x="1760" y="2480" text-anchor="end" font-family="Arial, sans-serif" font-size="11" fill="#aab0b5">patwoz.dev</text></svg>
