<svg xmlns="http://www.w3.org/2000/svg" width="1800" height="2500" viewBox="0 0 1800 2500">
  <defs>
    <linearGradient id="bg" x1="0" y1="0" x2="0" y2="1"><stop offset="0%" stop-color="#d9e8f2"/><stop offset="58%" stop-color="#eef6fa"/><stop offset="100%" stop-color="#d7dde2"/></linearGradient>
    <filter id="softShadow" x="-10%" y="-10%" width="120%" height="120%"><feDropShadow dx="0" dy="8" stdDeviation="10" flood-color="#6d7f8a" flood-opacity="0.16"/></filter>
  </defs>
  <rect width="100%" height="100%" fill="url(#bg)"/>
  <circle cx="1450" cy="310" r="500" fill="#ffffff" opacity="0.18"/>
  <circle cx="260" cy="2140" r="620" fill="#ffffff" opacity="0.20"/>
  <text x="900" y="70" text-anchor="middle" font-family="Arial, sans-serif" font-size="48" font-weight="800" fill="#202124">Postleitzahl 49143 — Ibbenbüren</text>
  <text x="900" y="112" text-anchor="middle" font-family="Arial, sans-serif" font-size="22" fill="#4b5055">Google-Maps-Orte: gelöschte Rezensionen wegen „Diffamierung“</text>
  <text x="900" y="160" text-anchor="middle" font-family="Arial, sans-serif" font-size="18" fill="#6f7377">188 Orte erfasst · 14 mit sichtbarem Banner (7,4%) · 0 in der „Über“-Stufe</text><g><text x="80" y="230" font-family="Arial, sans-serif" font-size="27" font-weight="800" fill="#202124">1. Höchste Lösch-Quote</text><text x="80" y="260" font-family="Arial, sans-serif" font-size="16" fill="#6f7377">Anteil gelöschter Rezensionen</text><rect x="80" y="322" width="470" height="528" fill="#ffffff" opacity="0.96" filter="url(#softShadow)"/><line x1="114.0" y1="322" x2="114.0" y2="830.0" stroke="#dde3e8" stroke-width="1"/><line x1="214.5" y1="322" x2="214.5" y2="830.0" stroke="#dde3e8" stroke-width="1"/><line x1="315.0" y1="322" x2="315.0" y2="830.0" stroke="#dde3e8" stroke-width="1"/><line x1="415.5" y1="322" x2="415.5" y2="830.0" stroke="#dde3e8" stroke-width="1"/><line x1="516.0" y1="322" x2="516.0" y2="830.0" stroke="#dde3e8" stroke-width="1"/><text x="72" y="361.0" text-anchor="end" font-family="Arial, sans-serif" font-size="13" fill="#83888d">1.</text><text x="114" y="342.0" font-family="Arial, sans-serif" font-size="14" fill="#202124">spot display solutions GmbH</text><rect x="114" y="346.0" width="402.0" height="18" fill="#c9332c"/><text x="524.0" y="361.0" font-family="Arial, sans-serif" font-size="13" fill="#202124">20,0%  (2–5 von 14)</text><text x="72" y="397.0" text-anchor="end" font-family="Arial, sans-serif" font-size="13" fill="#83888d">2.</text><text x="114" y="378.0" font-family="Arial, sans-serif" font-size="14" fill="#202124">MAB Meldeanlagenbau GmbH</text><rect x="114" y="382.0" width="343.1" height="18" fill="#c9332c"/><text x="465.1" y="397.0" font-family="Arial, sans-serif" font-size="13" fill="#202124">17,1%  (2–5 von 17)</text><text x="72" y="433.0" text-anchor="end" font-family="Arial, sans-serif" font-size="13" fill="#83888d">3.</text><text x="114" y="414.0" font-family="Arial, sans-serif" font-size="14" fill="#202124">Fahrzeug-Center Schriewer GmbH</text><rect x="114" y="418.0" width="183.7" height="18" fill="#c9332c"/><text x="305.7" y="433.0" font-family="Arial, sans-serif" font-size="13" fill="#202124">9,1%  (21–50 von 353)</text><text x="72" y="469.0" text-anchor="end" font-family="Arial, sans-serif" font-size="13" fill="#83888d">4.</text><text x="114" y="450.0" font-family="Arial, sans-serif" font-size="14" fill="#202124">Veregge &amp; Welz GmbH</text><rect x="114" y="454.0" width="146.3" height="18" fill="#c9332c"/><text x="268.3" y="469.0" font-family="Arial, sans-serif" font-size="13" fill="#202124">7,3%  (21–50 von 452)</text><text x="72" y="505.0" text-anchor="end" font-family="Arial, sans-serif" font-size="13" fill="#83888d">5.</text><text x="114" y="486.0" font-family="Arial, sans-serif" font-size="14" fill="#202124">Piccolino</text><rect x="114" y="490.0" width="118.6" height="18" fill="#c9332c"/><text x="240.6" y="505.0" font-family="Arial, sans-serif" font-size="13" fill="#202124">5,9%  (11–20 von 247)</text><text x="72" y="541.0" text-anchor="end" font-family="Arial, sans-serif" font-size="13" fill="#83888d">6.</text><text x="114" y="522.0" font-family="Arial, sans-serif" font-size="14" fill="#202124">Saunaclub Yasmin</text><rect x="114" y="526.0" width="109.1" height="18" fill="#c9332c"/><text x="231.1" y="541.0" font-family="Arial, sans-serif" font-size="13" fill="#202124">5,4%  (2–5 von 61)</text><text x="72" y="577.0" text-anchor="end" font-family="Arial, sans-serif" font-size="13" fill="#83888d">7.</text><text x="114" y="558.0" font-family="Arial, sans-serif" font-size="14" fill="#202124">Restaurant Nostima</text><rect x="114" y="562.0" width="91.3" height="18" fill="#c9332c"/><text x="213.3" y="577.0" font-family="Arial, sans-serif" font-size="13" fill="#202124">4,5%  (11–20 von 326)</text><text x="72" y="613.0" text-anchor="end" font-family="Arial, sans-serif" font-size="13" fill="#83888d">8.</text><text x="114" y="594.0" font-family="Arial, sans-serif" font-size="14" fill="#202124">Mister Barbershop</text><rect x="114" y="598.0" width="30.6" height="18" fill="#c9332c"/><text x="152.6" y="613.0" font-family="Arial, sans-serif" font-size="13" fill="#202124">1,5%  (1 von 65)</text><text x="72" y="649.0" text-anchor="end" font-family="Arial, sans-serif" font-size="13" fill="#83888d">9.</text><text x="114" y="630.0" font-family="Arial, sans-serif" font-size="14" fill="#202124">KERIM SUENNETCI Hairsalon &amp; Academy</text><rect x="114" y="634.0" width="29.7" height="18" fill="#c9332c"/><text x="151.7" y="649.0" font-family="Arial, sans-serif" font-size="13" fill="#202124">1,5%  (6–10 von 531)</text><text x="72" y="685.0" text-anchor="end" font-family="Arial, sans-serif" font-size="13" fill="#83888d">10.</text><text x="114" y="666.0" font-family="Arial, sans-serif" font-size="14" fill="#202124">Weberhaus</text><rect x="114" y="670.0" width="21.7" height="18" fill="#c9332c"/><text x="143.7" y="685.0" font-family="Arial, sans-serif" font-size="13" fill="#202124">1,1%  (11–20 von 1.421)</text><text x="72" y="721.0" text-anchor="end" font-family="Arial, sans-serif" font-size="13" fill="#83888d">11.</text><text x="114" y="702.0" font-family="Arial, sans-serif" font-size="14" fill="#202124">Hotel Drei Birken</text><rect x="114" y="706.0" width="20.5" height="18" fill="#c9332c"/><text x="142.5" y="721.0" font-family="Arial, sans-serif" font-size="13" fill="#202124">1,0%  (6–10 von 777)</text><text x="72" y="757.0" text-anchor="end" font-family="Arial, sans-serif" font-size="13" fill="#83888d">12.</text><text x="114" y="738.0" font-family="Arial, sans-serif" font-size="14" fill="#202124">Lammers Esskultur &amp; mehr</text><rect x="114" y="742.0" width="14.3" height="18" fill="#c9332c"/><text x="136.3" y="757.0" font-family="Arial, sans-serif" font-size="13" fill="#202124">0,7%  (2–5 von 489)</text><text x="72" y="793.0" text-anchor="end" font-family="Arial, sans-serif" font-size="13" fill="#83888d">13.</text><text x="114" y="774.0" font-family="Arial, sans-serif" font-size="14" fill="#202124">FIM Finanz- und Immobilienmanagement GmbH</text><rect x="114" y="778.0" width="8.0" height="18" fill="#c9332c"/><text x="130.0" y="793.0" font-family="Arial, sans-serif" font-size="13" fill="#202124">0,4%  (1 von 249)</text><text x="72" y="829.0" text-anchor="end" font-family="Arial, sans-serif" font-size="13" fill="#83888d">14.</text><text x="114" y="810.0" font-family="Arial, sans-serif" font-size="14" fill="#202124">Bayrischer Hof - Hotel Restaurant</text><rect x="114" y="814.0" width="4.2" height="18" fill="#c9332c"/><text x="126.2" y="829.0" font-family="Arial, sans-serif" font-size="13" fill="#202124">0,2%  (1 von 471)</text><text x="315" y="868.0" text-anchor="middle" font-family="Arial, sans-serif" font-size="13" fill="#6f7377">Lösch-Quote (%) · Top 30</text></g><g><text x="665" y="230" font-family="Arial, sans-serif" font-size="27" font-weight="800" fill="#202124">2. Schlechtestes „echtes“ Rating</text><text x="665" y="260" font-family="Arial, sans-serif" font-size="16" fill="#6f7377">Modell: gelöschte Rezensionen waren 1★</text><rect x="665" y="322" width="470" height="528" fill="#ffffff" opacity="0.96" filter="url(#softShadow)"/><line x1="699.0" y1="322" x2="699.0" y2="830.0" stroke="#dde3e8" stroke-width="1"/><line x1="799.5" y1="322" x2="799.5" y2="830.0" stroke="#dde3e8" stroke-width="1"/><line x1="900.0" y1="322" x2="900.0" y2="830.0" stroke="#dde3e8" stroke-width="1"/><line x1="1000.5" y1="322" x2="1000.5" y2="830.0" stroke="#dde3e8" stroke-width="1"/><line x1="1101.0" y1="322" x2="1101.0" y2="830.0" stroke="#dde3e8" stroke-width="1"/><text x="657" y="361.0" text-anchor="end" font-family="Arial, sans-serif" font-size="13" fill="#83888d">1.</text><text x="699" y="342.0" font-family="Arial, sans-serif" font-size="14" fill="#202124">spot display solutions GmbH</text><rect x="699" y="346.0" width="321.6" height="18" fill="#ef7d16"/><text x="1028.6" y="361.0" font-family="Arial, sans-serif" font-size="13" fill="#202124">4,20★  (vorher 5,0★)</text><text x="657" y="397.0" text-anchor="end" font-family="Arial, sans-serif" font-size="13" fill="#83888d">2.</text><text x="699" y="378.0" font-family="Arial, sans-serif" font-size="14" fill="#202124">Fahrzeug-Center Schriewer GmbH</text><rect x="699" y="382.0" width="293.1" height="18" fill="#ef7d16"/><text x="1000.1" y="397.0" font-family="Arial, sans-serif" font-size="13" fill="#202124">4,27★  (vorher 4,6★)</text><text x="657" y="433.0" text-anchor="end" font-family="Arial, sans-serif" font-size="13" fill="#83888d">3.</text><text x="699" y="414.0" font-family="Arial, sans-serif" font-size="14" fill="#202124">MAB Meldeanlagenbau GmbH</text><rect x="699" y="418.0" width="274.6" height="18" fill="#ef7d16"/><text x="981.6" y="433.0" font-family="Arial, sans-serif" font-size="13" fill="#202124">4,32★  (vorher 5,0★)</text><text x="657" y="469.0" text-anchor="end" font-family="Arial, sans-serif" font-size="13" fill="#83888d">4.</text><text x="699" y="450.0" font-family="Arial, sans-serif" font-size="14" fill="#202124">Veregge &amp; Welz GmbH</text><rect x="699" y="454.0" width="266.1" height="18" fill="#ef7d16"/><text x="973.1" y="469.0" font-family="Arial, sans-serif" font-size="13" fill="#202124">4,34★  (vorher 4,6★)</text><text x="657" y="505.0" text-anchor="end" font-family="Arial, sans-serif" font-size="13" fill="#83888d">5.</text><text x="699" y="486.0" font-family="Arial, sans-serif" font-size="14" fill="#202124">Piccolino</text><rect x="699" y="490.0" width="246.4" height="18" fill="#ef7d16"/><text x="953.4" y="505.0" font-family="Arial, sans-serif" font-size="13" fill="#202124">4,39★  (vorher 4,6★)</text><text x="657" y="541.0" text-anchor="end" font-family="Arial, sans-serif" font-size="13" fill="#83888d">6.</text><text x="699" y="522.0" font-family="Arial, sans-serif" font-size="14" fill="#202124">Hotel Drei Birken</text><rect x="699" y="526.0" width="215.5" height="18" fill="#ef7d16"/><text x="922.5" y="541.0" font-family="Arial, sans-serif" font-size="13" fill="#202124">4,46★  (vorher 4,5★)</text><text x="657" y="577.0" text-anchor="end" font-family="Arial, sans-serif" font-size="13" fill="#83888d">7.</text><text x="699" y="558.0" font-family="Arial, sans-serif" font-size="14" fill="#202124">Bayrischer Hof - Hotel Restaurant</text><rect x="699" y="562.0" width="203.8" height="18" fill="#ef7d16"/><text x="910.8" y="577.0" font-family="Arial, sans-serif" font-size="13" fill="#202124">4,49★  (vorher 4,5★)</text><text x="657" y="613.0" text-anchor="end" font-family="Arial, sans-serif" font-size="13" fill="#83888d">8.</text><text x="699" y="594.0" font-family="Arial, sans-serif" font-size="14" fill="#202124">Restaurant Nostima</text><rect x="699" y="598.0" width="149.5" height="18" fill="#ef7d16"/><text x="856.5" y="613.0" font-family="Arial, sans-serif" font-size="13" fill="#202124">4,63★  (vorher 4,8★)</text><text x="657" y="649.0" text-anchor="end" font-family="Arial, sans-serif" font-size="13" fill="#83888d">9.</text><text x="699" y="630.0" font-family="Arial, sans-serif" font-size="14" fill="#202124">Weberhaus</text><rect x="699" y="634.0" width="136.7" height="18" fill="#ef7d16"/><text x="843.7" y="649.0" font-family="Arial, sans-serif" font-size="13" fill="#202124">4,66★  (vorher 4,7★)</text><text x="657" y="685.0" text-anchor="end" font-family="Arial, sans-serif" font-size="13" fill="#83888d">10.</text><text x="699" y="666.0" font-family="Arial, sans-serif" font-size="14" fill="#202124">Lammers Esskultur &amp; mehr</text><rect x="699" y="670.0" width="131.1" height="18" fill="#ef7d16"/><text x="838.1" y="685.0" font-family="Arial, sans-serif" font-size="13" fill="#202124">4,67★  (vorher 4,7★)</text><text x="657" y="721.0" text-anchor="end" font-family="Arial, sans-serif" font-size="13" fill="#83888d">11.</text><text x="699" y="702.0" font-family="Arial, sans-serif" font-size="14" fill="#202124">Saunaclub Yasmin</text><rect x="699" y="706.0" width="125.4" height="18" fill="#ef7d16"/><text x="832.4" y="721.0" font-family="Arial, sans-serif" font-size="13" fill="#202124">4,69★  (vorher 4,9★)</text><text x="657" y="757.0" text-anchor="end" font-family="Arial, sans-serif" font-size="13" fill="#83888d">12.</text><text x="699" y="738.0" font-family="Arial, sans-serif" font-size="14" fill="#202124">FIM Finanz- und Immobilienmanagement GmbH</text><rect x="699" y="742.0" width="86.4" height="18" fill="#ef7d16"/><text x="793.4" y="757.0" font-family="Arial, sans-serif" font-size="13" fill="#202124">4,79★  (vorher 4,8★)</text><text x="657" y="793.0" text-anchor="end" font-family="Arial, sans-serif" font-size="13" fill="#83888d">13.</text><text x="699" y="774.0" font-family="Arial, sans-serif" font-size="14" fill="#202124">Mister Barbershop</text><rect x="699" y="778.0" width="63.9" height="18" fill="#ef7d16"/><text x="770.9" y="793.0" font-family="Arial, sans-serif" font-size="13" fill="#202124">4,84★  (vorher 4,9★)</text><text x="657" y="829.0" text-anchor="end" font-family="Arial, sans-serif" font-size="13" fill="#83888d">14.</text><text x="699" y="810.0" font-family="Arial, sans-serif" font-size="14" fill="#202124">KERIM SUENNETCI Hairsalon &amp; Academy</text><rect x="699" y="814.0" width="63.5" height="18" fill="#ef7d16"/><text x="770.5" y="829.0" font-family="Arial, sans-serif" font-size="13" fill="#202124">4,84★  (vorher 4,9★)</text><text x="900" y="868.0" text-anchor="middle" font-family="Arial, sans-serif" font-size="13" fill="#6f7377">Punkte unter 5★</text></g><g><text x="1250" y="230" font-family="Arial, sans-serif" font-size="27" font-weight="800" fill="#202124">3. Beste Orte ohne Löschbanner</text><text x="1250" y="260" font-family="Arial, sans-serif" font-size="16" fill="#6f7377">kein sichtbarer Diffamierungs-Löschbanner — ab 100 Rezensionen</text><rect x="1250" y="322" width="470" height="1104" fill="#ffffff" opacity="0.96" filter="url(#softShadow)"/><line x1="1284.0" y1="322" x2="1284.0" y2="1406.0" stroke="#dde3e8" stroke-width="1"/><line x1="1384.5" y1="322" x2="1384.5" y2="1406.0" stroke="#dde3e8" stroke-width="1"/><line x1="1485.0" y1="322" x2="1485.0" y2="1406.0" stroke="#dde3e8" stroke-width="1"/><line x1="1585.5" y1="322" x2="1585.5" y2="1406.0" stroke="#dde3e8" stroke-width="1"/><line x1="1686.0" y1="322" x2="1686.0" y2="1406.0" stroke="#dde3e8" stroke-width="1"/><text x="1242" y="361.0" text-anchor="end" font-family="Arial, sans-serif" font-size="13" fill="#83888d">1.</text><text x="1284" y="342.0" font-family="Arial, sans-serif" font-size="14" fill="#202124">Wert(h)volle Umzüge - Ricardo Werth</text><rect x="1284" y="346.0" width="402.0" height="18" fill="#2e7d32"/><text x="1694.0" y="361.0" font-family="Arial, sans-serif" font-size="13" fill="#202124">5,0★  (157 Rezensionen)</text><text x="1242" y="397.0" text-anchor="end" font-family="Arial, sans-serif" font-size="13" fill="#83888d">2.</text><text x="1284" y="378.0" font-family="Arial, sans-serif" font-size="14" fill="#202124">ROYALNUTS</text><rect x="1284" y="382.0" width="394.0" height="18" fill="#2e7d32"/><text x="1686.0" y="397.0" font-family="Arial, sans-serif" font-size="13" fill="#202124">4,9★  (123 Rezensionen)</text><text x="1242" y="433.0" text-anchor="end" font-family="Arial, sans-serif" font-size="13" fill="#83888d">3.</text><text x="1284" y="414.0" font-family="Arial, sans-serif" font-size="14" fill="#202124">Gut Aiderbichl Osnabrück - Tierschutzhof Kre…</text><rect x="1284" y="418.0" width="394.0" height="18" fill="#2e7d32"/><text x="1686.0" y="433.0" font-family="Arial, sans-serif" font-size="13" fill="#202124">4,9★  (107 Rezensionen)</text><text x="1242" y="469.0" text-anchor="end" font-family="Arial, sans-serif" font-size="13" fill="#83888d">4.</text><text x="1284" y="450.0" font-family="Arial, sans-serif" font-size="14" fill="#202124">Sommer Baustoffe GmbH + Co. KG</text><rect x="1284" y="454.0" width="385.9" height="18" fill="#2e7d32"/><text x="1677.9" y="469.0" font-family="Arial, sans-serif" font-size="13" fill="#202124">4,8★  (176 Rezensionen)</text><text x="1242" y="505.0" text-anchor="end" font-family="Arial, sans-serif" font-size="13" fill="#83888d">5.</text><text x="1284" y="486.0" font-family="Arial, sans-serif" font-size="14" fill="#202124">TZ - Autoservice GmbH</text><rect x="1284" y="490.0" width="385.9" height="18" fill="#2e7d32"/><text x="1677.9" y="505.0" font-family="Arial, sans-serif" font-size="13" fill="#202124">4,8★  (110 Rezensionen)</text><text x="1242" y="541.0" text-anchor="end" font-family="Arial, sans-serif" font-size="13" fill="#83888d">6.</text><text x="1284" y="522.0" font-family="Arial, sans-serif" font-size="14" fill="#202124">Küche [er]Leben by Losing</text><rect x="1284" y="526.0" width="385.9" height="18" fill="#2e7d32"/><text x="1677.9" y="541.0" font-family="Arial, sans-serif" font-size="13" fill="#202124">4,8★  (106 Rezensionen)</text><text x="1242" y="577.0" text-anchor="end" font-family="Arial, sans-serif" font-size="13" fill="#83888d">7.</text><text x="1284" y="558.0" font-family="Arial, sans-serif" font-size="14" fill="#202124">Hof Luckmann - Biergarten</text><rect x="1284" y="562.0" width="377.9" height="18" fill="#2e7d32"/><text x="1669.9" y="577.0" font-family="Arial, sans-serif" font-size="13" fill="#202124">4,7★  (753 Rezensionen)</text><text x="1242" y="613.0" text-anchor="end" font-family="Arial, sans-serif" font-size="13" fill="#83888d">8.</text><text x="1284" y="594.0" font-family="Arial, sans-serif" font-size="14" fill="#202124">Getränkehaus Kröger</text><rect x="1284" y="598.0" width="377.9" height="18" fill="#2e7d32"/><text x="1669.9" y="613.0" font-family="Arial, sans-serif" font-size="13" fill="#202124">4,7★  (203 Rezensionen)</text><text x="1242" y="649.0" text-anchor="end" font-family="Arial, sans-serif" font-size="13" fill="#83888d">9.</text><text x="1284" y="630.0" font-family="Arial, sans-serif" font-size="14" fill="#202124">Alte Apotheke Hotel &amp; Café</text><rect x="1284" y="634.0" width="377.9" height="18" fill="#2e7d32"/><text x="1669.9" y="649.0" font-family="Arial, sans-serif" font-size="13" fill="#202124">4,7★  (140 Rezensionen)</text><text x="1242" y="685.0" text-anchor="end" font-family="Arial, sans-serif" font-size="13" fill="#83888d">10.</text><text x="1284" y="666.0" font-family="Arial, sans-serif" font-size="14" fill="#202124">La Rustica</text><rect x="1284" y="670.0" width="369.8" height="18" fill="#2e7d32"/><text x="1661.8" y="685.0" font-family="Arial, sans-serif" font-size="13" fill="#202124">4,6★  (489 Rezensionen)</text><text x="1242" y="721.0" text-anchor="end" font-family="Arial, sans-serif" font-size="13" fill="#83888d">11.</text><text x="1284" y="702.0" font-family="Arial, sans-serif" font-size="14" fill="#202124">Landhotel &#34;Der Buchenhof&#34; + HofCafe 1738</text><rect x="1284" y="706.0" width="369.8" height="18" fill="#2e7d32"/><text x="1661.8" y="721.0" font-family="Arial, sans-serif" font-size="13" fill="#202124">4,6★  (163 Rezensionen)</text><text x="1242" y="757.0" text-anchor="end" font-family="Arial, sans-serif" font-size="13" fill="#83888d">12.</text><text x="1284" y="738.0" font-family="Arial, sans-serif" font-size="14" fill="#202124">Janzen</text><rect x="1284" y="742.0" width="369.8" height="18" fill="#2e7d32"/><text x="1661.8" y="757.0" font-family="Arial, sans-serif" font-size="13" fill="#202124">4,6★  (109 Rezensionen)</text><text x="1242" y="793.0" text-anchor="end" font-family="Arial, sans-serif" font-size="13" fill="#83888d">13.</text><text x="1284" y="774.0" font-family="Arial, sans-serif" font-size="14" fill="#202124">Pane &amp; Vino</text><rect x="1284" y="778.0" width="361.8" height="18" fill="#2e7d32"/><text x="1653.8" y="793.0" font-family="Arial, sans-serif" font-size="13" fill="#202124">4,5★  (426 Rezensionen)</text><text x="1242" y="829.0" text-anchor="end" font-family="Arial, sans-serif" font-size="13" fill="#83888d">14.</text><text x="1284" y="810.0" font-family="Arial, sans-serif" font-size="14" fill="#202124">Waldhotel Bad Essen</text><rect x="1284" y="814.0" width="361.8" height="18" fill="#2e7d32"/><text x="1653.8" y="829.0" font-family="Arial, sans-serif" font-size="13" fill="#202124">4,5★  (144 Rezensionen)</text><text x="1242" y="865.0" text-anchor="end" font-family="Arial, sans-serif" font-size="13" fill="#83888d">15.</text><text x="1284" y="846.0" font-family="Arial, sans-serif" font-size="14" fill="#202124">Höger&#39;s Hotel &amp; Restaurant</text><rect x="1284" y="850.0" width="353.8" height="18" fill="#2e7d32"/><text x="1645.8" y="865.0" font-family="Arial, sans-serif" font-size="13" fill="#202124">4,4★  (688 Rezensionen)</text><text x="1242" y="901.0" text-anchor="end" font-family="Arial, sans-serif" font-size="13" fill="#83888d">16.</text><text x="1284" y="882.0" font-family="Arial, sans-serif" font-size="14" fill="#202124">Schelenburg</text><rect x="1284" y="886.0" width="353.8" height="18" fill="#2e7d32"/><text x="1645.8" y="901.0" font-family="Arial, sans-serif" font-size="13" fill="#202124">4,4★  (368 Rezensionen)</text><text x="1242" y="937.0" text-anchor="end" font-family="Arial, sans-serif" font-size="13" fill="#83888d">17.</text><text x="1284" y="918.0" font-family="Arial, sans-serif" font-size="14" fill="#202124">star Tankstelle</text><rect x="1284" y="922.0" width="353.8" height="18" fill="#2e7d32"/><text x="1645.8" y="937.0" font-family="Arial, sans-serif" font-size="13" fill="#202124">4,4★  (252 Rezensionen)</text><text x="1242" y="973.0" text-anchor="end" font-family="Arial, sans-serif" font-size="13" fill="#83888d">18.</text><text x="1284" y="954.0" font-family="Arial, sans-serif" font-size="14" fill="#202124">Barth Café mit Garten</text><rect x="1284" y="958.0" width="353.8" height="18" fill="#2e7d32"/><text x="1645.8" y="973.0" font-family="Arial, sans-serif" font-size="13" fill="#202124">4,4★  (174 Rezensionen)</text><text x="1242" y="1009.0" text-anchor="end" font-family="Arial, sans-serif" font-size="13" fill="#83888d">19.</text><text x="1284" y="990.0" font-family="Arial, sans-serif" font-size="14" fill="#202124">star Tankstelle</text><rect x="1284" y="994.0" width="353.8" height="18" fill="#2e7d32"/><text x="1645.8" y="1009.0" font-family="Arial, sans-serif" font-size="13" fill="#202124">4,4★  (163 Rezensionen)</text><text x="1242" y="1045.0" text-anchor="end" font-family="Arial, sans-serif" font-size="13" fill="#83888d">20.</text><text x="1284" y="1026.0" font-family="Arial, sans-serif" font-size="14" fill="#202124">abschnitt 2.0</text><rect x="1284" y="1030.0" width="353.8" height="18" fill="#2e7d32"/><text x="1645.8" y="1045.0" font-family="Arial, sans-serif" font-size="13" fill="#202124">4,4★  (155 Rezensionen)</text><text x="1242" y="1081.0" text-anchor="end" font-family="Arial, sans-serif" font-size="13" fill="#83888d">21.</text><text x="1284" y="1062.0" font-family="Arial, sans-serif" font-size="14" fill="#202124">Dorf Imbiss</text><rect x="1284" y="1066.0" width="353.8" height="18" fill="#2e7d32"/><text x="1645.8" y="1081.0" font-family="Arial, sans-serif" font-size="13" fill="#202124">4,4★  (151 Rezensionen)</text><text x="1242" y="1117.0" text-anchor="end" font-family="Arial, sans-serif" font-size="13" fill="#83888d">22.</text><text x="1284" y="1098.0" font-family="Arial, sans-serif" font-size="14" fill="#202124">EDEKA Center Kuhlmann</text><rect x="1284" y="1102.0" width="353.8" height="18" fill="#2e7d32"/><text x="1645.8" y="1117.0" font-family="Arial, sans-serif" font-size="13" fill="#202124">4,4★  (147 Rezensionen)</text><text x="1242" y="1153.0" text-anchor="end" font-family="Arial, sans-serif" font-size="13" fill="#83888d">23.</text><text x="1284" y="1134.0" font-family="Arial, sans-serif" font-size="14" fill="#202124">ALDI Nord</text><rect x="1284" y="1138.0" width="345.7" height="18" fill="#2e7d32"/><text x="1637.7" y="1153.0" font-family="Arial, sans-serif" font-size="13" fill="#202124">4,3★  (280 Rezensionen)</text><text x="1242" y="1189.0" text-anchor="end" font-family="Arial, sans-serif" font-size="13" fill="#83888d">24.</text><text x="1284" y="1170.0" font-family="Arial, sans-serif" font-size="14" fill="#202124">BY TARIK Friseursalon</text><rect x="1284" y="1174.0" width="345.7" height="18" fill="#2e7d32"/><text x="1637.7" y="1189.0" font-family="Arial, sans-serif" font-size="13" fill="#202124">4,3★  (177 Rezensionen)</text><text x="1242" y="1225.0" text-anchor="end" font-family="Arial, sans-serif" font-size="13" fill="#83888d">25.</text><text x="1284" y="1206.0" font-family="Arial, sans-serif" font-size="14" fill="#202124">Raiffeisen Tankstelle Wissingen</text><rect x="1284" y="1210.0" width="345.7" height="18" fill="#2e7d32"/><text x="1637.7" y="1225.0" font-family="Arial, sans-serif" font-size="13" fill="#202124">4,3★  (174 Rezensionen)</text><text x="1242" y="1261.0" text-anchor="end" font-family="Arial, sans-serif" font-size="13" fill="#83888d">26.</text><text x="1284" y="1242.0" font-family="Arial, sans-serif" font-size="14" fill="#202124">Langenbrücker Hof | Festsaal &amp; Eventlocation</text><rect x="1284" y="1246.0" width="345.7" height="18" fill="#2e7d32"/><text x="1637.7" y="1261.0" font-family="Arial, sans-serif" font-size="13" fill="#202124">4,3★  (156 Rezensionen)</text><text x="1242" y="1297.0" text-anchor="end" font-family="Arial, sans-serif" font-size="13" fill="#83888d">27.</text><text x="1284" y="1278.0" font-family="Arial, sans-serif" font-size="14" fill="#202124">Boutique Hotel am Markt</text><rect x="1284" y="1282.0" width="345.7" height="18" fill="#2e7d32"/><text x="1637.7" y="1297.0" font-family="Arial, sans-serif" font-size="13" fill="#202124">4,3★  (119 Rezensionen)</text><text x="1242" y="1333.0" text-anchor="end" font-family="Arial, sans-serif" font-size="13" fill="#83888d">28.</text><text x="1284" y="1314.0" font-family="Arial, sans-serif" font-size="14" fill="#202124">Asia WOK</text><rect x="1284" y="1318.0" width="345.7" height="18" fill="#2e7d32"/><text x="1637.7" y="1333.0" font-family="Arial, sans-serif" font-size="13" fill="#202124">4,3★  (117 Rezensionen)</text><text x="1242" y="1369.0" text-anchor="end" font-family="Arial, sans-serif" font-size="13" fill="#83888d">29.</text><text x="1284" y="1350.0" font-family="Arial, sans-serif" font-size="14" fill="#202124">City Kebab</text><rect x="1284" y="1354.0" width="345.7" height="18" fill="#2e7d32"/><text x="1637.7" y="1369.0" font-family="Arial, sans-serif" font-size="13" fill="#202124">4,3★  (113 Rezensionen)</text><text x="1242" y="1405.0" text-anchor="end" font-family="Arial, sans-serif" font-size="13" fill="#83888d">30.</text><text x="1284" y="1386.0" font-family="Arial, sans-serif" font-size="14" fill="#202124">Edeka Brörmann</text><rect x="1284" y="1390.0" width="337.7" height="18" fill="#2e7d32"/><text x="1629.7" y="1405.0" font-family="Arial, sans-serif" font-size="13" fill="#202124">4,2★  (226 Rezensionen)</text><text x="1485" y="1444.0" text-anchor="middle" font-family="Arial, sans-serif" font-size="13" fill="#6f7377">Rating (★)</text></g><g><text x="120" y="1660" font-family="Arial, sans-serif" font-size="28" font-weight="800" fill="#202124">Verteilung der Lösch-Stufen über alle 188 Orte</text><rect x="120" y="1715" width="1540" height="560" fill="#ffffff" opacity="0.96" filter="url(#softShadow)"/><text x="150" y="1781" font-family="Arial, sans-serif" font-size="18" fill="#202124">Keine Löschung</text><rect x="450" y="1765" width="900" height="24" fill="#edf2f5"/><rect x="450" y="1765" width="900.0" height="24" fill="#2e7d32"/><text x="1380" y="1783" font-family="Arial, sans-serif" font-size="18" fill="#202124">174 (92,6%)</text><text x="150" y="1826" font-family="Arial, sans-serif" font-size="18" fill="#202124">Eine gelöscht</text><rect x="450" y="1810" width="900" height="24" fill="#edf2f5"/><rect x="450" y="1810" width="15.5" height="24" fill="#8bc34a"/><text x="1380" y="1828" font-family="Arial, sans-serif" font-size="18" fill="#202124">3 (1,6%)</text><text x="150" y="1871" font-family="Arial, sans-serif" font-size="18" fill="#202124">2–5 gelöscht</text><rect x="450" y="1855" width="900" height="24" fill="#edf2f5"/><rect x="450" y="1855" width="20.7" height="24" fill="#cddc39"/><text x="1380" y="1873" font-family="Arial, sans-serif" font-size="18" fill="#202124">4 (2,1%)</text><text x="150" y="1916" font-family="Arial, sans-serif" font-size="18" fill="#202124">6–10 gelöscht</text><rect x="450" y="1900" width="900" height="24" fill="#edf2f5"/><rect x="450" y="1900" width="10.3" height="24" fill="#ffca28"/><text x="1380" y="1918" font-family="Arial, sans-serif" font-size="18" fill="#202124">2 (1,1%)</text><text x="150" y="1961" font-family="Arial, sans-serif" font-size="18" fill="#202124">11–20 gelöscht</text><rect x="450" y="1945" width="900" height="24" fill="#edf2f5"/><rect x="450" y="1945" width="15.5" height="24" fill="#ff9f1c"/><text x="1380" y="1963" font-family="Arial, sans-serif" font-size="18" fill="#202124">3 (1,6%)</text><text x="150" y="2006" font-family="Arial, sans-serif" font-size="18" fill="#202124">21–50 gelöscht</text><rect x="450" y="1990" width="900" height="24" fill="#edf2f5"/><rect x="450" y="1990" width="10.3" height="24" fill="#ff6d00"/><text x="1380" y="2008" font-family="Arial, sans-serif" font-size="18" fill="#202124">2 (1,1%)</text><text x="150" y="2051" font-family="Arial, sans-serif" font-size="18" fill="#202124">51–100 gelöscht</text><rect x="450" y="2035" width="900" height="24" fill="#edf2f5"/><rect x="450" y="2035" width="0.0" height="24" fill="#e5391b"/><text x="1380" y="2053" font-family="Arial, sans-serif" font-size="18" fill="#202124">0 (0,0%)</text><text x="150" y="2096" font-family="Arial, sans-serif" font-size="18" fill="#202124">101–200 gelöscht</text><rect x="450" y="2080" width="900" height="24" fill="#edf2f5"/><rect x="450" y="2080" width="0.0" height="24" fill="#c62828"/><text x="1380" y="2098" font-family="Arial, sans-serif" font-size="18" fill="#202124">0 (0,0%)</text><text x="150" y="2141" font-family="Arial, sans-serif" font-size="18" fill="#202124">201–250 gelöscht</text><rect x="450" y="2125" width="900" height="24" fill="#edf2f5"/><rect x="450" y="2125" width="0.0" height="24" fill="#8e1919"/><text x="1380" y="2143" font-family="Arial, sans-serif" font-size="18" fill="#202124">0 (0,0%)</text><text x="150" y="2186" font-family="Arial, sans-serif" font-size="18" fill="#202124">Über 250 gelöscht</text><rect x="450" y="2170" width="900" height="24" fill="#edf2f5"/><rect x="450" y="2170" width="0.0" height="24" fill="#5b0f0f"/><text x="1380" y="2188" font-family="Arial, sans-serif" font-size="18" fill="#202124">0 (0,0%)</text></g><text x="40" y="2460" font-family="Arial, sans-serif" font-size="13" fill="#8a8f94">Quelle: Google Maps, öffentlich sichtbare Banner; Analyse-Snapshot 08.05.2026</text><text x="1760" y="2460" text-anchor="end" font-family="Arial, sans-serif" font-size="13" fill="#8a8f94">© <a href="https://patwoz.dev" target="_blank" style="fill:#8a8f94;text-decoration:none">Patrick Wozniak</a></text><text x="1760" y="2480" text-anchor="end" font-family="Arial, sans-serif" font-size="11" fill="#aab0b5">patwoz.dev</text></svg>
