<svg xmlns="http://www.w3.org/2000/svg" width="1800" height="2500" viewBox="0 0 1800 2500">
  <defs>
    <linearGradient id="bg" x1="0" y1="0" x2="0" y2="1"><stop offset="0%" stop-color="#d9e8f2"/><stop offset="58%" stop-color="#eef6fa"/><stop offset="100%" stop-color="#d7dde2"/></linearGradient>
    <filter id="softShadow" x="-10%" y="-10%" width="120%" height="120%"><feDropShadow dx="0" dy="8" stdDeviation="10" flood-color="#6d7f8a" flood-opacity="0.16"/></filter>
  </defs>
  <rect width="100%" height="100%" fill="url(#bg)"/>
  <circle cx="1450" cy="310" r="500" fill="#ffffff" opacity="0.18"/>
  <circle cx="260" cy="2140" r="620" fill="#ffffff" opacity="0.20"/>
  <text x="900" y="70" text-anchor="middle" font-family="Arial, sans-serif" font-size="48" font-weight="800" fill="#202124">Postleitzahl 48143 — Ibbenbüren</text>
  <text x="900" y="112" text-anchor="middle" font-family="Arial, sans-serif" font-size="22" fill="#4b5055">Google-Maps-Orte: gelöschte Rezensionen wegen „Diffamierung“</text>
  <text x="900" y="160" text-anchor="middle" font-family="Arial, sans-serif" font-size="18" fill="#6f7377">1.024 Orte erfasst · 94 mit sichtbarem Banner (9,2%) · 0 in der „Über“-Stufe</text><g><text x="80" y="230" font-family="Arial, sans-serif" font-size="27" font-weight="800" fill="#202124">1. Höchste Lösch-Quote</text><text x="80" y="260" font-family="Arial, sans-serif" font-size="16" fill="#6f7377">Anteil gelöschter Rezensionen</text><rect x="80" y="322" width="470" height="1104" fill="#ffffff" opacity="0.96" filter="url(#softShadow)"/><line x1="114.0" y1="322" x2="114.0" y2="1406.0" stroke="#dde3e8" stroke-width="1"/><line x1="214.5" y1="322" x2="214.5" y2="1406.0" stroke="#dde3e8" stroke-width="1"/><line x1="315.0" y1="322" x2="315.0" y2="1406.0" stroke="#dde3e8" stroke-width="1"/><line x1="415.5" y1="322" x2="415.5" y2="1406.0" stroke="#dde3e8" stroke-width="1"/><line x1="516.0" y1="322" x2="516.0" y2="1406.0" stroke="#dde3e8" stroke-width="1"/><text x="72" y="361.0" text-anchor="end" font-family="Arial, sans-serif" font-size="13" fill="#83888d">1.</text><text x="114" y="342.0" font-family="Arial, sans-serif" font-size="14" fill="#202124">Der Holländer</text><rect x="114" y="346.0" width="402.0" height="18" fill="#c9332c"/><text x="524.0" y="361.0" font-family="Arial, sans-serif" font-size="13" fill="#202124">37,4%  (11–20 von 26)</text><text x="72" y="397.0" text-anchor="end" font-family="Arial, sans-serif" font-size="13" fill="#83888d">2.</text><text x="114" y="378.0" font-family="Arial, sans-serif" font-size="14" fill="#202124">Hotel Horstmann</text><rect x="114" y="382.0" width="325.2" height="18" fill="#c9332c"/><text x="447.2" y="397.0" font-family="Arial, sans-serif" font-size="13" fill="#202124">30,2%  (21–50 von 82)</text><text x="72" y="433.0" text-anchor="end" font-family="Arial, sans-serif" font-size="13" fill="#83888d">3.</text><text x="114" y="414.0" font-family="Arial, sans-serif" font-size="14" fill="#202124">PULS | Deine Eventlocation in Münster</text><rect x="114" y="418.0" width="232.5" height="18" fill="#c9332c"/><text x="354.5" y="433.0" font-family="Arial, sans-serif" font-size="13" fill="#202124">21,6%  (51–100 von 274)</text><text x="72" y="469.0" text-anchor="end" font-family="Arial, sans-serif" font-size="13" fill="#83888d">4.</text><text x="114" y="450.0" font-family="Arial, sans-serif" font-size="14" fill="#202124">DAN DAN Münster</text><rect x="114" y="454.0" width="212.9" height="18" fill="#c9332c"/><text x="334.9" y="469.0" font-family="Arial, sans-serif" font-size="13" fill="#202124">19,8%  (21–50 von 144)</text><text x="72" y="505.0" text-anchor="end" font-family="Arial, sans-serif" font-size="13" fill="#83888d">5.</text><text x="114" y="486.0" font-family="Arial, sans-serif" font-size="14" fill="#202124">Lernstudio Barbarossa Münster</text><rect x="114" y="490.0" width="203.6" height="18" fill="#c9332c"/><text x="325.6" y="505.0" font-family="Arial, sans-serif" font-size="13" fill="#202124">18,9%  (2–5 von 15)</text><text x="72" y="541.0" text-anchor="end" font-family="Arial, sans-serif" font-size="13" fill="#83888d">6.</text><text x="114" y="522.0" font-family="Arial, sans-serif" font-size="14" fill="#202124">beneFit Fitnessstudio Münster York Center</text><rect x="114" y="526.0" width="180.6" height="18" fill="#c9332c"/><text x="302.6" y="541.0" font-family="Arial, sans-serif" font-size="13" fill="#202124">16,8%  (21–50 von 176)</text><text x="72" y="577.0" text-anchor="end" font-family="Arial, sans-serif" font-size="13" fill="#83888d">7.</text><text x="114" y="558.0" font-family="Arial, sans-serif" font-size="14" fill="#202124">Biano Premium Döner</text><rect x="114" y="562.0" width="168.7" height="18" fill="#c9332c"/><text x="290.7" y="577.0" font-family="Arial, sans-serif" font-size="13" fill="#202124">15,7%  (21–50 von 191)</text><text x="72" y="613.0" text-anchor="end" font-family="Arial, sans-serif" font-size="13" fill="#83888d">8.</text><text x="114" y="594.0" font-family="Arial, sans-serif" font-size="14" fill="#202124">Friseur Extraschnitt Münster</text><rect x="114" y="598.0" width="166.0" height="18" fill="#c9332c"/><text x="288.0" y="613.0" font-family="Arial, sans-serif" font-size="13" fill="#202124">15,4%  (11–20 von 85)</text><text x="72" y="649.0" text-anchor="end" font-family="Arial, sans-serif" font-size="13" fill="#83888d">9.</text><text x="114" y="630.0" font-family="Arial, sans-serif" font-size="14" fill="#202124">Asia Quick II</text><rect x="114" y="634.0" width="165.8" height="18" fill="#c9332c"/><text x="287.8" y="649.0" font-family="Arial, sans-serif" font-size="13" fill="#202124">15,4%  (21–50 von 195)</text><text x="72" y="685.0" text-anchor="end" font-family="Arial, sans-serif" font-size="13" fill="#83888d">10.</text><text x="114" y="666.0" font-family="Arial, sans-serif" font-size="14" fill="#202124">Drahtesel</text><rect x="114" y="670.0" width="163.1" height="18" fill="#c9332c"/><text x="285.1" y="685.0" font-family="Arial, sans-serif" font-size="13" fill="#202124">15,2%  (51–100 von 423)</text><text x="72" y="721.0" text-anchor="end" font-family="Arial, sans-serif" font-size="13" fill="#83888d">11.</text><text x="114" y="702.0" font-family="Arial, sans-serif" font-size="14" fill="#202124">King Döner Münster</text><rect x="114" y="706.0" width="158.1" height="18" fill="#c9332c"/><text x="280.1" y="721.0" font-family="Arial, sans-serif" font-size="13" fill="#202124">14,7%  (11–20 von 90)</text><text x="72" y="757.0" text-anchor="end" font-family="Arial, sans-serif" font-size="13" fill="#83888d">12.</text><text x="114" y="738.0" font-family="Arial, sans-serif" font-size="14" fill="#202124">Pesto Pesto España - Münster</text><rect x="114" y="742.0" width="151.3" height="18" fill="#c9332c"/><text x="273.3" y="757.0" font-family="Arial, sans-serif" font-size="13" fill="#202124">14,1%  (21–50 von 217)</text><text x="72" y="793.0" text-anchor="end" font-family="Arial, sans-serif" font-size="13" fill="#83888d">13.</text><text x="114" y="774.0" font-family="Arial, sans-serif" font-size="14" fill="#202124">Ristorante Artusi</text><rect x="114" y="778.0" width="140.0" height="18" fill="#c9332c"/><text x="262.0" y="793.0" font-family="Arial, sans-serif" font-size="13" fill="#202124">13,0%  (51–100 von 505)</text><text x="72" y="829.0" text-anchor="end" font-family="Arial, sans-serif" font-size="13" fill="#83888d">14.</text><text x="114" y="810.0" font-family="Arial, sans-serif" font-size="14" fill="#202124">Asia Quick Münster 1</text><rect x="114" y="814.0" width="127.1" height="18" fill="#c9332c"/><text x="249.1" y="829.0" font-family="Arial, sans-serif" font-size="13" fill="#202124">11,8%  (21–50 von 265)</text><text x="72" y="865.0" text-anchor="end" font-family="Arial, sans-serif" font-size="13" fill="#83888d">15.</text><text x="114" y="846.0" font-family="Arial, sans-serif" font-size="14" fill="#202124">Friseur Alanya</text><rect x="114" y="850.0" width="126.7" height="18" fill="#c9332c"/><text x="248.7" y="865.0" font-family="Arial, sans-serif" font-size="13" fill="#202124">11,8%  (21–50 von 266)</text><text x="72" y="901.0" text-anchor="end" font-family="Arial, sans-serif" font-size="13" fill="#83888d">16.</text><text x="114" y="882.0" font-family="Arial, sans-serif" font-size="14" fill="#202124">BY BAROO</text><rect x="114" y="886.0" width="123.6" height="18" fill="#c9332c"/><text x="245.6" y="901.0" font-family="Arial, sans-serif" font-size="13" fill="#202124">11,5%  (2–5 von 27)</text><text x="72" y="937.0" text-anchor="end" font-family="Arial, sans-serif" font-size="13" fill="#83888d">17.</text><text x="114" y="918.0" font-family="Arial, sans-serif" font-size="14" fill="#202124">Prinzibar</text><rect x="114" y="922.0" width="120.4" height="18" fill="#c9332c"/><text x="242.4" y="937.0" font-family="Arial, sans-serif" font-size="13" fill="#202124">11,2%  (11–20 von 123)</text><text x="72" y="973.0" text-anchor="end" font-family="Arial, sans-serif" font-size="13" fill="#83888d">18.</text><text x="114" y="954.0" font-family="Arial, sans-serif" font-size="14" fill="#202124">Erbstück</text><rect x="114" y="958.0" width="107.3" height="18" fill="#c9332c"/><text x="229.3" y="973.0" font-family="Arial, sans-serif" font-size="13" fill="#202124">10,0%  (11–20 von 140)</text><text x="72" y="1009.0" text-anchor="end" font-family="Arial, sans-serif" font-size="13" fill="#83888d">19.</text><text x="114" y="990.0" font-family="Arial, sans-serif" font-size="14" fill="#202124">Leezen Kebab</text><rect x="114" y="994.0" width="105.9" height="18" fill="#c9332c"/><text x="227.9" y="1009.0" font-family="Arial, sans-serif" font-size="13" fill="#202124">9,8%  (11–20 von 142)</text><text x="72" y="1045.0" text-anchor="end" font-family="Arial, sans-serif" font-size="13" fill="#83888d">20.</text><text x="114" y="1026.0" font-family="Arial, sans-serif" font-size="14" fill="#202124">IL PIZZAIOLO</text><rect x="114" y="1030.0" width="93.7" height="18" fill="#c9332c"/><text x="215.7" y="1045.0" font-family="Arial, sans-serif" font-size="13" fill="#202124">8,7%  (21–50 von 372)</text><text x="72" y="1081.0" text-anchor="end" font-family="Arial, sans-serif" font-size="13" fill="#83888d">21.</text><text x="114" y="1062.0" font-family="Arial, sans-serif" font-size="14" fill="#202124">Sushi Münster</text><rect x="114" y="1066.0" width="91.5" height="18" fill="#c9332c"/><text x="213.5" y="1081.0" font-family="Arial, sans-serif" font-size="13" fill="#202124">8,5%  (21–50 von 382)</text><text x="72" y="1117.0" text-anchor="end" font-family="Arial, sans-serif" font-size="13" fill="#83888d">22.</text><text x="114" y="1098.0" font-family="Arial, sans-serif" font-size="14" fill="#202124">Cho&amp;Riso</text><rect x="114" y="1102.0" width="90.6" height="18" fill="#c9332c"/><text x="212.6" y="1117.0" font-family="Arial, sans-serif" font-size="13" fill="#202124">8,4%  (21–50 von 386)</text><text x="72" y="1153.0" text-anchor="end" font-family="Arial, sans-serif" font-size="13" fill="#83888d">23.</text><text x="114" y="1134.0" font-family="Arial, sans-serif" font-size="14" fill="#202124">Kiepenkerl-Apotheke</text><rect x="114" y="1138.0" width="86.6" height="18" fill="#c9332c"/><text x="208.6" y="1153.0" font-family="Arial, sans-serif" font-size="13" fill="#202124">8,1%  (2–5 von 40)</text><text x="72" y="1189.0" text-anchor="end" font-family="Arial, sans-serif" font-size="13" fill="#83888d">24.</text><text x="114" y="1170.0" font-family="Arial, sans-serif" font-size="14" fill="#202124">Kebab Freunde</text><rect x="114" y="1174.0" width="84.9" height="18" fill="#c9332c"/><text x="206.9" y="1189.0" font-family="Arial, sans-serif" font-size="13" fill="#202124">7,9%  (11–20 von 181)</text><text x="72" y="1225.0" text-anchor="end" font-family="Arial, sans-serif" font-size="13" fill="#83888d">25.</text><text x="114" y="1206.0" font-family="Arial, sans-serif" font-size="14" fill="#202124">Pastado</text><rect x="114" y="1210.0" width="84.1" height="18" fill="#c9332c"/><text x="206.1" y="1225.0" font-family="Arial, sans-serif" font-size="13" fill="#202124">7,8%  (11–20 von 183)</text><text x="72" y="1261.0" text-anchor="end" font-family="Arial, sans-serif" font-size="13" fill="#83888d">26.</text><text x="114" y="1242.0" font-family="Arial, sans-serif" font-size="14" fill="#202124">NINFLY Münster</text><rect x="114" y="1246.0" width="77.2" height="18" fill="#c9332c"/><text x="199.2" y="1261.0" font-family="Arial, sans-serif" font-size="13" fill="#202124">7,2%  (151–200 von 2.271)</text><text x="72" y="1297.0" text-anchor="end" font-family="Arial, sans-serif" font-size="13" fill="#83888d">27.</text><text x="114" y="1278.0" font-family="Arial, sans-serif" font-size="14" fill="#202124">Il Teatrino Münster</text><rect x="114" y="1282.0" width="74.8" height="18" fill="#c9332c"/><text x="196.8" y="1297.0" font-family="Arial, sans-serif" font-size="13" fill="#202124">7,0%  (21–50 von 475)</text><text x="72" y="1333.0" text-anchor="end" font-family="Arial, sans-serif" font-size="13" fill="#83888d">28.</text><text x="114" y="1314.0" font-family="Arial, sans-serif" font-size="14" fill="#202124">Johanniter-Gästehaus Münster</text><rect x="114" y="1318.0" width="70.6" height="18" fill="#c9332c"/><text x="192.6" y="1333.0" font-family="Arial, sans-serif" font-size="13" fill="#202124">6,6%  (51–100 von 1.076)</text><text x="72" y="1369.0" text-anchor="end" font-family="Arial, sans-serif" font-size="13" fill="#83888d">29.</text><text x="114" y="1350.0" font-family="Arial, sans-serif" font-size="14" fill="#202124">Mocca-Haus Kaffeerösterei &amp; Teegeschäft</text><rect x="114" y="1354.0" width="69.4" height="18" fill="#c9332c"/><text x="191.4" y="1369.0" font-family="Arial, sans-serif" font-size="13" fill="#202124">6,5%  (6–10 von 116)</text><text x="72" y="1405.0" text-anchor="end" font-family="Arial, sans-serif" font-size="13" fill="#83888d">30.</text><text x="114" y="1386.0" font-family="Arial, sans-serif" font-size="14" fill="#202124">Salsomania</text><rect x="114" y="1390.0" width="69.1" height="18" fill="#c9332c"/><text x="191.1" y="1405.0" font-family="Arial, sans-serif" font-size="13" fill="#202124">6,4%  (2–5 von 51)</text><text x="315" y="1444.0" text-anchor="middle" font-family="Arial, sans-serif" font-size="13" fill="#6f7377">Lösch-Quote (%) · Top 30</text></g><g><text x="665" y="230" font-family="Arial, sans-serif" font-size="27" font-weight="800" fill="#202124">2. Schlechtestes „echtes“ Rating</text><text x="665" y="260" font-family="Arial, sans-serif" font-size="16" fill="#6f7377">Modell: gelöschte Rezensionen waren 1★</text><rect x="665" y="322" width="470" height="1104" fill="#ffffff" opacity="0.96" filter="url(#softShadow)"/><line x1="699.0" y1="322" x2="699.0" y2="1406.0" stroke="#dde3e8" stroke-width="1"/><line x1="799.5" y1="322" x2="799.5" y2="1406.0" stroke="#dde3e8" stroke-width="1"/><line x1="900.0" y1="322" x2="900.0" y2="1406.0" stroke="#dde3e8" stroke-width="1"/><line x1="1000.5" y1="322" x2="1000.5" y2="1406.0" stroke="#dde3e8" stroke-width="1"/><line x1="1101.0" y1="322" x2="1101.0" y2="1406.0" stroke="#dde3e8" stroke-width="1"/><text x="657" y="361.0" text-anchor="end" font-family="Arial, sans-serif" font-size="13" fill="#83888d">1.</text><text x="699" y="342.0" font-family="Arial, sans-serif" font-size="14" fill="#202124">Der Holländer</text><rect x="699" y="346.0" width="402.0" height="18" fill="#ef7d16"/><text x="1109.0" y="361.0" font-family="Arial, sans-serif" font-size="13" fill="#202124">2,19★  (vorher 2,9★)</text><text x="657" y="397.0" text-anchor="end" font-family="Arial, sans-serif" font-size="13" fill="#83888d">2.</text><text x="699" y="378.0" font-family="Arial, sans-serif" font-size="14" fill="#202124">Hotel Horstmann</text><rect x="699" y="382.0" width="262.8" height="18" fill="#ef7d16"/><text x="969.8" y="397.0" font-family="Arial, sans-serif" font-size="13" fill="#202124">3,16★  (vorher 4,1★)</text><text x="657" y="433.0" text-anchor="end" font-family="Arial, sans-serif" font-size="13" fill="#83888d">3.</text><text x="699" y="414.0" font-family="Arial, sans-serif" font-size="14" fill="#202124">beneFit Fitnessstudio Münster York Center</text><rect x="699" y="418.0" width="167.5" height="18" fill="#ef7d16"/><text x="874.5" y="433.0" font-family="Arial, sans-serif" font-size="13" fill="#202124">3,83★  (vorher 4,4★)</text><text x="657" y="469.0" text-anchor="end" font-family="Arial, sans-serif" font-size="13" fill="#83888d">4.</text><text x="699" y="450.0" font-family="Arial, sans-serif" font-size="14" fill="#202124">PULS | Deine Eventlocation in Münster</text><rect x="699" y="454.0" width="157.2" height="18" fill="#ef7d16"/><text x="864.2" y="469.0" font-family="Arial, sans-serif" font-size="13" fill="#202124">3,90★  (vorher 4,7★)</text><text x="657" y="505.0" text-anchor="end" font-family="Arial, sans-serif" font-size="13" fill="#83888d">5.</text><text x="699" y="486.0" font-family="Arial, sans-serif" font-size="14" fill="#202124">Lernstudio Barbarossa Münster</text><rect x="699" y="490.0" width="154.6" height="18" fill="#ef7d16"/><text x="861.6" y="505.0" font-family="Arial, sans-serif" font-size="13" fill="#202124">3,92★  (vorher 4,6★)</text><text x="657" y="541.0" text-anchor="end" font-family="Arial, sans-serif" font-size="13" fill="#83888d">6.</text><text x="699" y="522.0" font-family="Arial, sans-serif" font-size="14" fill="#202124">Asia Quick II</text><rect x="699" y="526.0" width="148.6" height="18" fill="#ef7d16"/><text x="855.6" y="541.0" font-family="Arial, sans-serif" font-size="13" fill="#202124">3,96★  (vorher 4,5★)</text><text x="657" y="577.0" text-anchor="end" font-family="Arial, sans-serif" font-size="13" fill="#83888d">7.</text><text x="699" y="558.0" font-family="Arial, sans-serif" font-size="14" fill="#202124">DAN DAN Münster</text><rect x="699" y="562.0" width="147.6" height="18" fill="#ef7d16"/><text x="854.6" y="577.0" font-family="Arial, sans-serif" font-size="13" fill="#202124">3,97★  (vorher 4,7★)</text><text x="657" y="613.0" text-anchor="end" font-family="Arial, sans-serif" font-size="13" fill="#83888d">8.</text><text x="699" y="594.0" font-family="Arial, sans-serif" font-size="14" fill="#202124">Kiepenkerl-Apotheke</text><rect x="699" y="598.0" width="138.2" height="18" fill="#ef7d16"/><text x="845.2" y="613.0" font-family="Arial, sans-serif" font-size="13" fill="#202124">4,03★  (vorher 4,3★)</text><text x="657" y="649.0" text-anchor="end" font-family="Arial, sans-serif" font-size="13" fill="#83888d">9.</text><text x="699" y="630.0" font-family="Arial, sans-serif" font-size="14" fill="#202124">King Döner Münster</text><rect x="699" y="634.0" width="132.9" height="18" fill="#ef7d16"/><text x="839.9" y="649.0" font-family="Arial, sans-serif" font-size="13" fill="#202124">4,07★  (vorher 4,6★)</text><text x="657" y="685.0" text-anchor="end" font-family="Arial, sans-serif" font-size="13" fill="#83888d">10.</text><text x="699" y="666.0" font-family="Arial, sans-serif" font-size="14" fill="#202124">GALERIA Münster Ludgeristraße</text><rect x="699" y="670.0" width="128.9" height="18" fill="#ef7d16"/><text x="835.9" y="685.0" font-family="Arial, sans-serif" font-size="13" fill="#202124">4,10★  (vorher 4,1★)</text><text x="657" y="721.0" text-anchor="end" font-family="Arial, sans-serif" font-size="13" fill="#83888d">11.</text><text x="699" y="702.0" font-family="Arial, sans-serif" font-size="14" fill="#202124">Biano Premium Döner</text><rect x="699" y="706.0" width="125.9" height="18" fill="#ef7d16"/><text x="832.9" y="721.0" font-family="Arial, sans-serif" font-size="13" fill="#202124">4,12★  (vorher 4,7★)</text><text x="657" y="757.0" text-anchor="end" font-family="Arial, sans-serif" font-size="13" fill="#83888d">12.</text><text x="699" y="738.0" font-family="Arial, sans-serif" font-size="14" fill="#202124">Drahtesel</text><rect x="699" y="742.0" width="123.0" height="18" fill="#ef7d16"/><text x="830.0" y="757.0" font-family="Arial, sans-serif" font-size="13" fill="#202124">4,14★  (vorher 4,7★)</text><text x="657" y="793.0" text-anchor="end" font-family="Arial, sans-serif" font-size="13" fill="#83888d">13.</text><text x="699" y="774.0" font-family="Arial, sans-serif" font-size="14" fill="#202124">Wirtshaus Zur Post</text><rect x="699" y="778.0" width="121.6" height="18" fill="#ef7d16"/><text x="828.6" y="793.0" font-family="Arial, sans-serif" font-size="13" fill="#202124">4,15★  (vorher 4,3★)</text><text x="657" y="829.0" text-anchor="end" font-family="Arial, sans-serif" font-size="13" fill="#83888d">14.</text><text x="699" y="810.0" font-family="Arial, sans-serif" font-size="14" fill="#202124">Asia Quick Münster 1</text><rect x="699" y="814.0" width="118.0" height="18" fill="#ef7d16"/><text x="825.0" y="829.0" font-family="Arial, sans-serif" font-size="13" fill="#202124">4,17★  (vorher 4,6★)</text><text x="657" y="865.0" text-anchor="end" font-family="Arial, sans-serif" font-size="13" fill="#83888d">15.</text><text x="699" y="846.0" font-family="Arial, sans-serif" font-size="14" fill="#202124">Pesto Pesto España - Münster</text><rect x="699" y="850.0" width="117.3" height="18" fill="#ef7d16"/><text x="824.3" y="865.0" font-family="Arial, sans-serif" font-size="13" fill="#202124">4,18★  (vorher 4,7★)</text><text x="657" y="901.0" text-anchor="end" font-family="Arial, sans-serif" font-size="13" fill="#83888d">16.</text><text x="699" y="882.0" font-family="Arial, sans-serif" font-size="14" fill="#202124">Sushi Münster</text><rect x="699" y="886.0" width="114.2" height="18" fill="#ef7d16"/><text x="821.2" y="901.0" font-family="Arial, sans-serif" font-size="13" fill="#202124">4,20★  (vorher 4,5★)</text><text x="657" y="937.0" text-anchor="end" font-family="Arial, sans-serif" font-size="13" fill="#83888d">17.</text><text x="699" y="918.0" font-family="Arial, sans-serif" font-size="14" fill="#202124">Cut Studio Friseursalon in Münster Gievenbeck</text><rect x="699" y="922.0" width="112.4" height="18" fill="#ef7d16"/><text x="819.4" y="937.0" font-family="Arial, sans-serif" font-size="13" fill="#202124">4,21★  (vorher 4,3★)</text><text x="657" y="973.0" text-anchor="end" font-family="Arial, sans-serif" font-size="13" fill="#83888d">18.</text><text x="699" y="954.0" font-family="Arial, sans-serif" font-size="14" fill="#202124">Friseur Extraschnitt Münster</text><rect x="699" y="958.0" width="112.4" height="18" fill="#ef7d16"/><text x="819.4" y="973.0" font-family="Arial, sans-serif" font-size="13" fill="#202124">4,21★  (vorher 4,8★)</text><text x="657" y="1009.0" text-anchor="end" font-family="Arial, sans-serif" font-size="13" fill="#83888d">19.</text><text x="699" y="990.0" font-family="Arial, sans-serif" font-size="14" fill="#202124">Ristorante Artusi</text><rect x="699" y="994.0" width="111.7" height="18" fill="#ef7d16"/><text x="818.7" y="1009.0" font-family="Arial, sans-serif" font-size="13" fill="#202124">4,22★  (vorher 4,7★)</text><text x="657" y="1045.0" text-anchor="end" font-family="Arial, sans-serif" font-size="13" fill="#83888d">20.</text><text x="699" y="1026.0" font-family="Arial, sans-serif" font-size="14" fill="#202124">Das Blaue Haus</text><rect x="699" y="1030.0" width="110.9" height="18" fill="#ef7d16"/><text x="817.9" y="1045.0" font-family="Arial, sans-serif" font-size="13" fill="#202124">4,22★  (vorher 4,3★)</text><text x="657" y="1081.0" text-anchor="end" font-family="Arial, sans-serif" font-size="13" fill="#83888d">21.</text><text x="699" y="1062.0" font-family="Arial, sans-serif" font-size="14" fill="#202124">NINFLY Münster</text><rect x="699" y="1066.0" width="107.4" height="18" fill="#ef7d16"/><text x="814.4" y="1081.0" font-family="Arial, sans-serif" font-size="13" fill="#202124">4,25★  (vorher 4,5★)</text><text x="657" y="1117.0" text-anchor="end" font-family="Arial, sans-serif" font-size="13" fill="#83888d">22.</text><text x="699" y="1098.0" font-family="Arial, sans-serif" font-size="14" fill="#202124">Hotel Conti am Hauptbahnhof - Münster</text><rect x="699" y="1102.0" width="105.3" height="18" fill="#ef7d16"/><text x="812.3" y="1117.0" font-family="Arial, sans-serif" font-size="13" fill="#202124">4,26★  (vorher 4,4★)</text><text x="657" y="1153.0" text-anchor="end" font-family="Arial, sans-serif" font-size="13" fill="#83888d">23.</text><text x="699" y="1134.0" font-family="Arial, sans-serif" font-size="14" fill="#202124">Hohenzollern Apotheke am Ring</text><rect x="699" y="1138.0" width="102.1" height="18" fill="#ef7d16"/><text x="809.1" y="1153.0" font-family="Arial, sans-serif" font-size="13" fill="#202124">4,29★  (vorher 4,3★)</text><text x="657" y="1189.0" text-anchor="end" font-family="Arial, sans-serif" font-size="13" fill="#83888d">24.</text><text x="699" y="1170.0" font-family="Arial, sans-serif" font-size="14" fill="#202124">Herr Sonnenschein</text><rect x="699" y="1174.0" width="100.7" height="18" fill="#ef7d16"/><text x="807.7" y="1189.0" font-family="Arial, sans-serif" font-size="13" fill="#202124">4,30★  (vorher 4,3★)</text><text x="657" y="1225.0" text-anchor="end" font-family="Arial, sans-serif" font-size="13" fill="#83888d">25.</text><text x="699" y="1206.0" font-family="Arial, sans-serif" font-size="14" fill="#202124">Hotel Europa - Münster</text><rect x="699" y="1210.0" width="96.6" height="18" fill="#ef7d16"/><text x="803.6" y="1225.0" font-family="Arial, sans-serif" font-size="13" fill="#202124">4,33★  (vorher 4,4★)</text><text x="657" y="1261.0" text-anchor="end" font-family="Arial, sans-serif" font-size="13" fill="#83888d">26.</text><text x="699" y="1242.0" font-family="Arial, sans-serif" font-size="14" fill="#202124">Hotel Europa - Münster</text><rect x="699" y="1246.0" width="96.6" height="18" fill="#ef7d16"/><text x="803.6" y="1261.0" font-family="Arial, sans-serif" font-size="13" fill="#202124">4,33★  (vorher 4,4★)</text><text x="657" y="1297.0" text-anchor="end" font-family="Arial, sans-serif" font-size="13" fill="#83888d">27.</text><text x="699" y="1278.0" font-family="Arial, sans-serif" font-size="14" fill="#202124">Leezen Kebab</text><rect x="699" y="1282.0" width="95.0" height="18" fill="#ef7d16"/><text x="802.0" y="1297.0" font-family="Arial, sans-serif" font-size="13" fill="#202124">4,34★  (vorher 4,7★)</text><text x="657" y="1333.0" text-anchor="end" font-family="Arial, sans-serif" font-size="13" fill="#83888d">28.</text><text x="699" y="1314.0" font-family="Arial, sans-serif" font-size="14" fill="#202124">Friseur Alanya</text><rect x="699" y="1318.0" width="92.6" height="18" fill="#ef7d16"/><text x="799.6" y="1333.0" font-family="Arial, sans-serif" font-size="13" fill="#202124">4,35★  (vorher 4,8★)</text><text x="657" y="1369.0" text-anchor="end" font-family="Arial, sans-serif" font-size="13" fill="#83888d">29.</text><text x="699" y="1350.0" font-family="Arial, sans-serif" font-size="14" fill="#202124">Kebab Kumpels Münster</text><rect x="699" y="1354.0" width="91.3" height="18" fill="#ef7d16"/><text x="798.3" y="1369.0" font-family="Arial, sans-serif" font-size="13" fill="#202124">4,36★  (vorher 4,5★)</text><text x="657" y="1405.0" text-anchor="end" font-family="Arial, sans-serif" font-size="13" fill="#83888d">30.</text><text x="699" y="1386.0" font-family="Arial, sans-serif" font-size="14" fill="#202124">Salsomania</text><rect x="699" y="1390.0" width="90.3" height="18" fill="#ef7d16"/><text x="797.3" y="1405.0" font-family="Arial, sans-serif" font-size="13" fill="#202124">4,37★  (vorher 4,6★)</text><text x="900" y="1444.0" text-anchor="middle" font-family="Arial, sans-serif" font-size="13" fill="#6f7377">Punkte unter 5★</text></g><g><text x="1250" y="230" font-family="Arial, sans-serif" font-size="27" font-weight="800" fill="#202124">3. Beste Orte ohne Löschbanner</text><text x="1250" y="260" font-family="Arial, sans-serif" font-size="16" fill="#6f7377">kein sichtbarer Diffamierungs-Löschbanner — ab 100 Rezensionen</text><rect x="1250" y="322" width="470" height="1104" fill="#ffffff" opacity="0.96" filter="url(#softShadow)"/><line x1="1284.0" y1="322" x2="1284.0" y2="1406.0" stroke="#dde3e8" stroke-width="1"/><line x1="1384.5" y1="322" x2="1384.5" y2="1406.0" stroke="#dde3e8" stroke-width="1"/><line x1="1485.0" y1="322" x2="1485.0" y2="1406.0" stroke="#dde3e8" stroke-width="1"/><line x1="1585.5" y1="322" x2="1585.5" y2="1406.0" stroke="#dde3e8" stroke-width="1"/><line x1="1686.0" y1="322" x2="1686.0" y2="1406.0" stroke="#dde3e8" stroke-width="1"/><text x="1242" y="361.0" text-anchor="end" font-family="Arial, sans-serif" font-size="13" fill="#83888d">1.</text><text x="1284" y="342.0" font-family="Arial, sans-serif" font-size="14" fill="#202124">Dr. HairStudio</text><rect x="1284" y="346.0" width="402.0" height="18" fill="#2e7d32"/><text x="1694.0" y="361.0" font-family="Arial, sans-serif" font-size="13" fill="#202124">5,0★  (306 Rezensionen)</text><text x="1242" y="397.0" text-anchor="end" font-family="Arial, sans-serif" font-size="13" fill="#83888d">2.</text><text x="1284" y="378.0" font-family="Arial, sans-serif" font-size="14" fill="#202124">Friseur Beleza - Schönheit pur</text><rect x="1284" y="382.0" width="402.0" height="18" fill="#2e7d32"/><text x="1694.0" y="397.0" font-family="Arial, sans-serif" font-size="13" fill="#202124">5,0★  (237 Rezensionen)</text><text x="1242" y="433.0" text-anchor="end" font-family="Arial, sans-serif" font-size="13" fill="#83888d">3.</text><text x="1284" y="414.0" font-family="Arial, sans-serif" font-size="14" fill="#202124">simplyhairless by PurePulse Fachzentrum Müns…</text><rect x="1284" y="418.0" width="402.0" height="18" fill="#2e7d32"/><text x="1694.0" y="433.0" font-family="Arial, sans-serif" font-size="13" fill="#202124">5,0★  (187 Rezensionen)</text><text x="1242" y="469.0" text-anchor="end" font-family="Arial, sans-serif" font-size="13" fill="#83888d">4.</text><text x="1284" y="450.0" font-family="Arial, sans-serif" font-size="14" fill="#202124">Sepi‘s Haarwelt</text><rect x="1284" y="454.0" width="402.0" height="18" fill="#2e7d32"/><text x="1694.0" y="469.0" font-family="Arial, sans-serif" font-size="13" fill="#202124">5,0★  (106 Rezensionen)</text><text x="1242" y="505.0" text-anchor="end" font-family="Arial, sans-serif" font-size="13" fill="#83888d">5.</text><text x="1284" y="486.0" font-family="Arial, sans-serif" font-size="14" fill="#202124">millie.backstube</text><rect x="1284" y="490.0" width="402.0" height="18" fill="#2e7d32"/><text x="1694.0" y="505.0" font-family="Arial, sans-serif" font-size="13" fill="#202124">5,0★  (104 Rezensionen)</text><text x="1242" y="541.0" text-anchor="end" font-family="Arial, sans-serif" font-size="13" fill="#83888d">6.</text><text x="1284" y="522.0" font-family="Arial, sans-serif" font-size="14" fill="#202124">Westside Surfing Große Streine &amp; Schulte OHG</text><rect x="1284" y="526.0" width="394.0" height="18" fill="#2e7d32"/><text x="1686.0" y="541.0" font-family="Arial, sans-serif" font-size="13" fill="#202124">4,9★  (585 Rezensionen)</text><text x="1242" y="577.0" text-anchor="end" font-family="Arial, sans-serif" font-size="13" fill="#83888d">7.</text><text x="1284" y="558.0" font-family="Arial, sans-serif" font-size="14" fill="#202124">La Que</text><rect x="1284" y="562.0" width="394.0" height="18" fill="#2e7d32"/><text x="1686.0" y="577.0" font-family="Arial, sans-serif" font-size="13" fill="#202124">4,9★  (495 Rezensionen)</text><text x="1242" y="613.0" text-anchor="end" font-family="Arial, sans-serif" font-size="13" fill="#83888d">8.</text><text x="1284" y="594.0" font-family="Arial, sans-serif" font-size="14" fill="#202124">Bei Ayman Haarstudio</text><rect x="1284" y="598.0" width="394.0" height="18" fill="#2e7d32"/><text x="1686.0" y="613.0" font-family="Arial, sans-serif" font-size="13" fill="#202124">4,9★  (345 Rezensionen)</text><text x="1242" y="649.0" text-anchor="end" font-family="Arial, sans-serif" font-size="13" fill="#83888d">9.</text><text x="1284" y="630.0" font-family="Arial, sans-serif" font-size="14" fill="#202124">Haferkater, Münster Hbf</text><rect x="1284" y="634.0" width="394.0" height="18" fill="#2e7d32"/><text x="1686.0" y="649.0" font-family="Arial, sans-serif" font-size="13" fill="#202124">4,9★  (318 Rezensionen)</text><text x="1242" y="685.0" text-anchor="end" font-family="Arial, sans-serif" font-size="13" fill="#83888d">10.</text><text x="1284" y="666.0" font-family="Arial, sans-serif" font-size="14" fill="#202124">Mercato Italiano</text><rect x="1284" y="670.0" width="394.0" height="18" fill="#2e7d32"/><text x="1686.0" y="685.0" font-family="Arial, sans-serif" font-size="13" fill="#202124">4,9★  (303 Rezensionen)</text><text x="1242" y="721.0" text-anchor="end" font-family="Arial, sans-serif" font-size="13" fill="#83888d">11.</text><text x="1284" y="702.0" font-family="Arial, sans-serif" font-size="14" fill="#202124">Monsieur Macaron</text><rect x="1284" y="706.0" width="394.0" height="18" fill="#2e7d32"/><text x="1686.0" y="721.0" font-family="Arial, sans-serif" font-size="13" fill="#202124">4,9★  (300 Rezensionen)</text><text x="1242" y="757.0" text-anchor="end" font-family="Arial, sans-serif" font-size="13" fill="#83888d">12.</text><text x="1284" y="738.0" font-family="Arial, sans-serif" font-size="14" fill="#202124">Figaro Friseursalon - Münster</text><rect x="1284" y="742.0" width="394.0" height="18" fill="#2e7d32"/><text x="1686.0" y="757.0" font-family="Arial, sans-serif" font-size="13" fill="#202124">4,9★  (286 Rezensionen)</text><text x="1242" y="793.0" text-anchor="end" font-family="Arial, sans-serif" font-size="13" fill="#83888d">13.</text><text x="1284" y="774.0" font-family="Arial, sans-serif" font-size="14" fill="#202124">Akravi Haarstudio Neu Style</text><rect x="1284" y="778.0" width="394.0" height="18" fill="#2e7d32"/><text x="1686.0" y="793.0" font-family="Arial, sans-serif" font-size="13" fill="#202124">4,9★  (260 Rezensionen)</text><text x="1242" y="829.0" text-anchor="end" font-family="Arial, sans-serif" font-size="13" fill="#83888d">14.</text><text x="1284" y="810.0" font-family="Arial, sans-serif" font-size="14" fill="#202124">Knopfs Knolle Universitätsstraße (Ofenkartof…</text><rect x="1284" y="814.0" width="394.0" height="18" fill="#2e7d32"/><text x="1686.0" y="829.0" font-family="Arial, sans-serif" font-size="13" fill="#202124">4,9★  (257 Rezensionen)</text><text x="1242" y="865.0" text-anchor="end" font-family="Arial, sans-serif" font-size="13" fill="#83888d">15.</text><text x="1284" y="846.0" font-family="Arial, sans-serif" font-size="14" fill="#202124">headsmiths</text><rect x="1284" y="850.0" width="394.0" height="18" fill="#2e7d32"/><text x="1686.0" y="865.0" font-family="Arial, sans-serif" font-size="13" fill="#202124">4,9★  (248 Rezensionen)</text><text x="1242" y="901.0" text-anchor="end" font-family="Arial, sans-serif" font-size="13" fill="#83888d">16.</text><text x="1284" y="882.0" font-family="Arial, sans-serif" font-size="14" fill="#202124">balthazar bar</text><rect x="1284" y="886.0" width="394.0" height="18" fill="#2e7d32"/><text x="1686.0" y="901.0" font-family="Arial, sans-serif" font-size="13" fill="#202124">4,9★  (247 Rezensionen)</text><text x="1242" y="937.0" text-anchor="end" font-family="Arial, sans-serif" font-size="13" fill="#83888d">17.</text><text x="1284" y="918.0" font-family="Arial, sans-serif" font-size="14" fill="#202124">Optik Viehoff</text><rect x="1284" y="922.0" width="394.0" height="18" fill="#2e7d32"/><text x="1686.0" y="937.0" font-family="Arial, sans-serif" font-size="13" fill="#202124">4,9★  (210 Rezensionen)</text><text x="1242" y="973.0" text-anchor="end" font-family="Arial, sans-serif" font-size="13" fill="#83888d">18.</text><text x="1284" y="954.0" font-family="Arial, sans-serif" font-size="14" fill="#202124">Imperial Hair Design - Münster</text><rect x="1284" y="958.0" width="394.0" height="18" fill="#2e7d32"/><text x="1686.0" y="973.0" font-family="Arial, sans-serif" font-size="13" fill="#202124">4,9★  (206 Rezensionen)</text><text x="1242" y="1009.0" text-anchor="end" font-family="Arial, sans-serif" font-size="13" fill="#83888d">19.</text><text x="1284" y="990.0" font-family="Arial, sans-serif" font-size="14" fill="#202124">Bike-Corner</text><rect x="1284" y="994.0" width="394.0" height="18" fill="#2e7d32"/><text x="1686.0" y="1009.0" font-family="Arial, sans-serif" font-size="13" fill="#202124">4,9★  (192 Rezensionen)</text><text x="1242" y="1045.0" text-anchor="end" font-family="Arial, sans-serif" font-size="13" fill="#83888d">20.</text><text x="1284" y="1026.0" font-family="Arial, sans-serif" font-size="14" fill="#202124">Bömskes Bonbonmanufaktur Münster</text><rect x="1284" y="1030.0" width="394.0" height="18" fill="#2e7d32"/><text x="1686.0" y="1045.0" font-family="Arial, sans-serif" font-size="13" fill="#202124">4,9★  (192 Rezensionen)</text><text x="1242" y="1081.0" text-anchor="end" font-family="Arial, sans-serif" font-size="13" fill="#83888d">21.</text><text x="1284" y="1062.0" font-family="Arial, sans-serif" font-size="14" fill="#202124">The Gentleman</text><rect x="1284" y="1066.0" width="394.0" height="18" fill="#2e7d32"/><text x="1686.0" y="1081.0" font-family="Arial, sans-serif" font-size="13" fill="#202124">4,9★  (188 Rezensionen)</text><text x="1242" y="1117.0" text-anchor="end" font-family="Arial, sans-serif" font-size="13" fill="#83888d">22.</text><text x="1284" y="1098.0" font-family="Arial, sans-serif" font-size="14" fill="#202124">Falafel Point</text><rect x="1284" y="1102.0" width="394.0" height="18" fill="#2e7d32"/><text x="1686.0" y="1117.0" font-family="Arial, sans-serif" font-size="13" fill="#202124">4,9★  (180 Rezensionen)</text><text x="1242" y="1153.0" text-anchor="end" font-family="Arial, sans-serif" font-size="13" fill="#83888d">23.</text><text x="1284" y="1134.0" font-family="Arial, sans-serif" font-size="14" fill="#202124">Haareszeiten®-Haarlounge 2</text><rect x="1284" y="1138.0" width="394.0" height="18" fill="#2e7d32"/><text x="1686.0" y="1153.0" font-family="Arial, sans-serif" font-size="13" fill="#202124">4,9★  (180 Rezensionen)</text><text x="1242" y="1189.0" text-anchor="end" font-family="Arial, sans-serif" font-size="13" fill="#83888d">24.</text><text x="1284" y="1170.0" font-family="Arial, sans-serif" font-size="14" fill="#202124">Hair Rock by Jens Sonnabend</text><rect x="1284" y="1174.0" width="394.0" height="18" fill="#2e7d32"/><text x="1686.0" y="1189.0" font-family="Arial, sans-serif" font-size="13" fill="#202124">4,9★  (180 Rezensionen)</text><text x="1242" y="1225.0" text-anchor="end" font-family="Arial, sans-serif" font-size="13" fill="#83888d">25.</text><text x="1284" y="1206.0" font-family="Arial, sans-serif" font-size="14" fill="#202124">FRESH CUT</text><rect x="1284" y="1210.0" width="394.0" height="18" fill="#2e7d32"/><text x="1686.0" y="1225.0" font-family="Arial, sans-serif" font-size="13" fill="#202124">4,9★  (179 Rezensionen)</text><text x="1242" y="1261.0" text-anchor="end" font-family="Arial, sans-serif" font-size="13" fill="#83888d">26.</text><text x="1284" y="1242.0" font-family="Arial, sans-serif" font-size="14" fill="#202124">Royal Cuts</text><rect x="1284" y="1246.0" width="394.0" height="18" fill="#2e7d32"/><text x="1686.0" y="1261.0" font-family="Arial, sans-serif" font-size="13" fill="#202124">4,9★  (179 Rezensionen)</text><text x="1242" y="1297.0" text-anchor="end" font-family="Arial, sans-serif" font-size="13" fill="#83888d">27.</text><text x="1284" y="1278.0" font-family="Arial, sans-serif" font-size="14" fill="#202124">Ihre Haarprofis</text><rect x="1284" y="1282.0" width="394.0" height="18" fill="#2e7d32"/><text x="1686.0" y="1297.0" font-family="Arial, sans-serif" font-size="13" fill="#202124">4,9★  (173 Rezensionen)</text><text x="1242" y="1333.0" text-anchor="end" font-family="Arial, sans-serif" font-size="13" fill="#83888d">28.</text><text x="1284" y="1314.0" font-family="Arial, sans-serif" font-size="14" fill="#202124">Heart and Soul Barbershop</text><rect x="1284" y="1318.0" width="394.0" height="18" fill="#2e7d32"/><text x="1686.0" y="1333.0" font-family="Arial, sans-serif" font-size="13" fill="#202124">4,9★  (168 Rezensionen)</text><text x="1242" y="1369.0" text-anchor="end" font-family="Arial, sans-serif" font-size="13" fill="#83888d">29.</text><text x="1284" y="1350.0" font-family="Arial, sans-serif" font-size="14" fill="#202124">Ari Friseur - Münster</text><rect x="1284" y="1354.0" width="394.0" height="18" fill="#2e7d32"/><text x="1686.0" y="1369.0" font-family="Arial, sans-serif" font-size="13" fill="#202124">4,9★  (157 Rezensionen)</text><text x="1242" y="1405.0" text-anchor="end" font-family="Arial, sans-serif" font-size="13" fill="#83888d">30.</text><text x="1284" y="1386.0" font-family="Arial, sans-serif" font-size="14" fill="#202124">FÖN-X 2 Friseur- &amp; Beautysalon</text><rect x="1284" y="1390.0" width="394.0" height="18" fill="#2e7d32"/><text x="1686.0" y="1405.0" font-family="Arial, sans-serif" font-size="13" fill="#202124">4,9★  (143 Rezensionen)</text><text x="1485" y="1444.0" text-anchor="middle" font-family="Arial, sans-serif" font-size="13" fill="#6f7377">Rating (★)</text></g><g><text x="120" y="1660" font-family="Arial, sans-serif" font-size="28" font-weight="800" fill="#202124">Verteilung der Lösch-Stufen über alle 1.024 Orte</text><rect x="120" y="1715" width="1540" height="560" fill="#ffffff" opacity="0.96" filter="url(#softShadow)"/><text x="150" y="1781" font-family="Arial, sans-serif" font-size="18" fill="#202124">Keine Löschung</text><rect x="450" y="1765" width="900" height="24" fill="#edf2f5"/><rect x="450" y="1765" width="900.0" height="24" fill="#2e7d32"/><text x="1380" y="1783" font-family="Arial, sans-serif" font-size="18" fill="#202124">930 (90,8%)</text><text x="150" y="1826" font-family="Arial, sans-serif" font-size="18" fill="#202124">Eine gelöscht</text><rect x="450" y="1810" width="900" height="24" fill="#edf2f5"/><rect x="450" y="1810" width="15.5" height="24" fill="#8bc34a"/><text x="1380" y="1828" font-family="Arial, sans-serif" font-size="18" fill="#202124">16 (1,6%)</text><text x="150" y="1871" font-family="Arial, sans-serif" font-size="18" fill="#202124">2–5 gelöscht</text><rect x="450" y="1855" width="900" height="24" fill="#edf2f5"/><rect x="450" y="1855" width="20.3" height="24" fill="#cddc39"/><text x="1380" y="1873" font-family="Arial, sans-serif" font-size="18" fill="#202124">21 (2,1%)</text><text x="150" y="1916" font-family="Arial, sans-serif" font-size="18" fill="#202124">6–10 gelöscht</text><rect x="450" y="1900" width="900" height="24" fill="#edf2f5"/><rect x="450" y="1900" width="12.6" height="24" fill="#ffca28"/><text x="1380" y="1918" font-family="Arial, sans-serif" font-size="18" fill="#202124">13 (1,3%)</text><text x="150" y="1961" font-family="Arial, sans-serif" font-size="18" fill="#202124">11–20 gelöscht</text><rect x="450" y="1945" width="900" height="24" fill="#edf2f5"/><rect x="450" y="1945" width="16.5" height="24" fill="#ff9f1c"/><text x="1380" y="1963" font-family="Arial, sans-serif" font-size="18" fill="#202124">17 (1,7%)</text><text x="150" y="2006" font-family="Arial, sans-serif" font-size="18" fill="#202124">21–50 gelöscht</text><rect x="450" y="1990" width="900" height="24" fill="#edf2f5"/><rect x="450" y="1990" width="21.3" height="24" fill="#ff6d00"/><text x="1380" y="2008" font-family="Arial, sans-serif" font-size="18" fill="#202124">22 (2,1%)</text><text x="150" y="2051" font-family="Arial, sans-serif" font-size="18" fill="#202124">51–100 gelöscht</text><rect x="450" y="2035" width="900" height="24" fill="#edf2f5"/><rect x="450" y="2035" width="3.9" height="24" fill="#e5391b"/><text x="1380" y="2053" font-family="Arial, sans-serif" font-size="18" fill="#202124">4 (0,4%)</text><text x="150" y="2096" font-family="Arial, sans-serif" font-size="18" fill="#202124">101–200 gelöscht</text><rect x="450" y="2080" width="900" height="24" fill="#edf2f5"/><rect x="450" y="2080" width="0.0" height="24" fill="#c62828"/><text x="1380" y="2098" font-family="Arial, sans-serif" font-size="18" fill="#202124">0 (0,0%)</text><text x="150" y="2141" font-family="Arial, sans-serif" font-size="18" fill="#202124">201–250 gelöscht</text><rect x="450" y="2125" width="900" height="24" fill="#edf2f5"/><rect x="450" y="2125" width="1.0" height="24" fill="#8e1919"/><text x="1380" y="2143" font-family="Arial, sans-serif" font-size="18" fill="#202124">1 (0,1%)</text><text x="150" y="2186" font-family="Arial, sans-serif" font-size="18" fill="#202124">Über 250 gelöscht</text><rect x="450" y="2170" width="900" height="24" fill="#edf2f5"/><rect x="450" y="2170" width="0.0" height="24" fill="#5b0f0f"/><text x="1380" y="2188" font-family="Arial, sans-serif" font-size="18" fill="#202124">0 (0,0%)</text></g><text x="40" y="2460" font-family="Arial, sans-serif" font-size="13" fill="#8a8f94">Quelle: Google Maps, öffentlich sichtbare Banner; Analyse-Snapshot 08.05.2026</text><text x="1760" y="2460" text-anchor="end" font-family="Arial, sans-serif" font-size="13" fill="#8a8f94">© <a href="https://patwoz.dev" target="_blank" style="fill:#8a8f94;text-decoration:none">Patrick Wozniak</a></text><text x="1760" y="2480" text-anchor="end" font-family="Arial, sans-serif" font-size="11" fill="#aab0b5">patwoz.dev</text></svg>
