<svg xmlns="http://www.w3.org/2000/svg" width="1800" height="2500" viewBox="0 0 1800 2500">
  <defs>
    <linearGradient id="bg" x1="0" y1="0" x2="0" y2="1"><stop offset="0%" stop-color="#d9e8f2"/><stop offset="58%" stop-color="#eef6fa"/><stop offset="100%" stop-color="#d7dde2"/></linearGradient>
    <filter id="softShadow" x="-10%" y="-10%" width="120%" height="120%"><feDropShadow dx="0" dy="8" stdDeviation="10" flood-color="#6d7f8a" flood-opacity="0.16"/></filter>
  </defs>
  <rect width="100%" height="100%" fill="url(#bg)"/>
  <circle cx="1450" cy="310" r="500" fill="#ffffff" opacity="0.18"/>
  <circle cx="260" cy="2140" r="620" fill="#ffffff" opacity="0.20"/>
  <text x="900" y="70" text-anchor="middle" font-family="Arial, sans-serif" font-size="48" font-weight="800" fill="#202124">Postleitzahl 48432 — Ibbenbüren</text>
  <text x="900" y="112" text-anchor="middle" font-family="Arial, sans-serif" font-size="22" fill="#4b5055">Google-Maps-Orte: gelöschte Rezensionen wegen „Diffamierung“</text>
  <text x="900" y="160" text-anchor="middle" font-family="Arial, sans-serif" font-size="18" fill="#6f7377">362 Orte erfasst · 22 mit sichtbarem Banner (6,1%) · 0 in der „Über“-Stufe</text><g><text x="80" y="230" font-family="Arial, sans-serif" font-size="27" font-weight="800" fill="#202124">1. Höchste Lösch-Quote</text><text x="80" y="260" font-family="Arial, sans-serif" font-size="16" fill="#6f7377">Anteil gelöschter Rezensionen</text><rect x="80" y="322" width="470" height="816" fill="#ffffff" opacity="0.96" filter="url(#softShadow)"/><line x1="114.0" y1="322" x2="114.0" y2="1118.0" stroke="#dde3e8" stroke-width="1"/><line x1="214.5" y1="322" x2="214.5" y2="1118.0" stroke="#dde3e8" stroke-width="1"/><line x1="315.0" y1="322" x2="315.0" y2="1118.0" stroke="#dde3e8" stroke-width="1"/><line x1="415.5" y1="322" x2="415.5" y2="1118.0" stroke="#dde3e8" stroke-width="1"/><line x1="516.0" y1="322" x2="516.0" y2="1118.0" stroke="#dde3e8" stroke-width="1"/><text x="72" y="361.0" text-anchor="end" font-family="Arial, sans-serif" font-size="13" fill="#83888d">1.</text><text x="114" y="342.0" font-family="Arial, sans-serif" font-size="14" fill="#202124">Dila KEBAPHAUS</text><rect x="114" y="346.0" width="402.0" height="18" fill="#c9332c"/><text x="524.0" y="361.0" font-family="Arial, sans-serif" font-size="13" fill="#202124">28,8%  (51–100 von 187)</text><text x="72" y="397.0" text-anchor="end" font-family="Arial, sans-serif" font-size="13" fill="#83888d">2.</text><text x="114" y="378.0" font-family="Arial, sans-serif" font-size="14" fill="#202124">Praxis Dr. Verena und Dr. Peter Brekle &amp; Kol…</text><rect x="114" y="382.0" width="276.1" height="18" fill="#c9332c"/><text x="398.1" y="397.0" font-family="Arial, sans-serif" font-size="13" fill="#202124">19,8%  (11–20 von 63)</text><text x="72" y="433.0" text-anchor="end" font-family="Arial, sans-serif" font-size="13" fill="#83888d">3.</text><text x="114" y="414.0" font-family="Arial, sans-serif" font-size="14" fill="#202124">Löwen-Apotheke</text><rect x="114" y="418.0" width="192.8" height="18" fill="#c9332c"/><text x="314.8" y="433.0" font-family="Arial, sans-serif" font-size="13" fill="#202124">13,8%  (6–10 von 50)</text><text x="72" y="469.0" text-anchor="end" font-family="Arial, sans-serif" font-size="13" fill="#83888d">4.</text><text x="114" y="450.0" font-family="Arial, sans-serif" font-size="14" fill="#202124">Lütkemeyer´s Gasthof</text><rect x="114" y="454.0" width="179.5" height="18" fill="#c9332c"/><text x="301.5" y="469.0" font-family="Arial, sans-serif" font-size="13" fill="#202124">12,8%  (21–50 von 241)</text><text x="72" y="505.0" text-anchor="end" font-family="Arial, sans-serif" font-size="13" fill="#83888d">5.</text><text x="114" y="486.0" font-family="Arial, sans-serif" font-size="14" fill="#202124">Eulenspiegel Wohn- u. Werkhaus für Kinder u.…</text><rect x="114" y="490.0" width="174.7" height="18" fill="#c9332c"/><text x="296.7" y="505.0" font-family="Arial, sans-serif" font-size="13" fill="#202124">12,5%  (1 von 7)</text><text x="72" y="541.0" text-anchor="end" font-family="Arial, sans-serif" font-size="13" fill="#83888d">6.</text><text x="114" y="522.0" font-family="Arial, sans-serif" font-size="14" fill="#202124">Restaurant Tatsumi</text><rect x="114" y="526.0" width="154.2" height="18" fill="#c9332c"/><text x="276.2" y="541.0" font-family="Arial, sans-serif" font-size="13" fill="#202124">11,0%  (51–100 von 609)</text><text x="72" y="577.0" text-anchor="end" font-family="Arial, sans-serif" font-size="13" fill="#83888d">7.</text><text x="114" y="558.0" font-family="Arial, sans-serif" font-size="14" fill="#202124">Autohaus Hartmann GmbH</text><rect x="114" y="562.0" width="146.6" height="18" fill="#c9332c"/><text x="268.6" y="577.0" font-family="Arial, sans-serif" font-size="13" fill="#202124">10,5%  (21–50 von 303)</text><text x="72" y="613.0" text-anchor="end" font-family="Arial, sans-serif" font-size="13" fill="#83888d">8.</text><text x="114" y="594.0" font-family="Arial, sans-serif" font-size="14" fill="#202124">Hotel Restaurant Einklang</text><rect x="114" y="598.0" width="145.4" height="18" fill="#c9332c"/><text x="267.4" y="613.0" font-family="Arial, sans-serif" font-size="13" fill="#202124">10,4%  (21–50 von 306)</text><text x="72" y="649.0" text-anchor="end" font-family="Arial, sans-serif" font-size="13" fill="#83888d">9.</text><text x="114" y="630.0" font-family="Arial, sans-serif" font-size="14" fill="#202124">Lena‘s Haarstudio und Team</text><rect x="114" y="634.0" width="134.7" height="18" fill="#c9332c"/><text x="256.7" y="649.0" font-family="Arial, sans-serif" font-size="13" fill="#202124">9,6%  (6–10 von 75)</text><text x="72" y="685.0" text-anchor="end" font-family="Arial, sans-serif" font-size="13" fill="#83888d">10.</text><text x="114" y="666.0" font-family="Arial, sans-serif" font-size="14" fill="#202124">FITOMAT Neuenkirchen</text><rect x="114" y="670.0" width="105.3" height="18" fill="#c9332c"/><text x="227.3" y="685.0" font-family="Arial, sans-serif" font-size="13" fill="#202124">7,5%  (2–5 von 43)</text><text x="72" y="721.0" text-anchor="end" font-family="Arial, sans-serif" font-size="13" fill="#83888d">11.</text><text x="114" y="702.0" font-family="Arial, sans-serif" font-size="14" fill="#202124">Pizzeria L&#39;Amore Mesum</text><rect x="114" y="706.0" width="67.4" height="18" fill="#c9332c"/><text x="189.4" y="721.0" font-family="Arial, sans-serif" font-size="13" fill="#202124">4,8%  (6–10 von 158)</text><text x="72" y="757.0" text-anchor="end" font-family="Arial, sans-serif" font-size="13" fill="#83888d">12.</text><text x="114" y="738.0" font-family="Arial, sans-serif" font-size="14" fill="#202124">Autohaus Brüggemann GmbH &amp; Co. KG Rheine-Mes…</text><rect x="114" y="742.0" width="63.9" height="18" fill="#c9332c"/><text x="185.9" y="757.0" font-family="Arial, sans-serif" font-size="13" fill="#202124">4,6%  (51–100 von 1.576)</text><text x="72" y="793.0" text-anchor="end" font-family="Arial, sans-serif" font-size="13" fill="#83888d">13.</text><text x="114" y="774.0" font-family="Arial, sans-serif" font-size="14" fill="#202124">Reisemobile Brüggemann GmbH</text><rect x="114" y="778.0" width="33.5" height="18" fill="#c9332c"/><text x="155.5" y="793.0" font-family="Arial, sans-serif" font-size="13" fill="#202124">2,4%  (11–20 von 630)</text><text x="72" y="829.0" text-anchor="end" font-family="Arial, sans-serif" font-size="13" fill="#83888d">14.</text><text x="114" y="810.0" font-family="Arial, sans-serif" font-size="14" fill="#202124">Ewige Liebe Gastro GmbH</text><rect x="114" y="814.0" width="31.0" height="18" fill="#c9332c"/><text x="153.0" y="829.0" font-family="Arial, sans-serif" font-size="13" fill="#202124">2,2%  (51–100 von 3.319)</text><text x="72" y="865.0" text-anchor="end" font-family="Arial, sans-serif" font-size="13" fill="#83888d">15.</text><text x="114" y="846.0" font-family="Arial, sans-serif" font-size="14" fill="#202124">Tüötten Houk</text><rect x="114" y="850.0" width="30.6" height="18" fill="#c9332c"/><text x="152.6" y="865.0" font-family="Arial, sans-serif" font-size="13" fill="#202124">2,2%  (2–5 von 156)</text><text x="72" y="901.0" text-anchor="end" font-family="Arial, sans-serif" font-size="13" fill="#83888d">16.</text><text x="114" y="882.0" font-family="Arial, sans-serif" font-size="14" fill="#202124">Pizzawagen Saerbecker</text><rect x="114" y="886.0" width="24.3" height="18" fill="#c9332c"/><text x="146.3" y="901.0" font-family="Arial, sans-serif" font-size="13" fill="#202124">1,7%  (2–5 von 198)</text><text x="72" y="937.0" text-anchor="end" font-family="Arial, sans-serif" font-size="13" fill="#83888d">17.</text><text x="114" y="918.0" font-family="Arial, sans-serif" font-size="14" fill="#202124">FITOMAT Hörstel</text><rect x="114" y="922.0" width="18.2" height="18" fill="#c9332c"/><text x="140.2" y="937.0" font-family="Arial, sans-serif" font-size="13" fill="#202124">1,3%  (1 von 76)</text><text x="72" y="973.0" text-anchor="end" font-family="Arial, sans-serif" font-size="13" fill="#83888d">18.</text><text x="114" y="954.0" font-family="Arial, sans-serif" font-size="14" fill="#202124">Saerbecker Ecke Restaurant Und Bar</text><rect x="114" y="958.0" width="9.1" height="18" fill="#c9332c"/><text x="131.1" y="973.0" font-family="Arial, sans-serif" font-size="13" fill="#202124">0,7%  (1 von 152)</text><text x="72" y="1009.0" text-anchor="end" font-family="Arial, sans-serif" font-size="13" fill="#83888d">19.</text><text x="114" y="990.0" font-family="Arial, sans-serif" font-size="14" fill="#202124">Index</text><rect x="114" y="994.0" width="8.9" height="18" fill="#c9332c"/><text x="130.9" y="1009.0" font-family="Arial, sans-serif" font-size="13" fill="#202124">0,6%  (11–20 von 2.422)</text><text x="72" y="1045.0" text-anchor="end" font-family="Arial, sans-serif" font-size="13" fill="#83888d">20.</text><text x="114" y="1026.0" font-family="Arial, sans-serif" font-size="14" fill="#202124">Hohe Heide Beckmann Alpaka Spaziergänge und …</text><rect x="114" y="1030.0" width="6.8" height="18" fill="#c9332c"/><text x="128.8" y="1045.0" font-family="Arial, sans-serif" font-size="13" fill="#202124">0,5%  (1 von 205)</text><text x="72" y="1081.0" text-anchor="end" font-family="Arial, sans-serif" font-size="13" fill="#83888d">21.</text><text x="114" y="1062.0" font-family="Arial, sans-serif" font-size="14" fill="#202124">4monkeys Shisha Bar</text><rect x="114" y="1066.0" width="4.3" height="18" fill="#c9332c"/><text x="126.3" y="1081.0" font-family="Arial, sans-serif" font-size="13" fill="#202124">0,3%  (1 von 325)</text><text x="72" y="1117.0" text-anchor="end" font-family="Arial, sans-serif" font-size="13" fill="#83888d">22.</text><text x="114" y="1098.0" font-family="Arial, sans-serif" font-size="14" fill="#202124">La Bruschetta da Hamed</text><rect x="114" y="1102.0" width="3.0" height="18" fill="#c9332c"/><text x="125.0" y="1117.0" font-family="Arial, sans-serif" font-size="13" fill="#202124">0,2%  (1 von 465)</text><text x="315" y="1156.0" text-anchor="middle" font-family="Arial, sans-serif" font-size="13" fill="#6f7377">Lösch-Quote (%) · Top 30</text></g><g><text x="665" y="230" font-family="Arial, sans-serif" font-size="27" font-weight="800" fill="#202124">2. Schlechtestes „echtes“ Rating</text><text x="665" y="260" font-family="Arial, sans-serif" font-size="16" fill="#6f7377">Modell: gelöschte Rezensionen waren 1★</text><rect x="665" y="322" width="470" height="816" fill="#ffffff" opacity="0.96" filter="url(#softShadow)"/><line x1="699.0" y1="322" x2="699.0" y2="1118.0" stroke="#dde3e8" stroke-width="1"/><line x1="799.5" y1="322" x2="799.5" y2="1118.0" stroke="#dde3e8" stroke-width="1"/><line x1="900.0" y1="322" x2="900.0" y2="1118.0" stroke="#dde3e8" stroke-width="1"/><line x1="1000.5" y1="322" x2="1000.5" y2="1118.0" stroke="#dde3e8" stroke-width="1"/><line x1="1101.0" y1="322" x2="1101.0" y2="1118.0" stroke="#dde3e8" stroke-width="1"/><text x="657" y="361.0" text-anchor="end" font-family="Arial, sans-serif" font-size="13" fill="#83888d">1.</text><text x="699" y="342.0" font-family="Arial, sans-serif" font-size="14" fill="#202124">Eulenspiegel Wohn- u. Werkhaus für Kinder u.…</text><rect x="699" y="346.0" width="402.0" height="18" fill="#ef7d16"/><text x="1109.0" y="361.0" font-family="Arial, sans-serif" font-size="13" fill="#202124">3,27★  (vorher 3,6★)</text><text x="657" y="397.0" text-anchor="end" font-family="Arial, sans-serif" font-size="13" fill="#83888d">2.</text><text x="699" y="378.0" font-family="Arial, sans-serif" font-size="14" fill="#202124">Dila KEBAPHAUS</text><rect x="699" y="382.0" width="334.4" height="18" fill="#ef7d16"/><text x="1041.4" y="397.0" font-family="Arial, sans-serif" font-size="13" fill="#202124">3,56★  (vorher 4,6★)</text><text x="657" y="433.0" text-anchor="end" font-family="Arial, sans-serif" font-size="13" fill="#83888d">3.</text><text x="699" y="414.0" font-family="Arial, sans-serif" font-size="14" fill="#202124">Ewige Liebe Gastro GmbH</text><rect x="699" y="418.0" width="316.9" height="18" fill="#ef7d16"/><text x="1023.9" y="433.0" font-family="Arial, sans-serif" font-size="13" fill="#202124">3,64★  (vorher 3,7★)</text><text x="657" y="469.0" text-anchor="end" font-family="Arial, sans-serif" font-size="13" fill="#83888d">4.</text><text x="699" y="450.0" font-family="Arial, sans-serif" font-size="14" fill="#202124">Löwen-Apotheke</text><rect x="699" y="454.0" width="289.2" height="18" fill="#ef7d16"/><text x="996.2" y="469.0" font-family="Arial, sans-serif" font-size="13" fill="#202124">3,76★  (vorher 4,2★)</text><text x="657" y="505.0" text-anchor="end" font-family="Arial, sans-serif" font-size="13" fill="#83888d">5.</text><text x="699" y="486.0" font-family="Arial, sans-serif" font-size="14" fill="#202124">Praxis Dr. Verena und Dr. Peter Brekle &amp; Kol…</text><rect x="699" y="490.0" width="202.7" height="18" fill="#ef7d16"/><text x="909.7" y="505.0" font-family="Arial, sans-serif" font-size="13" fill="#202124">4,13★  (vorher 4,9★)</text><text x="657" y="541.0" text-anchor="end" font-family="Arial, sans-serif" font-size="13" fill="#83888d">6.</text><text x="699" y="522.0" font-family="Arial, sans-serif" font-size="14" fill="#202124">Lütkemeyer´s Gasthof</text><rect x="699" y="526.0" width="200.9" height="18" fill="#ef7d16"/><text x="907.9" y="541.0" font-family="Arial, sans-serif" font-size="13" fill="#202124">4,14★  (vorher 4,6★)</text><text x="657" y="577.0" text-anchor="end" font-family="Arial, sans-serif" font-size="13" fill="#83888d">7.</text><text x="699" y="558.0" font-family="Arial, sans-serif" font-size="14" fill="#202124">Hotel Restaurant Einklang</text><rect x="699" y="562.0" width="180.4" height="18" fill="#ef7d16"/><text x="887.4" y="577.0" font-family="Arial, sans-serif" font-size="13" fill="#202124">4,23★  (vorher 4,6★)</text><text x="657" y="613.0" text-anchor="end" font-family="Arial, sans-serif" font-size="13" fill="#83888d">8.</text><text x="699" y="594.0" font-family="Arial, sans-serif" font-size="14" fill="#202124">Restaurant Tatsumi</text><rect x="699" y="598.0" width="165.0" height="18" fill="#ef7d16"/><text x="872.0" y="613.0" font-family="Arial, sans-serif" font-size="13" fill="#202124">4,29★  (vorher 4,7★)</text><text x="657" y="649.0" text-anchor="end" font-family="Arial, sans-serif" font-size="13" fill="#83888d">9.</text><text x="699" y="630.0" font-family="Arial, sans-serif" font-size="14" fill="#202124">Tüötten Houk</text><rect x="699" y="634.0" width="157.3" height="18" fill="#ef7d16"/><text x="864.3" y="649.0" font-family="Arial, sans-serif" font-size="13" fill="#202124">4,33★  (vorher 4,4★)</text><text x="657" y="685.0" text-anchor="end" font-family="Arial, sans-serif" font-size="13" fill="#83888d">10.</text><text x="699" y="666.0" font-family="Arial, sans-serif" font-size="14" fill="#202124">Autohaus Hartmann GmbH</text><rect x="699" y="670.0" width="139.6" height="18" fill="#ef7d16"/><text x="846.6" y="685.0" font-family="Arial, sans-serif" font-size="13" fill="#202124">4,40★  (vorher 4,8★)</text><text x="657" y="721.0" text-anchor="end" font-family="Arial, sans-serif" font-size="13" fill="#83888d">11.</text><text x="699" y="702.0" font-family="Arial, sans-serif" font-size="14" fill="#202124">Autohaus Brüggemann GmbH &amp; Co. KG Rheine-Mes…</text><rect x="699" y="706.0" width="131.7" height="18" fill="#ef7d16"/><text x="838.7" y="721.0" font-family="Arial, sans-serif" font-size="13" fill="#202124">4,43★  (vorher 4,6★)</text><text x="657" y="757.0" text-anchor="end" font-family="Arial, sans-serif" font-size="13" fill="#83888d">12.</text><text x="699" y="738.0" font-family="Arial, sans-serif" font-size="14" fill="#202124">Reisemobile Brüggemann GmbH</text><rect x="699" y="742.0" width="113.3" height="18" fill="#ef7d16"/><text x="820.3" y="757.0" font-family="Arial, sans-serif" font-size="13" fill="#202124">4,51★  (vorher 4,6★)</text><text x="657" y="793.0" text-anchor="end" font-family="Arial, sans-serif" font-size="13" fill="#83888d">13.</text><text x="699" y="774.0" font-family="Arial, sans-serif" font-size="14" fill="#202124">Lena‘s Haarstudio und Team</text><rect x="699" y="778.0" width="110.9" height="18" fill="#ef7d16"/><text x="817.9" y="793.0" font-family="Arial, sans-serif" font-size="13" fill="#202124">4,52★  (vorher 4,9★)</text><text x="657" y="829.0" text-anchor="end" font-family="Arial, sans-serif" font-size="13" fill="#83888d">14.</text><text x="699" y="810.0" font-family="Arial, sans-serif" font-size="14" fill="#202124">Index</text><rect x="699" y="814.0" width="98.6" height="18" fill="#ef7d16"/><text x="805.6" y="829.0" font-family="Arial, sans-serif" font-size="13" fill="#202124">4,58★  (vorher 4,6★)</text><text x="657" y="865.0" text-anchor="end" font-family="Arial, sans-serif" font-size="13" fill="#83888d">15.</text><text x="699" y="846.0" font-family="Arial, sans-serif" font-size="14" fill="#202124">Hohe Heide Beckmann Alpaka Spaziergänge und …</text><rect x="699" y="850.0" width="74.1" height="18" fill="#ef7d16"/><text x="781.1" y="865.0" font-family="Arial, sans-serif" font-size="13" fill="#202124">4,68★  (vorher 4,7★)</text><text x="657" y="901.0" text-anchor="end" font-family="Arial, sans-serif" font-size="13" fill="#83888d">16.</text><text x="699" y="882.0" font-family="Arial, sans-serif" font-size="14" fill="#202124">FITOMAT Neuenkirchen</text><rect x="699" y="886.0" width="70.1" height="18" fill="#ef7d16"/><text x="777.1" y="901.0" font-family="Arial, sans-serif" font-size="13" fill="#202124">4,70★  (vorher 5,0★)</text><text x="657" y="937.0" text-anchor="end" font-family="Arial, sans-serif" font-size="13" fill="#83888d">17.</text><text x="699" y="918.0" font-family="Arial, sans-serif" font-size="14" fill="#202124">Pizzeria L&#39;Amore Mesum</text><rect x="699" y="922.0" width="67.1" height="18" fill="#ef7d16"/><text x="774.1" y="937.0" font-family="Arial, sans-serif" font-size="13" fill="#202124">4,71★  (vorher 4,9★)</text><text x="657" y="973.0" text-anchor="end" font-family="Arial, sans-serif" font-size="13" fill="#83888d">18.</text><text x="699" y="954.0" font-family="Arial, sans-serif" font-size="14" fill="#202124">Pizzawagen Saerbecker</text><rect x="699" y="958.0" width="39.2" height="18" fill="#ef7d16"/><text x="746.2" y="973.0" font-family="Arial, sans-serif" font-size="13" fill="#202124">4,83★  (vorher 4,9★)</text><text x="657" y="1009.0" text-anchor="end" font-family="Arial, sans-serif" font-size="13" fill="#83888d">19.</text><text x="699" y="990.0" font-family="Arial, sans-serif" font-size="14" fill="#202124">FITOMAT Hörstel</text><rect x="699" y="994.0" width="35.2" height="18" fill="#ef7d16"/><text x="742.2" y="1009.0" font-family="Arial, sans-serif" font-size="13" fill="#202124">4,85★  (vorher 4,9★)</text><text x="657" y="1045.0" text-anchor="end" font-family="Arial, sans-serif" font-size="13" fill="#83888d">20.</text><text x="699" y="1026.0" font-family="Arial, sans-serif" font-size="14" fill="#202124">Saerbecker Ecke Restaurant Und Bar</text><rect x="699" y="1030.0" width="29.1" height="18" fill="#ef7d16"/><text x="736.1" y="1045.0" font-family="Arial, sans-serif" font-size="13" fill="#202124">4,88★  (vorher 4,9★)</text><text x="657" y="1081.0" text-anchor="end" font-family="Arial, sans-serif" font-size="13" fill="#83888d">21.</text><text x="699" y="1062.0" font-family="Arial, sans-serif" font-size="14" fill="#202124">La Bruschetta da Hamed</text><rect x="699" y="1066.0" width="25.2" height="18" fill="#ef7d16"/><text x="732.2" y="1081.0" font-family="Arial, sans-serif" font-size="13" fill="#202124">4,89★  (vorher 4,9★)</text><text x="657" y="1117.0" text-anchor="end" font-family="Arial, sans-serif" font-size="13" fill="#83888d">22.</text><text x="699" y="1098.0" font-family="Arial, sans-serif" font-size="14" fill="#202124">4monkeys Shisha Bar</text><rect x="699" y="1102.0" width="3.0" height="18" fill="#ef7d16"/><text x="710.0" y="1117.0" font-family="Arial, sans-serif" font-size="13" fill="#202124">4,99★  (vorher 5,0★)</text><text x="900" y="1156.0" text-anchor="middle" font-family="Arial, sans-serif" font-size="13" fill="#6f7377">Punkte unter 5★</text></g><g><text x="1250" y="230" font-family="Arial, sans-serif" font-size="27" font-weight="800" fill="#202124">3. Beste Orte ohne Löschbanner</text><text x="1250" y="260" font-family="Arial, sans-serif" font-size="16" fill="#6f7377">kein sichtbarer Diffamierungs-Löschbanner — ab 100 Rezensionen</text><rect x="1250" y="322" width="470" height="1104" fill="#ffffff" opacity="0.96" filter="url(#softShadow)"/><line x1="1284.0" y1="322" x2="1284.0" y2="1406.0" stroke="#dde3e8" stroke-width="1"/><line x1="1384.5" y1="322" x2="1384.5" y2="1406.0" stroke="#dde3e8" stroke-width="1"/><line x1="1485.0" y1="322" x2="1485.0" y2="1406.0" stroke="#dde3e8" stroke-width="1"/><line x1="1585.5" y1="322" x2="1585.5" y2="1406.0" stroke="#dde3e8" stroke-width="1"/><line x1="1686.0" y1="322" x2="1686.0" y2="1406.0" stroke="#dde3e8" stroke-width="1"/><text x="1242" y="361.0" text-anchor="end" font-family="Arial, sans-serif" font-size="13" fill="#83888d">1.</text><text x="1284" y="342.0" font-family="Arial, sans-serif" font-size="14" fill="#202124">Kaffeewerkstatt-Rheine</text><rect x="1284" y="346.0" width="402.0" height="18" fill="#2e7d32"/><text x="1694.0" y="361.0" font-family="Arial, sans-serif" font-size="13" fill="#202124">5,0★  (172 Rezensionen)</text><text x="1242" y="397.0" text-anchor="end" font-family="Arial, sans-serif" font-size="13" fill="#83888d">2.</text><text x="1284" y="378.0" font-family="Arial, sans-serif" font-size="14" fill="#202124">Jagdschule Fuchsbau Rheine</text><rect x="1284" y="382.0" width="402.0" height="18" fill="#2e7d32"/><text x="1694.0" y="397.0" font-family="Arial, sans-serif" font-size="13" fill="#202124">5,0★  (150 Rezensionen)</text><text x="1242" y="433.0" text-anchor="end" font-family="Arial, sans-serif" font-size="13" fill="#83888d">3.</text><text x="1284" y="414.0" font-family="Arial, sans-serif" font-size="14" fill="#202124">Bratwurstbratgerät</text><rect x="1284" y="418.0" width="402.0" height="18" fill="#2e7d32"/><text x="1694.0" y="433.0" font-family="Arial, sans-serif" font-size="13" fill="#202124">5,0★  (120 Rezensionen)</text><text x="1242" y="469.0" text-anchor="end" font-family="Arial, sans-serif" font-size="13" fill="#83888d">4.</text><text x="1284" y="450.0" font-family="Arial, sans-serif" font-size="14" fill="#202124">Power Sports Emsdetten</text><rect x="1284" y="454.0" width="394.0" height="18" fill="#2e7d32"/><text x="1686.0" y="469.0" font-family="Arial, sans-serif" font-size="13" fill="#202124">4,9★  (228 Rezensionen)</text><text x="1242" y="505.0" text-anchor="end" font-family="Arial, sans-serif" font-size="13" fill="#83888d">5.</text><text x="1284" y="486.0" font-family="Arial, sans-serif" font-size="14" fill="#202124">Bridal concepts</text><rect x="1284" y="490.0" width="394.0" height="18" fill="#2e7d32"/><text x="1686.0" y="505.0" font-family="Arial, sans-serif" font-size="13" fill="#202124">4,9★  (210 Rezensionen)</text><text x="1242" y="541.0" text-anchor="end" font-family="Arial, sans-serif" font-size="13" fill="#83888d">6.</text><text x="1284" y="522.0" font-family="Arial, sans-serif" font-size="14" fill="#202124">Crazyranch Paintball Rheine</text><rect x="1284" y="526.0" width="385.9" height="18" fill="#2e7d32"/><text x="1677.9" y="541.0" font-family="Arial, sans-serif" font-size="13" fill="#202124">4,8★  (688 Rezensionen)</text><text x="1242" y="577.0" text-anchor="end" font-family="Arial, sans-serif" font-size="13" fill="#83888d">7.</text><text x="1284" y="558.0" font-family="Arial, sans-serif" font-size="14" fill="#202124">Rothenberger Hofcafé</text><rect x="1284" y="562.0" width="385.9" height="18" fill="#2e7d32"/><text x="1677.9" y="577.0" font-family="Arial, sans-serif" font-size="13" fill="#202124">4,8★  (203 Rezensionen)</text><text x="1242" y="613.0" text-anchor="end" font-family="Arial, sans-serif" font-size="13" fill="#83888d">8.</text><text x="1284" y="594.0" font-family="Arial, sans-serif" font-size="14" fill="#202124">Pizzawagen - Pizza Blitz Amigo Emsdetten</text><rect x="1284" y="598.0" width="385.9" height="18" fill="#2e7d32"/><text x="1677.9" y="613.0" font-family="Arial, sans-serif" font-size="13" fill="#202124">4,8★  (173 Rezensionen)</text><text x="1242" y="649.0" text-anchor="end" font-family="Arial, sans-serif" font-size="13" fill="#83888d">9.</text><text x="1284" y="630.0" font-family="Arial, sans-serif" font-size="14" fill="#202124">Wenning - Wieter</text><rect x="1284" y="634.0" width="385.9" height="18" fill="#2e7d32"/><text x="1677.9" y="649.0" font-family="Arial, sans-serif" font-size="13" fill="#202124">4,8★  (171 Rezensionen)</text><text x="1242" y="685.0" text-anchor="end" font-family="Arial, sans-serif" font-size="13" fill="#83888d">10.</text><text x="1284" y="666.0" font-family="Arial, sans-serif" font-size="14" fill="#202124">Bikerhof Haselroth</text><rect x="1284" y="670.0" width="385.9" height="18" fill="#2e7d32"/><text x="1677.9" y="685.0" font-family="Arial, sans-serif" font-size="13" fill="#202124">4,8★  (161 Rezensionen)</text><text x="1242" y="721.0" text-anchor="end" font-family="Arial, sans-serif" font-size="13" fill="#83888d">11.</text><text x="1284" y="702.0" font-family="Arial, sans-serif" font-size="14" fill="#202124">Autohaus NORD Weski &amp; Paul GmbH</text><rect x="1284" y="706.0" width="385.9" height="18" fill="#2e7d32"/><text x="1677.9" y="721.0" font-family="Arial, sans-serif" font-size="13" fill="#202124">4,8★  (150 Rezensionen)</text><text x="1242" y="757.0" text-anchor="end" font-family="Arial, sans-serif" font-size="13" fill="#83888d">12.</text><text x="1284" y="738.0" font-family="Arial, sans-serif" font-size="14" fill="#202124">Nanus Burger 🍔</text><rect x="1284" y="742.0" width="385.9" height="18" fill="#2e7d32"/><text x="1677.9" y="757.0" font-family="Arial, sans-serif" font-size="13" fill="#202124">4,8★  (108 Rezensionen)</text><text x="1242" y="793.0" text-anchor="end" font-family="Arial, sans-serif" font-size="13" fill="#83888d">13.</text><text x="1284" y="774.0" font-family="Arial, sans-serif" font-size="14" fill="#202124">formBAR® Salzbergen</text><rect x="1284" y="778.0" width="385.9" height="18" fill="#2e7d32"/><text x="1677.9" y="793.0" font-family="Arial, sans-serif" font-size="13" fill="#202124">4,8★  (107 Rezensionen)</text><text x="1242" y="829.0" text-anchor="end" font-family="Arial, sans-serif" font-size="13" fill="#83888d">14.</text><text x="1284" y="810.0" font-family="Arial, sans-serif" font-size="14" fill="#202124">Restaurant Santorini</text><rect x="1284" y="814.0" width="377.9" height="18" fill="#2e7d32"/><text x="1669.9" y="829.0" font-family="Arial, sans-serif" font-size="13" fill="#202124">4,7★  (906 Rezensionen)</text><text x="1242" y="865.0" text-anchor="end" font-family="Arial, sans-serif" font-size="13" fill="#83888d">15.</text><text x="1284" y="846.0" font-family="Arial, sans-serif" font-size="14" fill="#202124">Saline Gottesgabe</text><rect x="1284" y="850.0" width="377.9" height="18" fill="#2e7d32"/><text x="1669.9" y="865.0" font-family="Arial, sans-serif" font-size="13" fill="#202124">4,7★  (591 Rezensionen)</text><text x="1242" y="901.0" text-anchor="end" font-family="Arial, sans-serif" font-size="13" fill="#83888d">16.</text><text x="1284" y="882.0" font-family="Arial, sans-serif" font-size="14" fill="#202124">Gaststätte Spieker-Wübbel - Heinrich Wübbel</text><rect x="1284" y="886.0" width="377.9" height="18" fill="#2e7d32"/><text x="1669.9" y="901.0" font-family="Arial, sans-serif" font-size="13" fill="#202124">4,7★  (393 Rezensionen)</text><text x="1242" y="937.0" text-anchor="end" font-family="Arial, sans-serif" font-size="13" fill="#83888d">17.</text><text x="1284" y="918.0" font-family="Arial, sans-serif" font-size="14" fill="#202124">An de Bahn</text><rect x="1284" y="922.0" width="377.9" height="18" fill="#2e7d32"/><text x="1669.9" y="937.0" font-family="Arial, sans-serif" font-size="13" fill="#202124">4,7★  (354 Rezensionen)</text><text x="1242" y="973.0" text-anchor="end" font-family="Arial, sans-serif" font-size="13" fill="#83888d">18.</text><text x="1284" y="954.0" font-family="Arial, sans-serif" font-size="14" fill="#202124">Imbiss Yildiz</text><rect x="1284" y="958.0" width="377.9" height="18" fill="#2e7d32"/><text x="1669.9" y="973.0" font-family="Arial, sans-serif" font-size="13" fill="#202124">4,7★  (319 Rezensionen)</text><text x="1242" y="1009.0" text-anchor="end" font-family="Arial, sans-serif" font-size="13" fill="#83888d">19.</text><text x="1284" y="990.0" font-family="Arial, sans-serif" font-size="14" fill="#202124">Junge-Bornholt KG</text><rect x="1284" y="994.0" width="377.9" height="18" fill="#2e7d32"/><text x="1669.9" y="1009.0" font-family="Arial, sans-serif" font-size="13" fill="#202124">4,7★  (319 Rezensionen)</text><text x="1242" y="1045.0" text-anchor="end" font-family="Arial, sans-serif" font-size="13" fill="#83888d">20.</text><text x="1284" y="1026.0" font-family="Arial, sans-serif" font-size="14" fill="#202124">Autohaus Nitschke GmbH &amp; Co. KG</text><rect x="1284" y="1030.0" width="377.9" height="18" fill="#2e7d32"/><text x="1669.9" y="1045.0" font-family="Arial, sans-serif" font-size="13" fill="#202124">4,7★  (300 Rezensionen)</text><text x="1242" y="1081.0" text-anchor="end" font-family="Arial, sans-serif" font-size="13" fill="#83888d">21.</text><text x="1284" y="1062.0" font-family="Arial, sans-serif" font-size="14" fill="#202124">Autohaus Timmer GmbH - Rheine | Gebrauchtwag…</text><rect x="1284" y="1066.0" width="377.9" height="18" fill="#2e7d32"/><text x="1669.9" y="1081.0" font-family="Arial, sans-serif" font-size="13" fill="#202124">4,7★  (299 Rezensionen)</text><text x="1242" y="1117.0" text-anchor="end" font-family="Arial, sans-serif" font-size="13" fill="#83888d">22.</text><text x="1284" y="1098.0" font-family="Arial, sans-serif" font-size="14" fill="#202124">Gasthof Zum Adler</text><rect x="1284" y="1102.0" width="377.9" height="18" fill="#2e7d32"/><text x="1669.9" y="1117.0" font-family="Arial, sans-serif" font-size="13" fill="#202124">4,7★  (184 Rezensionen)</text><text x="1242" y="1153.0" text-anchor="end" font-family="Arial, sans-serif" font-size="13" fill="#83888d">23.</text><text x="1284" y="1134.0" font-family="Arial, sans-serif" font-size="14" fill="#202124">Gaststätte Diekhues Hoff</text><rect x="1284" y="1138.0" width="377.9" height="18" fill="#2e7d32"/><text x="1669.9" y="1153.0" font-family="Arial, sans-serif" font-size="13" fill="#202124">4,7★  (139 Rezensionen)</text><text x="1242" y="1189.0" text-anchor="end" font-family="Arial, sans-serif" font-size="13" fill="#83888d">24.</text><text x="1284" y="1170.0" font-family="Arial, sans-serif" font-size="14" fill="#202124">Bäckerei Schultejann</text><rect x="1284" y="1174.0" width="377.9" height="18" fill="#2e7d32"/><text x="1669.9" y="1189.0" font-family="Arial, sans-serif" font-size="13" fill="#202124">4,7★  (132 Rezensionen)</text><text x="1242" y="1225.0" text-anchor="end" font-family="Arial, sans-serif" font-size="13" fill="#83888d">25.</text><text x="1284" y="1206.0" font-family="Arial, sans-serif" font-size="14" fill="#202124">Rendezvous Cut</text><rect x="1284" y="1210.0" width="377.9" height="18" fill="#2e7d32"/><text x="1669.9" y="1225.0" font-family="Arial, sans-serif" font-size="13" fill="#202124">4,7★  (121 Rezensionen)</text><text x="1242" y="1261.0" text-anchor="end" font-family="Arial, sans-serif" font-size="13" fill="#83888d">26.</text><text x="1284" y="1242.0" font-family="Arial, sans-serif" font-size="14" fill="#202124">Burkhard Pelster &amp; Josef Pelster</text><rect x="1284" y="1246.0" width="377.9" height="18" fill="#2e7d32"/><text x="1669.9" y="1261.0" font-family="Arial, sans-serif" font-size="13" fill="#202124">4,7★  (113 Rezensionen)</text><text x="1242" y="1297.0" text-anchor="end" font-family="Arial, sans-serif" font-size="13" fill="#83888d">27.</text><text x="1284" y="1278.0" font-family="Arial, sans-serif" font-size="14" fill="#202124">Antekoje Restaurant &amp; Catering</text><rect x="1284" y="1282.0" width="369.8" height="18" fill="#2e7d32"/><text x="1661.8" y="1297.0" font-family="Arial, sans-serif" font-size="13" fill="#202124">4,6★  (977 Rezensionen)</text><text x="1242" y="1333.0" text-anchor="end" font-family="Arial, sans-serif" font-size="13" fill="#83888d">28.</text><text x="1284" y="1314.0" font-family="Arial, sans-serif" font-size="14" fill="#202124">Landgasthaus Clemenshafen Fam. Ostermann</text><rect x="1284" y="1318.0" width="369.8" height="18" fill="#2e7d32"/><text x="1661.8" y="1333.0" font-family="Arial, sans-serif" font-size="13" fill="#202124">4,6★  (697 Rezensionen)</text><text x="1242" y="1369.0" text-anchor="end" font-family="Arial, sans-serif" font-size="13" fill="#83888d">29.</text><text x="1284" y="1350.0" font-family="Arial, sans-serif" font-size="14" fill="#202124">Isendorfer Hausbrauerei</text><rect x="1284" y="1354.0" width="369.8" height="18" fill="#2e7d32"/><text x="1661.8" y="1369.0" font-family="Arial, sans-serif" font-size="13" fill="#202124">4,6★  (622 Rezensionen)</text><text x="1242" y="1405.0" text-anchor="end" font-family="Arial, sans-serif" font-size="13" fill="#83888d">30.</text><text x="1284" y="1386.0" font-family="Arial, sans-serif" font-size="14" fill="#202124">Altes Gasthaus Wulf</text><rect x="1284" y="1390.0" width="369.8" height="18" fill="#2e7d32"/><text x="1661.8" y="1405.0" font-family="Arial, sans-serif" font-size="13" fill="#202124">4,6★  (515 Rezensionen)</text><text x="1485" y="1444.0" text-anchor="middle" font-family="Arial, sans-serif" font-size="13" fill="#6f7377">Rating (★)</text></g><g><text x="120" y="1660" font-family="Arial, sans-serif" font-size="28" font-weight="800" fill="#202124">Verteilung der Lösch-Stufen über alle 362 Orte</text><rect x="120" y="1715" width="1540" height="560" fill="#ffffff" opacity="0.96" filter="url(#softShadow)"/><text x="150" y="1781" font-family="Arial, sans-serif" font-size="18" fill="#202124">Keine Löschung</text><rect x="450" y="1765" width="900" height="24" fill="#edf2f5"/><rect x="450" y="1765" width="900.0" height="24" fill="#2e7d32"/><text x="1380" y="1783" font-family="Arial, sans-serif" font-size="18" fill="#202124">340 (93,9%)</text><text x="150" y="1826" font-family="Arial, sans-serif" font-size="18" fill="#202124">Eine gelöscht</text><rect x="450" y="1810" width="900" height="24" fill="#edf2f5"/><rect x="450" y="1810" width="15.9" height="24" fill="#8bc34a"/><text x="1380" y="1828" font-family="Arial, sans-serif" font-size="18" fill="#202124">6 (1,7%)</text><text x="150" y="1871" font-family="Arial, sans-serif" font-size="18" fill="#202124">2–5 gelöscht</text><rect x="450" y="1855" width="900" height="24" fill="#edf2f5"/><rect x="450" y="1855" width="7.9" height="24" fill="#cddc39"/><text x="1380" y="1873" font-family="Arial, sans-serif" font-size="18" fill="#202124">3 (0,8%)</text><text x="150" y="1916" font-family="Arial, sans-serif" font-size="18" fill="#202124">6–10 gelöscht</text><rect x="450" y="1900" width="900" height="24" fill="#edf2f5"/><rect x="450" y="1900" width="7.9" height="24" fill="#ffca28"/><text x="1380" y="1918" font-family="Arial, sans-serif" font-size="18" fill="#202124">3 (0,8%)</text><text x="150" y="1961" font-family="Arial, sans-serif" font-size="18" fill="#202124">11–20 gelöscht</text><rect x="450" y="1945" width="900" height="24" fill="#edf2f5"/><rect x="450" y="1945" width="7.9" height="24" fill="#ff9f1c"/><text x="1380" y="1963" font-family="Arial, sans-serif" font-size="18" fill="#202124">3 (0,8%)</text><text x="150" y="2006" font-family="Arial, sans-serif" font-size="18" fill="#202124">21–50 gelöscht</text><rect x="450" y="1990" width="900" height="24" fill="#edf2f5"/><rect x="450" y="1990" width="7.9" height="24" fill="#ff6d00"/><text x="1380" y="2008" font-family="Arial, sans-serif" font-size="18" fill="#202124">3 (0,8%)</text><text x="150" y="2051" font-family="Arial, sans-serif" font-size="18" fill="#202124">51–100 gelöscht</text><rect x="450" y="2035" width="900" height="24" fill="#edf2f5"/><rect x="450" y="2035" width="10.6" height="24" fill="#e5391b"/><text x="1380" y="2053" font-family="Arial, sans-serif" font-size="18" fill="#202124">4 (1,1%)</text><text x="150" y="2096" font-family="Arial, sans-serif" font-size="18" fill="#202124">101–200 gelöscht</text><rect x="450" y="2080" width="900" height="24" fill="#edf2f5"/><rect x="450" y="2080" width="0.0" height="24" fill="#c62828"/><text x="1380" y="2098" font-family="Arial, sans-serif" font-size="18" fill="#202124">0 (0,0%)</text><text x="150" y="2141" font-family="Arial, sans-serif" font-size="18" fill="#202124">201–250 gelöscht</text><rect x="450" y="2125" width="900" height="24" fill="#edf2f5"/><rect x="450" y="2125" width="0.0" height="24" fill="#8e1919"/><text x="1380" y="2143" font-family="Arial, sans-serif" font-size="18" fill="#202124">0 (0,0%)</text><text x="150" y="2186" font-family="Arial, sans-serif" font-size="18" fill="#202124">Über 250 gelöscht</text><rect x="450" y="2170" width="900" height="24" fill="#edf2f5"/><rect x="450" y="2170" width="0.0" height="24" fill="#5b0f0f"/><text x="1380" y="2188" font-family="Arial, sans-serif" font-size="18" fill="#202124">0 (0,0%)</text></g><text x="40" y="2460" font-family="Arial, sans-serif" font-size="13" fill="#8a8f94">Quelle: Google Maps, öffentlich sichtbare Banner; Analyse-Snapshot 07.05.2026</text><text x="1760" y="2460" text-anchor="end" font-family="Arial, sans-serif" font-size="13" fill="#8a8f94">© <a href="https://patwoz.dev" target="_blank" style="fill:#8a8f94;text-decoration:none">Patrick Wozniak</a></text><text x="1760" y="2480" text-anchor="end" font-family="Arial, sans-serif" font-size="11" fill="#aab0b5">patwoz.dev</text></svg>
