<svg xmlns="http://www.w3.org/2000/svg" width="1800" height="2500" viewBox="0 0 1800 2500">
  <defs>
    <linearGradient id="bg" x1="0" y1="0" x2="0" y2="1"><stop offset="0%" stop-color="#d9e8f2"/><stop offset="58%" stop-color="#eef6fa"/><stop offset="100%" stop-color="#d7dde2"/></linearGradient>
    <filter id="softShadow" x="-10%" y="-10%" width="120%" height="120%"><feDropShadow dx="0" dy="8" stdDeviation="10" flood-color="#6d7f8a" flood-opacity="0.16"/></filter>
  </defs>
  <rect width="100%" height="100%" fill="url(#bg)"/>
  <circle cx="1450" cy="310" r="500" fill="#ffffff" opacity="0.18"/>
  <circle cx="260" cy="2140" r="620" fill="#ffffff" opacity="0.20"/>
  <text x="900" y="70" text-anchor="middle" font-family="Arial, sans-serif" font-size="48" font-weight="800" fill="#202124">Postleitzahl 48153 — Ibbenbüren</text>
  <text x="900" y="112" text-anchor="middle" font-family="Arial, sans-serif" font-size="22" fill="#4b5055">Google-Maps-Orte: gelöschte Rezensionen wegen „Diffamierung“</text>
  <text x="900" y="160" text-anchor="middle" font-family="Arial, sans-serif" font-size="18" fill="#6f7377">109 Orte erfasst · 10 mit sichtbarem Banner (9,2%) · 0 in der „Über“-Stufe</text><g><text x="80" y="230" font-family="Arial, sans-serif" font-size="27" font-weight="800" fill="#202124">1. Höchste Lösch-Quote</text><text x="80" y="260" font-family="Arial, sans-serif" font-size="16" fill="#6f7377">Anteil gelöschter Rezensionen</text><rect x="80" y="322" width="470" height="384" fill="#ffffff" opacity="0.96" filter="url(#softShadow)"/><line x1="114.0" y1="322" x2="114.0" y2="686.0" stroke="#dde3e8" stroke-width="1"/><line x1="214.5" y1="322" x2="214.5" y2="686.0" stroke="#dde3e8" stroke-width="1"/><line x1="315.0" y1="322" x2="315.0" y2="686.0" stroke="#dde3e8" stroke-width="1"/><line x1="415.5" y1="322" x2="415.5" y2="686.0" stroke="#dde3e8" stroke-width="1"/><line x1="516.0" y1="322" x2="516.0" y2="686.0" stroke="#dde3e8" stroke-width="1"/><text x="72" y="361.0" text-anchor="end" font-family="Arial, sans-serif" font-size="13" fill="#83888d">1.</text><text x="114" y="342.0" font-family="Arial, sans-serif" font-size="14" fill="#202124">Hotel Gasthof &#34;Zur Post&#34;</text><rect x="114" y="346.0" width="402.0" height="18" fill="#c9332c"/><text x="524.0" y="361.0" font-family="Arial, sans-serif" font-size="13" fill="#202124">15,7%  (21–50 von 191)</text><text x="72" y="397.0" text-anchor="end" font-family="Arial, sans-serif" font-size="13" fill="#83888d">2.</text><text x="114" y="378.0" font-family="Arial, sans-serif" font-size="14" fill="#202124">Rabis Partyservice</text><rect x="114" y="382.0" width="294.5" height="18" fill="#c9332c"/><text x="416.5" y="397.0" font-family="Arial, sans-serif" font-size="13" fill="#202124">11,5%  (2–5 von 27)</text><text x="72" y="433.0" text-anchor="end" font-family="Arial, sans-serif" font-size="13" fill="#83888d">3.</text><text x="114" y="414.0" font-family="Arial, sans-serif" font-size="14" fill="#202124">allesgut Apotheke am Kulturbahnhof</text><rect x="114" y="418.0" width="197.3" height="18" fill="#c9332c"/><text x="319.3" y="433.0" font-family="Arial, sans-serif" font-size="13" fill="#202124">7,7%  (2–5 von 42)</text><text x="72" y="469.0" text-anchor="end" font-family="Arial, sans-serif" font-size="13" fill="#83888d">4.</text><text x="114" y="450.0" font-family="Arial, sans-serif" font-size="14" fill="#202124">Lamas Friseure</text><rect x="114" y="454.0" width="98.8" height="18" fill="#c9332c"/><text x="220.8" y="469.0" font-family="Arial, sans-serif" font-size="13" fill="#202124">3,9%  (1 von 25)</text><text x="72" y="505.0" text-anchor="end" font-family="Arial, sans-serif" font-size="13" fill="#83888d">5.</text><text x="114" y="486.0" font-family="Arial, sans-serif" font-size="14" fill="#202124">Lucky Bike Münster Süd</text><rect x="114" y="490.0" width="92.4" height="18" fill="#c9332c"/><text x="214.4" y="505.0" font-family="Arial, sans-serif" font-size="13" fill="#202124">3,6%  (11–20 von 415)</text><text x="72" y="541.0" text-anchor="end" font-family="Arial, sans-serif" font-size="13" fill="#83888d">6.</text><text x="114" y="522.0" font-family="Arial, sans-serif" font-size="14" fill="#202124">Cataleya Hair And Beard - Münster</text><rect x="114" y="526.0" width="82.3" height="18" fill="#c9332c"/><text x="204.3" y="541.0" font-family="Arial, sans-serif" font-size="13" fill="#202124">3,2%  (6–10 von 241)</text><text x="72" y="577.0" text-anchor="end" font-family="Arial, sans-serif" font-size="13" fill="#83888d">7.</text><text x="114" y="558.0" font-family="Arial, sans-serif" font-size="14" fill="#202124">bodysoul.BIKE</text><rect x="114" y="562.0" width="58.2" height="18" fill="#c9332c"/><text x="180.2" y="577.0" font-family="Arial, sans-serif" font-size="13" fill="#202124">2,3%  (1 von 43)</text><text x="72" y="613.0" text-anchor="end" font-family="Arial, sans-serif" font-size="13" fill="#83888d">8.</text><text x="114" y="594.0" font-family="Arial, sans-serif" font-size="14" fill="#202124">Shanti Shop Münster</text><rect x="114" y="598.0" width="15.4" height="18" fill="#c9332c"/><text x="137.4" y="613.0" font-family="Arial, sans-serif" font-size="13" fill="#202124">0,6%  (1 von 166)</text><text x="72" y="649.0" text-anchor="end" font-family="Arial, sans-serif" font-size="13" fill="#83888d">9.</text><text x="114" y="630.0" font-family="Arial, sans-serif" font-size="14" fill="#202124">Fahrschule ONDY</text><rect x="114" y="634.0" width="12.1" height="18" fill="#c9332c"/><text x="134.1" y="649.0" font-family="Arial, sans-serif" font-size="13" fill="#202124">0,5%  (1 von 212)</text><text x="72" y="685.0" text-anchor="end" font-family="Arial, sans-serif" font-size="13" fill="#83888d">10.</text><text x="114" y="666.0" font-family="Arial, sans-serif" font-size="14" fill="#202124">Hotel Hiltruper Hof</text><rect x="114" y="670.0" width="6.9" height="18" fill="#c9332c"/><text x="128.9" y="685.0" font-family="Arial, sans-serif" font-size="13" fill="#202124">0,3%  (1 von 369)</text><text x="315" y="724.0" text-anchor="middle" font-family="Arial, sans-serif" font-size="13" fill="#6f7377">Lösch-Quote (%) · Top 30</text></g><g><text x="665" y="230" font-family="Arial, sans-serif" font-size="27" font-weight="800" fill="#202124">2. Schlechtestes „echtes“ Rating</text><text x="665" y="260" font-family="Arial, sans-serif" font-size="16" fill="#6f7377">Modell: gelöschte Rezensionen waren 1★</text><rect x="665" y="322" width="470" height="384" fill="#ffffff" opacity="0.96" filter="url(#softShadow)"/><line x1="699.0" y1="322" x2="699.0" y2="686.0" stroke="#dde3e8" stroke-width="1"/><line x1="799.5" y1="322" x2="799.5" y2="686.0" stroke="#dde3e8" stroke-width="1"/><line x1="900.0" y1="322" x2="900.0" y2="686.0" stroke="#dde3e8" stroke-width="1"/><line x1="1000.5" y1="322" x2="1000.5" y2="686.0" stroke="#dde3e8" stroke-width="1"/><line x1="1101.0" y1="322" x2="1101.0" y2="686.0" stroke="#dde3e8" stroke-width="1"/><text x="657" y="361.0" text-anchor="end" font-family="Arial, sans-serif" font-size="13" fill="#83888d">1.</text><text x="699" y="342.0" font-family="Arial, sans-serif" font-size="14" fill="#202124">Hotel Gasthof &#34;Zur Post&#34;</text><rect x="699" y="346.0" width="353.8" height="18" fill="#ef7d16"/><text x="1060.8" y="361.0" font-family="Arial, sans-serif" font-size="13" fill="#202124">4,12★  (vorher 4,7★)</text><text x="657" y="397.0" text-anchor="end" font-family="Arial, sans-serif" font-size="13" fill="#83888d">2.</text><text x="699" y="378.0" font-family="Arial, sans-serif" font-size="14" fill="#202124">Hotel Hiltruper Hof</text><rect x="699" y="382.0" width="325.2" height="18" fill="#ef7d16"/><text x="1032.2" y="397.0" font-family="Arial, sans-serif" font-size="13" fill="#202124">4,19★  (vorher 4,2★)</text><text x="657" y="433.0" text-anchor="end" font-family="Arial, sans-serif" font-size="13" fill="#83888d">3.</text><text x="699" y="414.0" font-family="Arial, sans-serif" font-size="14" fill="#202124">allesgut Apotheke am Kulturbahnhof</text><rect x="699" y="418.0" width="309.1" height="18" fill="#ef7d16"/><text x="1016.1" y="433.0" font-family="Arial, sans-serif" font-size="13" fill="#202124">4,23★  (vorher 4,5★)</text><text x="657" y="469.0" text-anchor="end" font-family="Arial, sans-serif" font-size="13" fill="#83888d">4.</text><text x="699" y="450.0" font-family="Arial, sans-serif" font-size="14" fill="#202124">Rabis Partyservice</text><rect x="699" y="454.0" width="255.7" height="18" fill="#ef7d16"/><text x="962.7" y="469.0" font-family="Arial, sans-serif" font-size="13" fill="#202124">4,36★  (vorher 4,8★)</text><text x="657" y="505.0" text-anchor="end" font-family="Arial, sans-serif" font-size="13" fill="#83888d">5.</text><text x="699" y="486.0" font-family="Arial, sans-serif" font-size="14" fill="#202124">Lucky Bike Münster Süd</text><rect x="699" y="490.0" width="213.1" height="18" fill="#ef7d16"/><text x="920.1" y="505.0" font-family="Arial, sans-serif" font-size="13" fill="#202124">4,47★  (vorher 4,6★)</text><text x="657" y="541.0" text-anchor="end" font-family="Arial, sans-serif" font-size="13" fill="#83888d">6.</text><text x="699" y="522.0" font-family="Arial, sans-serif" font-size="14" fill="#202124">Shanti Shop Münster</text><rect x="699" y="526.0" width="169.6" height="18" fill="#ef7d16"/><text x="876.6" y="541.0" font-family="Arial, sans-serif" font-size="13" fill="#202124">4,58★  (vorher 4,6★)</text><text x="657" y="577.0" text-anchor="end" font-family="Arial, sans-serif" font-size="13" fill="#83888d">7.</text><text x="699" y="558.0" font-family="Arial, sans-serif" font-size="14" fill="#202124">Cataleya Hair And Beard - Münster</text><rect x="699" y="562.0" width="90.4" height="18" fill="#ef7d16"/><text x="797.4" y="577.0" font-family="Arial, sans-serif" font-size="13" fill="#202124">4,78★  (vorher 4,9★)</text><text x="657" y="613.0" text-anchor="end" font-family="Arial, sans-serif" font-size="13" fill="#83888d">8.</text><text x="699" y="594.0" font-family="Arial, sans-serif" font-size="14" fill="#202124">Lamas Friseure</text><rect x="699" y="598.0" width="61.9" height="18" fill="#ef7d16"/><text x="768.9" y="613.0" font-family="Arial, sans-serif" font-size="13" fill="#202124">4,85★  (vorher 5,0★)</text><text x="657" y="649.0" text-anchor="end" font-family="Arial, sans-serif" font-size="13" fill="#83888d">9.</text><text x="699" y="630.0" font-family="Arial, sans-serif" font-size="14" fill="#202124">Fahrschule ONDY</text><rect x="699" y="634.0" width="47.4" height="18" fill="#ef7d16"/><text x="754.4" y="649.0" font-family="Arial, sans-serif" font-size="13" fill="#202124">4,88★  (vorher 4,9★)</text><text x="657" y="685.0" text-anchor="end" font-family="Arial, sans-serif" font-size="13" fill="#83888d">10.</text><text x="699" y="666.0" font-family="Arial, sans-serif" font-size="14" fill="#202124">bodysoul.BIKE</text><rect x="699" y="670.0" width="36.6" height="18" fill="#ef7d16"/><text x="743.6" y="685.0" font-family="Arial, sans-serif" font-size="13" fill="#202124">4,91★  (vorher 5,0★)</text><text x="900" y="724.0" text-anchor="middle" font-family="Arial, sans-serif" font-size="13" fill="#6f7377">Punkte unter 5★</text></g><g><text x="1250" y="230" font-family="Arial, sans-serif" font-size="27" font-weight="800" fill="#202124">3. Beste Orte ohne Löschbanner</text><text x="1250" y="260" font-family="Arial, sans-serif" font-size="16" fill="#6f7377">kein sichtbarer Diffamierungs-Löschbanner — ab 100 Rezensionen</text><rect x="1250" y="322" width="470" height="1104" fill="#ffffff" opacity="0.96" filter="url(#softShadow)"/><line x1="1284.0" y1="322" x2="1284.0" y2="1406.0" stroke="#dde3e8" stroke-width="1"/><line x1="1384.5" y1="322" x2="1384.5" y2="1406.0" stroke="#dde3e8" stroke-width="1"/><line x1="1485.0" y1="322" x2="1485.0" y2="1406.0" stroke="#dde3e8" stroke-width="1"/><line x1="1585.5" y1="322" x2="1585.5" y2="1406.0" stroke="#dde3e8" stroke-width="1"/><line x1="1686.0" y1="322" x2="1686.0" y2="1406.0" stroke="#dde3e8" stroke-width="1"/><text x="1242" y="361.0" text-anchor="end" font-family="Arial, sans-serif" font-size="13" fill="#83888d">1.</text><text x="1284" y="342.0" font-family="Arial, sans-serif" font-size="14" fill="#202124">Erste Hilfe Team - Robert Lange</text><rect x="1284" y="346.0" width="394.0" height="18" fill="#2e7d32"/><text x="1686.0" y="361.0" font-family="Arial, sans-serif" font-size="13" fill="#202124">4,9★  (675 Rezensionen)</text><text x="1242" y="397.0" text-anchor="end" font-family="Arial, sans-serif" font-size="13" fill="#83888d">2.</text><text x="1284" y="378.0" font-family="Arial, sans-serif" font-size="14" fill="#202124">BARBIERO - MÜNSTER</text><rect x="1284" y="382.0" width="394.0" height="18" fill="#2e7d32"/><text x="1686.0" y="397.0" font-family="Arial, sans-serif" font-size="13" fill="#202124">4,9★  (440 Rezensionen)</text><text x="1242" y="433.0" text-anchor="end" font-family="Arial, sans-serif" font-size="13" fill="#83888d">3.</text><text x="1284" y="414.0" font-family="Arial, sans-serif" font-size="14" fill="#202124">NUTRITION BASE Sportnahrung</text><rect x="1284" y="418.0" width="394.0" height="18" fill="#2e7d32"/><text x="1686.0" y="433.0" font-family="Arial, sans-serif" font-size="13" fill="#202124">4,9★  (254 Rezensionen)</text><text x="1242" y="469.0" text-anchor="end" font-family="Arial, sans-serif" font-size="13" fill="#83888d">4.</text><text x="1284" y="450.0" font-family="Arial, sans-serif" font-size="14" fill="#202124">M-A-U-S Erste Hilfe Kurse - Münster</text><rect x="1284" y="454.0" width="394.0" height="18" fill="#2e7d32"/><text x="1686.0" y="469.0" font-family="Arial, sans-serif" font-size="13" fill="#202124">4,9★  (209 Rezensionen)</text><text x="1242" y="505.0" text-anchor="end" font-family="Arial, sans-serif" font-size="13" fill="#83888d">5.</text><text x="1284" y="486.0" font-family="Arial, sans-serif" font-size="14" fill="#202124">Knopfs Knolle Wolbecker (Ofenkartoffel und S…</text><rect x="1284" y="490.0" width="394.0" height="18" fill="#2e7d32"/><text x="1686.0" y="505.0" font-family="Arial, sans-serif" font-size="13" fill="#202124">4,9★  (101 Rezensionen)</text><text x="1242" y="541.0" text-anchor="end" font-family="Arial, sans-serif" font-size="13" fill="#83888d">6.</text><text x="1284" y="522.0" font-family="Arial, sans-serif" font-size="14" fill="#202124">Next Golf - Indoor-Golf &amp; Minigolf Münster</text><rect x="1284" y="526.0" width="394.0" height="18" fill="#2e7d32"/><text x="1686.0" y="541.0" font-family="Arial, sans-serif" font-size="13" fill="#202124">4,9★  (101 Rezensionen)</text><text x="1242" y="577.0" text-anchor="end" font-family="Arial, sans-serif" font-size="13" fill="#83888d">7.</text><text x="1284" y="558.0" font-family="Arial, sans-serif" font-size="14" fill="#202124">Christiane Högemann Frisuren</text><rect x="1284" y="562.0" width="385.9" height="18" fill="#2e7d32"/><text x="1677.9" y="577.0" font-family="Arial, sans-serif" font-size="13" fill="#202124">4,8★  (409 Rezensionen)</text><text x="1242" y="613.0" text-anchor="end" font-family="Arial, sans-serif" font-size="13" fill="#83888d">8.</text><text x="1284" y="594.0" font-family="Arial, sans-serif" font-size="14" fill="#202124">sicurini - gelato e caffè</text><rect x="1284" y="598.0" width="385.9" height="18" fill="#2e7d32"/><text x="1677.9" y="613.0" font-family="Arial, sans-serif" font-size="13" fill="#202124">4,8★  (238 Rezensionen)</text><text x="1242" y="649.0" text-anchor="end" font-family="Arial, sans-serif" font-size="13" fill="#83888d">9.</text><text x="1284" y="630.0" font-family="Arial, sans-serif" font-size="14" fill="#202124">Cut by B &amp; Team</text><rect x="1284" y="634.0" width="385.9" height="18" fill="#2e7d32"/><text x="1677.9" y="649.0" font-family="Arial, sans-serif" font-size="13" fill="#202124">4,8★  (140 Rezensionen)</text><text x="1242" y="685.0" text-anchor="end" font-family="Arial, sans-serif" font-size="13" fill="#83888d">10.</text><text x="1284" y="666.0" font-family="Arial, sans-serif" font-size="14" fill="#202124">Mach Mittag</text><rect x="1284" y="670.0" width="377.9" height="18" fill="#2e7d32"/><text x="1669.9" y="685.0" font-family="Arial, sans-serif" font-size="13" fill="#202124">4,7★  (160 Rezensionen)</text><text x="1242" y="721.0" text-anchor="end" font-family="Arial, sans-serif" font-size="13" fill="#83888d">11.</text><text x="1284" y="702.0" font-family="Arial, sans-serif" font-size="14" fill="#202124">Kaffeestudio Münster</text><rect x="1284" y="706.0" width="377.9" height="18" fill="#2e7d32"/><text x="1669.9" y="721.0" font-family="Arial, sans-serif" font-size="13" fill="#202124">4,7★  (157 Rezensionen)</text><text x="1242" y="757.0" text-anchor="end" font-family="Arial, sans-serif" font-size="13" fill="#83888d">12.</text><text x="1284" y="738.0" font-family="Arial, sans-serif" font-size="14" fill="#202124">HAUS DES MARKTES</text><rect x="1284" y="742.0" width="377.9" height="18" fill="#2e7d32"/><text x="1669.9" y="757.0" font-family="Arial, sans-serif" font-size="13" fill="#202124">4,7★  (137 Rezensionen)</text><text x="1242" y="793.0" text-anchor="end" font-family="Arial, sans-serif" font-size="13" fill="#83888d">13.</text><text x="1284" y="774.0" font-family="Arial, sans-serif" font-size="14" fill="#202124">Curry 1 ... Best Curry in Town</text><rect x="1284" y="778.0" width="377.9" height="18" fill="#2e7d32"/><text x="1669.9" y="793.0" font-family="Arial, sans-serif" font-size="13" fill="#202124">4,7★  (125 Rezensionen)</text><text x="1242" y="829.0" text-anchor="end" font-family="Arial, sans-serif" font-size="13" fill="#83888d">14.</text><text x="1284" y="810.0" font-family="Arial, sans-serif" font-size="14" fill="#202124">TITUS Outlet Münster - Skateshop und Streetw…</text><rect x="1284" y="814.0" width="369.8" height="18" fill="#2e7d32"/><text x="1661.8" y="829.0" font-family="Arial, sans-serif" font-size="13" fill="#202124">4,6★  (468 Rezensionen)</text><text x="1242" y="865.0" text-anchor="end" font-family="Arial, sans-serif" font-size="13" fill="#83888d">15.</text><text x="1284" y="846.0" font-family="Arial, sans-serif" font-size="14" fill="#202124">Henrik’s Restaurant &amp; Kneipe</text><rect x="1284" y="850.0" width="369.8" height="18" fill="#2e7d32"/><text x="1661.8" y="865.0" font-family="Arial, sans-serif" font-size="13" fill="#202124">4,6★  (457 Rezensionen)</text><text x="1242" y="901.0" text-anchor="end" font-family="Arial, sans-serif" font-size="13" fill="#83888d">16.</text><text x="1284" y="882.0" font-family="Arial, sans-serif" font-size="14" fill="#202124">Kauver Münster - Ural Markt</text><rect x="1284" y="886.0" width="369.8" height="18" fill="#2e7d32"/><text x="1661.8" y="901.0" font-family="Arial, sans-serif" font-size="13" fill="#202124">4,6★  (426 Rezensionen)</text><text x="1242" y="937.0" text-anchor="end" font-family="Arial, sans-serif" font-size="13" fill="#83888d">17.</text><text x="1284" y="918.0" font-family="Arial, sans-serif" font-size="14" fill="#202124">.</text><rect x="1284" y="922.0" width="369.8" height="18" fill="#2e7d32"/><text x="1661.8" y="937.0" font-family="Arial, sans-serif" font-size="13" fill="#202124">4,6★  (206 Rezensionen)</text><text x="1242" y="973.0" text-anchor="end" font-family="Arial, sans-serif" font-size="13" fill="#83888d">18.</text><text x="1284" y="954.0" font-family="Arial, sans-serif" font-size="14" fill="#202124">Mirna`s Salon Beauty</text><rect x="1284" y="958.0" width="369.8" height="18" fill="#2e7d32"/><text x="1661.8" y="973.0" font-family="Arial, sans-serif" font-size="13" fill="#202124">4,6★  (146 Rezensionen)</text><text x="1242" y="1009.0" text-anchor="end" font-family="Arial, sans-serif" font-size="13" fill="#83888d">19.</text><text x="1284" y="990.0" font-family="Arial, sans-serif" font-size="14" fill="#202124">Louis Münster - Motorradbekleidung und Motor…</text><rect x="1284" y="994.0" width="361.8" height="18" fill="#2e7d32"/><text x="1653.8" y="1009.0" font-family="Arial, sans-serif" font-size="13" fill="#202124">4,5★  (1.054 Rezensionen)</text><text x="1242" y="1045.0" text-anchor="end" font-family="Arial, sans-serif" font-size="13" fill="#83888d">20.</text><text x="1284" y="1026.0" font-family="Arial, sans-serif" font-size="14" fill="#202124">Eiscafé La Via</text><rect x="1284" y="1030.0" width="361.8" height="18" fill="#2e7d32"/><text x="1653.8" y="1045.0" font-family="Arial, sans-serif" font-size="13" fill="#202124">4,5★  (423 Rezensionen)</text><text x="1242" y="1081.0" text-anchor="end" font-family="Arial, sans-serif" font-size="13" fill="#83888d">21.</text><text x="1284" y="1062.0" font-family="Arial, sans-serif" font-size="14" fill="#202124">Sport-und Veranstaltungshalle Berg Fidel</text><rect x="1284" y="1066.0" width="361.8" height="18" fill="#2e7d32"/><text x="1653.8" y="1081.0" font-family="Arial, sans-serif" font-size="13" fill="#202124">4,5★  (375 Rezensionen)</text><text x="1242" y="1117.0" text-anchor="end" font-family="Arial, sans-serif" font-size="13" fill="#83888d">22.</text><text x="1284" y="1098.0" font-family="Arial, sans-serif" font-size="14" fill="#202124">Asche</text><rect x="1284" y="1102.0" width="361.8" height="18" fill="#2e7d32"/><text x="1653.8" y="1117.0" font-family="Arial, sans-serif" font-size="13" fill="#202124">4,5★  (124 Rezensionen)</text><text x="1242" y="1153.0" text-anchor="end" font-family="Arial, sans-serif" font-size="13" fill="#83888d">23.</text><text x="1284" y="1134.0" font-family="Arial, sans-serif" font-size="14" fill="#202124">Skaters Palace</text><rect x="1284" y="1138.0" width="353.8" height="18" fill="#2e7d32"/><text x="1645.8" y="1153.0" font-family="Arial, sans-serif" font-size="13" fill="#202124">4,4★  (1.689 Rezensionen)</text><text x="1242" y="1189.0" text-anchor="end" font-family="Arial, sans-serif" font-size="13" fill="#83888d">24.</text><text x="1284" y="1170.0" font-family="Arial, sans-serif" font-size="14" fill="#202124">IDO SPECIAL SPORTS Handels GmbH</text><rect x="1284" y="1174.0" width="353.8" height="18" fill="#2e7d32"/><text x="1645.8" y="1189.0" font-family="Arial, sans-serif" font-size="13" fill="#202124">4,4★  (242 Rezensionen)</text><text x="1242" y="1225.0" text-anchor="end" font-family="Arial, sans-serif" font-size="13" fill="#83888d">25.</text><text x="1284" y="1206.0" font-family="Arial, sans-serif" font-size="14" fill="#202124">Düesberg Park</text><rect x="1284" y="1210.0" width="345.7" height="18" fill="#2e7d32"/><text x="1637.7" y="1225.0" font-family="Arial, sans-serif" font-size="13" fill="#202124">4,3★  (224 Rezensionen)</text><text x="1242" y="1261.0" text-anchor="end" font-family="Arial, sans-serif" font-size="13" fill="#83888d">26.</text><text x="1284" y="1242.0" font-family="Arial, sans-serif" font-size="14" fill="#202124">Mauritius Bowling &amp; Restaurant Münster</text><rect x="1284" y="1246.0" width="337.7" height="18" fill="#2e7d32"/><text x="1629.7" y="1261.0" font-family="Arial, sans-serif" font-size="13" fill="#202124">4,2★  (1.848 Rezensionen)</text><text x="1242" y="1297.0" text-anchor="end" font-family="Arial, sans-serif" font-size="13" fill="#83888d">27.</text><text x="1284" y="1278.0" font-family="Arial, sans-serif" font-size="14" fill="#202124">E center Stroetmann Münster-Hiltrup</text><rect x="1284" y="1282.0" width="337.7" height="18" fill="#2e7d32"/><text x="1629.7" y="1297.0" font-family="Arial, sans-serif" font-size="13" fill="#202124">4,2★  (1.112 Rezensionen)</text><text x="1242" y="1333.0" text-anchor="end" font-family="Arial, sans-serif" font-size="13" fill="#83888d">28.</text><text x="1284" y="1314.0" font-family="Arial, sans-serif" font-size="14" fill="#202124">Soccer-Halle Rummenigge | Padel, Soccer, Mul…</text><rect x="1284" y="1318.0" width="337.7" height="18" fill="#2e7d32"/><text x="1629.7" y="1333.0" font-family="Arial, sans-serif" font-size="13" fill="#202124">4,2★  (294 Rezensionen)</text><text x="1242" y="1369.0" text-anchor="end" font-family="Arial, sans-serif" font-size="13" fill="#83888d">29.</text><text x="1284" y="1350.0" font-family="Arial, sans-serif" font-size="14" fill="#202124">Holzzentrum Mesem</text><rect x="1284" y="1354.0" width="337.7" height="18" fill="#2e7d32"/><text x="1629.7" y="1369.0" font-family="Arial, sans-serif" font-size="13" fill="#202124">4,2★  (161 Rezensionen)</text><text x="1242" y="1405.0" text-anchor="end" font-family="Arial, sans-serif" font-size="13" fill="#83888d">30.</text><text x="1284" y="1386.0" font-family="Arial, sans-serif" font-size="14" fill="#202124">LVM-Preußenstadion</text><rect x="1284" y="1390.0" width="329.6" height="18" fill="#2e7d32"/><text x="1621.6" y="1405.0" font-family="Arial, sans-serif" font-size="13" fill="#202124">4,1★  (2.655 Rezensionen)</text><text x="1485" y="1444.0" text-anchor="middle" font-family="Arial, sans-serif" font-size="13" fill="#6f7377">Rating (★)</text></g><g><text x="120" y="1660" font-family="Arial, sans-serif" font-size="28" font-weight="800" fill="#202124">Verteilung der Lösch-Stufen über alle 109 Orte</text><rect x="120" y="1715" width="1540" height="560" fill="#ffffff" opacity="0.96" filter="url(#softShadow)"/><text x="150" y="1781" font-family="Arial, sans-serif" font-size="18" fill="#202124">Keine Löschung</text><rect x="450" y="1765" width="900" height="24" fill="#edf2f5"/><rect x="450" y="1765" width="900.0" height="24" fill="#2e7d32"/><text x="1380" y="1783" font-family="Arial, sans-serif" font-size="18" fill="#202124">99 (90,8%)</text><text x="150" y="1826" font-family="Arial, sans-serif" font-size="18" fill="#202124">Eine gelöscht</text><rect x="450" y="1810" width="900" height="24" fill="#edf2f5"/><rect x="450" y="1810" width="45.5" height="24" fill="#8bc34a"/><text x="1380" y="1828" font-family="Arial, sans-serif" font-size="18" fill="#202124">5 (4,6%)</text><text x="150" y="1871" font-family="Arial, sans-serif" font-size="18" fill="#202124">2–5 gelöscht</text><rect x="450" y="1855" width="900" height="24" fill="#edf2f5"/><rect x="450" y="1855" width="18.2" height="24" fill="#cddc39"/><text x="1380" y="1873" font-family="Arial, sans-serif" font-size="18" fill="#202124">2 (1,8%)</text><text x="150" y="1916" font-family="Arial, sans-serif" font-size="18" fill="#202124">6–10 gelöscht</text><rect x="450" y="1900" width="900" height="24" fill="#edf2f5"/><rect x="450" y="1900" width="9.1" height="24" fill="#ffca28"/><text x="1380" y="1918" font-family="Arial, sans-serif" font-size="18" fill="#202124">1 (0,9%)</text><text x="150" y="1961" font-family="Arial, sans-serif" font-size="18" fill="#202124">11–20 gelöscht</text><rect x="450" y="1945" width="900" height="24" fill="#edf2f5"/><rect x="450" y="1945" width="9.1" height="24" fill="#ff9f1c"/><text x="1380" y="1963" font-family="Arial, sans-serif" font-size="18" fill="#202124">1 (0,9%)</text><text x="150" y="2006" font-family="Arial, sans-serif" font-size="18" fill="#202124">21–50 gelöscht</text><rect x="450" y="1990" width="900" height="24" fill="#edf2f5"/><rect x="450" y="1990" width="9.1" height="24" fill="#ff6d00"/><text x="1380" y="2008" font-family="Arial, sans-serif" font-size="18" fill="#202124">1 (0,9%)</text><text x="150" y="2051" font-family="Arial, sans-serif" font-size="18" fill="#202124">51–100 gelöscht</text><rect x="450" y="2035" width="900" height="24" fill="#edf2f5"/><rect x="450" y="2035" width="0.0" height="24" fill="#e5391b"/><text x="1380" y="2053" font-family="Arial, sans-serif" font-size="18" fill="#202124">0 (0,0%)</text><text x="150" y="2096" font-family="Arial, sans-serif" font-size="18" fill="#202124">101–200 gelöscht</text><rect x="450" y="2080" width="900" height="24" fill="#edf2f5"/><rect x="450" y="2080" width="0.0" height="24" fill="#c62828"/><text x="1380" y="2098" font-family="Arial, sans-serif" font-size="18" fill="#202124">0 (0,0%)</text><text x="150" y="2141" font-family="Arial, sans-serif" font-size="18" fill="#202124">201–250 gelöscht</text><rect x="450" y="2125" width="900" height="24" fill="#edf2f5"/><rect x="450" y="2125" width="0.0" height="24" fill="#8e1919"/><text x="1380" y="2143" font-family="Arial, sans-serif" font-size="18" fill="#202124">0 (0,0%)</text><text x="150" y="2186" font-family="Arial, sans-serif" font-size="18" fill="#202124">Über 250 gelöscht</text><rect x="450" y="2170" width="900" height="24" fill="#edf2f5"/><rect x="450" y="2170" width="0.0" height="24" fill="#5b0f0f"/><text x="1380" y="2188" font-family="Arial, sans-serif" font-size="18" fill="#202124">0 (0,0%)</text></g><text x="40" y="2460" font-family="Arial, sans-serif" font-size="13" fill="#8a8f94">Quelle: Google Maps, öffentlich sichtbare Banner; Analyse-Snapshot 08.05.2026</text><text x="1760" y="2460" text-anchor="end" font-family="Arial, sans-serif" font-size="13" fill="#8a8f94">© <a href="https://patwoz.dev" target="_blank" style="fill:#8a8f94;text-decoration:none">Patrick Wozniak</a></text><text x="1760" y="2480" text-anchor="end" font-family="Arial, sans-serif" font-size="11" fill="#aab0b5">patwoz.dev</text></svg>
