<svg xmlns="http://www.w3.org/2000/svg" width="1800" height="2500" viewBox="0 0 1800 2500">
  <defs>
    <linearGradient id="bg" x1="0" y1="0" x2="0" y2="1"><stop offset="0%" stop-color="#d9e8f2"/><stop offset="58%" stop-color="#eef6fa"/><stop offset="100%" stop-color="#d7dde2"/></linearGradient>
    <filter id="softShadow" x="-10%" y="-10%" width="120%" height="120%"><feDropShadow dx="0" dy="8" stdDeviation="10" flood-color="#6d7f8a" flood-opacity="0.16"/></filter>
  </defs>
  <rect width="100%" height="100%" fill="url(#bg)"/>
  <circle cx="1450" cy="310" r="500" fill="#ffffff" opacity="0.18"/>
  <circle cx="260" cy="2140" r="620" fill="#ffffff" opacity="0.20"/>
  <text x="900" y="70" text-anchor="middle" font-family="Arial, sans-serif" font-size="48" font-weight="800" fill="#202124">Postleitzahl 48429 — Ibbenbüren</text>
  <text x="900" y="112" text-anchor="middle" font-family="Arial, sans-serif" font-size="22" fill="#4b5055">Google-Maps-Orte: gelöschte Rezensionen wegen „Diffamierung“</text>
  <text x="900" y="160" text-anchor="middle" font-family="Arial, sans-serif" font-size="18" fill="#6f7377">643 Orte erfasst · 42 mit sichtbarem Banner (6,5%) · 0 in der „Über“-Stufe</text><g><text x="80" y="230" font-family="Arial, sans-serif" font-size="27" font-weight="800" fill="#202124">1. Höchste Lösch-Quote</text><text x="80" y="260" font-family="Arial, sans-serif" font-size="16" fill="#6f7377">Anteil gelöschter Rezensionen</text><rect x="80" y="322" width="470" height="1104" fill="#ffffff" opacity="0.96" filter="url(#softShadow)"/><line x1="114.0" y1="322" x2="114.0" y2="1406.0" stroke="#dde3e8" stroke-width="1"/><line x1="214.5" y1="322" x2="214.5" y2="1406.0" stroke="#dde3e8" stroke-width="1"/><line x1="315.0" y1="322" x2="315.0" y2="1406.0" stroke="#dde3e8" stroke-width="1"/><line x1="415.5" y1="322" x2="415.5" y2="1406.0" stroke="#dde3e8" stroke-width="1"/><line x1="516.0" y1="322" x2="516.0" y2="1406.0" stroke="#dde3e8" stroke-width="1"/><text x="72" y="361.0" text-anchor="end" font-family="Arial, sans-serif" font-size="13" fill="#83888d">1.</text><text x="114" y="342.0" font-family="Arial, sans-serif" font-size="14" fill="#202124">Fachärzte Urologie Rheine</text><rect x="114" y="346.0" width="402.0" height="18" fill="#c9332c"/><text x="524.0" y="361.0" font-family="Arial, sans-serif" font-size="13" fill="#202124">38,3%  (11–20 von 25)</text><text x="72" y="397.0" text-anchor="end" font-family="Arial, sans-serif" font-size="13" fill="#83888d">2.</text><text x="114" y="378.0" font-family="Arial, sans-serif" font-size="14" fill="#202124">Kochlöffel</text><rect x="114" y="382.0" width="298.7" height="18" fill="#c9332c"/><text x="420.7" y="397.0" font-family="Arial, sans-serif" font-size="13" fill="#202124">28,4%  (51–100 von 190)</text><text x="72" y="433.0" text-anchor="end" font-family="Arial, sans-serif" font-size="13" fill="#83888d">3.</text><text x="114" y="414.0" font-family="Arial, sans-serif" font-size="14" fill="#202124">Haus Des Döners</text><rect x="114" y="418.0" width="217.4" height="18" fill="#c9332c"/><text x="339.4" y="433.0" font-family="Arial, sans-serif" font-size="13" fill="#202124">20,7%  (21–50 von 136)</text><text x="72" y="469.0" text-anchor="end" font-family="Arial, sans-serif" font-size="13" fill="#83888d">4.</text><text x="114" y="450.0" font-family="Arial, sans-serif" font-size="14" fill="#202124">China Wok</text><rect x="114" y="454.0" width="194.3" height="18" fill="#c9332c"/><text x="316.3" y="469.0" font-family="Arial, sans-serif" font-size="13" fill="#202124">18,5%  (101–150 von 553)</text><text x="72" y="505.0" text-anchor="end" font-family="Arial, sans-serif" font-size="13" fill="#83888d">5.</text><text x="114" y="486.0" font-family="Arial, sans-serif" font-size="14" fill="#202124">Krimphoff &amp; Schulte Mineralöl-Service und Lo…</text><rect x="114" y="490.0" width="182.4" height="18" fill="#c9332c"/><text x="304.4" y="505.0" font-family="Arial, sans-serif" font-size="13" fill="#202124">17,4%  (21–50 von 169)</text><text x="72" y="541.0" text-anchor="end" font-family="Arial, sans-serif" font-size="13" fill="#83888d">6.</text><text x="114" y="522.0" font-family="Arial, sans-serif" font-size="14" fill="#202124">Shilans Hairsalon</text><rect x="114" y="526.0" width="176.3" height="18" fill="#c9332c"/><text x="298.3" y="541.0" font-family="Arial, sans-serif" font-size="13" fill="#202124">16,8%  (21–50 von 176)</text><text x="72" y="577.0" text-anchor="end" font-family="Arial, sans-serif" font-size="13" fill="#83888d">7.</text><text x="114" y="558.0" font-family="Arial, sans-serif" font-size="14" fill="#202124">Augentagesklinik Rheine</text><rect x="114" y="562.0" width="155.8" height="18" fill="#c9332c"/><text x="277.8" y="577.0" font-family="Arial, sans-serif" font-size="13" fill="#202124">14,8%  (11–20 von 89)</text><text x="72" y="613.0" text-anchor="end" font-family="Arial, sans-serif" font-size="13" fill="#83888d">8.</text><text x="114" y="594.0" font-family="Arial, sans-serif" font-size="14" fill="#202124">SommerDeck Beachclub</text><rect x="114" y="598.0" width="155.6" height="18" fill="#c9332c"/><text x="277.6" y="613.0" font-family="Arial, sans-serif" font-size="13" fill="#202124">14,8%  (6–10 von 46)</text><text x="72" y="649.0" text-anchor="end" font-family="Arial, sans-serif" font-size="13" fill="#83888d">9.</text><text x="114" y="630.0" font-family="Arial, sans-serif" font-size="14" fill="#202124">Brauhaus Restaurant Rheine roter hirsch</text><rect x="114" y="634.0" width="150.1" height="18" fill="#c9332c"/><text x="272.1" y="649.0" font-family="Arial, sans-serif" font-size="13" fill="#202124">14,3%  (151–200 von 1.053)</text><text x="72" y="685.0" text-anchor="end" font-family="Arial, sans-serif" font-size="13" fill="#83888d">10.</text><text x="114" y="666.0" font-family="Arial, sans-serif" font-size="14" fill="#202124">Tipico</text><rect x="114" y="670.0" width="147.5" height="18" fill="#c9332c"/><text x="269.5" y="685.0" font-family="Arial, sans-serif" font-size="13" fill="#202124">14,0%  (6–10 von 49)</text><text x="72" y="721.0" text-anchor="end" font-family="Arial, sans-serif" font-size="13" fill="#83888d">11.</text><text x="114" y="702.0" font-family="Arial, sans-serif" font-size="14" fill="#202124">Landhaus-Brauerei Borchert GmbH</text><rect x="114" y="706.0" width="134.0" height="18" fill="#c9332c"/><text x="256.0" y="721.0" font-family="Arial, sans-serif" font-size="13" fill="#202124">12,8%  (11–20 von 106)</text><text x="72" y="757.0" text-anchor="end" font-family="Arial, sans-serif" font-size="13" fill="#83888d">12.</text><text x="114" y="738.0" font-family="Arial, sans-serif" font-size="14" fill="#202124">Täglich Ibbenbüren</text><rect x="114" y="742.0" width="118.5" height="18" fill="#c9332c"/><text x="240.5" y="757.0" font-family="Arial, sans-serif" font-size="13" fill="#202124">11,3%  (51–100 von 594)</text><text x="72" y="793.0" text-anchor="end" font-family="Arial, sans-serif" font-size="13" fill="#83888d">13.</text><text x="114" y="774.0" font-family="Arial, sans-serif" font-size="14" fill="#202124">Osna Dönerhaus</text><rect x="114" y="778.0" width="101.5" height="18" fill="#c9332c"/><text x="223.5" y="793.0" font-family="Arial, sans-serif" font-size="13" fill="#202124">9,7%  (11–20 von 145)</text><text x="72" y="829.0" text-anchor="end" font-family="Arial, sans-serif" font-size="13" fill="#83888d">14.</text><text x="114" y="810.0" font-family="Arial, sans-serif" font-size="14" fill="#202124">DE LIVA Holzkohlegrill &amp; Steakhouse</text><rect x="114" y="814.0" width="100.2" height="18" fill="#c9332c"/><text x="222.2" y="829.0" font-family="Arial, sans-serif" font-size="13" fill="#202124">9,5%  (11–20 von 147)</text><text x="72" y="865.0" text-anchor="end" font-family="Arial, sans-serif" font-size="13" fill="#83888d">15.</text><text x="114" y="846.0" font-family="Arial, sans-serif" font-size="14" fill="#202124">Kenko Sushi Rheine</text><rect x="114" y="850.0" width="97.8" height="18" fill="#c9332c"/><text x="219.8" y="865.0" font-family="Arial, sans-serif" font-size="13" fill="#202124">9,3%  (21–50 von 346)</text><text x="72" y="901.0" text-anchor="end" font-family="Arial, sans-serif" font-size="13" fill="#83888d">16.</text><text x="114" y="882.0" font-family="Arial, sans-serif" font-size="14" fill="#202124">ATU Rheine</text><rect x="114" y="886.0" width="97.5" height="18" fill="#c9332c"/><text x="219.5" y="901.0" font-family="Arial, sans-serif" font-size="13" fill="#202124">9,3%  (21–50 von 347)</text><text x="72" y="937.0" text-anchor="end" font-family="Arial, sans-serif" font-size="13" fill="#83888d">17.</text><text x="114" y="918.0" font-family="Arial, sans-serif" font-size="14" fill="#202124">Hotel Kreuzmann Püsselbüren</text><rect x="114" y="922.0" width="84.9" height="18" fill="#c9332c"/><text x="206.9" y="937.0" font-family="Arial, sans-serif" font-size="13" fill="#202124">8,1%  (6–10 von 91)</text><text x="72" y="973.0" text-anchor="end" font-family="Arial, sans-serif" font-size="13" fill="#83888d">18.</text><text x="114" y="954.0" font-family="Arial, sans-serif" font-size="14" fill="#202124">Der Friseur Rheine</text><rect x="114" y="958.0" width="81.8" height="18" fill="#c9332c"/><text x="203.8" y="973.0" font-family="Arial, sans-serif" font-size="13" fill="#202124">7,8%  (21–50 von 420)</text><text x="72" y="1009.0" text-anchor="end" font-family="Arial, sans-serif" font-size="13" fill="#83888d">19.</text><text x="114" y="990.0" font-family="Arial, sans-serif" font-size="14" fill="#202124">Katashi Ramen</text><rect x="114" y="994.0" width="73.2" height="18" fill="#c9332c"/><text x="195.2" y="1009.0" font-family="Arial, sans-serif" font-size="13" fill="#202124">7,0%  (11–20 von 207)</text><text x="72" y="1045.0" text-anchor="end" font-family="Arial, sans-serif" font-size="13" fill="#83888d">20.</text><text x="114" y="1026.0" font-family="Arial, sans-serif" font-size="14" fill="#202124">Restaurant Mykonos</text><rect x="114" y="1030.0" width="71.2" height="18" fill="#c9332c"/><text x="193.2" y="1045.0" font-family="Arial, sans-serif" font-size="13" fill="#202124">6,8%  (21–50 von 488)</text><text x="72" y="1081.0" text-anchor="end" font-family="Arial, sans-serif" font-size="13" fill="#83888d">21.</text><text x="114" y="1062.0" font-family="Arial, sans-serif" font-size="14" fill="#202124">Zimmer 8 Cafe und Hotel, bei Göcke</text><rect x="114" y="1066.0" width="69.4" height="18" fill="#c9332c"/><text x="191.4" y="1081.0" font-family="Arial, sans-serif" font-size="13" fill="#202124">6,6%  (6–10 von 113)</text><text x="72" y="1117.0" text-anchor="end" font-family="Arial, sans-serif" font-size="13" fill="#83888d">22.</text><text x="114" y="1098.0" font-family="Arial, sans-serif" font-size="14" fill="#202124">Aus der Wieschen</text><rect x="114" y="1102.0" width="55.3" height="18" fill="#c9332c"/><text x="177.3" y="1117.0" font-family="Arial, sans-serif" font-size="13" fill="#202124">5,3%  (6–10 von 144)</text><text x="72" y="1153.0" text-anchor="end" font-family="Arial, sans-serif" font-size="13" fill="#83888d">23.</text><text x="114" y="1134.0" font-family="Arial, sans-serif" font-size="14" fill="#202124">HOLI HOLA</text><rect x="114" y="1138.0" width="43.0" height="18" fill="#c9332c"/><text x="165.0" y="1153.0" font-family="Arial, sans-serif" font-size="13" fill="#202124">4,1%  (2–5 von 82)</text><text x="72" y="1189.0" text-anchor="end" font-family="Arial, sans-serif" font-size="13" fill="#83888d">24.</text><text x="114" y="1170.0" font-family="Arial, sans-serif" font-size="14" fill="#202124">Viet Delight</text><rect x="114" y="1174.0" width="37.0" height="18" fill="#c9332c"/><text x="159.0" y="1189.0" font-family="Arial, sans-serif" font-size="13" fill="#202124">3,5%  (2–5 von 96)</text><text x="72" y="1225.0" text-anchor="end" font-family="Arial, sans-serif" font-size="13" fill="#83888d">25.</text><text x="114" y="1206.0" font-family="Arial, sans-serif" font-size="14" fill="#202124">Antalya Grill</text><rect x="114" y="1210.0" width="36.3" height="18" fill="#c9332c"/><text x="158.3" y="1225.0" font-family="Arial, sans-serif" font-size="13" fill="#202124">3,5%  (6–10 von 223)</text><text x="72" y="1261.0" text-anchor="end" font-family="Arial, sans-serif" font-size="13" fill="#83888d">26.</text><text x="114" y="1242.0" font-family="Arial, sans-serif" font-size="14" fill="#202124">BASTI</text><rect x="114" y="1246.0" width="36.0" height="18" fill="#c9332c"/><text x="158.0" y="1261.0" font-family="Arial, sans-serif" font-size="13" fill="#202124">3,4%  (6–10 von 225)</text><text x="72" y="1297.0" text-anchor="end" font-family="Arial, sans-serif" font-size="13" fill="#83888d">27.</text><text x="114" y="1278.0" font-family="Arial, sans-serif" font-size="14" fill="#202124">Hotel zur Post</text><rect x="114" y="1282.0" width="31.9" height="18" fill="#c9332c"/><text x="153.9" y="1297.0" font-family="Arial, sans-serif" font-size="13" fill="#202124">3,0%  (11–20 von 495)</text><text x="72" y="1333.0" text-anchor="end" font-family="Arial, sans-serif" font-size="13" fill="#83888d">28.</text><text x="114" y="1314.0" font-family="Arial, sans-serif" font-size="14" fill="#202124">Hotel zur Post</text><rect x="114" y="1318.0" width="31.9" height="18" fill="#c9332c"/><text x="153.9" y="1333.0" font-family="Arial, sans-serif" font-size="13" fill="#202124">3,0%  (11–20 von 495)</text><text x="72" y="1369.0" text-anchor="end" font-family="Arial, sans-serif" font-size="13" fill="#83888d">29.</text><text x="114" y="1350.0" font-family="Arial, sans-serif" font-size="14" fill="#202124">middeke Friseure</text><rect x="114" y="1354.0" width="30.3" height="18" fill="#c9332c"/><text x="152.3" y="1369.0" font-family="Arial, sans-serif" font-size="13" fill="#202124">2,9%  (2–5 von 118)</text><text x="72" y="1405.0" text-anchor="end" font-family="Arial, sans-serif" font-size="13" fill="#83888d">30.</text><text x="114" y="1386.0" font-family="Arial, sans-serif" font-size="14" fill="#202124">Täglich Rheine</text><rect x="114" y="1390.0" width="29.6" height="18" fill="#c9332c"/><text x="151.6" y="1405.0" font-family="Arial, sans-serif" font-size="13" fill="#202124">2,8%  (21–50 von 1.224)</text><text x="315" y="1444.0" text-anchor="middle" font-family="Arial, sans-serif" font-size="13" fill="#6f7377">Lösch-Quote (%) · Top 30</text></g><g><text x="665" y="230" font-family="Arial, sans-serif" font-size="27" font-weight="800" fill="#202124">2. Schlechtestes „echtes“ Rating</text><text x="665" y="260" font-family="Arial, sans-serif" font-size="16" fill="#6f7377">Modell: gelöschte Rezensionen waren 1★</text><rect x="665" y="322" width="470" height="1104" fill="#ffffff" opacity="0.96" filter="url(#softShadow)"/><line x1="699.0" y1="322" x2="699.0" y2="1406.0" stroke="#dde3e8" stroke-width="1"/><line x1="799.5" y1="322" x2="799.5" y2="1406.0" stroke="#dde3e8" stroke-width="1"/><line x1="900.0" y1="322" x2="900.0" y2="1406.0" stroke="#dde3e8" stroke-width="1"/><line x1="1000.5" y1="322" x2="1000.5" y2="1406.0" stroke="#dde3e8" stroke-width="1"/><line x1="1101.0" y1="322" x2="1101.0" y2="1406.0" stroke="#dde3e8" stroke-width="1"/><text x="657" y="361.0" text-anchor="end" font-family="Arial, sans-serif" font-size="13" fill="#83888d">1.</text><text x="699" y="342.0" font-family="Arial, sans-serif" font-size="14" fill="#202124">Fachärzte Urologie Rheine</text><rect x="699" y="346.0" width="402.0" height="18" fill="#ef7d16"/><text x="1109.0" y="361.0" font-family="Arial, sans-serif" font-size="13" fill="#202124">2,98★  (vorher 4,2★)</text><text x="657" y="397.0" text-anchor="end" font-family="Arial, sans-serif" font-size="13" fill="#83888d">2.</text><text x="699" y="378.0" font-family="Arial, sans-serif" font-size="14" fill="#202124">Kochlöffel</text><rect x="699" y="382.0" width="382.1" height="18" fill="#ef7d16"/><text x="1089.1" y="397.0" font-family="Arial, sans-serif" font-size="13" fill="#202124">3,08★  (vorher 3,9★)</text><text x="657" y="433.0" text-anchor="end" font-family="Arial, sans-serif" font-size="13" fill="#83888d">3.</text><text x="699" y="414.0" font-family="Arial, sans-serif" font-size="14" fill="#202124">Haus Des Döners</text><rect x="699" y="418.0" width="274.6" height="18" fill="#ef7d16"/><text x="981.6" y="433.0" font-family="Arial, sans-serif" font-size="13" fill="#202124">3,62★  (vorher 4,3★)</text><text x="657" y="469.0" text-anchor="end" font-family="Arial, sans-serif" font-size="13" fill="#83888d">4.</text><text x="699" y="450.0" font-family="Arial, sans-serif" font-size="14" fill="#202124">Awania-Grill Rheine</text><rect x="699" y="454.0" width="260.1" height="18" fill="#ef7d16"/><text x="967.1" y="469.0" font-family="Arial, sans-serif" font-size="13" fill="#202124">3,69★  (vorher 3,7★)</text><text x="657" y="505.0" text-anchor="end" font-family="Arial, sans-serif" font-size="13" fill="#83888d">5.</text><text x="699" y="486.0" font-family="Arial, sans-serif" font-size="14" fill="#202124">ATU Rheine</text><rect x="699" y="490.0" width="253.7" height="18" fill="#ef7d16"/><text x="960.7" y="505.0" font-family="Arial, sans-serif" font-size="13" fill="#202124">3,72★  (vorher 4,0★)</text><text x="657" y="541.0" text-anchor="end" font-family="Arial, sans-serif" font-size="13" fill="#83888d">6.</text><text x="699" y="522.0" font-family="Arial, sans-serif" font-size="14" fill="#202124">Krimphoff &amp; Schulte Mineralöl-Service und Lo…</text><rect x="699" y="526.0" width="236.2" height="18" fill="#ef7d16"/><text x="943.2" y="541.0" font-family="Arial, sans-serif" font-size="13" fill="#202124">3,81★  (vorher 4,4★)</text><text x="657" y="577.0" text-anchor="end" font-family="Arial, sans-serif" font-size="13" fill="#83888d">7.</text><text x="699" y="558.0" font-family="Arial, sans-serif" font-size="14" fill="#202124">Täglich Ibbenbüren</text><rect x="699" y="562.0" width="212.8" height="18" fill="#ef7d16"/><text x="919.8" y="577.0" font-family="Arial, sans-serif" font-size="13" fill="#202124">3,93★  (vorher 4,3★)</text><text x="657" y="613.0" text-anchor="end" font-family="Arial, sans-serif" font-size="13" fill="#83888d">8.</text><text x="699" y="594.0" font-family="Arial, sans-serif" font-size="14" fill="#202124">China Wok</text><rect x="699" y="598.0" width="211.6" height="18" fill="#ef7d16"/><text x="918.6" y="613.0" font-family="Arial, sans-serif" font-size="13" fill="#202124">3,93★  (vorher 4,6★)</text><text x="657" y="649.0" text-anchor="end" font-family="Arial, sans-serif" font-size="13" fill="#83888d">9.</text><text x="699" y="630.0" font-family="Arial, sans-serif" font-size="14" fill="#202124">Augentagesklinik Rheine</text><rect x="699" y="634.0" width="202.3" height="18" fill="#ef7d16"/><text x="909.3" y="649.0" font-family="Arial, sans-serif" font-size="13" fill="#202124">3,98★  (vorher 4,5★)</text><text x="657" y="685.0" text-anchor="end" font-family="Arial, sans-serif" font-size="13" fill="#83888d">10.</text><text x="699" y="666.0" font-family="Arial, sans-serif" font-size="14" fill="#202124">Brauhaus Restaurant Rheine roter hirsch</text><rect x="699" y="670.0" width="198.5" height="18" fill="#ef7d16"/><text x="905.5" y="685.0" font-family="Arial, sans-serif" font-size="13" fill="#202124">4,00★  (vorher 4,5★)</text><text x="657" y="721.0" text-anchor="end" font-family="Arial, sans-serif" font-size="13" fill="#83888d">11.</text><text x="699" y="702.0" font-family="Arial, sans-serif" font-size="14" fill="#202124">Der Friseur Rheine</text><rect x="699" y="706.0" width="190.0" height="18" fill="#ef7d16"/><text x="897.0" y="721.0" font-family="Arial, sans-serif" font-size="13" fill="#202124">4,04★  (vorher 4,3★)</text><text x="657" y="757.0" text-anchor="end" font-family="Arial, sans-serif" font-size="13" fill="#83888d">12.</text><text x="699" y="738.0" font-family="Arial, sans-serif" font-size="14" fill="#202124">Hotel Kreuzmann Püsselbüren</text><rect x="699" y="742.0" width="173.7" height="18" fill="#ef7d16"/><text x="880.7" y="757.0" font-family="Arial, sans-serif" font-size="13" fill="#202124">4,12★  (vorher 4,4★)</text><text x="657" y="793.0" text-anchor="end" font-family="Arial, sans-serif" font-size="13" fill="#83888d">13.</text><text x="699" y="774.0" font-family="Arial, sans-serif" font-size="14" fill="#202124">SommerDeck Beachclub</text><rect x="699" y="778.0" width="168.3" height="18" fill="#ef7d16"/><text x="875.3" y="793.0" font-family="Arial, sans-serif" font-size="13" fill="#202124">4,15★  (vorher 4,7★)</text><text x="657" y="829.0" text-anchor="end" font-family="Arial, sans-serif" font-size="13" fill="#83888d">14.</text><text x="699" y="810.0" font-family="Arial, sans-serif" font-size="14" fill="#202124">Shilans Hairsalon</text><rect x="699" y="814.0" width="166.4" height="18" fill="#ef7d16"/><text x="873.4" y="829.0" font-family="Arial, sans-serif" font-size="13" fill="#202124">4,16★  (vorher 4,8★)</text><text x="657" y="865.0" text-anchor="end" font-family="Arial, sans-serif" font-size="13" fill="#83888d">15.</text><text x="699" y="846.0" font-family="Arial, sans-serif" font-size="14" fill="#202124">Zimmer 8 Cafe und Hotel, bei Göcke</text><rect x="699" y="850.0" width="163.8" height="18" fill="#ef7d16"/><text x="870.8" y="865.0" font-family="Arial, sans-serif" font-size="13" fill="#202124">4,17★  (vorher 4,4★)</text><text x="657" y="901.0" text-anchor="end" font-family="Arial, sans-serif" font-size="13" fill="#83888d">16.</text><text x="699" y="882.0" font-family="Arial, sans-serif" font-size="14" fill="#202124">Lidl</text><rect x="699" y="886.0" width="159.6" height="18" fill="#ef7d16"/><text x="866.6" y="901.0" font-family="Arial, sans-serif" font-size="13" fill="#202124">4,20★  (vorher 4,2★)</text><text x="657" y="937.0" text-anchor="end" font-family="Arial, sans-serif" font-size="13" fill="#83888d">17.</text><text x="699" y="918.0" font-family="Arial, sans-serif" font-size="14" fill="#202124">Osna Dönerhaus</text><rect x="699" y="922.0" width="148.5" height="18" fill="#ef7d16"/><text x="855.5" y="937.0" font-family="Arial, sans-serif" font-size="13" fill="#202124">4,25★  (vorher 4,6★)</text><text x="657" y="973.0" text-anchor="end" font-family="Arial, sans-serif" font-size="13" fill="#83888d">18.</text><text x="699" y="954.0" font-family="Arial, sans-serif" font-size="14" fill="#202124">Kenko Sushi Rheine</text><rect x="699" y="958.0" width="145.9" height="18" fill="#ef7d16"/><text x="852.9" y="973.0" font-family="Arial, sans-serif" font-size="13" fill="#202124">4,26★  (vorher 4,6★)</text><text x="657" y="1009.0" text-anchor="end" font-family="Arial, sans-serif" font-size="13" fill="#83888d">19.</text><text x="699" y="990.0" font-family="Arial, sans-serif" font-size="14" fill="#202124">Tipico</text><rect x="699" y="994.0" width="145.5" height="18" fill="#ef7d16"/><text x="852.5" y="1009.0" font-family="Arial, sans-serif" font-size="13" fill="#202124">4,27★  (vorher 4,8★)</text><text x="657" y="1045.0" text-anchor="end" font-family="Arial, sans-serif" font-size="13" fill="#83888d">20.</text><text x="699" y="1026.0" font-family="Arial, sans-serif" font-size="14" fill="#202124">Täglich Rheine</text><rect x="699" y="1030.0" width="138.2" height="18" fill="#ef7d16"/><text x="845.2" y="1045.0" font-family="Arial, sans-serif" font-size="13" fill="#202124">4,30★  (vorher 4,4★)</text><text x="657" y="1081.0" text-anchor="end" font-family="Arial, sans-serif" font-size="13" fill="#83888d">21.</text><text x="699" y="1062.0" font-family="Arial, sans-serif" font-size="14" fill="#202124">Landhaus-Brauerei Borchert GmbH</text><rect x="699" y="1066.0" width="136.0" height="18" fill="#ef7d16"/><text x="843.0" y="1081.0" font-family="Arial, sans-serif" font-size="13" fill="#202124">4,32★  (vorher 4,8★)</text><text x="657" y="1117.0" text-anchor="end" font-family="Arial, sans-serif" font-size="13" fill="#83888d">22.</text><text x="699" y="1098.0" font-family="Arial, sans-serif" font-size="14" fill="#202124">Mercedes-Benz, smart Verkauf &amp; Service | Sen…</text><rect x="699" y="1102.0" width="120.3" height="18" fill="#ef7d16"/><text x="827.3" y="1117.0" font-family="Arial, sans-serif" font-size="13" fill="#202124">4,39★  (vorher 4,4★)</text><text x="657" y="1153.0" text-anchor="end" font-family="Arial, sans-serif" font-size="13" fill="#83888d">23.</text><text x="699" y="1134.0" font-family="Arial, sans-serif" font-size="14" fill="#202124">DE LIVA Holzkohlegrill &amp; Steakhouse</text><rect x="699" y="1138.0" width="111.6" height="18" fill="#ef7d16"/><text x="818.6" y="1153.0" font-family="Arial, sans-serif" font-size="13" fill="#202124">4,44★  (vorher 4,8★)</text><text x="657" y="1189.0" text-anchor="end" font-family="Arial, sans-serif" font-size="13" fill="#83888d">24.</text><text x="699" y="1170.0" font-family="Arial, sans-serif" font-size="14" fill="#202124">Restaurant Mykonos</text><rect x="699" y="1174.0" width="109.4" height="18" fill="#ef7d16"/><text x="816.4" y="1189.0" font-family="Arial, sans-serif" font-size="13" fill="#202124">4,45★  (vorher 4,7★)</text><text x="657" y="1225.0" text-anchor="end" font-family="Arial, sans-serif" font-size="13" fill="#83888d">25.</text><text x="699" y="1206.0" font-family="Arial, sans-serif" font-size="14" fill="#202124">Hotel zur Post</text><rect x="699" y="1210.0" width="101.0" height="18" fill="#ef7d16"/><text x="808.0" y="1225.0" font-family="Arial, sans-serif" font-size="13" fill="#202124">4,49★  (vorher 4,6★)</text><text x="657" y="1261.0" text-anchor="end" font-family="Arial, sans-serif" font-size="13" fill="#83888d">26.</text><text x="699" y="1242.0" font-family="Arial, sans-serif" font-size="14" fill="#202124">Hotel zur Post</text><rect x="699" y="1246.0" width="101.0" height="18" fill="#ef7d16"/><text x="808.0" y="1261.0" font-family="Arial, sans-serif" font-size="13" fill="#202124">4,49★  (vorher 4,6★)</text><text x="657" y="1297.0" text-anchor="end" font-family="Arial, sans-serif" font-size="13" fill="#83888d">27.</text><text x="699" y="1278.0" font-family="Arial, sans-serif" font-size="14" fill="#202124">wellyou Nordhorn</text><rect x="699" y="1282.0" width="90.7" height="18" fill="#ef7d16"/><text x="797.7" y="1297.0" font-family="Arial, sans-serif" font-size="13" fill="#202124">4,54★  (vorher 4,6★)</text><text x="657" y="1333.0" text-anchor="end" font-family="Arial, sans-serif" font-size="13" fill="#83888d">28.</text><text x="699" y="1314.0" font-family="Arial, sans-serif" font-size="14" fill="#202124">VW, Audi, Skoda, VW NFZ, SEAT, CUPRA | Senger</text><rect x="699" y="1318.0" width="85.4" height="18" fill="#ef7d16"/><text x="792.4" y="1333.0" font-family="Arial, sans-serif" font-size="13" fill="#202124">4,57★  (vorher 4,6★)</text><text x="657" y="1369.0" text-anchor="end" font-family="Arial, sans-serif" font-size="13" fill="#83888d">29.</text><text x="699" y="1350.0" font-family="Arial, sans-serif" font-size="14" fill="#202124">BASTI</text><rect x="699" y="1354.0" width="84.8" height="18" fill="#ef7d16"/><text x="791.8" y="1369.0" font-family="Arial, sans-serif" font-size="13" fill="#202124">4,57★  (vorher 4,7★)</text><text x="657" y="1405.0" text-anchor="end" font-family="Arial, sans-serif" font-size="13" fill="#83888d">30.</text><text x="699" y="1386.0" font-family="Arial, sans-serif" font-size="14" fill="#202124">Scum Bar</text><rect x="699" y="1390.0" width="83.2" height="18" fill="#ef7d16"/><text x="790.2" y="1405.0" font-family="Arial, sans-serif" font-size="13" fill="#202124">4,58★  (vorher 4,6★)</text><text x="900" y="1444.0" text-anchor="middle" font-family="Arial, sans-serif" font-size="13" fill="#6f7377">Punkte unter 5★</text></g><g><text x="1250" y="230" font-family="Arial, sans-serif" font-size="27" font-weight="800" fill="#202124">3. Beste Orte ohne Löschbanner</text><text x="1250" y="260" font-family="Arial, sans-serif" font-size="16" fill="#6f7377">kein sichtbarer Diffamierungs-Löschbanner — ab 100 Rezensionen</text><rect x="1250" y="322" width="470" height="1104" fill="#ffffff" opacity="0.96" filter="url(#softShadow)"/><line x1="1284.0" y1="322" x2="1284.0" y2="1406.0" stroke="#dde3e8" stroke-width="1"/><line x1="1384.5" y1="322" x2="1384.5" y2="1406.0" stroke="#dde3e8" stroke-width="1"/><line x1="1485.0" y1="322" x2="1485.0" y2="1406.0" stroke="#dde3e8" stroke-width="1"/><line x1="1585.5" y1="322" x2="1585.5" y2="1406.0" stroke="#dde3e8" stroke-width="1"/><line x1="1686.0" y1="322" x2="1686.0" y2="1406.0" stroke="#dde3e8" stroke-width="1"/><text x="1242" y="361.0" text-anchor="end" font-family="Arial, sans-serif" font-size="13" fill="#83888d">1.</text><text x="1284" y="342.0" font-family="Arial, sans-serif" font-size="14" fill="#202124">KKH Servicestelle Münster</text><rect x="1284" y="346.0" width="402.0" height="18" fill="#2e7d32"/><text x="1694.0" y="361.0" font-family="Arial, sans-serif" font-size="13" fill="#202124">5,0★  (179 Rezensionen)</text><text x="1242" y="397.0" text-anchor="end" font-family="Arial, sans-serif" font-size="13" fill="#83888d">2.</text><text x="1284" y="378.0" font-family="Arial, sans-serif" font-size="14" fill="#202124">CONCEPTGYM - Fitnessstudio Rheine</text><rect x="1284" y="382.0" width="402.0" height="18" fill="#2e7d32"/><text x="1694.0" y="397.0" font-family="Arial, sans-serif" font-size="13" fill="#202124">5,0★  (138 Rezensionen)</text><text x="1242" y="433.0" text-anchor="end" font-family="Arial, sans-serif" font-size="13" fill="#83888d">3.</text><text x="1284" y="414.0" font-family="Arial, sans-serif" font-size="14" fill="#202124">Privathotel Riesenbeck</text><rect x="1284" y="418.0" width="394.0" height="18" fill="#2e7d32"/><text x="1686.0" y="433.0" font-family="Arial, sans-serif" font-size="13" fill="#202124">4,9★  (688 Rezensionen)</text><text x="1242" y="469.0" text-anchor="end" font-family="Arial, sans-serif" font-size="13" fill="#83888d">4.</text><text x="1284" y="450.0" font-family="Arial, sans-serif" font-size="14" fill="#202124">Lernen Leben Retten</text><rect x="1284" y="454.0" width="394.0" height="18" fill="#2e7d32"/><text x="1686.0" y="469.0" font-family="Arial, sans-serif" font-size="13" fill="#202124">4,9★  (392 Rezensionen)</text><text x="1242" y="505.0" text-anchor="end" font-family="Arial, sans-serif" font-size="13" fill="#83888d">5.</text><text x="1284" y="486.0" font-family="Arial, sans-serif" font-size="14" fill="#202124">Odi´s Bowl Rheine</text><rect x="1284" y="490.0" width="394.0" height="18" fill="#2e7d32"/><text x="1686.0" y="505.0" font-family="Arial, sans-serif" font-size="13" fill="#202124">4,9★  (255 Rezensionen)</text><text x="1242" y="541.0" text-anchor="end" font-family="Arial, sans-serif" font-size="13" fill="#83888d">6.</text><text x="1284" y="522.0" font-family="Arial, sans-serif" font-size="14" fill="#202124">Nolte Haare + mehr</text><rect x="1284" y="526.0" width="394.0" height="18" fill="#2e7d32"/><text x="1686.0" y="541.0" font-family="Arial, sans-serif" font-size="13" fill="#202124">4,9★  (221 Rezensionen)</text><text x="1242" y="577.0" text-anchor="end" font-family="Arial, sans-serif" font-size="13" fill="#83888d">7.</text><text x="1284" y="558.0" font-family="Arial, sans-serif" font-size="14" fill="#202124">Geiger Fleischerei Rheine - Industriegebiet …</text><rect x="1284" y="562.0" width="394.0" height="18" fill="#2e7d32"/><text x="1686.0" y="577.0" font-family="Arial, sans-serif" font-size="13" fill="#202124">4,9★  (186 Rezensionen)</text><text x="1242" y="613.0" text-anchor="end" font-family="Arial, sans-serif" font-size="13" fill="#83888d">8.</text><text x="1284" y="594.0" font-family="Arial, sans-serif" font-size="14" fill="#202124">Haarverliebt by Nolte</text><rect x="1284" y="598.0" width="394.0" height="18" fill="#2e7d32"/><text x="1686.0" y="613.0" font-family="Arial, sans-serif" font-size="13" fill="#202124">4,9★  (173 Rezensionen)</text><text x="1242" y="649.0" text-anchor="end" font-family="Arial, sans-serif" font-size="13" fill="#83888d">9.</text><text x="1284" y="630.0" font-family="Arial, sans-serif" font-size="14" fill="#202124">Haarstudio Baglivi</text><rect x="1284" y="634.0" width="394.0" height="18" fill="#2e7d32"/><text x="1686.0" y="649.0" font-family="Arial, sans-serif" font-size="13" fill="#202124">4,9★  (166 Rezensionen)</text><text x="1242" y="685.0" text-anchor="end" font-family="Arial, sans-serif" font-size="13" fill="#83888d">10.</text><text x="1284" y="666.0" font-family="Arial, sans-serif" font-size="14" fill="#202124">Fadi&#39;s Pizza</text><rect x="1284" y="670.0" width="394.0" height="18" fill="#2e7d32"/><text x="1686.0" y="685.0" font-family="Arial, sans-serif" font-size="13" fill="#202124">4,9★  (160 Rezensionen)</text><text x="1242" y="721.0" text-anchor="end" font-family="Arial, sans-serif" font-size="13" fill="#83888d">11.</text><text x="1284" y="702.0" font-family="Arial, sans-serif" font-size="14" fill="#202124">Brautvilla by Peltner - Second Hand Brautmode</text><rect x="1284" y="706.0" width="394.0" height="18" fill="#2e7d32"/><text x="1686.0" y="721.0" font-family="Arial, sans-serif" font-size="13" fill="#202124">4,9★  (149 Rezensionen)</text><text x="1242" y="757.0" text-anchor="end" font-family="Arial, sans-serif" font-size="13" fill="#83888d">12.</text><text x="1284" y="738.0" font-family="Arial, sans-serif" font-size="14" fill="#202124">House of Taekwon-Do</text><rect x="1284" y="742.0" width="394.0" height="18" fill="#2e7d32"/><text x="1686.0" y="757.0" font-family="Arial, sans-serif" font-size="13" fill="#202124">4,9★  (138 Rezensionen)</text><text x="1242" y="793.0" text-anchor="end" font-family="Arial, sans-serif" font-size="13" fill="#83888d">13.</text><text x="1284" y="774.0" font-family="Arial, sans-serif" font-size="14" fill="#202124">La Fabrica Industrial Gym</text><rect x="1284" y="778.0" width="394.0" height="18" fill="#2e7d32"/><text x="1686.0" y="793.0" font-family="Arial, sans-serif" font-size="13" fill="#202124">4,9★  (132 Rezensionen)</text><text x="1242" y="829.0" text-anchor="end" font-family="Arial, sans-serif" font-size="13" fill="#83888d">14.</text><text x="1284" y="810.0" font-family="Arial, sans-serif" font-size="14" fill="#202124">Zorbas | Der Grieche. Seit 1996.</text><rect x="1284" y="814.0" width="385.9" height="18" fill="#2e7d32"/><text x="1677.9" y="829.0" font-family="Arial, sans-serif" font-size="13" fill="#202124">4,8★  (1.015 Rezensionen)</text><text x="1242" y="865.0" text-anchor="end" font-family="Arial, sans-serif" font-size="13" fill="#83888d">15.</text><text x="1284" y="846.0" font-family="Arial, sans-serif" font-size="14" fill="#202124">Adam‘s</text><rect x="1284" y="850.0" width="385.9" height="18" fill="#2e7d32"/><text x="1677.9" y="865.0" font-family="Arial, sans-serif" font-size="13" fill="#202124">4,8★  (985 Rezensionen)</text><text x="1242" y="901.0" text-anchor="end" font-family="Arial, sans-serif" font-size="13" fill="#83888d">16.</text><text x="1284" y="882.0" font-family="Arial, sans-serif" font-size="14" fill="#202124">Eiscafé Venezia</text><rect x="1284" y="886.0" width="385.9" height="18" fill="#2e7d32"/><text x="1677.9" y="901.0" font-family="Arial, sans-serif" font-size="13" fill="#202124">4,8★  (405 Rezensionen)</text><text x="1242" y="937.0" text-anchor="end" font-family="Arial, sans-serif" font-size="13" fill="#83888d">17.</text><text x="1284" y="918.0" font-family="Arial, sans-serif" font-size="14" fill="#202124">Landgasthaus Hotel - Restaurant Wenninghoff</text><rect x="1284" y="922.0" width="385.9" height="18" fill="#2e7d32"/><text x="1677.9" y="937.0" font-family="Arial, sans-serif" font-size="13" fill="#202124">4,8★  (379 Rezensionen)</text><text x="1242" y="973.0" text-anchor="end" font-family="Arial, sans-serif" font-size="13" fill="#83888d">18.</text><text x="1284" y="954.0" font-family="Arial, sans-serif" font-size="14" fill="#202124">YoPizza</text><rect x="1284" y="958.0" width="385.9" height="18" fill="#2e7d32"/><text x="1677.9" y="973.0" font-family="Arial, sans-serif" font-size="13" fill="#202124">4,8★  (364 Rezensionen)</text><text x="1242" y="1009.0" text-anchor="end" font-family="Arial, sans-serif" font-size="13" fill="#83888d">19.</text><text x="1284" y="990.0" font-family="Arial, sans-serif" font-size="14" fill="#202124">Schauburg Quasi So - Theater</text><rect x="1284" y="994.0" width="385.9" height="18" fill="#2e7d32"/><text x="1677.9" y="1009.0" font-family="Arial, sans-serif" font-size="13" fill="#202124">4,8★  (305 Rezensionen)</text><text x="1242" y="1045.0" text-anchor="end" font-family="Arial, sans-serif" font-size="13" fill="#83888d">20.</text><text x="1284" y="1026.0" font-family="Arial, sans-serif" font-size="14" fill="#202124">Früchte-Eck Rheine</text><rect x="1284" y="1030.0" width="385.9" height="18" fill="#2e7d32"/><text x="1677.9" y="1045.0" font-family="Arial, sans-serif" font-size="13" fill="#202124">4,8★  (260 Rezensionen)</text><text x="1242" y="1081.0" text-anchor="end" font-family="Arial, sans-serif" font-size="13" fill="#83888d">21.</text><text x="1284" y="1062.0" font-family="Arial, sans-serif" font-size="14" fill="#202124">A.N.A. Blumen Deiters e.K.</text><rect x="1284" y="1066.0" width="385.9" height="18" fill="#2e7d32"/><text x="1677.9" y="1081.0" font-family="Arial, sans-serif" font-size="13" fill="#202124">4,8★  (160 Rezensionen)</text><text x="1242" y="1117.0" text-anchor="end" font-family="Arial, sans-serif" font-size="13" fill="#83888d">22.</text><text x="1284" y="1098.0" font-family="Arial, sans-serif" font-size="14" fill="#202124">Hof Werning</text><rect x="1284" y="1102.0" width="385.9" height="18" fill="#2e7d32"/><text x="1677.9" y="1117.0" font-family="Arial, sans-serif" font-size="13" fill="#202124">4,8★  (137 Rezensionen)</text><text x="1242" y="1153.0" text-anchor="end" font-family="Arial, sans-serif" font-size="13" fill="#83888d">23.</text><text x="1284" y="1134.0" font-family="Arial, sans-serif" font-size="14" fill="#202124">Friseursalon Die Locke Inh. Sofyan Ali</text><rect x="1284" y="1138.0" width="385.9" height="18" fill="#2e7d32"/><text x="1677.9" y="1153.0" font-family="Arial, sans-serif" font-size="13" fill="#202124">4,8★  (123 Rezensionen)</text><text x="1242" y="1189.0" text-anchor="end" font-family="Arial, sans-serif" font-size="13" fill="#83888d">24.</text><text x="1284" y="1170.0" font-family="Arial, sans-serif" font-size="14" fill="#202124">Vibe Lounge</text><rect x="1284" y="1174.0" width="385.9" height="18" fill="#2e7d32"/><text x="1677.9" y="1189.0" font-family="Arial, sans-serif" font-size="13" fill="#202124">4,8★  (121 Rezensionen)</text><text x="1242" y="1225.0" text-anchor="end" font-family="Arial, sans-serif" font-size="13" fill="#83888d">25.</text><text x="1284" y="1206.0" font-family="Arial, sans-serif" font-size="14" fill="#202124">Wassersportverein Rheine 1932 e.V.</text><rect x="1284" y="1210.0" width="385.9" height="18" fill="#2e7d32"/><text x="1677.9" y="1225.0" font-family="Arial, sans-serif" font-size="13" fill="#202124">4,8★  (117 Rezensionen)</text><text x="1242" y="1261.0" text-anchor="end" font-family="Arial, sans-serif" font-size="13" fill="#83888d">26.</text><text x="1284" y="1242.0" font-family="Arial, sans-serif" font-size="14" fill="#202124">Leistungssprung Rheine</text><rect x="1284" y="1246.0" width="385.9" height="18" fill="#2e7d32"/><text x="1677.9" y="1261.0" font-family="Arial, sans-serif" font-size="13" fill="#202124">4,8★  (111 Rezensionen)</text><text x="1242" y="1297.0" text-anchor="end" font-family="Arial, sans-serif" font-size="13" fill="#83888d">27.</text><text x="1284" y="1278.0" font-family="Arial, sans-serif" font-size="14" fill="#202124">Eiscafé Nuraghe</text><rect x="1284" y="1282.0" width="377.9" height="18" fill="#2e7d32"/><text x="1669.9" y="1297.0" font-family="Arial, sans-serif" font-size="13" fill="#202124">4,7★  (1.022 Rezensionen)</text><text x="1242" y="1333.0" text-anchor="end" font-family="Arial, sans-serif" font-size="13" fill="#83888d">28.</text><text x="1284" y="1314.0" font-family="Arial, sans-serif" font-size="14" fill="#202124">Farmacia Bar</text><rect x="1284" y="1318.0" width="377.9" height="18" fill="#2e7d32"/><text x="1669.9" y="1333.0" font-family="Arial, sans-serif" font-size="13" fill="#202124">4,7★  (796 Rezensionen)</text><text x="1242" y="1369.0" text-anchor="end" font-family="Arial, sans-serif" font-size="13" fill="#83888d">29.</text><text x="1284" y="1350.0" font-family="Arial, sans-serif" font-size="14" fill="#202124">Panini</text><rect x="1284" y="1354.0" width="377.9" height="18" fill="#2e7d32"/><text x="1669.9" y="1369.0" font-family="Arial, sans-serif" font-size="13" fill="#202124">4,7★  (731 Rezensionen)</text><text x="1242" y="1405.0" text-anchor="end" font-family="Arial, sans-serif" font-size="13" fill="#83888d">30.</text><text x="1284" y="1386.0" font-family="Arial, sans-serif" font-size="14" fill="#202124">Hotel Restaurant Lindenhof</text><rect x="1284" y="1390.0" width="377.9" height="18" fill="#2e7d32"/><text x="1669.9" y="1405.0" font-family="Arial, sans-serif" font-size="13" fill="#202124">4,7★  (672 Rezensionen)</text><text x="1485" y="1444.0" text-anchor="middle" font-family="Arial, sans-serif" font-size="13" fill="#6f7377">Rating (★)</text></g><g><text x="120" y="1660" font-family="Arial, sans-serif" font-size="28" font-weight="800" fill="#202124">Verteilung der Lösch-Stufen über alle 643 Orte</text><rect x="120" y="1715" width="1540" height="560" fill="#ffffff" opacity="0.96" filter="url(#softShadow)"/><text x="150" y="1781" font-family="Arial, sans-serif" font-size="18" fill="#202124">Keine Löschung</text><rect x="450" y="1765" width="900" height="24" fill="#edf2f5"/><rect x="450" y="1765" width="900.0" height="24" fill="#2e7d32"/><text x="1380" y="1783" font-family="Arial, sans-serif" font-size="18" fill="#202124">601 (93,5%)</text><text x="150" y="1826" font-family="Arial, sans-serif" font-size="18" fill="#202124">Eine gelöscht</text><rect x="450" y="1810" width="900" height="24" fill="#edf2f5"/><rect x="450" y="1810" width="9.0" height="24" fill="#8bc34a"/><text x="1380" y="1828" font-family="Arial, sans-serif" font-size="18" fill="#202124">6 (0,9%)</text><text x="150" y="1871" font-family="Arial, sans-serif" font-size="18" fill="#202124">2–5 gelöscht</text><rect x="450" y="1855" width="900" height="24" fill="#edf2f5"/><rect x="450" y="1855" width="12.0" height="24" fill="#cddc39"/><text x="1380" y="1873" font-family="Arial, sans-serif" font-size="18" fill="#202124">8 (1,2%)</text><text x="150" y="1916" font-family="Arial, sans-serif" font-size="18" fill="#202124">6–10 gelöscht</text><rect x="450" y="1900" width="900" height="24" fill="#edf2f5"/><rect x="450" y="1900" width="12.0" height="24" fill="#ffca28"/><text x="1380" y="1918" font-family="Arial, sans-serif" font-size="18" fill="#202124">8 (1,2%)</text><text x="150" y="1961" font-family="Arial, sans-serif" font-size="18" fill="#202124">11–20 gelöscht</text><rect x="450" y="1945" width="900" height="24" fill="#edf2f5"/><rect x="450" y="1945" width="12.0" height="24" fill="#ff9f1c"/><text x="1380" y="1963" font-family="Arial, sans-serif" font-size="18" fill="#202124">8 (1,2%)</text><text x="150" y="2006" font-family="Arial, sans-serif" font-size="18" fill="#202124">21–50 gelöscht</text><rect x="450" y="1990" width="900" height="24" fill="#edf2f5"/><rect x="450" y="1990" width="12.0" height="24" fill="#ff6d00"/><text x="1380" y="2008" font-family="Arial, sans-serif" font-size="18" fill="#202124">8 (1,2%)</text><text x="150" y="2051" font-family="Arial, sans-serif" font-size="18" fill="#202124">51–100 gelöscht</text><rect x="450" y="2035" width="900" height="24" fill="#edf2f5"/><rect x="450" y="2035" width="3.0" height="24" fill="#e5391b"/><text x="1380" y="2053" font-family="Arial, sans-serif" font-size="18" fill="#202124">2 (0,3%)</text><text x="150" y="2096" font-family="Arial, sans-serif" font-size="18" fill="#202124">101–200 gelöscht</text><rect x="450" y="2080" width="900" height="24" fill="#edf2f5"/><rect x="450" y="2080" width="1.5" height="24" fill="#c62828"/><text x="1380" y="2098" font-family="Arial, sans-serif" font-size="18" fill="#202124">1 (0,2%)</text><text x="150" y="2141" font-family="Arial, sans-serif" font-size="18" fill="#202124">201–250 gelöscht</text><rect x="450" y="2125" width="900" height="24" fill="#edf2f5"/><rect x="450" y="2125" width="1.5" height="24" fill="#8e1919"/><text x="1380" y="2143" font-family="Arial, sans-serif" font-size="18" fill="#202124">1 (0,2%)</text><text x="150" y="2186" font-family="Arial, sans-serif" font-size="18" fill="#202124">Über 250 gelöscht</text><rect x="450" y="2170" width="900" height="24" fill="#edf2f5"/><rect x="450" y="2170" width="0.0" height="24" fill="#5b0f0f"/><text x="1380" y="2188" font-family="Arial, sans-serif" font-size="18" fill="#202124">0 (0,0%)</text></g><text x="40" y="2460" font-family="Arial, sans-serif" font-size="13" fill="#8a8f94">Quelle: Google Maps, öffentlich sichtbare Banner; Analyse-Snapshot 07.05.2026</text><text x="1760" y="2460" text-anchor="end" font-family="Arial, sans-serif" font-size="13" fill="#8a8f94">© <a href="https://patwoz.dev" target="_blank" style="fill:#8a8f94;text-decoration:none">Patrick Wozniak</a></text><text x="1760" y="2480" text-anchor="end" font-family="Arial, sans-serif" font-size="11" fill="#aab0b5">patwoz.dev</text></svg>
