<svg xmlns="http://www.w3.org/2000/svg" width="1800" height="2500" viewBox="0 0 1800 2500">
  <defs>
    <linearGradient id="bg" x1="0" y1="0" x2="0" y2="1"><stop offset="0%" stop-color="#d9e8f2"/><stop offset="58%" stop-color="#eef6fa"/><stop offset="100%" stop-color="#d7dde2"/></linearGradient>
    <filter id="softShadow" x="-10%" y="-10%" width="120%" height="120%"><feDropShadow dx="0" dy="8" stdDeviation="10" flood-color="#6d7f8a" flood-opacity="0.16"/></filter>
  </defs>
  <rect width="100%" height="100%" fill="url(#bg)"/>
  <circle cx="1450" cy="310" r="500" fill="#ffffff" opacity="0.18"/>
  <circle cx="260" cy="2140" r="620" fill="#ffffff" opacity="0.20"/>
  <text x="900" y="70" text-anchor="middle" font-family="Arial, sans-serif" font-size="48" font-weight="800" fill="#202124">Postleitzahl 48163 — Ibbenbüren</text>
  <text x="900" y="112" text-anchor="middle" font-family="Arial, sans-serif" font-size="22" fill="#4b5055">Google-Maps-Orte: gelöschte Rezensionen wegen „Diffamierung“</text>
  <text x="900" y="160" text-anchor="middle" font-family="Arial, sans-serif" font-size="18" fill="#6f7377">312 Orte erfasst · 19 mit sichtbarem Banner (6,1%) · 0 in der „Über“-Stufe</text><g><text x="80" y="230" font-family="Arial, sans-serif" font-size="27" font-weight="800" fill="#202124">1. Höchste Lösch-Quote</text><text x="80" y="260" font-family="Arial, sans-serif" font-size="16" fill="#6f7377">Anteil gelöschter Rezensionen</text><rect x="80" y="322" width="470" height="708" fill="#ffffff" opacity="0.96" filter="url(#softShadow)"/><line x1="114.0" y1="322" x2="114.0" y2="1010.0" stroke="#dde3e8" stroke-width="1"/><line x1="214.5" y1="322" x2="214.5" y2="1010.0" stroke="#dde3e8" stroke-width="1"/><line x1="315.0" y1="322" x2="315.0" y2="1010.0" stroke="#dde3e8" stroke-width="1"/><line x1="415.5" y1="322" x2="415.5" y2="1010.0" stroke="#dde3e8" stroke-width="1"/><line x1="516.0" y1="322" x2="516.0" y2="1010.0" stroke="#dde3e8" stroke-width="1"/><text x="72" y="361.0" text-anchor="end" font-family="Arial, sans-serif" font-size="13" fill="#83888d">1.</text><text x="114" y="342.0" font-family="Arial, sans-serif" font-size="14" fill="#202124">Lorenz &amp; Schlotmann KIDS Club</text><rect x="114" y="346.0" width="402.0" height="18" fill="#c9332c"/><text x="524.0" y="361.0" font-family="Arial, sans-serif" font-size="13" fill="#202124">30,4%  (2–5 von 8)</text><text x="72" y="397.0" text-anchor="end" font-family="Arial, sans-serif" font-size="13" fill="#83888d">2.</text><text x="114" y="378.0" font-family="Arial, sans-serif" font-size="14" fill="#202124">Lorenz &amp; Schlotmann - Zahnmedizinische Tages…</text><rect x="114" y="382.0" width="195.6" height="18" fill="#c9332c"/><text x="317.6" y="397.0" font-family="Arial, sans-serif" font-size="13" fill="#202124">14,8%  (6–10 von 46)</text><text x="72" y="433.0" text-anchor="end" font-family="Arial, sans-serif" font-size="13" fill="#83888d">3.</text><text x="114" y="414.0" font-family="Arial, sans-serif" font-size="14" fill="#202124">Mondial Grill</text><rect x="114" y="418.0" width="178.6" height="18" fill="#c9332c"/><text x="300.6" y="433.0" font-family="Arial, sans-serif" font-size="13" fill="#202124">13,5%  (21–50 von 227)</text><text x="72" y="469.0" text-anchor="end" font-family="Arial, sans-serif" font-size="13" fill="#83888d">4.</text><text x="114" y="450.0" font-family="Arial, sans-serif" font-size="14" fill="#202124">Asia Quick 4</text><rect x="114" y="454.0" width="176.0" height="18" fill="#c9332c"/><text x="298.0" y="469.0" font-family="Arial, sans-serif" font-size="13" fill="#202124">13,3%  (21–50 von 231)</text><text x="72" y="505.0" text-anchor="end" font-family="Arial, sans-serif" font-size="13" fill="#83888d">5.</text><text x="114" y="486.0" font-family="Arial, sans-serif" font-size="14" fill="#202124">Wanjas</text><rect x="114" y="490.0" width="133.0" height="18" fill="#c9332c"/><text x="255.0" y="505.0" font-family="Arial, sans-serif" font-size="13" fill="#202124">10,1%  (21–50 von 317)</text><text x="72" y="541.0" text-anchor="end" font-family="Arial, sans-serif" font-size="13" fill="#83888d">6.</text><text x="114" y="522.0" font-family="Arial, sans-serif" font-size="14" fill="#202124">Kleine Riesen Münster Mecklenbeck</text><rect x="114" y="526.0" width="94.3" height="18" fill="#c9332c"/><text x="216.3" y="541.0" font-family="Arial, sans-serif" font-size="13" fill="#202124">7,1%  (1 von 13)</text><text x="72" y="577.0" text-anchor="end" font-family="Arial, sans-serif" font-size="13" fill="#83888d">7.</text><text x="114" y="558.0" font-family="Arial, sans-serif" font-size="14" fill="#202124">Musti Kebab</text><rect x="114" y="562.0" width="90.8" height="18" fill="#c9332c"/><text x="212.8" y="577.0" font-family="Arial, sans-serif" font-size="13" fill="#202124">6,9%  (21–50 von 481)</text><text x="72" y="613.0" text-anchor="end" font-family="Arial, sans-serif" font-size="13" fill="#83888d">8.</text><text x="114" y="594.0" font-family="Arial, sans-serif" font-size="14" fill="#202124">ATLAS AUTO-LEASING GmbH</text><rect x="114" y="598.0" width="59.7" height="18" fill="#c9332c"/><text x="181.7" y="613.0" font-family="Arial, sans-serif" font-size="13" fill="#202124">4,5%  (2–5 von 74)</text><text x="72" y="649.0" text-anchor="end" font-family="Arial, sans-serif" font-size="13" fill="#83888d">9.</text><text x="114" y="630.0" font-family="Arial, sans-serif" font-size="14" fill="#202124">ATU Münster</text><rect x="114" y="634.0" width="58.9" height="18" fill="#c9332c"/><text x="180.9" y="649.0" font-family="Arial, sans-serif" font-size="13" fill="#202124">4,5%  (21–50 von 760)</text><text x="72" y="685.0" text-anchor="end" font-family="Arial, sans-serif" font-size="13" fill="#83888d">10.</text><text x="114" y="666.0" font-family="Arial, sans-serif" font-size="14" fill="#202124">ROJ Friseursalon</text><rect x="114" y="670.0" width="41.5" height="18" fill="#c9332c"/><text x="163.5" y="685.0" font-family="Arial, sans-serif" font-size="13" fill="#202124">3,1%  (2–5 von 108)</text><text x="72" y="721.0" text-anchor="end" font-family="Arial, sans-serif" font-size="13" fill="#83888d">11.</text><text x="114" y="702.0" font-family="Arial, sans-serif" font-size="14" fill="#202124">Hundesalon am Kölle Zoo Maja Kraus</text><rect x="114" y="706.0" width="39.6" height="18" fill="#c9332c"/><text x="161.6" y="721.0" font-family="Arial, sans-serif" font-size="13" fill="#202124">3,0%  (2–5 von 113)</text><text x="72" y="757.0" text-anchor="end" font-family="Arial, sans-serif" font-size="13" fill="#83888d">12.</text><text x="114" y="738.0" font-family="Arial, sans-serif" font-size="14" fill="#202124">Academy Fahrschule Gellenbeck Morsmann</text><rect x="114" y="742.0" width="33.7" height="18" fill="#c9332c"/><text x="155.7" y="757.0" font-family="Arial, sans-serif" font-size="13" fill="#202124">2,5%  (2–5 von 134)</text><text x="72" y="793.0" text-anchor="end" font-family="Arial, sans-serif" font-size="13" fill="#83888d">13.</text><text x="114" y="774.0" font-family="Arial, sans-serif" font-size="14" fill="#202124">Praxis Physiotherapie &amp; Fitness David Krichel</text><rect x="114" y="778.0" width="32.2" height="18" fill="#c9332c"/><text x="154.2" y="793.0" font-family="Arial, sans-serif" font-size="13" fill="#202124">2,4%  (1 von 40)</text><text x="72" y="829.0" text-anchor="end" font-family="Arial, sans-serif" font-size="13" fill="#83888d">14.</text><text x="114" y="810.0" font-family="Arial, sans-serif" font-size="14" fill="#202124">KfZ Prüfstelle KÜS Münster Volkmer &amp; Zaher</text><rect x="114" y="814.0" width="24.8" height="18" fill="#c9332c"/><text x="146.8" y="829.0" font-family="Arial, sans-serif" font-size="13" fill="#202124">1,9%  (2–5 von 183)</text><text x="72" y="865.0" text-anchor="end" font-family="Arial, sans-serif" font-size="13" fill="#83888d">15.</text><text x="114" y="846.0" font-family="Arial, sans-serif" font-size="14" fill="#202124">Annette Wanners Friseure</text><rect x="114" y="850.0" width="18.9" height="18" fill="#c9332c"/><text x="140.9" y="865.0" font-family="Arial, sans-serif" font-size="13" fill="#202124">1,4%  (1 von 69)</text><text x="72" y="901.0" text-anchor="end" font-family="Arial, sans-serif" font-size="13" fill="#83888d">16.</text><text x="114" y="882.0" font-family="Arial, sans-serif" font-size="14" fill="#202124">Löchte GmbH | Münster</text><rect x="114" y="886.0" width="12.7" height="18" fill="#c9332c"/><text x="134.7" y="901.0" font-family="Arial, sans-serif" font-size="13" fill="#202124">1,0%  (1 von 103)</text><text x="72" y="937.0" text-anchor="end" font-family="Arial, sans-serif" font-size="13" fill="#83888d">17.</text><text x="114" y="918.0" font-family="Arial, sans-serif" font-size="14" fill="#202124">El Flamenco</text><rect x="114" y="922.0" width="11.6" height="18" fill="#c9332c"/><text x="133.6" y="937.0" font-family="Arial, sans-serif" font-size="13" fill="#202124">0,9%  (11–20 von 1.744)</text><text x="72" y="973.0" text-anchor="end" font-family="Arial, sans-serif" font-size="13" fill="#83888d">18.</text><text x="114" y="954.0" font-family="Arial, sans-serif" font-size="14" fill="#202124">UNI-Polster Münster</text><rect x="114" y="958.0" width="6.5" height="18" fill="#c9332c"/><text x="128.5" y="973.0" font-family="Arial, sans-serif" font-size="13" fill="#202124">0,5%  (2–5 von 713)</text><text x="72" y="1009.0" text-anchor="end" font-family="Arial, sans-serif" font-size="13" fill="#83888d">19.</text><text x="114" y="990.0" font-family="Arial, sans-serif" font-size="14" fill="#202124">Ristorante Sapore Italiano</text><rect x="114" y="994.0" width="4.2" height="18" fill="#c9332c"/><text x="126.2" y="1009.0" font-family="Arial, sans-serif" font-size="13" fill="#202124">0,3%  (1 von 313)</text><text x="315" y="1048.0" text-anchor="middle" font-family="Arial, sans-serif" font-size="13" fill="#6f7377">Lösch-Quote (%) · Top 30</text></g><g><text x="665" y="230" font-family="Arial, sans-serif" font-size="27" font-weight="800" fill="#202124">2. Schlechtestes „echtes“ Rating</text><text x="665" y="260" font-family="Arial, sans-serif" font-size="16" fill="#6f7377">Modell: gelöschte Rezensionen waren 1★</text><rect x="665" y="322" width="470" height="708" fill="#ffffff" opacity="0.96" filter="url(#softShadow)"/><line x1="699.0" y1="322" x2="699.0" y2="1010.0" stroke="#dde3e8" stroke-width="1"/><line x1="799.5" y1="322" x2="799.5" y2="1010.0" stroke="#dde3e8" stroke-width="1"/><line x1="900.0" y1="322" x2="900.0" y2="1010.0" stroke="#dde3e8" stroke-width="1"/><line x1="1000.5" y1="322" x2="1000.5" y2="1010.0" stroke="#dde3e8" stroke-width="1"/><line x1="1101.0" y1="322" x2="1101.0" y2="1010.0" stroke="#dde3e8" stroke-width="1"/><text x="657" y="361.0" text-anchor="end" font-family="Arial, sans-serif" font-size="13" fill="#83888d">1.</text><text x="699" y="342.0" font-family="Arial, sans-serif" font-size="14" fill="#202124">Lorenz &amp; Schlotmann KIDS Club</text><rect x="699" y="346.0" width="402.0" height="18" fill="#ef7d16"/><text x="1109.0" y="361.0" font-family="Arial, sans-serif" font-size="13" fill="#202124">3,78★  (vorher 5,0★)</text><text x="657" y="397.0" text-anchor="end" font-family="Arial, sans-serif" font-size="13" fill="#83888d">2.</text><text x="699" y="378.0" font-family="Arial, sans-serif" font-size="14" fill="#202124">Kleine Riesen Münster Mecklenbeck</text><rect x="699" y="382.0" width="370.3" height="18" fill="#ef7d16"/><text x="1077.3" y="397.0" font-family="Arial, sans-serif" font-size="13" fill="#202124">3,88★  (vorher 4,1★)</text><text x="657" y="433.0" text-anchor="end" font-family="Arial, sans-serif" font-size="13" fill="#83888d">3.</text><text x="699" y="414.0" font-family="Arial, sans-serif" font-size="14" fill="#202124">ATU Münster</text><rect x="699" y="418.0" width="311.5" height="18" fill="#ef7d16"/><text x="1018.5" y="433.0" font-family="Arial, sans-serif" font-size="13" fill="#202124">4,06★  (vorher 4,2★)</text><text x="657" y="469.0" text-anchor="end" font-family="Arial, sans-serif" font-size="13" fill="#83888d">4.</text><text x="699" y="450.0" font-family="Arial, sans-serif" font-size="14" fill="#202124">Mondial Grill</text><rect x="699" y="454.0" width="293.0" height="18" fill="#ef7d16"/><text x="1000.0" y="469.0" font-family="Arial, sans-serif" font-size="13" fill="#202124">4,11★  (vorher 4,6★)</text><text x="657" y="505.0" text-anchor="end" font-family="Arial, sans-serif" font-size="13" fill="#83888d">5.</text><text x="699" y="486.0" font-family="Arial, sans-serif" font-size="14" fill="#202124">Asia Quick 4</text><rect x="699" y="490.0" width="290.7" height="18" fill="#ef7d16"/><text x="997.7" y="505.0" font-family="Arial, sans-serif" font-size="13" fill="#202124">4,12★  (vorher 4,6★)</text><text x="657" y="541.0" text-anchor="end" font-family="Arial, sans-serif" font-size="13" fill="#83888d">6.</text><text x="699" y="522.0" font-family="Arial, sans-serif" font-size="14" fill="#202124">Wanjas</text><rect x="699" y="526.0" width="222.3" height="18" fill="#ef7d16"/><text x="929.3" y="541.0" font-family="Arial, sans-serif" font-size="13" fill="#202124">4,33★  (vorher 4,7★)</text><text x="657" y="577.0" text-anchor="end" font-family="Arial, sans-serif" font-size="13" fill="#83888d">7.</text><text x="699" y="558.0" font-family="Arial, sans-serif" font-size="14" fill="#202124">Lorenz &amp; Schlotmann - Zahnmedizinische Tages…</text><rect x="699" y="562.0" width="195.9" height="18" fill="#ef7d16"/><text x="902.9" y="577.0" font-family="Arial, sans-serif" font-size="13" fill="#202124">4,41★  (vorher 5,0★)</text><text x="657" y="613.0" text-anchor="end" font-family="Arial, sans-serif" font-size="13" fill="#83888d">8.</text><text x="699" y="594.0" font-family="Arial, sans-serif" font-size="14" fill="#202124">Musti Kebab</text><rect x="699" y="598.0" width="183.0" height="18" fill="#ef7d16"/><text x="890.0" y="613.0" font-family="Arial, sans-serif" font-size="13" fill="#202124">4,45★  (vorher 4,7★)</text><text x="657" y="649.0" text-anchor="end" font-family="Arial, sans-serif" font-size="13" fill="#83888d">9.</text><text x="699" y="630.0" font-family="Arial, sans-serif" font-size="14" fill="#202124">Ristorante Sapore Italiano</text><rect x="699" y="634.0" width="135.8" height="18" fill="#ef7d16"/><text x="842.8" y="649.0" font-family="Arial, sans-serif" font-size="13" fill="#202124">4,59★  (vorher 4,6★)</text><text x="657" y="685.0" text-anchor="end" font-family="Arial, sans-serif" font-size="13" fill="#83888d">10.</text><text x="699" y="666.0" font-family="Arial, sans-serif" font-size="14" fill="#202124">Praxis Physiotherapie &amp; Fitness David Krichel</text><rect x="699" y="670.0" width="128.8" height="18" fill="#ef7d16"/><text x="835.8" y="685.0" font-family="Arial, sans-serif" font-size="13" fill="#202124">4,61★  (vorher 4,7★)</text><text x="657" y="721.0" text-anchor="end" font-family="Arial, sans-serif" font-size="13" fill="#83888d">11.</text><text x="699" y="702.0" font-family="Arial, sans-serif" font-size="14" fill="#202124">ATLAS AUTO-LEASING GmbH</text><rect x="699" y="706.0" width="122.9" height="18" fill="#ef7d16"/><text x="829.9" y="721.0" font-family="Arial, sans-serif" font-size="13" fill="#202124">4,63★  (vorher 4,8★)</text><text x="657" y="757.0" text-anchor="end" font-family="Arial, sans-serif" font-size="13" fill="#83888d">12.</text><text x="699" y="738.0" font-family="Arial, sans-serif" font-size="14" fill="#202124">Löchte GmbH | Münster</text><rect x="699" y="742.0" width="111.0" height="18" fill="#ef7d16"/><text x="818.0" y="757.0" font-family="Arial, sans-serif" font-size="13" fill="#202124">4,66★  (vorher 4,7★)</text><text x="657" y="793.0" text-anchor="end" font-family="Arial, sans-serif" font-size="13" fill="#83888d">13.</text><text x="699" y="774.0" font-family="Arial, sans-serif" font-size="14" fill="#202124">UNI-Polster Münster</text><rect x="699" y="778.0" width="105.0" height="18" fill="#ef7d16"/><text x="812.0" y="793.0" font-family="Arial, sans-serif" font-size="13" fill="#202124">4,68★  (vorher 4,7★)</text><text x="657" y="829.0" text-anchor="end" font-family="Arial, sans-serif" font-size="13" fill="#83888d">14.</text><text x="699" y="810.0" font-family="Arial, sans-serif" font-size="14" fill="#202124">Annette Wanners Friseure</text><rect x="699" y="814.0" width="83.9" height="18" fill="#ef7d16"/><text x="790.9" y="829.0" font-family="Arial, sans-serif" font-size="13" fill="#202124">4,75★  (vorher 4,8★)</text><text x="657" y="865.0" text-anchor="end" font-family="Arial, sans-serif" font-size="13" fill="#83888d">15.</text><text x="699" y="846.0" font-family="Arial, sans-serif" font-size="14" fill="#202124">El Flamenco</text><rect x="699" y="850.0" width="77.0" height="18" fill="#ef7d16"/><text x="784.0" y="865.0" font-family="Arial, sans-serif" font-size="13" fill="#202124">4,77★  (vorher 4,8★)</text><text x="657" y="901.0" text-anchor="end" font-family="Arial, sans-serif" font-size="13" fill="#83888d">16.</text><text x="699" y="882.0" font-family="Arial, sans-serif" font-size="14" fill="#202124">Hundesalon am Kölle Zoo Maja Kraus</text><rect x="699" y="886.0" width="71.7" height="18" fill="#ef7d16"/><text x="778.7" y="901.0" font-family="Arial, sans-serif" font-size="13" fill="#202124">4,78★  (vorher 4,9★)</text><text x="657" y="937.0" text-anchor="end" font-family="Arial, sans-serif" font-size="13" fill="#83888d">17.</text><text x="699" y="918.0" font-family="Arial, sans-serif" font-size="14" fill="#202124">KfZ Prüfstelle KÜS Münster Volkmer &amp; Zaher</text><rect x="699" y="922.0" width="57.1" height="18" fill="#ef7d16"/><text x="764.1" y="937.0" font-family="Arial, sans-serif" font-size="13" fill="#202124">4,83★  (vorher 4,9★)</text><text x="657" y="973.0" text-anchor="end" font-family="Arial, sans-serif" font-size="13" fill="#83888d">18.</text><text x="699" y="954.0" font-family="Arial, sans-serif" font-size="14" fill="#202124">ROJ Friseursalon</text><rect x="699" y="958.0" width="41.6" height="18" fill="#ef7d16"/><text x="748.6" y="973.0" font-family="Arial, sans-serif" font-size="13" fill="#202124">4,87★  (vorher 5,0★)</text><text x="657" y="1009.0" text-anchor="end" font-family="Arial, sans-serif" font-size="13" fill="#83888d">19.</text><text x="699" y="990.0" font-family="Arial, sans-serif" font-size="14" fill="#202124">Academy Fahrschule Gellenbeck Morsmann</text><rect x="699" y="994.0" width="33.7" height="18" fill="#ef7d16"/><text x="740.7" y="1009.0" font-family="Arial, sans-serif" font-size="13" fill="#202124">4,90★  (vorher 5,0★)</text><text x="900" y="1048.0" text-anchor="middle" font-family="Arial, sans-serif" font-size="13" fill="#6f7377">Punkte unter 5★</text></g><g><text x="1250" y="230" font-family="Arial, sans-serif" font-size="27" font-weight="800" fill="#202124">3. Beste Orte ohne Löschbanner</text><text x="1250" y="260" font-family="Arial, sans-serif" font-size="16" fill="#6f7377">kein sichtbarer Diffamierungs-Löschbanner — ab 100 Rezensionen</text><rect x="1250" y="322" width="470" height="1104" fill="#ffffff" opacity="0.96" filter="url(#softShadow)"/><line x1="1284.0" y1="322" x2="1284.0" y2="1406.0" stroke="#dde3e8" stroke-width="1"/><line x1="1384.5" y1="322" x2="1384.5" y2="1406.0" stroke="#dde3e8" stroke-width="1"/><line x1="1485.0" y1="322" x2="1485.0" y2="1406.0" stroke="#dde3e8" stroke-width="1"/><line x1="1585.5" y1="322" x2="1585.5" y2="1406.0" stroke="#dde3e8" stroke-width="1"/><line x1="1686.0" y1="322" x2="1686.0" y2="1406.0" stroke="#dde3e8" stroke-width="1"/><text x="1242" y="361.0" text-anchor="end" font-family="Arial, sans-serif" font-size="13" fill="#83888d">1.</text><text x="1284" y="342.0" font-family="Arial, sans-serif" font-size="14" fill="#202124">Sandbox VR Münster</text><rect x="1284" y="346.0" width="394.0" height="18" fill="#2e7d32"/><text x="1686.0" y="361.0" font-family="Arial, sans-serif" font-size="13" fill="#202124">4,9★  (828 Rezensionen)</text><text x="1242" y="397.0" text-anchor="end" font-family="Arial, sans-serif" font-size="13" fill="#83888d">2.</text><text x="1284" y="378.0" font-family="Arial, sans-serif" font-size="14" fill="#202124">Henry´s Poltertenne</text><rect x="1284" y="382.0" width="394.0" height="18" fill="#2e7d32"/><text x="1686.0" y="397.0" font-family="Arial, sans-serif" font-size="13" fill="#202124">4,9★  (205 Rezensionen)</text><text x="1242" y="433.0" text-anchor="end" font-family="Arial, sans-serif" font-size="13" fill="#83888d">3.</text><text x="1284" y="414.0" font-family="Arial, sans-serif" font-size="14" fill="#202124">dj-bande</text><rect x="1284" y="418.0" width="394.0" height="18" fill="#2e7d32"/><text x="1686.0" y="433.0" font-family="Arial, sans-serif" font-size="13" fill="#202124">4,9★  (175 Rezensionen)</text><text x="1242" y="469.0" text-anchor="end" font-family="Arial, sans-serif" font-size="13" fill="#83888d">4.</text><text x="1284" y="450.0" font-family="Arial, sans-serif" font-size="14" fill="#202124">Cut by Jody</text><rect x="1284" y="454.0" width="394.0" height="18" fill="#2e7d32"/><text x="1686.0" y="469.0" font-family="Arial, sans-serif" font-size="13" fill="#202124">4,9★  (163 Rezensionen)</text><text x="1242" y="505.0" text-anchor="end" font-family="Arial, sans-serif" font-size="13" fill="#83888d">5.</text><text x="1284" y="486.0" font-family="Arial, sans-serif" font-size="14" fill="#202124">Hair &amp; Beauty Inh. Igbale Mustafi-Ögrük</text><rect x="1284" y="490.0" width="394.0" height="18" fill="#2e7d32"/><text x="1686.0" y="505.0" font-family="Arial, sans-serif" font-size="13" fill="#202124">4,9★  (152 Rezensionen)</text><text x="1242" y="541.0" text-anchor="end" font-family="Arial, sans-serif" font-size="13" fill="#83888d">6.</text><text x="1284" y="522.0" font-family="Arial, sans-serif" font-size="14" fill="#202124">Haufe Michael Nordwalder Getränkehandel</text><rect x="1284" y="526.0" width="394.0" height="18" fill="#2e7d32"/><text x="1686.0" y="541.0" font-family="Arial, sans-serif" font-size="13" fill="#202124">4,9★  (128 Rezensionen)</text><text x="1242" y="577.0" text-anchor="end" font-family="Arial, sans-serif" font-size="13" fill="#83888d">7.</text><text x="1284" y="558.0" font-family="Arial, sans-serif" font-size="14" fill="#202124">DAISYBEAUTY.DE - Professionelle Wimpernverlä…</text><rect x="1284" y="562.0" width="394.0" height="18" fill="#2e7d32"/><text x="1686.0" y="577.0" font-family="Arial, sans-serif" font-size="13" fill="#202124">4,9★  (109 Rezensionen)</text><text x="1242" y="613.0" text-anchor="end" font-family="Arial, sans-serif" font-size="13" fill="#83888d">8.</text><text x="1284" y="594.0" font-family="Arial, sans-serif" font-size="14" fill="#202124">Planet Lasertag (ehemals Lasermaxx Münster)</text><rect x="1284" y="598.0" width="385.9" height="18" fill="#2e7d32"/><text x="1677.9" y="613.0" font-family="Arial, sans-serif" font-size="13" fill="#202124">4,8★  (566 Rezensionen)</text><text x="1242" y="649.0" text-anchor="end" font-family="Arial, sans-serif" font-size="13" fill="#83888d">9.</text><text x="1284" y="630.0" font-family="Arial, sans-serif" font-size="14" fill="#202124">Reifenhaus Caspar Wrede GmbH</text><rect x="1284" y="634.0" width="385.9" height="18" fill="#2e7d32"/><text x="1677.9" y="649.0" font-family="Arial, sans-serif" font-size="13" fill="#202124">4,8★  (258 Rezensionen)</text><text x="1242" y="685.0" text-anchor="end" font-family="Arial, sans-serif" font-size="13" fill="#83888d">10.</text><text x="1284" y="666.0" font-family="Arial, sans-serif" font-size="14" fill="#202124">Moe&#39;s</text><rect x="1284" y="670.0" width="385.9" height="18" fill="#2e7d32"/><text x="1677.9" y="685.0" font-family="Arial, sans-serif" font-size="13" fill="#202124">4,8★  (180 Rezensionen)</text><text x="1242" y="721.0" text-anchor="end" font-family="Arial, sans-serif" font-size="13" fill="#83888d">11.</text><text x="1284" y="702.0" font-family="Arial, sans-serif" font-size="14" fill="#202124">Wittorfer Brauerei GmbH</text><rect x="1284" y="706.0" width="385.9" height="18" fill="#2e7d32"/><text x="1677.9" y="721.0" font-family="Arial, sans-serif" font-size="13" fill="#202124">4,8★  (180 Rezensionen)</text><text x="1242" y="757.0" text-anchor="end" font-family="Arial, sans-serif" font-size="13" fill="#83888d">12.</text><text x="1284" y="738.0" font-family="Arial, sans-serif" font-size="14" fill="#202124">Praxis Bilal GmbH</text><rect x="1284" y="742.0" width="385.9" height="18" fill="#2e7d32"/><text x="1677.9" y="757.0" font-family="Arial, sans-serif" font-size="13" fill="#202124">4,8★  (108 Rezensionen)</text><text x="1242" y="793.0" text-anchor="end" font-family="Arial, sans-serif" font-size="13" fill="#83888d">13.</text><text x="1284" y="774.0" font-family="Arial, sans-serif" font-size="14" fill="#202124">Procar Automobile - Münster</text><rect x="1284" y="778.0" width="377.9" height="18" fill="#2e7d32"/><text x="1669.9" y="793.0" font-family="Arial, sans-serif" font-size="13" fill="#202124">4,7★  (1.147 Rezensionen)</text><text x="1242" y="829.0" text-anchor="end" font-family="Arial, sans-serif" font-size="13" fill="#83888d">14.</text><text x="1284" y="810.0" font-family="Arial, sans-serif" font-size="14" fill="#202124">Palmyra Grill</text><rect x="1284" y="814.0" width="377.9" height="18" fill="#2e7d32"/><text x="1669.9" y="829.0" font-family="Arial, sans-serif" font-size="13" fill="#202124">4,7★  (710 Rezensionen)</text><text x="1242" y="865.0" text-anchor="end" font-family="Arial, sans-serif" font-size="13" fill="#83888d">15.</text><text x="1284" y="846.0" font-family="Arial, sans-serif" font-size="14" fill="#202124">Hotel Brauhaus Stephanus GmbH &amp; Co. KG</text><rect x="1284" y="850.0" width="377.9" height="18" fill="#2e7d32"/><text x="1669.9" y="865.0" font-family="Arial, sans-serif" font-size="13" fill="#202124">4,7★  (497 Rezensionen)</text><text x="1242" y="901.0" text-anchor="end" font-family="Arial, sans-serif" font-size="13" fill="#83888d">16.</text><text x="1284" y="882.0" font-family="Arial, sans-serif" font-size="14" fill="#202124">Grill Point Münster</text><rect x="1284" y="886.0" width="377.9" height="18" fill="#2e7d32"/><text x="1669.9" y="901.0" font-family="Arial, sans-serif" font-size="13" fill="#202124">4,7★  (467 Rezensionen)</text><text x="1242" y="937.0" text-anchor="end" font-family="Arial, sans-serif" font-size="13" fill="#83888d">17.</text><text x="1284" y="918.0" font-family="Arial, sans-serif" font-size="14" fill="#202124">Altes Gasthaus Freitag</text><rect x="1284" y="922.0" width="377.9" height="18" fill="#2e7d32"/><text x="1669.9" y="937.0" font-family="Arial, sans-serif" font-size="13" fill="#202124">4,7★  (264 Rezensionen)</text><text x="1242" y="973.0" text-anchor="end" font-family="Arial, sans-serif" font-size="13" fill="#83888d">18.</text><text x="1284" y="954.0" font-family="Arial, sans-serif" font-size="14" fill="#202124">ASB Thier GmbH Kfz Werkstatt Münster</text><rect x="1284" y="958.0" width="377.9" height="18" fill="#2e7d32"/><text x="1669.9" y="973.0" font-family="Arial, sans-serif" font-size="13" fill="#202124">4,7★  (158 Rezensionen)</text><text x="1242" y="1009.0" text-anchor="end" font-family="Arial, sans-serif" font-size="13" fill="#83888d">19.</text><text x="1284" y="990.0" font-family="Arial, sans-serif" font-size="14" fill="#202124">Chill Out Eiscafe Albachten</text><rect x="1284" y="994.0" width="377.9" height="18" fill="#2e7d32"/><text x="1669.9" y="1009.0" font-family="Arial, sans-serif" font-size="13" fill="#202124">4,7★  (131 Rezensionen)</text><text x="1242" y="1045.0" text-anchor="end" font-family="Arial, sans-serif" font-size="13" fill="#83888d">20.</text><text x="1284" y="1026.0" font-family="Arial, sans-serif" font-size="14" fill="#202124">Hof Grothues-Potthoff</text><rect x="1284" y="1030.0" width="369.8" height="18" fill="#2e7d32"/><text x="1661.8" y="1045.0" font-family="Arial, sans-serif" font-size="13" fill="#202124">4,6★  (3.664 Rezensionen)</text><text x="1242" y="1081.0" text-anchor="end" font-family="Arial, sans-serif" font-size="13" fill="#83888d">21.</text><text x="1284" y="1062.0" font-family="Arial, sans-serif" font-size="14" fill="#202124">Steakhaus Ranch</text><rect x="1284" y="1066.0" width="369.8" height="18" fill="#2e7d32"/><text x="1661.8" y="1081.0" font-family="Arial, sans-serif" font-size="13" fill="#202124">4,6★  (682 Rezensionen)</text><text x="1242" y="1117.0" text-anchor="end" font-family="Arial, sans-serif" font-size="13" fill="#83888d">22.</text><text x="1284" y="1098.0" font-family="Arial, sans-serif" font-size="14" fill="#202124">Landhaus VIERJAHRESZEITEN Rinkerode</text><rect x="1284" y="1102.0" width="369.8" height="18" fill="#2e7d32"/><text x="1661.8" y="1117.0" font-family="Arial, sans-serif" font-size="13" fill="#202124">4,6★  (519 Rezensionen)</text><text x="1242" y="1153.0" text-anchor="end" font-family="Arial, sans-serif" font-size="13" fill="#83888d">23.</text><text x="1284" y="1134.0" font-family="Arial, sans-serif" font-size="14" fill="#202124">Ristorante Pizzeria La Posta</text><rect x="1284" y="1138.0" width="369.8" height="18" fill="#2e7d32"/><text x="1661.8" y="1153.0" font-family="Arial, sans-serif" font-size="13" fill="#202124">4,6★  (309 Rezensionen)</text><text x="1242" y="1189.0" text-anchor="end" font-family="Arial, sans-serif" font-size="13" fill="#83888d">24.</text><text x="1284" y="1170.0" font-family="Arial, sans-serif" font-size="14" fill="#202124">Akropolis Grill</text><rect x="1284" y="1174.0" width="369.8" height="18" fill="#2e7d32"/><text x="1661.8" y="1189.0" font-family="Arial, sans-serif" font-size="13" fill="#202124">4,6★  (301 Rezensionen)</text><text x="1242" y="1225.0" text-anchor="end" font-family="Arial, sans-serif" font-size="13" fill="#83888d">25.</text><text x="1284" y="1206.0" font-family="Arial, sans-serif" font-size="14" fill="#202124">Porsche Zentrum Münster</text><rect x="1284" y="1210.0" width="369.8" height="18" fill="#2e7d32"/><text x="1661.8" y="1225.0" font-family="Arial, sans-serif" font-size="13" fill="#202124">4,6★  (284 Rezensionen)</text><text x="1242" y="1261.0" text-anchor="end" font-family="Arial, sans-serif" font-size="13" fill="#83888d">26.</text><text x="1284" y="1242.0" font-family="Arial, sans-serif" font-size="14" fill="#202124">rustic - Café Restaurant Bar in Senden</text><rect x="1284" y="1246.0" width="369.8" height="18" fill="#2e7d32"/><text x="1661.8" y="1261.0" font-family="Arial, sans-serif" font-size="13" fill="#202124">4,6★  (235 Rezensionen)</text><text x="1242" y="1297.0" text-anchor="end" font-family="Arial, sans-serif" font-size="13" fill="#83888d">27.</text><text x="1284" y="1278.0" font-family="Arial, sans-serif" font-size="14" fill="#202124">Paul&#39;s Cafe</text><rect x="1284" y="1282.0" width="369.8" height="18" fill="#2e7d32"/><text x="1661.8" y="1297.0" font-family="Arial, sans-serif" font-size="13" fill="#202124">4,6★  (223 Rezensionen)</text><text x="1242" y="1333.0" text-anchor="end" font-family="Arial, sans-serif" font-size="13" fill="#83888d">28.</text><text x="1284" y="1314.0" font-family="Arial, sans-serif" font-size="14" fill="#202124">ACR Münster</text><rect x="1284" y="1318.0" width="369.8" height="18" fill="#2e7d32"/><text x="1661.8" y="1333.0" font-family="Arial, sans-serif" font-size="13" fill="#202124">4,6★  (213 Rezensionen)</text><text x="1242" y="1369.0" text-anchor="end" font-family="Arial, sans-serif" font-size="13" fill="#83888d">29.</text><text x="1284" y="1350.0" font-family="Arial, sans-serif" font-size="14" fill="#202124">Restaurant CK | Andreas Augustin</text><rect x="1284" y="1354.0" width="369.8" height="18" fill="#2e7d32"/><text x="1661.8" y="1369.0" font-family="Arial, sans-serif" font-size="13" fill="#202124">4,6★  (173 Rezensionen)</text><text x="1242" y="1405.0" text-anchor="end" font-family="Arial, sans-serif" font-size="13" fill="#83888d">30.</text><text x="1284" y="1386.0" font-family="Arial, sans-serif" font-size="14" fill="#202124">Hair 4 You Inh. Dilara Ercan</text><rect x="1284" y="1390.0" width="369.8" height="18" fill="#2e7d32"/><text x="1661.8" y="1405.0" font-family="Arial, sans-serif" font-size="13" fill="#202124">4,6★  (158 Rezensionen)</text><text x="1485" y="1444.0" text-anchor="middle" font-family="Arial, sans-serif" font-size="13" fill="#6f7377">Rating (★)</text></g><g><text x="120" y="1660" font-family="Arial, sans-serif" font-size="28" font-weight="800" fill="#202124">Verteilung der Lösch-Stufen über alle 312 Orte</text><rect x="120" y="1715" width="1540" height="560" fill="#ffffff" opacity="0.96" filter="url(#softShadow)"/><text x="150" y="1781" font-family="Arial, sans-serif" font-size="18" fill="#202124">Keine Löschung</text><rect x="450" y="1765" width="900" height="24" fill="#edf2f5"/><rect x="450" y="1765" width="900.0" height="24" fill="#2e7d32"/><text x="1380" y="1783" font-family="Arial, sans-serif" font-size="18" fill="#202124">293 (93,9%)</text><text x="150" y="1826" font-family="Arial, sans-serif" font-size="18" fill="#202124">Eine gelöscht</text><rect x="450" y="1810" width="900" height="24" fill="#edf2f5"/><rect x="450" y="1810" width="15.4" height="24" fill="#8bc34a"/><text x="1380" y="1828" font-family="Arial, sans-serif" font-size="18" fill="#202124">5 (1,6%)</text><text x="150" y="1871" font-family="Arial, sans-serif" font-size="18" fill="#202124">2–5 gelöscht</text><rect x="450" y="1855" width="900" height="24" fill="#edf2f5"/><rect x="450" y="1855" width="21.5" height="24" fill="#cddc39"/><text x="1380" y="1873" font-family="Arial, sans-serif" font-size="18" fill="#202124">7 (2,2%)</text><text x="150" y="1916" font-family="Arial, sans-serif" font-size="18" fill="#202124">6–10 gelöscht</text><rect x="450" y="1900" width="900" height="24" fill="#edf2f5"/><rect x="450" y="1900" width="3.1" height="24" fill="#ffca28"/><text x="1380" y="1918" font-family="Arial, sans-serif" font-size="18" fill="#202124">1 (0,3%)</text><text x="150" y="1961" font-family="Arial, sans-serif" font-size="18" fill="#202124">11–20 gelöscht</text><rect x="450" y="1945" width="900" height="24" fill="#edf2f5"/><rect x="450" y="1945" width="3.1" height="24" fill="#ff9f1c"/><text x="1380" y="1963" font-family="Arial, sans-serif" font-size="18" fill="#202124">1 (0,3%)</text><text x="150" y="2006" font-family="Arial, sans-serif" font-size="18" fill="#202124">21–50 gelöscht</text><rect x="450" y="1990" width="900" height="24" fill="#edf2f5"/><rect x="450" y="1990" width="15.4" height="24" fill="#ff6d00"/><text x="1380" y="2008" font-family="Arial, sans-serif" font-size="18" fill="#202124">5 (1,6%)</text><text x="150" y="2051" font-family="Arial, sans-serif" font-size="18" fill="#202124">51–100 gelöscht</text><rect x="450" y="2035" width="900" height="24" fill="#edf2f5"/><rect x="450" y="2035" width="0.0" height="24" fill="#e5391b"/><text x="1380" y="2053" font-family="Arial, sans-serif" font-size="18" fill="#202124">0 (0,0%)</text><text x="150" y="2096" font-family="Arial, sans-serif" font-size="18" fill="#202124">101–200 gelöscht</text><rect x="450" y="2080" width="900" height="24" fill="#edf2f5"/><rect x="450" y="2080" width="0.0" height="24" fill="#c62828"/><text x="1380" y="2098" font-family="Arial, sans-serif" font-size="18" fill="#202124">0 (0,0%)</text><text x="150" y="2141" font-family="Arial, sans-serif" font-size="18" fill="#202124">201–250 gelöscht</text><rect x="450" y="2125" width="900" height="24" fill="#edf2f5"/><rect x="450" y="2125" width="0.0" height="24" fill="#8e1919"/><text x="1380" y="2143" font-family="Arial, sans-serif" font-size="18" fill="#202124">0 (0,0%)</text><text x="150" y="2186" font-family="Arial, sans-serif" font-size="18" fill="#202124">Über 250 gelöscht</text><rect x="450" y="2170" width="900" height="24" fill="#edf2f5"/><rect x="450" y="2170" width="0.0" height="24" fill="#5b0f0f"/><text x="1380" y="2188" font-family="Arial, sans-serif" font-size="18" fill="#202124">0 (0,0%)</text></g><text x="40" y="2460" font-family="Arial, sans-serif" font-size="13" fill="#8a8f94">Quelle: Google Maps, öffentlich sichtbare Banner; Analyse-Snapshot 08.05.2026</text><text x="1760" y="2460" text-anchor="end" font-family="Arial, sans-serif" font-size="13" fill="#8a8f94">© <a href="https://patwoz.dev" target="_blank" style="fill:#8a8f94;text-decoration:none">Patrick Wozniak</a></text><text x="1760" y="2480" text-anchor="end" font-family="Arial, sans-serif" font-size="11" fill="#aab0b5">patwoz.dev</text></svg>
