<svg xmlns="http://www.w3.org/2000/svg" width="1800" height="2500" viewBox="0 0 1800 2500">
  <defs>
    <linearGradient id="bg" x1="0" y1="0" x2="0" y2="1"><stop offset="0%" stop-color="#d9e8f2"/><stop offset="58%" stop-color="#eef6fa"/><stop offset="100%" stop-color="#d7dde2"/></linearGradient>
    <filter id="softShadow" x="-10%" y="-10%" width="120%" height="120%"><feDropShadow dx="0" dy="8" stdDeviation="10" flood-color="#6d7f8a" flood-opacity="0.16"/></filter>
  </defs>
  <rect width="100%" height="100%" fill="url(#bg)"/>
  <circle cx="1450" cy="310" r="500" fill="#ffffff" opacity="0.18"/>
  <circle cx="260" cy="2140" r="620" fill="#ffffff" opacity="0.20"/>
  <text x="900" y="70" text-anchor="middle" font-family="Arial, sans-serif" font-size="48" font-weight="800" fill="#202124">Postleitzahl 48268 — Ibbenbüren</text>
  <text x="900" y="112" text-anchor="middle" font-family="Arial, sans-serif" font-size="22" fill="#4b5055">Google-Maps-Orte: gelöschte Rezensionen wegen „Diffamierung“</text>
  <text x="900" y="160" text-anchor="middle" font-family="Arial, sans-serif" font-size="18" fill="#6f7377">500 Orte erfasst · 17 mit sichtbarem Banner (3,4%) · 0 in der „Über“-Stufe</text><g><text x="80" y="230" font-family="Arial, sans-serif" font-size="27" font-weight="800" fill="#202124">1. Höchste Lösch-Quote</text><text x="80" y="260" font-family="Arial, sans-serif" font-size="16" fill="#6f7377">Anteil gelöschter Rezensionen</text><rect x="80" y="322" width="470" height="636" fill="#ffffff" opacity="0.96" filter="url(#softShadow)"/><line x1="114.0" y1="322" x2="114.0" y2="938.0" stroke="#dde3e8" stroke-width="1"/><line x1="214.5" y1="322" x2="214.5" y2="938.0" stroke="#dde3e8" stroke-width="1"/><line x1="315.0" y1="322" x2="315.0" y2="938.0" stroke="#dde3e8" stroke-width="1"/><line x1="415.5" y1="322" x2="415.5" y2="938.0" stroke="#dde3e8" stroke-width="1"/><line x1="516.0" y1="322" x2="516.0" y2="938.0" stroke="#dde3e8" stroke-width="1"/><text x="72" y="361.0" text-anchor="end" font-family="Arial, sans-serif" font-size="13" fill="#83888d">1.</text><text x="114" y="342.0" font-family="Arial, sans-serif" font-size="14" fill="#202124">Restaurant Einklang/Hotel Alte Post</text><rect x="114" y="346.0" width="402.0" height="18" fill="#c9332c"/><text x="524.0" y="361.0" font-family="Arial, sans-serif" font-size="13" fill="#202124">17,9%  (51–100 von 346)</text><text x="72" y="397.0" text-anchor="end" font-family="Arial, sans-serif" font-size="13" fill="#83888d">2.</text><text x="114" y="378.0" font-family="Arial, sans-serif" font-size="14" fill="#202124">wirfürdich Apotheke im Marktkauf</text><rect x="114" y="382.0" width="296.5" height="18" fill="#c9332c"/><text x="418.5" y="397.0" font-family="Arial, sans-serif" font-size="13" fill="#202124">13,2%  (2–5 von 23)</text><text x="72" y="433.0" text-anchor="end" font-family="Arial, sans-serif" font-size="13" fill="#83888d">3.</text><text x="114" y="414.0" font-family="Arial, sans-serif" font-size="14" fill="#202124">Fit4you Greven</text><rect x="114" y="418.0" width="270.7" height="18" fill="#c9332c"/><text x="392.7" y="433.0" font-family="Arial, sans-serif" font-size="13" fill="#202124">12,1%  (11–20 von 113)</text><text x="72" y="469.0" text-anchor="end" font-family="Arial, sans-serif" font-size="13" fill="#83888d">4.</text><text x="114" y="450.0" font-family="Arial, sans-serif" font-size="14" fill="#202124">Emsmarkt Emsdetten</text><rect x="114" y="454.0" width="234.6" height="18" fill="#c9332c"/><text x="356.6" y="469.0" font-family="Arial, sans-serif" font-size="13" fill="#202124">10,4%  (2–5 von 30)</text><text x="72" y="505.0" text-anchor="end" font-family="Arial, sans-serif" font-size="13" fill="#83888d">5.</text><text x="114" y="486.0" font-family="Arial, sans-serif" font-size="14" fill="#202124">Hotel Kloppenborg</text><rect x="114" y="490.0" width="215.3" height="18" fill="#c9332c"/><text x="337.3" y="505.0" font-family="Arial, sans-serif" font-size="13" fill="#202124">9,6%  (2–5 von 33)</text><text x="72" y="541.0" text-anchor="end" font-family="Arial, sans-serif" font-size="13" fill="#83888d">6.</text><text x="114" y="522.0" font-family="Arial, sans-serif" font-size="14" fill="#202124">Hotel &amp; Restaurant Kloppenborg</text><rect x="114" y="526.0" width="206.5" height="18" fill="#c9332c"/><text x="328.5" y="541.0" font-family="Arial, sans-serif" font-size="13" fill="#202124">9,2%  (11–20 von 153)</text><text x="72" y="577.0" text-anchor="end" font-family="Arial, sans-serif" font-size="13" fill="#83888d">7.</text><text x="114" y="558.0" font-family="Arial, sans-serif" font-size="14" fill="#202124">Lamolia - Schwimmkurse &amp; Reha-Sport in Greve…</text><rect x="114" y="562.0" width="172.6" height="18" fill="#c9332c"/><text x="294.6" y="577.0" font-family="Arial, sans-serif" font-size="13" fill="#202124">7,7%  (2–5 von 42)</text><text x="72" y="613.0" text-anchor="end" font-family="Arial, sans-serif" font-size="13" fill="#83888d">8.</text><text x="114" y="594.0" font-family="Arial, sans-serif" font-size="14" fill="#202124">wirfürdich Apotheke in der Rathauspassage</text><rect x="114" y="598.0" width="141.6" height="18" fill="#c9332c"/><text x="263.6" y="613.0" font-family="Arial, sans-serif" font-size="13" fill="#202124">6,3%  (2–5 von 52)</text><text x="72" y="649.0" text-anchor="end" font-family="Arial, sans-serif" font-size="13" fill="#83888d">9.</text><text x="114" y="630.0" font-family="Arial, sans-serif" font-size="14" fill="#202124">Akay Markt</text><rect x="114" y="634.0" width="139.2" height="18" fill="#c9332c"/><text x="261.2" y="649.0" font-family="Arial, sans-serif" font-size="13" fill="#202124">6,2%  (6–10 von 121)</text><text x="72" y="685.0" text-anchor="end" font-family="Arial, sans-serif" font-size="13" fill="#83888d">10.</text><text x="114" y="666.0" font-family="Arial, sans-serif" font-size="14" fill="#202124">Eventlocation Dillmanns Speicher</text><rect x="114" y="670.0" width="60.6" height="18" fill="#c9332c"/><text x="182.6" y="685.0" font-family="Arial, sans-serif" font-size="13" fill="#202124">2,7%  (2–5 von 126)</text><text x="72" y="721.0" text-anchor="end" font-family="Arial, sans-serif" font-size="13" fill="#83888d">11.</text><text x="114" y="702.0" font-family="Arial, sans-serif" font-size="14" fill="#202124">Fisch und Mehr am Rathaus</text><rect x="114" y="706.0" width="46.5" height="18" fill="#c9332c"/><text x="168.5" y="721.0" font-family="Arial, sans-serif" font-size="13" fill="#202124">2,1%  (6–10 von 378)</text><text x="72" y="757.0" text-anchor="end" font-family="Arial, sans-serif" font-size="13" fill="#83888d">12.</text><text x="114" y="738.0" font-family="Arial, sans-serif" font-size="14" fill="#202124">Ferienpark Westheide</text><rect x="114" y="742.0" width="45.3" height="18" fill="#c9332c"/><text x="167.3" y="757.0" font-family="Arial, sans-serif" font-size="13" fill="#202124">2,0%  (6–10 von 389)</text><text x="72" y="793.0" text-anchor="end" font-family="Arial, sans-serif" font-size="13" fill="#83888d">13.</text><text x="114" y="774.0" font-family="Arial, sans-serif" font-size="14" fill="#202124">DUC DAO SALON</text><rect x="114" y="778.0" width="42.0" height="18" fill="#c9332c"/><text x="164.0" y="793.0" font-family="Arial, sans-serif" font-size="13" fill="#202124">1,9%  (2–5 von 184)</text><text x="72" y="829.0" text-anchor="end" font-family="Arial, sans-serif" font-size="13" fill="#83888d">14.</text><text x="114" y="810.0" font-family="Arial, sans-serif" font-size="14" fill="#202124">MR-Shop GmbH</text><rect x="114" y="814.0" width="38.8" height="18" fill="#c9332c"/><text x="160.8" y="829.0" font-family="Arial, sans-serif" font-size="13" fill="#202124">1,7%  (6–10 von 455)</text><text x="72" y="865.0" text-anchor="end" font-family="Arial, sans-serif" font-size="13" fill="#83888d">15.</text><text x="114" y="846.0" font-family="Arial, sans-serif" font-size="14" fill="#202124">Landhaus Bruckmann</text><rect x="114" y="850.0" width="24.9" height="18" fill="#c9332c"/><text x="146.9" y="865.0" font-family="Arial, sans-serif" font-size="13" fill="#202124">1,1%  (2–5 von 313)</text><text x="72" y="901.0" text-anchor="end" font-family="Arial, sans-serif" font-size="13" fill="#83888d">16.</text><text x="114" y="882.0" font-family="Arial, sans-serif" font-size="14" fill="#202124">Waldhaus an de Miälkwellen</text><rect x="114" y="886.0" width="22.0" height="18" fill="#c9332c"/><text x="144.0" y="901.0" font-family="Arial, sans-serif" font-size="13" fill="#202124">1,0%  (2–5 von 353)</text><text x="72" y="937.0" text-anchor="end" font-family="Arial, sans-serif" font-size="13" fill="#83888d">17.</text><text x="114" y="918.0" font-family="Arial, sans-serif" font-size="14" fill="#202124">Power Sports Greven</text><rect x="114" y="922.0" width="18.0" height="18" fill="#c9332c"/><text x="140.0" y="937.0" font-family="Arial, sans-serif" font-size="13" fill="#202124">0,8%  (1 von 124)</text><text x="315" y="976.0" text-anchor="middle" font-family="Arial, sans-serif" font-size="13" fill="#6f7377">Lösch-Quote (%) · Top 30</text></g><g><text x="665" y="230" font-family="Arial, sans-serif" font-size="27" font-weight="800" fill="#202124">2. Schlechtestes „echtes“ Rating</text><text x="665" y="260" font-family="Arial, sans-serif" font-size="16" fill="#6f7377">Modell: gelöschte Rezensionen waren 1★</text><rect x="665" y="322" width="470" height="636" fill="#ffffff" opacity="0.96" filter="url(#softShadow)"/><line x1="699.0" y1="322" x2="699.0" y2="938.0" stroke="#dde3e8" stroke-width="1"/><line x1="799.5" y1="322" x2="799.5" y2="938.0" stroke="#dde3e8" stroke-width="1"/><line x1="900.0" y1="322" x2="900.0" y2="938.0" stroke="#dde3e8" stroke-width="1"/><line x1="1000.5" y1="322" x2="1000.5" y2="938.0" stroke="#dde3e8" stroke-width="1"/><line x1="1101.0" y1="322" x2="1101.0" y2="938.0" stroke="#dde3e8" stroke-width="1"/><text x="657" y="361.0" text-anchor="end" font-family="Arial, sans-serif" font-size="13" fill="#83888d">1.</text><text x="699" y="342.0" font-family="Arial, sans-serif" font-size="14" fill="#202124">Restaurant Einklang/Hotel Alte Post</text><rect x="699" y="346.0" width="387.1" height="18" fill="#ef7d16"/><text x="1094.1" y="361.0" font-family="Arial, sans-serif" font-size="13" fill="#202124">4,04★  (vorher 4,7★)</text><text x="657" y="397.0" text-anchor="end" font-family="Arial, sans-serif" font-size="13" fill="#83888d">2.</text><text x="699" y="378.0" font-family="Arial, sans-serif" font-size="14" fill="#202124">Hotel Kloppenborg</text><rect x="699" y="382.0" width="336.1" height="18" fill="#ef7d16"/><text x="1043.1" y="397.0" font-family="Arial, sans-serif" font-size="13" fill="#202124">4,16★  (vorher 4,5★)</text><text x="657" y="433.0" text-anchor="end" font-family="Arial, sans-serif" font-size="13" fill="#83888d">3.</text><text x="699" y="414.0" font-family="Arial, sans-serif" font-size="14" fill="#202124">Hotel &amp; Restaurant Kloppenborg</text><rect x="699" y="418.0" width="330.4" height="18" fill="#ef7d16"/><text x="1037.4" y="433.0" font-family="Arial, sans-serif" font-size="13" fill="#202124">4,18★  (vorher 4,5★)</text><text x="657" y="469.0" text-anchor="end" font-family="Arial, sans-serif" font-size="13" fill="#83888d">4.</text><text x="699" y="450.0" font-family="Arial, sans-serif" font-size="14" fill="#202124">Akay Markt</text><rect x="699" y="454.0" width="288.2" height="18" fill="#ef7d16"/><text x="995.2" y="469.0" font-family="Arial, sans-serif" font-size="13" fill="#202124">4,28★  (vorher 4,5★)</text><text x="657" y="505.0" text-anchor="end" font-family="Arial, sans-serif" font-size="13" fill="#83888d">5.</text><text x="699" y="486.0" font-family="Arial, sans-serif" font-size="14" fill="#202124">Fit4you Greven</text><rect x="699" y="490.0" width="264.5" height="18" fill="#ef7d16"/><text x="971.5" y="505.0" font-family="Arial, sans-serif" font-size="13" fill="#202124">4,34★  (vorher 4,8★)</text><text x="657" y="541.0" text-anchor="end" font-family="Arial, sans-serif" font-size="13" fill="#83888d">6.</text><text x="699" y="522.0" font-family="Arial, sans-serif" font-size="14" fill="#202124">Eventlocation Dillmanns Speicher</text><rect x="699" y="526.0" width="239.2" height="18" fill="#ef7d16"/><text x="946.2" y="541.0" font-family="Arial, sans-serif" font-size="13" fill="#202124">4,41★  (vorher 4,5★)</text><text x="657" y="577.0" text-anchor="end" font-family="Arial, sans-serif" font-size="13" fill="#83888d">7.</text><text x="699" y="558.0" font-family="Arial, sans-serif" font-size="14" fill="#202124">Ferienpark Westheide</text><rect x="699" y="562.0" width="229.5" height="18" fill="#ef7d16"/><text x="936.5" y="577.0" font-family="Arial, sans-serif" font-size="13" fill="#202124">4,43★  (vorher 4,5★)</text><text x="657" y="613.0" text-anchor="end" font-family="Arial, sans-serif" font-size="13" fill="#83888d">8.</text><text x="699" y="594.0" font-family="Arial, sans-serif" font-size="14" fill="#202124">wirfürdich Apotheke im Marktkauf</text><rect x="699" y="598.0" width="212.3" height="18" fill="#ef7d16"/><text x="919.3" y="613.0" font-family="Arial, sans-serif" font-size="13" fill="#202124">4,47★  (vorher 5,0★)</text><text x="657" y="649.0" text-anchor="end" font-family="Arial, sans-serif" font-size="13" fill="#83888d">9.</text><text x="699" y="630.0" font-family="Arial, sans-serif" font-size="14" fill="#202124">Emsmarkt Emsdetten</text><rect x="699" y="634.0" width="203.8" height="18" fill="#ef7d16"/><text x="910.8" y="649.0" font-family="Arial, sans-serif" font-size="13" fill="#202124">4,49★  (vorher 4,9★)</text><text x="657" y="685.0" text-anchor="end" font-family="Arial, sans-serif" font-size="13" fill="#83888d">10.</text><text x="699" y="666.0" font-family="Arial, sans-serif" font-size="14" fill="#202124">wirfürdich Apotheke in der Rathauspassage</text><rect x="699" y="670.0" width="176.9" height="18" fill="#ef7d16"/><text x="883.9" y="685.0" font-family="Arial, sans-serif" font-size="13" fill="#202124">4,56★  (vorher 4,8★)</text><text x="657" y="721.0" text-anchor="end" font-family="Arial, sans-serif" font-size="13" fill="#83888d">11.</text><text x="699" y="702.0" font-family="Arial, sans-serif" font-size="14" fill="#202124">Lamolia - Schwimmkurse &amp; Reha-Sport in Greve…</text><rect x="699" y="706.0" width="160.8" height="18" fill="#ef7d16"/><text x="867.8" y="721.0" font-family="Arial, sans-serif" font-size="13" fill="#202124">4,60★  (vorher 4,9★)</text><text x="657" y="757.0" text-anchor="end" font-family="Arial, sans-serif" font-size="13" fill="#83888d">12.</text><text x="699" y="738.0" font-family="Arial, sans-serif" font-size="14" fill="#202124">Waldhaus an de Miälkwellen</text><rect x="699" y="742.0" width="135.1" height="18" fill="#ef7d16"/><text x="842.1" y="757.0" font-family="Arial, sans-serif" font-size="13" fill="#202124">4,66★  (vorher 4,7★)</text><text x="657" y="793.0" text-anchor="end" font-family="Arial, sans-serif" font-size="13" fill="#83888d">13.</text><text x="699" y="774.0" font-family="Arial, sans-serif" font-size="14" fill="#202124">Fisch und Mehr am Rathaus</text><rect x="699" y="778.0" width="112.2" height="18" fill="#ef7d16"/><text x="819.2" y="793.0" font-family="Arial, sans-serif" font-size="13" fill="#202124">4,72★  (vorher 4,8★)</text><text x="657" y="829.0" text-anchor="end" font-family="Arial, sans-serif" font-size="13" fill="#83888d">14.</text><text x="699" y="810.0" font-family="Arial, sans-serif" font-size="14" fill="#202124">Landhaus Bruckmann</text><rect x="699" y="814.0" width="97.3" height="18" fill="#ef7d16"/><text x="804.3" y="829.0" font-family="Arial, sans-serif" font-size="13" fill="#202124">4,76★  (vorher 4,8★)</text><text x="657" y="865.0" text-anchor="end" font-family="Arial, sans-serif" font-size="13" fill="#83888d">15.</text><text x="699" y="846.0" font-family="Arial, sans-serif" font-size="14" fill="#202124">Power Sports Greven</text><rect x="699" y="850.0" width="92.5" height="18" fill="#ef7d16"/><text x="799.5" y="865.0" font-family="Arial, sans-serif" font-size="13" fill="#202124">4,77★  (vorher 4,8★)</text><text x="657" y="901.0" text-anchor="end" font-family="Arial, sans-serif" font-size="13" fill="#83888d">16.</text><text x="699" y="882.0" font-family="Arial, sans-serif" font-size="14" fill="#202124">MR-Shop GmbH</text><rect x="699" y="886.0" width="67.1" height="18" fill="#ef7d16"/><text x="774.1" y="901.0" font-family="Arial, sans-serif" font-size="13" fill="#202124">4,83★  (vorher 4,9★)</text><text x="657" y="937.0" text-anchor="end" font-family="Arial, sans-serif" font-size="13" fill="#83888d">17.</text><text x="699" y="918.0" font-family="Arial, sans-serif" font-size="14" fill="#202124">DUC DAO SALON</text><rect x="699" y="922.0" width="30.2" height="18" fill="#ef7d16"/><text x="737.2" y="937.0" font-family="Arial, sans-serif" font-size="13" fill="#202124">4,92★  (vorher 5,0★)</text><text x="900" y="976.0" text-anchor="middle" font-family="Arial, sans-serif" font-size="13" fill="#6f7377">Punkte unter 5★</text></g><g><text x="1250" y="230" font-family="Arial, sans-serif" font-size="27" font-weight="800" fill="#202124">3. Beste Orte ohne Löschbanner</text><text x="1250" y="260" font-family="Arial, sans-serif" font-size="16" fill="#6f7377">kein sichtbarer Diffamierungs-Löschbanner — ab 100 Rezensionen</text><rect x="1250" y="322" width="470" height="1104" fill="#ffffff" opacity="0.96" filter="url(#softShadow)"/><line x1="1284.0" y1="322" x2="1284.0" y2="1406.0" stroke="#dde3e8" stroke-width="1"/><line x1="1384.5" y1="322" x2="1384.5" y2="1406.0" stroke="#dde3e8" stroke-width="1"/><line x1="1485.0" y1="322" x2="1485.0" y2="1406.0" stroke="#dde3e8" stroke-width="1"/><line x1="1585.5" y1="322" x2="1585.5" y2="1406.0" stroke="#dde3e8" stroke-width="1"/><line x1="1686.0" y1="322" x2="1686.0" y2="1406.0" stroke="#dde3e8" stroke-width="1"/><text x="1242" y="361.0" text-anchor="end" font-family="Arial, sans-serif" font-size="13" fill="#83888d">1.</text><text x="1284" y="342.0" font-family="Arial, sans-serif" font-size="14" fill="#202124">Ali&#39;s Cut &amp; Style</text><rect x="1284" y="346.0" width="402.0" height="18" fill="#2e7d32"/><text x="1694.0" y="361.0" font-family="Arial, sans-serif" font-size="13" fill="#202124">5,0★  (136 Rezensionen)</text><text x="1242" y="397.0" text-anchor="end" font-family="Arial, sans-serif" font-size="13" fill="#83888d">2.</text><text x="1284" y="378.0" font-family="Arial, sans-serif" font-size="14" fill="#202124">Münsterland Plus Garten- und Landschaftsgest…</text><rect x="1284" y="382.0" width="402.0" height="18" fill="#2e7d32"/><text x="1694.0" y="397.0" font-family="Arial, sans-serif" font-size="13" fill="#202124">5,0★  (104 Rezensionen)</text><text x="1242" y="433.0" text-anchor="end" font-family="Arial, sans-serif" font-size="13" fill="#83888d">3.</text><text x="1284" y="414.0" font-family="Arial, sans-serif" font-size="14" fill="#202124">Sorglos-Kaffee</text><rect x="1284" y="418.0" width="394.0" height="18" fill="#2e7d32"/><text x="1686.0" y="433.0" font-family="Arial, sans-serif" font-size="13" fill="#202124">4,9★  (534 Rezensionen)</text><text x="1242" y="469.0" text-anchor="end" font-family="Arial, sans-serif" font-size="13" fill="#83888d">4.</text><text x="1284" y="450.0" font-family="Arial, sans-serif" font-size="14" fill="#202124">BIERZWERG | DIE GETRÄNKEKÖNNER</text><rect x="1284" y="454.0" width="394.0" height="18" fill="#2e7d32"/><text x="1686.0" y="469.0" font-family="Arial, sans-serif" font-size="13" fill="#202124">4,9★  (280 Rezensionen)</text><text x="1242" y="505.0" text-anchor="end" font-family="Arial, sans-serif" font-size="13" fill="#83888d">5.</text><text x="1284" y="486.0" font-family="Arial, sans-serif" font-size="14" fill="#202124">Andre Strotmann</text><rect x="1284" y="490.0" width="394.0" height="18" fill="#2e7d32"/><text x="1686.0" y="505.0" font-family="Arial, sans-serif" font-size="13" fill="#202124">4,9★  (238 Rezensionen)</text><text x="1242" y="541.0" text-anchor="end" font-family="Arial, sans-serif" font-size="13" fill="#83888d">6.</text><text x="1284" y="522.0" font-family="Arial, sans-serif" font-size="14" fill="#202124">Cucina Avanti - Mobiler Cateringservice</text><rect x="1284" y="526.0" width="394.0" height="18" fill="#2e7d32"/><text x="1686.0" y="541.0" font-family="Arial, sans-serif" font-size="13" fill="#202124">4,9★  (217 Rezensionen)</text><text x="1242" y="577.0" text-anchor="end" font-family="Arial, sans-serif" font-size="13" fill="#83888d">7.</text><text x="1284" y="558.0" font-family="Arial, sans-serif" font-size="14" fill="#202124">Deltha Fitness Club Greven</text><rect x="1284" y="562.0" width="394.0" height="18" fill="#2e7d32"/><text x="1686.0" y="577.0" font-family="Arial, sans-serif" font-size="13" fill="#202124">4,9★  (204 Rezensionen)</text><text x="1242" y="613.0" text-anchor="end" font-family="Arial, sans-serif" font-size="13" fill="#83888d">8.</text><text x="1284" y="594.0" font-family="Arial, sans-serif" font-size="14" fill="#202124">Klemens Geuker-Wiedemann | Landgasthof &amp; Spi…</text><rect x="1284" y="598.0" width="394.0" height="18" fill="#2e7d32"/><text x="1686.0" y="613.0" font-family="Arial, sans-serif" font-size="13" fill="#202124">4,9★  (129 Rezensionen)</text><text x="1242" y="649.0" text-anchor="end" font-family="Arial, sans-serif" font-size="13" fill="#83888d">9.</text><text x="1284" y="630.0" font-family="Arial, sans-serif" font-size="14" fill="#202124">Trattoria il Gusto-nero</text><rect x="1284" y="634.0" width="394.0" height="18" fill="#2e7d32"/><text x="1686.0" y="649.0" font-family="Arial, sans-serif" font-size="13" fill="#202124">4,9★  (119 Rezensionen)</text><text x="1242" y="685.0" text-anchor="end" font-family="Arial, sans-serif" font-size="13" fill="#83888d">10.</text><text x="1284" y="666.0" font-family="Arial, sans-serif" font-size="14" fill="#202124">clever fit Emsdetten</text><rect x="1284" y="670.0" width="385.9" height="18" fill="#2e7d32"/><text x="1677.9" y="685.0" font-family="Arial, sans-serif" font-size="13" fill="#202124">4,8★  (713 Rezensionen)</text><text x="1242" y="721.0" text-anchor="end" font-family="Arial, sans-serif" font-size="13" fill="#83888d">11.</text><text x="1284" y="702.0" font-family="Arial, sans-serif" font-size="14" fill="#202124">Railand Raiffeisen AG Raiffeisen-Markt Alten…</text><rect x="1284" y="706.0" width="385.9" height="18" fill="#2e7d32"/><text x="1677.9" y="721.0" font-family="Arial, sans-serif" font-size="13" fill="#202124">4,8★  (175 Rezensionen)</text><text x="1242" y="757.0" text-anchor="end" font-family="Arial, sans-serif" font-size="13" fill="#83888d">12.</text><text x="1284" y="738.0" font-family="Arial, sans-serif" font-size="14" fill="#202124">Bäckerei Ackermann</text><rect x="1284" y="742.0" width="385.9" height="18" fill="#2e7d32"/><text x="1677.9" y="757.0" font-family="Arial, sans-serif" font-size="13" fill="#202124">4,8★  (151 Rezensionen)</text><text x="1242" y="793.0" text-anchor="end" font-family="Arial, sans-serif" font-size="13" fill="#83888d">13.</text><text x="1284" y="774.0" font-family="Arial, sans-serif" font-size="14" fill="#202124">Linderskamp&#39;s Hof</text><rect x="1284" y="778.0" width="385.9" height="18" fill="#2e7d32"/><text x="1677.9" y="793.0" font-family="Arial, sans-serif" font-size="13" fill="#202124">4,8★  (129 Rezensionen)</text><text x="1242" y="829.0" text-anchor="end" font-family="Arial, sans-serif" font-size="13" fill="#83888d">14.</text><text x="1284" y="810.0" font-family="Arial, sans-serif" font-size="14" fill="#202124">M. Kirst</text><rect x="1284" y="814.0" width="385.9" height="18" fill="#2e7d32"/><text x="1677.9" y="829.0" font-family="Arial, sans-serif" font-size="13" fill="#202124">4,8★  (122 Rezensionen)</text><text x="1242" y="865.0" text-anchor="end" font-family="Arial, sans-serif" font-size="13" fill="#83888d">15.</text><text x="1284" y="846.0" font-family="Arial, sans-serif" font-size="14" fill="#202124">Shisha Shop Greven</text><rect x="1284" y="850.0" width="385.9" height="18" fill="#2e7d32"/><text x="1677.9" y="865.0" font-family="Arial, sans-serif" font-size="13" fill="#202124">4,8★  (114 Rezensionen)</text><text x="1242" y="901.0" text-anchor="end" font-family="Arial, sans-serif" font-size="13" fill="#83888d">16.</text><text x="1284" y="882.0" font-family="Arial, sans-serif" font-size="14" fill="#202124">Friseur Abeler</text><rect x="1284" y="886.0" width="385.9" height="18" fill="#2e7d32"/><text x="1677.9" y="901.0" font-family="Arial, sans-serif" font-size="13" fill="#202124">4,8★  (109 Rezensionen)</text><text x="1242" y="937.0" text-anchor="end" font-family="Arial, sans-serif" font-size="13" fill="#83888d">17.</text><text x="1284" y="918.0" font-family="Arial, sans-serif" font-size="14" fill="#202124">Münsterländer Speisekammer</text><rect x="1284" y="922.0" width="385.9" height="18" fill="#2e7d32"/><text x="1677.9" y="937.0" font-family="Arial, sans-serif" font-size="13" fill="#202124">4,8★  (101 Rezensionen)</text><text x="1242" y="973.0" text-anchor="end" font-family="Arial, sans-serif" font-size="13" fill="#83888d">18.</text><text x="1284" y="954.0" font-family="Arial, sans-serif" font-size="14" fill="#202124">Landhaus Eggert</text><rect x="1284" y="958.0" width="377.9" height="18" fill="#2e7d32"/><text x="1669.9" y="973.0" font-family="Arial, sans-serif" font-size="13" fill="#202124">4,7★  (965 Rezensionen)</text><text x="1242" y="1009.0" text-anchor="end" font-family="Arial, sans-serif" font-size="13" fill="#83888d">19.</text><text x="1284" y="990.0" font-family="Arial, sans-serif" font-size="14" fill="#202124">Ristorante e Pizzeria Etna</text><rect x="1284" y="994.0" width="377.9" height="18" fill="#2e7d32"/><text x="1669.9" y="1009.0" font-family="Arial, sans-serif" font-size="13" fill="#202124">4,7★  (761 Rezensionen)</text><text x="1242" y="1045.0" text-anchor="end" font-family="Arial, sans-serif" font-size="13" fill="#83888d">20.</text><text x="1284" y="1026.0" font-family="Arial, sans-serif" font-size="14" fill="#202124">Pizzeria Milano</text><rect x="1284" y="1030.0" width="377.9" height="18" fill="#2e7d32"/><text x="1669.9" y="1045.0" font-family="Arial, sans-serif" font-size="13" fill="#202124">4,7★  (520 Rezensionen)</text><text x="1242" y="1081.0" text-anchor="end" font-family="Arial, sans-serif" font-size="13" fill="#83888d">21.</text><text x="1284" y="1062.0" font-family="Arial, sans-serif" font-size="14" fill="#202124">Bockholter Berge</text><rect x="1284" y="1066.0" width="377.9" height="18" fill="#2e7d32"/><text x="1669.9" y="1081.0" font-family="Arial, sans-serif" font-size="13" fill="#202124">4,7★  (351 Rezensionen)</text><text x="1242" y="1117.0" text-anchor="end" font-family="Arial, sans-serif" font-size="13" fill="#83888d">22.</text><text x="1284" y="1098.0" font-family="Arial, sans-serif" font-size="14" fill="#202124">Stullenschmiede</text><rect x="1284" y="1102.0" width="377.9" height="18" fill="#2e7d32"/><text x="1669.9" y="1117.0" font-family="Arial, sans-serif" font-size="13" fill="#202124">4,7★  (303 Rezensionen)</text><text x="1242" y="1153.0" text-anchor="end" font-family="Arial, sans-serif" font-size="13" fill="#83888d">23.</text><text x="1284" y="1134.0" font-family="Arial, sans-serif" font-size="14" fill="#202124">Hotel Zur Krone by Daniel</text><rect x="1284" y="1138.0" width="377.9" height="18" fill="#2e7d32"/><text x="1669.9" y="1153.0" font-family="Arial, sans-serif" font-size="13" fill="#202124">4,7★  (262 Rezensionen)</text><text x="1242" y="1189.0" text-anchor="end" font-family="Arial, sans-serif" font-size="13" fill="#83888d">24.</text><text x="1284" y="1170.0" font-family="Arial, sans-serif" font-size="14" fill="#202124">Harveys | Restaurant &amp; Café</text><rect x="1284" y="1174.0" width="377.9" height="18" fill="#2e7d32"/><text x="1669.9" y="1189.0" font-family="Arial, sans-serif" font-size="13" fill="#202124">4,7★  (261 Rezensionen)</text><text x="1242" y="1225.0" text-anchor="end" font-family="Arial, sans-serif" font-size="13" fill="#83888d">25.</text><text x="1284" y="1206.0" font-family="Arial, sans-serif" font-size="14" fill="#202124">Istanbul Style</text><rect x="1284" y="1210.0" width="377.9" height="18" fill="#2e7d32"/><text x="1669.9" y="1225.0" font-family="Arial, sans-serif" font-size="13" fill="#202124">4,7★  (226 Rezensionen)</text><text x="1242" y="1261.0" text-anchor="end" font-family="Arial, sans-serif" font-size="13" fill="#83888d">26.</text><text x="1284" y="1242.0" font-family="Arial, sans-serif" font-size="14" fill="#202124">MX Park</text><rect x="1284" y="1246.0" width="377.9" height="18" fill="#2e7d32"/><text x="1669.9" y="1261.0" font-family="Arial, sans-serif" font-size="13" fill="#202124">4,7★  (213 Rezensionen)</text><text x="1242" y="1297.0" text-anchor="end" font-family="Arial, sans-serif" font-size="13" fill="#83888d">27.</text><text x="1284" y="1278.0" font-family="Arial, sans-serif" font-size="14" fill="#202124">Pizza u. Co.</text><rect x="1284" y="1282.0" width="377.9" height="18" fill="#2e7d32"/><text x="1669.9" y="1297.0" font-family="Arial, sans-serif" font-size="13" fill="#202124">4,7★  (183 Rezensionen)</text><text x="1242" y="1333.0" text-anchor="end" font-family="Arial, sans-serif" font-size="13" fill="#83888d">28.</text><text x="1284" y="1314.0" font-family="Arial, sans-serif" font-size="14" fill="#202124">Stadtfriseur</text><rect x="1284" y="1318.0" width="377.9" height="18" fill="#2e7d32"/><text x="1669.9" y="1333.0" font-family="Arial, sans-serif" font-size="13" fill="#202124">4,7★  (170 Rezensionen)</text><text x="1242" y="1369.0" text-anchor="end" font-family="Arial, sans-serif" font-size="13" fill="#83888d">29.</text><text x="1284" y="1350.0" font-family="Arial, sans-serif" font-size="14" fill="#202124">Lena´s Friseursalon</text><rect x="1284" y="1354.0" width="377.9" height="18" fill="#2e7d32"/><text x="1669.9" y="1369.0" font-family="Arial, sans-serif" font-size="13" fill="#202124">4,7★  (132 Rezensionen)</text><text x="1242" y="1405.0" text-anchor="end" font-family="Arial, sans-serif" font-size="13" fill="#83888d">30.</text><text x="1284" y="1386.0" font-family="Arial, sans-serif" font-size="14" fill="#202124">Injoy Gym and Swim im Hallenbad Greven</text><rect x="1284" y="1390.0" width="377.9" height="18" fill="#2e7d32"/><text x="1669.9" y="1405.0" font-family="Arial, sans-serif" font-size="13" fill="#202124">4,7★  (131 Rezensionen)</text><text x="1485" y="1444.0" text-anchor="middle" font-family="Arial, sans-serif" font-size="13" fill="#6f7377">Rating (★)</text></g><g><text x="120" y="1660" font-family="Arial, sans-serif" font-size="28" font-weight="800" fill="#202124">Verteilung der Lösch-Stufen über alle 500 Orte</text><rect x="120" y="1715" width="1540" height="560" fill="#ffffff" opacity="0.96" filter="url(#softShadow)"/><text x="150" y="1781" font-family="Arial, sans-serif" font-size="18" fill="#202124">Keine Löschung</text><rect x="450" y="1765" width="900" height="24" fill="#edf2f5"/><rect x="450" y="1765" width="900.0" height="24" fill="#2e7d32"/><text x="1380" y="1783" font-family="Arial, sans-serif" font-size="18" fill="#202124">483 (96,6%)</text><text x="150" y="1826" font-family="Arial, sans-serif" font-size="18" fill="#202124">Eine gelöscht</text><rect x="450" y="1810" width="900" height="24" fill="#edf2f5"/><rect x="450" y="1810" width="1.9" height="24" fill="#8bc34a"/><text x="1380" y="1828" font-family="Arial, sans-serif" font-size="18" fill="#202124">1 (0,2%)</text><text x="150" y="1871" font-family="Arial, sans-serif" font-size="18" fill="#202124">2–5 gelöscht</text><rect x="450" y="1855" width="900" height="24" fill="#edf2f5"/><rect x="450" y="1855" width="16.8" height="24" fill="#cddc39"/><text x="1380" y="1873" font-family="Arial, sans-serif" font-size="18" fill="#202124">9 (1,8%)</text><text x="150" y="1916" font-family="Arial, sans-serif" font-size="18" fill="#202124">6–10 gelöscht</text><rect x="450" y="1900" width="900" height="24" fill="#edf2f5"/><rect x="450" y="1900" width="7.5" height="24" fill="#ffca28"/><text x="1380" y="1918" font-family="Arial, sans-serif" font-size="18" fill="#202124">4 (0,8%)</text><text x="150" y="1961" font-family="Arial, sans-serif" font-size="18" fill="#202124">11–20 gelöscht</text><rect x="450" y="1945" width="900" height="24" fill="#edf2f5"/><rect x="450" y="1945" width="3.7" height="24" fill="#ff9f1c"/><text x="1380" y="1963" font-family="Arial, sans-serif" font-size="18" fill="#202124">2 (0,4%)</text><text x="150" y="2006" font-family="Arial, sans-serif" font-size="18" fill="#202124">21–50 gelöscht</text><rect x="450" y="1990" width="900" height="24" fill="#edf2f5"/><rect x="450" y="1990" width="0.0" height="24" fill="#ff6d00"/><text x="1380" y="2008" font-family="Arial, sans-serif" font-size="18" fill="#202124">0 (0,0%)</text><text x="150" y="2051" font-family="Arial, sans-serif" font-size="18" fill="#202124">51–100 gelöscht</text><rect x="450" y="2035" width="900" height="24" fill="#edf2f5"/><rect x="450" y="2035" width="1.9" height="24" fill="#e5391b"/><text x="1380" y="2053" font-family="Arial, sans-serif" font-size="18" fill="#202124">1 (0,2%)</text><text x="150" y="2096" font-family="Arial, sans-serif" font-size="18" fill="#202124">101–200 gelöscht</text><rect x="450" y="2080" width="900" height="24" fill="#edf2f5"/><rect x="450" y="2080" width="0.0" height="24" fill="#c62828"/><text x="1380" y="2098" font-family="Arial, sans-serif" font-size="18" fill="#202124">0 (0,0%)</text><text x="150" y="2141" font-family="Arial, sans-serif" font-size="18" fill="#202124">201–250 gelöscht</text><rect x="450" y="2125" width="900" height="24" fill="#edf2f5"/><rect x="450" y="2125" width="0.0" height="24" fill="#8e1919"/><text x="1380" y="2143" font-family="Arial, sans-serif" font-size="18" fill="#202124">0 (0,0%)</text><text x="150" y="2186" font-family="Arial, sans-serif" font-size="18" fill="#202124">Über 250 gelöscht</text><rect x="450" y="2170" width="900" height="24" fill="#edf2f5"/><rect x="450" y="2170" width="0.0" height="24" fill="#5b0f0f"/><text x="1380" y="2188" font-family="Arial, sans-serif" font-size="18" fill="#202124">0 (0,0%)</text></g><text x="40" y="2460" font-family="Arial, sans-serif" font-size="13" fill="#8a8f94">Quelle: Google Maps, öffentlich sichtbare Banner; Analyse-Snapshot 08.05.2026</text><text x="1760" y="2460" text-anchor="end" font-family="Arial, sans-serif" font-size="13" fill="#8a8f94">© <a href="https://patwoz.dev" target="_blank" style="fill:#8a8f94;text-decoration:none">Patrick Wozniak</a></text><text x="1760" y="2480" text-anchor="end" font-family="Arial, sans-serif" font-size="11" fill="#aab0b5">patwoz.dev</text></svg>
